/* XPM */
static char * backwards_right_xpm[] = {
"32 32 353 2",
"  	c None",
". 	c #712926",
"+ 	c #702A27",
"@ 	c #654A46",
"# 	c #654B47",
"$ 	c #674340",
"% 	c #6E2E2B",
"& 	c #6B3632",
"* 	c #654945",
"= 	c #644945",
"- 	c #70524D",
"; 	c #825F58",
"> 	c #87645C",
", 	c #855C55",
"' 	c #7F4640",
") 	c #814E47",
"! 	c #86625A",
"~ 	c #86635B",
"{ 	c #7B5B54",
"] 	c #694D49",
"^ 	c #644A46",
"/ 	c #634945",
"( 	c #5C4341",
"_ 	c #684C48",
": 	c #795952",
"< 	c #8A655D",
"[ 	c #926B62",
"} 	c #966F65",
"| 	c #956B62",
"1 	c #8D5D55",
"2 	c #906259",
"3 	c #976F65",
"4 	c #956E64",
"5 	c #8F6960",
"6 	c #7F5D56",
"7 	c #73544F",
"8 	c #614744",
"9 	c #6A4D49",
"0 	c #775751",
"a 	c #87635B",
"b 	c #906A61",
"c 	c #9B7469",
"d 	c #92635A",
"e 	c #76322E",
"f 	c #80443E",
"g 	c #997065",
"h 	c #9A7268",
"i 	c #936C63",
"j 	c #8D675F",
"k 	c #815F58",
"l 	c #7A5953",
"m 	c #89645C",
"n 	c #916B62",
"o 	c #966E65",
"p 	c #997166",
"q 	c #9B7268",
"r 	c #9F766B",
"s 	c #9B6E64",
"t 	c #8C564F",
"u 	c #925F56",
"v 	c #9F7469",
"w 	c #9D7469",
"x 	c #9A7267",
"y 	c #987066",
"z 	c #946D64",
"A 	c #8E6960",
"B 	c #846159",
"C 	c #5F4542",
"D 	c #815E57",
"E 	c #836059",
"F 	c #916A61",
"G 	c #9F756A",
"H 	c #A1776C",
"I 	c #9B6E63",
"J 	c #8B544D",
"K 	c #905D55",
"L 	c #9F746A",
"M 	c #9E746A",
"N 	c #8B665D",
"O 	c #815F57",
"P 	c #805E57",
"Q 	c #795953",
"R 	c #7B5A53",
"S 	c #8C675F",
"T 	c #9A7167",
"U 	c #9B7267",
"V 	c #9E756A",
"W 	c #9C7065",
"X 	c #905C54",
"Y 	c #94635A",
"Z 	c #836058",
"` 	c #765650",
" .	c #7E5C55",
"..	c #71534D",
"+.	c #624844",
"@.	c #73554F",
"#.	c #7A5A53",
"$.	c #8C675E",
"%.	c #956D64",
"&.	c #966960",
"*.	c #864D46",
"=.	c #8C574F",
"-.	c #9A7066",
";.	c #997167",
">.	c #926C62",
",.	c #7B5A54",
"'.	c #6C4F4B",
").	c #5E4542",
"!.	c #6C4F4A",
"~.	c #795852",
"{.	c #936D64",
"].	c #8D625A",
"^.	c #7E453F",
"/.	c #834F48",
"(.	c #936D63",
"_.	c #8E6860",
":.	c #85625A",
"<.	c #74554F",
"[.	c #5D4441",
"}.	c #674B47",
"|.	c #765751",
"1.	c #835F57",
"2.	c #805A53",
"3.	c #815C55",
"4.	c #805E56",
"5.	c #785852",
"6.	c #5E4645",
"7.	c #4B3C4D",
"8.	c #403651",
"9.	c #423852",
"0.	c #413752",
"a.	c #413750",
"b.	c #534049",
"c.	c #342D48",
"d.	c #3A324F",
"e.	c #3B3458",
"f.	c #3B355C",
"g.	c #3B355B",
"h.	c #3B3454",
"i.	c #38314C",
"j.	c #312B46",
"k.	c #5F4643",
"l.	c #5A4342",
"m.	c #483948",
"n.	c #363151",
"o.	c #39345A",
"p.	c #3D375E",
"q.	c #3F3861",
"r.	c #403A63",
"s.	c #413A64",
"t.	c #403963",
"u.	c #3E3860",
"v.	c #3C365D",
"w.	c #373257",
"x.	c #3B334E",
"y.	c #523E44",
"z.	c #5D4442",
"A.	c #604643",
"B.	c #654A45",
"C.	c #4A3A47",
"D.	c #433C68",
"E.	c #453E6B",
"F.	c #443D6A",
"G.	c #423B66",
"H.	c #3F3962",
"I.	c #363256",
"J.	c #3C334D",
"K.	c #564044",
"L.	c #6F514B",
"M.	c #7C5B54",
"N.	c #6B4F4A",
"O.	c #8E685F",
"P.	c #694D48",
"Q.	c #493A46",
"R.	c #393459",
"S.	c #3F3961",
"T.	c #443D69",
"U.	c #494272",
"V.	c #4B4375",
"W.	c #463F6D",
"X.	c #484070",
"Y.	c #4B4376",
"Z.	c #47406F",
"`.	c #3B334D",
" +	c #554044",
".+	c #795951",
"++	c #946D63",
"@+	c #88645C",
"#+	c #614743",
"$+	c #936C62",
"%+	c #6B4E49",
"&+	c #4A3A46",
"*+	c #4A4273",
"=+	c #484170",
"-+	c #4C4476",
";+	c #363156",
">+	c #7C5B53",
",+	c #8B665E",
"'+	c #664B47",
")+	c #785851",
"!+	c #8F685E",
"~+	c #8D685F",
"{+	c #604848",
"]+	c #433648",
"^+	c #383254",
"/+	c #484171",
"(+	c #463E6C",
"_+	c #473F6E",
":+	c #423C67",
"<+	c #383359",
"[+	c #3B3350",
"}+	c #4C3B44",
"|+	c #735551",
"1+	c #956D63",
"2+	c #856159",
"3+	c #4C3B42",
"4+	c #635058",
"5+	c #675563",
"6+	c #3B344E",
"7+	c #322E50",
"8+	c #403962",
"9+	c #433C69",
"0+	c #302C4B",
"a+	c #4C4156",
"b+	c #6D5964",
"c+	c #58464D",
"d+	c #363042",
"e+	c #3B3B56",
"f+	c #3D4063",
"g+	c #373455",
"h+	c #383255",
"i+	c #413A65",
"j+	c #423B67",
"k+	c #363153",
"l+	c #3D3C5E",
"m+	c #454767",
"n+	c #3B374E",
"o+	c #694D47",
"p+	c #7A5950",
"q+	c #745655",
"r+	c #343056",
"s+	c #433C67",
"t+	c #3A355B",
"u+	c #342F53",
"v+	c #624D5A",
"w+	c #7D5B53",
"x+	c #694C48",
"y+	c #7C5A53",
"z+	c #725552",
"A+	c #53404B",
"B+	c #41364F",
"C+	c #3A3357",
"D+	c #393357",
"E+	c #3B355A",
"F+	c #3A3358",
"G+	c #383357",
"H+	c #3C3454",
"I+	c #46394C",
"J+	c #684F53",
"K+	c #88645B",
"L+	c #755650",
"M+	c #674C48",
"N+	c #614846",
"O+	c #48393F",
"P+	c #363348",
"Q+	c #2D3255",
"R+	c #2B3256",
"S+	c #303255",
"T+	c #373255",
"U+	c #393255",
"V+	c #393256",
"W+	c #353255",
"X+	c #2B3257",
"Y+	c #303251",
"Z+	c #3C3442",
"`+	c #554143",
" @	c #6E514B",
".@	c #6A4E49",
"+@	c #27273B",
"@@	c #232B49",
"#@	c #25345B",
"$@	c #253863",
"%@	c #273964",
"&@	c #2B3761",
"*@	c #2C3762",
"=@	c #2B3760",
"-@	c #2B3459",
";@	c #2B355C",
">@	c #2B3762",
",@	c #2C3761",
"'@	c #293862",
")@	c #263965",
"!@	c #253862",
"~@	c #243256",
"{@	c #232741",
"]@	c #24253B",
"^@	c #252E4D",
"/@	c #253A67",
"(@	c #264075",
"_@	c #254177",
":@	c #253D6E",
"<@	c #242D4C",
"[@	c #242B48",
"}@	c #242C48",
"|@	c #242F50",
"1@	c #243864",
"2@	c #233D70",
"3@	c #243C6D",
"4@	c #243258",
"5@	c #252A45",
"6@	c #25253B",
"7@	c #243C6E",
"8@	c #24427D",
"9@	c #244078",
"0@	c #243762",
"a@	c #242C4A",
"b@	c #24253A",
"c@	c #29283D",
"d@	c #4C424E",
"e@	c #625159",
"f@	c #5D4E57",
"g@	c #3C3647",
"h@	c #23243A",
"i@	c #3D3646",
"j@	c #635158",
"k@	c #7B6469",
"l@	c #7B6368",
"m@	c #634F54",
"n@	c #3D3544",
"o@	c #23253B",
"p@	c #4D3B42",
"q@	c #4B3A5E",
"r@	c #4A396F",
"s@	c #4A396C",
"t@	c #4C3B51",
"u@	c #4E3C3D",
"v@	c #503D3D",
"w@	c #4B3A51",
"x@	c #48386F",
"y@	c #503E81",
"z@	c #483870",
"A@	c #4B3A52",
"B@	c #302B40",
"C@	c #332C59",
"D@	c #352C68",
"E@	c #342C65",
"F@	c #322C4E",
"G@	c #2F2B3C",
"H@	c #302B4D",
"I@	c #382E73",
"J@	c #272741",
"K@	c #272641",
"L@	c #262640",
"                                                                ",
"                                .                               ",
"                                +                               ",
"                          @ # $ % & * #                         ",
"                    = @ - ; > , ' ) ! ~ { ] ^ /                 ",
"                ( _ : ; < [ } | 1 2 3 4 5 ~ 6 7 8               ",
"                9 0 a b 4 3 c d e f g h } i j k -               ",
"              = l m n o p q r s t u v w x y z A B - C           ",
"              = : D E F q G H I J K L H M y N O P - C           ",
"              = Q R 0 S T U V W X Y L w x 3 Z `  ...C           ",
"              +.@.#. .$.%.3 h &.*.=.-.;.} >.! ,.l '.).          ",
"                / !.~.P m F {.].^./.F (._.:. .<._               ",
"                [.}.<.|.R ; B 1.2.3.E B 4.5.` - 8               ",
"                    6.7.8.9.9.9.9.9.9.9.0.a.b.8                 ",
"                  c.d.e.f.f.f.f.f.f.f.f.f.g.h.i.j.              ",
"              k.l.m.n.o.p.p.q.r.r.s.t.u.p.v.w.x.y.z.A.          ",
"          +.<.l B.C.n.o.u.r.D.E.F.E.E.G.H.p.I.J.K.L.M.N.        ",
"        }.M.b O.P.Q.n.R.S.T.U.V.W.X.Y.Z.G.p.I.`. +.+++@+@.#+    ",
"        }. .z $+%+&+n.R.S.F.*+V.W.=+-+Z.G.p.;+`.K.>+;.,+<.#+    ",
"        '+)+!+~+{+]+^+g.t.F./+*+(+Z.*+_+:+u.<+[+}+|+1+2+-       ",
"          3+4+5+6+7+p.8+G.F.E.F.F.F.F.E.9+s.q.R.0+a+b+c+        ",
"          d+e+f+g+h+p.H.i+D.F.E.E.E.F.T.j+s.u.g.k+l+m+n+        ",
"          o+p+q+9.r+p.q.8+t.G.D.D.D.s+i+t.H.u.t+u+v+1+w+x+      ",
"        ^ <.y+z+A+B+C+D+E+u.q.q.q.q.q.q.p.F+G+H+I+J+,+K+L+#+    ",
"          M+P.N+O+P+Q+R+S+T+U+V+V+V+U+U+W+Q+X+Y+Z+`+N. @.@      ",
"                +@@@#@$@%@&@*@=@-@;@>@,@'@)@!@~@{@              ",
"                ]@^@/@(@_@:@#@<@[@}@|@1@2@3@4@5@                ",
"                6@|@7@8@9@0@a@b@    c@d@e@f@g@h@                ",
"                ]@i@j@k@l@m@n@o@    p@q@r@s@t@u@                ",
"                v@w@x@y@y@z@A@v@    B@C@D@E@F@G@                ",
"                  H@E@I@I@E@H@          J@K@                    ",
"                    L@K@K@L@                                    "};
