/* XPM */
static char * backwards_left_xpm[] = {
"32 32 347 2",
"  	c None",
". 	c #712926",
"+ 	c #6F2B28",
"@ 	c #694D48",
"# 	c #6B504B",
"$ 	c #6B4D49",
"% 	c #6D3733",
"& 	c #6E2E2B",
"* 	c #6C4743",
"= 	c #6A4E49",
"- 	c #674C47",
"; 	c #6B4E4A",
"> 	c #70524D",
", 	c #805E57",
"' 	c #8B665E",
") 	c #8C675E",
"! 	c #895952",
"~ 	c #87544D",
"{ 	c #8C635B",
"] 	c #8C685F",
"^ 	c #86635B",
"/ 	c #765651",
"( 	c #6C4F4A",
"_ 	c #624844",
": 	c #755650",
"< 	c #836058",
"[ 	c #8B665D",
"} 	c #926B62",
"| 	c #976F65",
"1 	c #8A5850",
"2 	c #854F48",
"3 	c #94685F",
"4 	c #987167",
"5 	c #946D63",
"6 	c #8E685F",
"7 	c #86625B",
"8 	c #7C5B54",
"9 	c #5C4441",
"0 	c #6B4F4A",
"a 	c #795953",
"b 	c #87635B",
"c 	c #906A61",
"d 	c #956E64",
"e 	c #9A7268",
"f 	c #9B7167",
"g 	c #81453F",
"h 	c #773430",
"i 	c #94655C",
"j 	c #9C756A",
"k 	c #987066",
"l 	c #966F65",
"m 	c #936C62",
"n 	c #7F5D56",
"o 	c #71534E",
"p 	c #5F4542",
"q 	c #836059",
"r 	c #8D685F",
"s 	c #936C63",
"t 	c #9C7368",
"u 	c #9F756A",
"v 	c #996A61",
"w 	c #96665D",
"x 	c #9D7267",
"y 	c #9F766B",
"z 	c #9D7469",
"A 	c #9A7167",
"B 	c #88645C",
"C 	c #644945",
"D 	c #7E5D56",
"E 	c #7A5A53",
"F 	c #86625A",
"G 	c #9E7469",
"H 	c #A0776C",
"I 	c #89524B",
"J 	c #986A60",
"K 	c #A1786D",
"L 	c #9B7268",
"M 	c #7D5C55",
"N 	c #5E4542",
"O 	c #775751",
"P 	c #836159",
"Q 	c #966E65",
"R 	c #9A6C62",
"S 	c #98695F",
"T 	c #9D7268",
"U 	c #9C7369",
"V 	c #8D675F",
"W 	c #795952",
"X 	c #7B5A53",
"Y 	c #785852",
"Z 	c #694D49",
"` 	c #74554F",
" .	c #7B5A54",
"..	c #85615A",
"+.	c #8E6960",
"@.	c #966D64",
"#.	c #834A44",
"$.	c #7B3C38",
"%.	c #90635A",
"&.	c #966E64",
"*.	c #916B61",
"=.	c #89655C",
"-.	c #6E514C",
";.	c #71534D",
">.	c #7A5952",
",.	c #805E56",
"'.	c #8A655C",
").	c #8F695F",
"!.	c #8E675E",
"~.	c #86574F",
"{.	c #83514A",
"].	c #8B635A",
"^.	c #8F6960",
"/.	c #8D675E",
"(.	c #846058",
"_.	c #6D504A",
":.	c #6A4F4D",
"<.	c #634B50",
"[.	c #674E53",
"}.	c #6A5055",
"|.	c #6A5054",
"1.	c #695054",
"2.	c #644C51",
"3.	c #664D4E",
"4.	c #6E504B",
"5.	c #684C46",
"6.	c #4B3B46",
"7.	c #44384D",
"8.	c #373255",
"9.	c #353156",
"0.	c #363155",
"a.	c #3E3551",
"b.	c #4B3B48",
"c.	c #3F3445",
"d.	c #36304E",
"e.	c #373257",
"f.	c #3C365E",
"g.	c #3D375E",
"h.	c #3E3860",
"i.	c #3E375F",
"j.	c #3A345A",
"k.	c #353052",
"l.	c #3C3248",
"m.	c #453642",
"n.	c #6D504B",
"o.	c #574144",
"p.	c #3C334D",
"q.	c #363257",
"r.	c #3C365D",
"s.	c #403963",
"t.	c #423B67",
"u.	c #433C68",
"v.	c #433C67",
"w.	c #413A64",
"x.	c #3D375F",
"y.	c #39345A",
"z.	c #363151",
"A.	c #4C3B47",
"B.	c #634843",
"C.	c #6D4F4A",
"D.	c #6A4D49",
"E.	c #7D5B55",
"F.	c #8B675E",
"G.	c #76564F",
"H.	c #554044",
"I.	c #363256",
"J.	c #413A65",
"K.	c #453E6C",
"L.	c #494172",
"M.	c #47406E",
"N.	c #463E6C",
"O.	c #494171",
"P.	c #47406F",
"Q.	c #3F3861",
"R.	c #4A3A46",
"S.	c #684C47",
"T.	c #85625A",
"U.	c #72544E",
"V.	c #614743",
"W.	c #745550",
"X.	c #997167",
"Y.	c #7C5B53",
"Z.	c #3B334D",
"`.	c #4C4476",
" +	c #484170",
".+	c #463F6D",
"++	c #4B4375",
"@+	c #4A4273",
"#+	c #443D6A",
"$+	c #3F3962",
"%+	c #393459",
"&+	c #493946",
"*+	c #956D64",
"=+	c #7E5C56",
"-+	c #674B47",
";+	c #544044",
">+	c #423B66",
",+	c #4B4476",
"'+	c #484070",
")+	c #494273",
"!+	c #363152",
"~+	c #684D48",
"{+	c #7C5B55",
"]+	c #70534F",
"^+	c #896762",
"/+	c #5D4953",
"(+	c #342E48",
"_+	c #393357",
":+	c #453E6B",
"<+	c #413B65",
"[+	c #3C365C",
"}+	c #342E4D",
"|+	c #45394A",
"1+	c #806160",
"2+	c #7E5E58",
"3+	c #604745",
"4+	c #31324E",
"5+	c #364069",
"6+	c #35385D",
"7+	c #3B355B",
"8+	c #3F3860",
"9+	c #443E6B",
"0+	c #443D69",
"a+	c #373154",
"b+	c #343255",
"c+	c #353E67",
"d+	c #323859",
"e+	c #2E2C42",
"f+	c #71544F",
"g+	c #8B6863",
"h+	c #5E4B5B",
"i+	c #343053",
"j+	c #3A355B",
"k+	c #3F3961",
"l+	c #413852",
"m+	c #6E5457",
"n+	c #5F4644",
"o+	c #88645B",
"p+	c #8F6961",
"q+	c #644D56",
"r+	c #3E344F",
"s+	c #3B3458",
"t+	c #3B355A",
"u+	c #403962",
"v+	c #3B3453",
"w+	c #4B3C4F",
"x+	c #725554",
"y+	c #7D5B54",
"z+	c #73544E",
"A+	c #644946",
"B+	c #6F514C",
"C+	c #765650",
"D+	c #73544F",
"E+	c #5F4746",
"F+	c #463943",
"G+	c #353350",
"H+	c #2E3054",
"I+	c #313154",
"J+	c #373357",
"K+	c #3B3459",
"L+	c #3A3459",
"M+	c #393458",
"N+	c #333255",
"O+	c #2F3154",
"P+	c #313153",
"Q+	c #3F3648",
"R+	c #533F41",
"S+	c #674C49",
"T+	c #634945",
"U+	c #352E3C",
"V+	c #232741",
"W+	c #243256",
"X+	c #253761",
"Y+	c #263862",
"Z+	c #2C365E",
"`+	c #2F345A",
" @	c #2E3256",
".@	c #2E3255",
"+@	c #2E3257",
"@@	c #2E355C",
"#@	c #2F355C",
"$@	c #283760",
"%@	c #25345B",
"&@	c #232B49",
"*@	c #2A283C",
"=@	c #252C4A",
"-@	c #243257",
";@	c #233865",
">@	c #223867",
",@	c #23355E",
"'@	c #242E4F",
")@	c #252D4B",
"!@	c #252E4D",
"~@	c #253153",
"{@	c #253760",
"]@	c #253D6E",
"^@	c #254075",
"/@	c #263E72",
"(@	c #253964",
"_@	c #252D4C",
":@	c #24253B",
"<@	c #22243A",
"[@	c #383345",
"}@	c #534752",
"|@	c #574A54",
"1@	c #453D4B",
"2@	c #28283D",
"3@	c #242439",
"4@	c #242C4A",
"5@	c #224079",
"6@	c #22417D",
"7@	c #233C6E",
"8@	c #242F50",
"9@	c #25253B",
"0@	c #49393D",
"a@	c #4C3B50",
"b@	c #503D68",
"c@	c #513E6B",
"d@	c #4E3C5B",
"e@	c #4A3A42",
"f@	c #22243B",
"g@	c #3A3444",
"h@	c #5C4C55",
"i@	c #715F69",
"j@	c #71606B",
"k@	c #5C4F5A",
"l@	c #3A3547",
"m@	c #23243B",
"n@	c #342E3C",
"o@	c #342D4F",
"p@	c #352C67",
"q@	c #352C6B",
"r@	c #342D5B",
"s@	c #342E41",
"t@	c #4D3B3D",
"u@	c #4B3A50",
"v@	c #4D3B6D",
"w@	c #58437E",
"x@	c #58427E",
"y@	c #4C3B3D",
"z@	c #272742",
"A@	c #282743",
"B@	c #302C3C",
"C@	c #312C4D",
"D@	c #342C66",
"E@	c #382E75",
"F@	c #272641",
"                                                                ",
"                                                                ",
"                              .                                 ",
"                              +                                 ",
"                      @ # $ % & * # =                           ",
"                - ; > , ' ) ! ~ { ] ^ / ( @                     ",
"              _ : < [ } | | 1 2 3 4 5 6 7 8 @ 9                 ",
"            0 a b c d | e f g h i j k l m ' n o                 ",
"          p > q r s k t u u v w x y z A d c B a C               ",
"          p > D E F | G H G I g J K u L 6 8 M a C               ",
"          N > M O P Q k L G R S T U k k V W X Y C               ",
"          N Z `  ...+.5 k @.#.$.%.4 &.*.=.n O -._               ",
"              _ ;.>.,.'.).!.~.{.].^./.(.8 : - N                 ",
"                _.:.<.[.}.|.|.}.|.}.1.2.3.4.5.                  ",
"                6.7.8.9.0.0.0.0.0.0.0.9.a.b.                    ",
"              c.d.e.f.g.g.h.h.h.h.i.g.g.j.k.l.m.                ",
"          n.5.o.p.q.r.h.s.t.u.u.v.w.h.x.y.z.A.B.C.D.            ",
"      n.E.F.G.H.p.I.g.J.K.L.M.N.O.P.v.Q.y.z.R.S.b T.U.          ",
"    V.W.) X.Y.H.Z.I.g.t.P.`. +.+++@+#+$+%+z.&+= m *+=+-+        ",
"    V.` =.d W ;+Z.I.g.>+P.,+'+.+++)+#+$+y.!+&+~+^.*.{+-+        ",
"        ]+^+/+(+_+x.s.u.:+K.:+:+K.K.#+<+Q.[+}+|+1+2+3+          ",
"        4+5+6+k.7+8+w.u.#+#+:+:+9+#+0+>+$+g.a+b+c+d+e+          ",
"        f+g+h+i+j+h.s.s.>+0+#+#+#+v.w.s.k+g.9.l+m+f+n+          ",
"    V.W.o+p+q+r+s+t+7+h.s.u+u+u+u+s.$+r.t+t+v+w+x+y+z+A+        ",
"      B+C+D+E+F+G+H+I+J+K+L+L+L+L+K+M+N+O+P+Q+R+S+B+( T+        ",
"            U+V+W+X+Y+Z+`+ @.@+@@@#@@@$@X+%@&@*@                ",
"                =@-@;@>@,@'@)@!@~@{@]@^@/@(@_@:@                ",
"                <@[@}@|@1@2@    3@4@;@5@6@7@8@9@                ",
"                0@a@b@c@d@e@    f@g@h@i@j@k@l@m@                ",
"                n@o@p@q@r@s@    t@u@v@w@x@v@u@y@                ",
"                    z@A@        B@C@D@E@E@D@C@B@                ",
"                                    F@z@z@F@                    "};
