/* XPM */
static char * backwards_xpm[] = {
"32 32 344 2",
"  	c #C8A2C8",
". 	c #712926",
"+ 	c #6F2B28",
"@ 	c #664B47",
"# 	c #694D49",
"$ 	c #684B47",
"% 	c #6C3633",
"& 	c #6E2E2B",
"* 	c #6A4541",
"= 	c #684E4A",
"- 	c #684C48",
"; 	c #6E504B",
"> 	c #7E5D56",
", 	c #89655D",
"' 	c #8A655D",
") 	c #86554E",
"! 	c #844F48",
"~ 	c #896058",
"{ 	c #8A665E",
"] 	c #85615A",
"^ 	c #74554F",
"/ 	c #674B47",
"( 	c #624844",
"_ 	c #745550",
": 	c #815F58",
"< 	c #916A61",
"[ 	c #966F65",
"} 	c #976F65",
"| 	c #8C5B53",
"1 	c #88544C",
"2 	c #946960",
"3 	c #977066",
"4 	c #936C63",
"5 	c #8C675F",
"6 	c #7B5A54",
"7 	c #684D48",
"8 	c #5C4341",
"9 	c #765751",
"0 	c #85625A",
"a 	c #8F6960",
"b 	c #956D64",
"c 	c #9A7268",
"d 	c #9B7166",
"e 	c #81443F",
"f 	c #76332F",
"g 	c #93645B",
"h 	c #9C746A",
"i 	c #966E65",
"j 	c #926B62",
"k 	c #7C5B55",
"l 	c #6E514C",
"m 	c #5F4542",
"n 	c #70524D",
"o 	c #846159",
"p 	c #8E685F",
"q 	c #946D63",
"r 	c #987066",
"s 	c #9B7268",
"t 	c #9E756A",
"u 	c #9F756A",
"v 	c #97685E",
"w 	c #94635A",
"x 	c #9D7167",
"y 	c #9F766B",
"z 	c #9D7369",
"A 	c #9A7167",
"B 	c #966E64",
"C 	c #906A61",
"D 	c #88645C",
"E 	c #795953",
"F 	c #644945",
"G 	c #7F5D56",
"H 	c #7C5B54",
"I 	c #87635B",
"J 	c #9E7469",
"K 	c #A1776C",
"L 	c #9F7469",
"M 	c #8B544C",
"N 	c #834741",
"O 	c #996B61",
"P 	c #A1786C",
"Q 	c #8E6960",
"R 	c #7D5C55",
"S 	c #7E5C55",
"T 	c #795952",
"U 	c #836059",
"V 	c #997066",
"W 	c #9E746A",
"X 	c #996B62",
"Y 	c #9D7267",
"Z 	c #9D7469",
"` 	c #997166",
" .	c #785852",
"..	c #7B5A53",
"+.	c #5E4542",
"@.	c #6A4E49",
"#.	c #765650",
"$.	c #987167",
"%.	c #976E64",
"&.	c #844C45",
"*.	c #7D3F39",
"=.	c #91645B",
"-.	c #997268",
";.	c #634845",
">.	c #71534D",
",.	c #7A5A53",
"'.	c #815E57",
").	c #8A665D",
"!.	c #8F6A60",
"~.	c #86564E",
"{.	c #824F48",
"].	c #8C635A",
"^.	c #8D685F",
"/.	c #856159",
"(.	c #7D5B54",
"_.	c #634844",
":.	c #6D514E",
"<.	c #684E50",
"[.	c #6D5254",
"}.	c #705455",
"|.	c #705355",
"1.	c #6F5455",
"2.	c #6A4F51",
"3.	c #6A4F4F",
"4.	c #6F524C",
"5.	c #684C47",
"6.	c #503D45",
"7.	c #47394C",
"8.	c #373254",
"9.	c #363154",
"0.	c #363155",
"a.	c #3F3650",
"b.	c #4F3D47",
"c.	c #483841",
"d.	c #3C3245",
"e.	c #35304E",
"f.	c #373257",
"g.	c #3C365D",
"h.	c #3D375E",
"i.	c #3E3860",
"j.	c #3D375F",
"k.	c #3A345A",
"l.	c #353052",
"m.	c #393148",
"n.	c #423542",
"o.	c #6B4E4A",
"p.	c #674B45",
"q.	c #574144",
"r.	c #3C334D",
"s.	c #363257",
"t.	c #3E375F",
"u.	c #3F3962",
"v.	c #423B66",
"w.	c #423B67",
"x.	c #403A64",
"y.	c #39345A",
"z.	c #363151",
"A.	c #4C3B47",
"B.	c #624843",
"C.	c #75554E",
"D.	c #554044",
"E.	c #363256",
"F.	c #413A64",
"G.	c #453E6B",
"H.	c #484171",
"I.	c #473F6E",
"J.	c #453E6C",
"K.	c #3F3861",
"L.	c #4A3A47",
"M.	c #674C47",
"N.	c #836058",
"O.	c #634945",
"P.	c #614743",
"Q.	c #8C675E",
"R.	c #997167",
"S.	c #7C5A53",
"T.	c #3B334D",
"U.	c #48406F",
"V.	c #4C4476",
"W.	c #484170",
"X.	c #463F6D",
"Y.	c #4B4375",
"Z.	c #4A4273",
"`.	c #443D6A",
" +	c #393459",
".+	c #493946",
"++	c #926C62",
"@+	c #946D64",
"#+	c #7E5C56",
"$+	c #7A5952",
"%+	c #47406F",
"&+	c #493A46",
"*+	c #6A4D48",
"=+	c #906960",
"-+	c #604744",
";+	c #8E6962",
">+	c #614B52",
",+	c #362F47",
"'+	c #393356",
")+	c #403963",
"!+	c #433C68",
"~+	c #463F6C",
"{+	c #413A65",
"]+	c #3B355B",
"^+	c #352F4C",
"/+	c #493B4A",
"(+	c #84635F",
"_+	c #826059",
":+	c #644A47",
"<+	c #31334E",
"[+	c #374069",
"}+	c #35385D",
"|+	c #342F51",
"1+	c #373154",
"2+	c #343255",
"3+	c #374068",
"4+	c #34395A",
"5+	c #2F2C42",
"6+	c #5A4342",
"7+	c #6C514E",
"8+	c #866663",
"9+	c #5C4A5B",
"0+	c #353053",
"a+	c #3A355B",
"b+	c #443D69",
"c+	c #433C67",
"d+	c #343055",
"e+	c #453B55",
"f+	c #7D6063",
"g+	c #7A5C58",
"h+	c #5D4544",
"i+	c #88645B",
"j+	c #906A62",
"k+	c #634D57",
"l+	c #3B3350",
"m+	c #3B3459",
"n+	c #3B355C",
"o+	c #3C365C",
"p+	c #403962",
"q+	c #393253",
"r+	c #4D3E52",
"s+	c #846360",
"t+	c #8F695F",
"u+	c #795852",
"v+	c #624947",
"w+	c #4A3A44",
"x+	c #363350",
"y+	c #303054",
"z+	c #323153",
"A+	c #383358",
"B+	c #3B355A",
"C+	c #3A3459",
"D+	c #303053",
"E+	c #413748",
"F+	c #584243",
"G+	c #70534E",
"H+	c #755650",
"I+	c #382F3C",
"J+	c #242841",
"K+	c #253155",
"L+	c #25365F",
"M+	c #263660",
"N+	c #2D355B",
"O+	c #303459",
"P+	c #30345A",
"Q+	c #303357",
"R+	c #303256",
"S+	c #2F345A",
"T+	c #28365E",
"U+	c #253660",
"V+	c #25345B",
"W+	c #232B49",
"X+	c #2C293C",
"Y+	c #252942",
"Z+	c #263C6C",
"`+	c #253F73",
" @	c #253E71",
".@	c #253A68",
"+@	c #253052",
"@@	c #252F50",
"#@	c #253357",
"$@	c #253863",
"%@	c #253D6E",
"&@	c #263E70",
"*@	c #252D4B",
"=@	c #24253B",
"-@	c #242A45",
";@	c #233864",
">@	c #224079",
",@	c #22417E",
"'@	c #223B6F",
")@	c #233157",
"!@	c #24263E",
"~@	c #242539",
"{@	c #242C4B",
"]@	c #233866",
"^@	c #223F7A",
"/@	c #22417D",
"(@	c #233C6E",
"_@	c #242F50",
":@	c #25253B",
"<@	c #2C2C41",
"[@	c #4B4454",
"}@	c #625867",
"|@	c #6B5F6F",
"1@	c #5E525E",
"2@	c #443C4B",
"3@	c #28283E",
"4@	c #22243B",
"5@	c #373344",
"6@	c #554A55",
"7@	c #685C6A",
"8@	c #685D6D",
"9@	c #554D5C",
"0@	c #373448",
"a@	c #4A3A45",
"b@	c #4F3C60",
"c@	c #5A4476",
"d@	c #634A7F",
"e@	c #584272",
"f@	c #4E3C5B",
"g@	c #4A3A42",
"h@	c #49393D",
"i@	c #4C3B4F",
"j@	c #523F6A",
"k@	c #60487C",
"l@	c #523E6A",
"m@	c #4C3A4F",
"n@	c #342D44",
"o@	c #342D60",
"p@	c #372D74",
"q@	c #392F7B",
"r@	c #362D70",
"s@	c #342D5A",
"t@	c #342E40",
"u@	c #342E3C",
"v@	c #342D4E",
"w@	c #352D69",
"x@	c #382E78",
"y@	c #272742",
"z@	c #282745",
"A@	c #282746",
"B@	c #282744",
"C@	c #272743",
"                                                                ",
"                              .                                 ",
"                              +                                 ",
"                      @ # $ % & * = -                           ",
"                @ - ; > , ' ) ! ~ { ] ^ # /                     ",
"              ( _ : , < [ } | 1 2 3 4 5 ] 6 7 8                 ",
"            # 9 0 a b } c d e f g h } i j ' k l (               ",
"          m n o p q r s t u v w x y z A B C D E F               ",
"          m n G H I } J K L M N O P u s Q R S T F               ",
"          m n R 9 U [ V s W X v Y Z ` V 5  ...T F               ",
"          +.@.#.H 0 a b $.%.&.*.=.-.[ j ' G  .n (               ",
"              ;.>.,.'.).!.p ~.{.].C ^./.(.#.- +.                ",
"              _.; :.<.[.}.}.}.|.}.}.1.2.3.4.5.                  ",
"                6.7.8.9.9.9.9.9.9.9.9.0.a.b.                    ",
"            c.d.e.f.g.h.h.i.i.i.i.j.h.h.k.l.m.n.                ",
"        ( o.p.q.r.s.g.t.u.v.w.w.w.x.i.j.y.z.A.B.@./             ",
"      @.,., C.D.r.E.h.F.G.H.I.J.H.I.w.K.y.z.L.M.0 N.4.O.        ",
"    P._ Q.R.S.D.T.E.h.w.U.V.W.X.Y.Z.`.u. +z..+@.++@+#+M.        ",
"    P.^ ' i $+D.T.E.h.v.%+V.W.X.Y.Z.`.u. +z.&+*+=+j R /         ",
"      -+_ ;+>+,+'+j.)+!+J.X.J.G.X.~+`.{+i.]+^+/+(+_+:+          ",
"        <+[+}+|+]+K.F.!+`.`.`.`.`.`.`.v.u.h.1+2+3+4+5+          ",
"      6+7+8+9+0+a+i.)+F.v.b+`.`.`.c+F.)+u.h.d+e+f+g+h+          ",
"    P.^ i+j+k+l+m+n+o+K.)+)+)+)+)+)+p+h.]+]+q+r+s+t+H /         ",
"      n u+9 v+w+x+y+z+A+B+B+B+B+B+B+C+2+D+z+E+F+G+T H+/         ",
"            I+J+K+L+M+N+O+P+Q+R+O+P+S+T+U+V+W+X+                ",
"              Y+V+Z+`+ @.@V++@@@#@$@%@`+&@$@*@=@                ",
"              -@;@>@,@'@)@!@    ~@{@]@^@/@(@_@:@                ",
"              <@[@}@|@1@2@3@    4@5@6@7@8@9@0@4@                ",
"              a@b@c@d@e@f@g@    h@i@j@k@k@l@m@h@                ",
"              n@o@p@q@r@s@t@    u@v@w@x@x@w@v@u@                ",
"                y@z@A@B@            C@z@z@C@                    ",
"                                                                "};
