/* XPM */
static char * front_left_xpm[] = {
"32 32 258 2",
"  	c None",
". 	c #702825",
"+ 	c #52201F",
"@ 	c #702926",
"# 	c #653835",
"$ 	c #583634",
"% 	c #5C2F2D",
"& 	c #6F2A28",
"* 	c #664B47",
"= 	c #6D504B",
"- 	c #6B3D39",
"; 	c #6E3935",
"> 	c #734843",
", 	c #6E4E49",
"' 	c #664C47",
") 	c #654A46",
"! 	c #6F524C",
"~ 	c #70524D",
"{ 	c #775751",
"] 	c #836159",
"^ 	c #8E675E",
"/ 	c #7C3F3A",
"( 	c #7C403B",
"_ 	c #8D685F",
": 	c #694D49",
"< 	c #815F58",
"[ 	c #8C675E",
"} 	c #926B62",
"| 	c #8F6960",
"1 	c #805E57",
"2 	c #7A5650",
"3 	c #714B36",
"4 	c #735144",
"5 	c #7D5C56",
"6 	c #8E685F",
"7 	c #8B665E",
"8 	c #74554F",
"9 	c #684C48",
"0 	c #815F57",
"a 	c #8A542A",
"b 	c #BA6618",
"c 	c #925D39",
"d 	c #7A5C59",
"e 	c #8C675F",
"f 	c #72544E",
"g 	c #87635B",
"h 	c #926C62",
"i 	c #88645C",
"j 	c #765751",
"k 	c #6B4E4A",
"l 	c #BB6610",
"m 	c #B86F24",
"n 	c #A5642A",
"o 	c #905C3B",
"p 	c #846057",
"q 	c #87635C",
"r 	c #916B62",
"s 	c #7F5D56",
"t 	c #946D63",
"u 	c #7F5E56",
"v 	c #966E65",
"w 	c #AE6517",
"x 	c #A2632B",
"y 	c #87593E",
"z 	c #6D5049",
"A 	c #7E5D56",
"B 	c #956E64",
"C 	c #976F65",
"D 	c #6E524F",
"E 	c #755650",
"F 	c #664A46",
"G 	c #785851",
"H 	c #836059",
"I 	c #795952",
"J 	c #6E514C",
"K 	c #7D5C55",
"L 	c #5B4545",
"M 	c #6C504C",
"N 	c #805E56",
"O 	c #846159",
"P 	c #6C504B",
"Q 	c #2F2E3D",
"R 	c #3F3A4A",
"S 	c #574244",
"T 	c #6E504A",
"U 	c #89655D",
"V 	c #966E64",
"W 	c #694D48",
"X 	c #5F4643",
"Y 	c #463B44",
"Z 	c #3A384C",
"` 	c #433F53",
" .	c #4C404A",
"..	c #5D4747",
"+.	c #6F514B",
"@.	c #7B5A53",
"#.	c #836058",
"$.	c #6C4F4A",
"%.	c #8A655C",
"&.	c #644946",
"*.	c #473C46",
"=.	c #454258",
"-.	c #54516A",
";.	c #424055",
">.	c #3F384A",
",.	c #463848",
"'.	c #463A44",
").	c #4C3E4B",
"!.	c #614744",
"~.	c #A0786D",
"{.	c #967269",
"].	c #654B48",
"^.	c #463B46",
"/.	c #413F54",
"(.	c #4A475F",
"_.	c #3C3853",
":.	c #383355",
"<.	c #373257",
"[.	c #2F2C4C",
"}.	c #343054",
"|.	c #604643",
"1.	c #967166",
"2.	c #91706C",
"3.	c #493C52",
"4.	c #373151",
"5.	c #3A3652",
"6.	c #3C384E",
"7.	c #36314F",
"8.	c #463F6B",
"9.	c #50497A",
"0.	c #383356",
"a.	c #393458",
"b.	c #977166",
"c.	c #574141",
"d.	c #725756",
"e.	c #7E6367",
"f.	c #403755",
"g.	c #484271",
"h.	c #4F4978",
"i.	c #3C375A",
"j.	c #353051",
"k.	c #3D375E",
"l.	c #443D69",
"m.	c #3C365C",
"n.	c #3A355A",
"o.	c #3F3755",
"p.	c #7C646B",
"q.	c #715758",
"r.	c #38303F",
"s.	c #383952",
"t.	c #3D4263",
"u.	c #343153",
"v.	c #3C365E",
"w.	c #4A4372",
"x.	c #514A7B",
"y.	c #3C365B",
"z.	c #373154",
"A.	c #423C66",
"B.	c #534C7F",
"C.	c #47416D",
"D.	c #3D365F",
"E.	c #37355A",
"F.	c #404C7C",
"G.	c #393E60",
"H.	c #38303E",
"I.	c #674B47",
"J.	c #7B5A52",
"K.	c #815F5A",
"L.	c #594654",
"M.	c #423857",
"N.	c #393359",
"O.	c #393357",
"P.	c #313255",
"Q.	c #333256",
"R.	c #3B355B",
"S.	c #413A65",
"T.	c #514A7C",
"U.	c #433A59",
"V.	c #604D5E",
"W.	c #97726D",
"X.	c #87645B",
"Y.	c #664B46",
"Z.	c #89645B",
"`.	c #88645B",
" +	c #72544D",
".+	c #453846",
"++	c #2A2D4D",
"@+	c #2C355D",
"#+	c #26355D",
"$+	c #2C3256",
"%+	c #363152",
"&+	c #453E6B",
"*+	c #73554E",
"=+	c #8D6B62",
"-+	c #8B6860",
";+	c #775750",
">+	c #6A4E49",
",+	c #242C4B",
"'+	c #253B6A",
")+	c #253760",
"!+	c #2D3255",
"~+	c #363153",
"{+	c #3E3861",
"]+	c #684C47",
"^+	c #6A4D48",
"/+	c #252B46",
"(+	c #25365F",
"_+	c #253A67",
":+	c #273762",
"<+	c #2B3357",
"[+	c #2B3358",
"}+	c #253A66",
"|+	c #25355E",
"1+	c #242A45",
"2+	c #25355C",
"3+	c #263C6B",
"4+	c #253A68",
"5+	c #253257",
"6+	c #262841",
"7+	c #2C2C43",
"8+	c #263760",
"9+	c #243966",
"0+	c #263357",
"a+	c #2B2C42",
"b+	c #2D2F46",
"c+	c #24355D",
"d+	c #233E75",
"e+	c #27375F",
"f+	c #302E41",
"g+	c #4C3D42",
"h+	c #3B3C53",
"i+	c #343B5A",
"j+	c #3C3C52",
"k+	c #4D3C42",
"l+	c #473B46",
"m+	c #414057",
"n+	c #484A64",
"o+	c #454760",
"p+	c #413E51",
"q+	c #493B42",
"r+	c #2B293F",
"s+	c #524055",
"t+	c #61485A",
"u+	c #4F3E4F",
"v+	c #29283E",
"w+	c #322D43",
"x+	c #574259",
"y+	c #6A4F71",
"z+	c #674C6F",
"A+	c #4E3C59",
"B+	c #29283F",
"C+	c #2E2A58",
"D+	c #2E2958",
"E+	c #2B284D",
"F+	c #29274D",
"G+	c #2D295A",
"H+	c #2D295B",
"I+	c #2B2852",
"                                                                ",
"                                                                ",
"                            . + + @                             ",
"                            # $ % &                             ",
"                        * = = - ; > , '                         ",
"                  ) ! ~ { ] ^ / ( _ ] { ~ ! )                   ",
"                : { < [ } | 1 2 2 1 | } [ < { :                 ",
"              3 4 5 6 7 < 8 9 9 9 9 8 0 7 6 5 4 3               ",
"            a b c d e f : 8 g h h i j k f e d c b a             ",
"            l m n o p q r h s t t u v t q p o n m l             ",
"              w x y z A B C { [ [ j C B A z y x w               ",
"                  D 1 = E i [ t t [ i E = 1 D                   ",
"                  F G H I J K i i K J I H G F                   ",
"                    L M N O P k k P O N M L                     ",
"                  Q R S T 1 U V V U 1 T S R Q                   ",
"            W X Y Z `  ...+.@.#.#.@.+... .` Z Y X W             ",
"        $.0 %.&.*.=.-.;.>.,.'.).).'.,.>.;.-.=.*.&.%.0 $.        ",
"      !.g ~.{.].^./.(._.:.<.[.}.}.[.<.:._.(./.^.].{.~.g !.      ",
"      |.I 1.2.3.4.5.6.7.8.9.0.a.a.0.9.8.7.6.5.4.3.2.b.I |.      ",
"        c.d.e.f.g.h.i.j.k.l.m.n.n.m.l.k.j.i.h.g.o.p.q.c.        ",
"        r.s.t.u.v.w.x.y.z.A.B.C.C.B.A.z.y.x.w.D.E.F.G.H.        ",
"        I.J.K.L.M.N.O.P.Q.R.S.T.T.S.R.Q.P.O.N.U.V.W.X.Y.        ",
"      |.{ Z.`. +.+++@+#+$+%+m.&+&+m.%+$+#+@+++.+*+=+-+;+|.      ",
"        9 >+9     ,+'+)+!+~+m.{+{+m.~+!+)+'+,+    ]+^+9         ",
"                  /+(+_+:+<+u.~+~+u.[+:+}+|+/+                  ",
"                  1+2+3+4+5+6+    7+8+9+0+a+                    ",
"                  b+c+d+d+e+f+    g+h+i+j+k+                    ",
"                  l+m+n+o+p+q+    r+s+t+u+v+                    ",
"                  w+x+y+z+A+B+      C+D+E+                      ",
"                    F+G+H+I+                                    ",
"                                                                ",
"                                                                "};
