/* XPM */
static char * front_xpm[] = {
"32 32 282 2",
"  	c None",
". 	c #6C2825",
"+ 	c #52201F",
"@ 	c #643835",
"# 	c #583532",
"$ 	c #5C2F2D",
"% 	c #6D2B28",
"& 	c #694D49",
"* 	c #6D514C",
"= 	c #6D4E49",
"- 	c #6B3C38",
"; 	c #6D3935",
"> 	c #734641",
", 	c #704D48",
"' 	c #694E49",
") 	c #6B4F4A",
"! 	c #70524D",
"~ 	c #73544E",
"{ 	c #7A5A54",
"] 	c #84625A",
"^ 	c #896159",
"/ 	c #7B403B",
"( 	c #654A47",
"_ 	c #72534E",
": 	c #7C5B54",
"< 	c #86625A",
"[ 	c #8C675E",
"} 	c #8F6960",
"| 	c #89655C",
"1 	c #7E5C55",
"2 	c #79544E",
"3 	c #724B35",
"4 	c #744F3F",
"5 	c #785750",
"6 	c #87635B",
"7 	c #86625B",
"8 	c #7D5B55",
"9 	c #6A4D49",
"0 	c #6A4E4A",
"a 	c #8A5329",
"b 	c #AF621C",
"c 	c #A0602E",
"d 	c #7B594F",
"e 	c #87645C",
"f 	c #815F57",
"g 	c #6E504C",
"h 	c #6E514B",
"i 	c #795852",
"j 	c #906960",
"k 	c #7A5954",
"l 	c #6E514C",
"m 	c #B86410",
"n 	c #B86C1F",
"o 	c #AA6829",
"p 	c #955D34",
"q 	c #865E4C",
"r 	c #836059",
"s 	c #88645C",
"t 	c #926B61",
"u 	c #805E57",
"v 	c #926B63",
"w 	c #926C63",
"x 	c #815E57",
"y 	c #946D64",
"z 	c #AF6516",
"A 	c #A46325",
"B 	c #915D39",
"C 	c #765345",
"D 	c #735550",
"E 	c #85625A",
"F 	c #976F65",
"G 	c #8E685F",
"H 	c #795953",
"I 	c #8C675F",
"J 	c #8E6860",
"K 	c #6B4E48",
"L 	c #775752",
"M 	c #7D5C55",
"N 	c #8B665D",
"O 	c #936B62",
"P 	c #614643",
"Q 	c #74554F",
"R 	c #73544F",
"S 	c #544143",
"T 	c #624948",
"U 	c #73554E",
"V 	c #2E2C39",
"W 	c #383546",
"X 	c #4A3E48",
"Y 	c #604744",
"Z 	c #74554E",
"` 	c #926B62",
" .	c #614743",
"..	c #4C3D42",
"+.	c #3A3748",
"@.	c #3F3D51",
"#.	c #473F4F",
"$.	c #514147",
"%.	c #7A5A53",
"&.	c #6E504B",
"*.	c #6A4E49",
"=.	c #4D3E44",
"-.	c #413D50",
";.	c #4E4B63",
">.	c #4C4860",
",.	c #3F3A4E",
"'.	c #42384A",
").	c #473948",
"!.	c #483B46",
"~.	c #4D3E4C",
"{.	c #674B47",
"].	c #9C756A",
"^.	c #967168",
"/.	c #6C514D",
"(.	c #4C3D45",
"_.	c #3F3B4E",
":.	c #47445B",
"<.	c #444159",
"[.	c #383451",
"}.	c #393457",
"|.	c #363255",
"1.	c #302D4C",
"2.	c #353154",
"3.	c #644945",
"4.	c #7B5A53",
"5.	c #936F64",
"6.	c #916F6B",
"7.	c #564656",
"8.	c #393350",
"9.	c #3A3554",
"0.	c #3C3850",
"a.	c #39354E",
"b.	c #383355",
"c.	c #4A4471",
"d.	c #48426F",
"e.	c #373255",
"f.	c #383358",
"g.	c #393250",
"h.	c #936F65",
"i.	c #584244",
"j.	c #6E5659",
"k.	c #79616B",
"l.	c #493F59",
"m.	c #403B64",
"n.	c #4F4878",
"o.	c #433E65",
"p.	c #383455",
"q.	c #363154",
"r.	c #403A64",
"s.	c #433C67",
"t.	c #3C375D",
"u.	c #3A355A",
"v.	c #493F58",
"w.	c #7A6165",
"x.	c #6F5656",
"y.	c #3B3241",
"z.	c #3F415E",
"A.	c #464D77",
"B.	c #39395D",
"C.	c #393359",
"D.	c #453E6A",
"E.	c #4E4777",
"F.	c #46406B",
"G.	c #373154",
"H.	c #393459",
"I.	c #453F6B",
"J.	c #50497A",
"K.	c #47416C",
"L.	c #3B355C",
"M.	c #3A3759",
"N.	c #434461",
"O.	c #3D3B51",
"P.	c #3C3241",
"Q.	c #5F4642",
"R.	c #674C48",
"S.	c #82625B",
"T.	c #906E6A",
"U.	c #654F5A",
"V.	c #463A54",
"W.	c #3B3458",
"X.	c #353357",
"Y.	c #303255",
"Z.	c #3C365D",
"`.	c #433C68",
" +	c #50487A",
".+	c #3B3459",
"++	c #493D59",
"@+	c #624D5B",
"#+	c #7E5E5B",
"$+	c #775852",
"%+	c #674C47",
"&+	c #5F4643",
"*+	c #634844",
"=+	c #775751",
"-+	c #88665E",
";+	c #8B6961",
">+	c #765751",
",+	c #513F47",
"'+	c #2F2D49",
")+	c #2B3257",
"!+	c #29355E",
"~+	c #27335A",
"{+	c #2F3153",
"]+	c #373254",
"^+	c #3D365E",
"/+	c #443D6A",
"(+	c #513F48",
"_+	c #75564F",
":+	c #856159",
"<+	c #775750",
"[+	c #684C48",
"}+	c #6B4E49",
"|+	c #694D48",
"1+	c #252942",
"2+	c #24355E",
"3+	c #253967",
"4+	c #27345B",
"5+	c #2F3154",
"6+	c #3C365C",
"7+	c #3E3860",
"8+	c #242740",
"9+	c #243054",
"0+	c #253761",
"a+	c #263965",
"b+	c #28355E",
"c+	c #2D3256",
"d+	c #343153",
"e+	c #363153",
"f+	c #343152",
"g+	c #2D3255",
"h+	c #28355D",
"i+	c #263966",
"j+	c #253864",
"k+	c #253155",
"l+	c #29304C",
"m+	c #25355D",
"n+	c #243965",
"o+	c #293558",
"p+	c #2E2D42",
"q+	c #262841",
"r+	c #252F51",
"s+	c #253C6C",
"t+	c #243051",
"u+	c #24273F",
"v+	c #433A48",
"w+	c #383C56",
"x+	c #363C59",
"y+	c #3E3B4F",
"z+	c #493A41",
"A+	c #312D40",
"B+	c #293457",
"C+	c #243C6D",
"D+	c #243F75",
"E+	c #243968",
"F+	c #283252",
"G+	c #302E40",
"H+	c #393145",
"I+	c #554254",
"J+	c #5B455A",
"K+	c #47394F",
"L+	c #2B293E",
"M+	c #463941",
"N+	c #423C4D",
"O+	c #42435C",
"P+	c #484A65",
"Q+	c #43445E",
"R+	c #413D4F",
"S+	c #463942",
"T+	c #2D2950",
"U+	c #302B58",
"V+	c #2E2953",
"W+	c #29283E",
"X+	c #433752",
"Y+	c #5C4666",
"Z+	c #664D70",
"`+	c #5D4763",
" @	c #46384F",
".@	c #2B293F",
"+@	c #2E2A58",
"@@	c #2F2A5C",
"#@	c #2D2954",
"$@	c #292849",
"                                                                ",
"                                                                ",
"                            . + + .                             ",
"                            @ # $ %                             ",
"                        & * = - ; > , '                         ",
"                  ) ! ~ { ] ^ / / ^ ] { ~ ! )                   ",
"              ( _ : < [ } | 1 2 2 1 | } [ < : _ (               ",
"            3 4 5 6 [ 7 8 _ 9 0 0 9 _ 8 7 [ 6 5 4 3             ",
"          a b c d e f g h i 6 } j 6 k ! l f e d c b a           ",
"          m n o p q r s t [ u v w x } y s r q p o n m           ",
"            z A B C D E F G H I I H J F E D C B A z             ",
"                K H L l M 6 N O O N 6 M l L H K                 ",
"                P ! : u Q R M 7 7 M R Q u : ! P                 ",
"                  S T U f M l g g l M f U T S                   ",
"                V W X Y Z x s ` ` s x Z Y X W V                 ",
"          &  ...+.@.#.$.T ! %.x x %.! T $.#.@.+... .&           ",
"      &.x s *.=.-.;.>.,.'.).!.~.~.!.).'.,.>.;.-.=.*.s x &.      ",
"    {.6 ].^./.(._.:.<.[.}.|.1.2.2.1.|.}.[.<.:._.(./.^.].6 {.    ",
"    3.4.5.6.7.8.9.0.a.b.c.d.e.f.f.e.d.c.b.a.0.9.g.7.6.h.4.3.    ",
"      i.j.k.l.m.n.o.p.q.r.s.t.u.u.t.s.r.q.p.o.n.m.v.w.x.i.      ",
"      y.z.A.B.C.D.E.F.G.H.I.J.K.K.J.I.H.G.F.E.D.L.M.N.O.P.      ",
"    Q.R.S.T.U.V.W.H.X.Y.X.Z.`. + +`.Z.X.Y.X.H..+++@+#+$+%+&+    ",
"    *+=+-+;+>+,+'+)+!+~+{+]+^+/+/+^+]+{+~+!+)+'+(+_+< :+<+*+    ",
"      [+}+|+    1+2+3+4+5+e.6+7+7+6+e.5+4+3+2+1+    |+}+[+      ",
"                8+9+0+a+b+c+d+e+e+f+g+h+i+j+k+8+                ",
"                    l+m+n+o+p+    q+r+j+s+j+t+u+                ",
"                    v+w+x+y+z+    A+B+C+D+E+F+G+                ",
"                    H+I+J+K+L+    M+N+O+P+Q+R+S+                ",
"                      T+U+V+      W+X+Y+Z+`+ @.@                ",
"                                      +@@@#@$@                  ",
"                                                                ",
"                                                                "};
