/* XPM */
static char * turn_right_xpm[] = {
"32 32 286 2",
"  	c None",
". 	c #5F2221",
"+ 	c #592120",
"@ 	c #662523",
"# 	c #5B302E",
"$ 	c #5E3735",
"% 	c #603734",
"& 	c #602322",
"* 	c #5D2221",
"= 	c #5F3532",
"- 	c #5D3A37",
"; 	c #664A45",
"> 	c #71544F",
", 	c #7B5B55",
"' 	c #785953",
") 	c #70524D",
"! 	c #654A46",
"~ 	c #6A2725",
"{ 	c #5C3836",
"] 	c #6A4E49",
"^ 	c #765751",
"/ 	c #84615A",
"( 	c #906A61",
"_ 	c #966E65",
": 	c #956E64",
"< 	c #8F6960",
"[ 	c #815E57",
"} 	c #74554F",
"| 	c #684C48",
"1 	c #642523",
"2 	c #672623",
"3 	c #5D3B38",
"4 	c #73554F",
"5 	c #88645C",
"6 	c #936C63",
"7 	c #976F65",
"8 	c #9D7369",
"9 	c #9F756A",
"0 	c #9E756A",
"a 	c #9C7165",
"b 	c #996E5E",
"c 	c #926A5E",
"d 	c #85625B",
"e 	c #572524",
"f 	c #5E413E",
"g 	c #7A5A53",
"h 	c #926B62",
"i 	c #9D7469",
"j 	c #A57A70",
"k 	c #A3796E",
"l 	c #996E60",
"m 	c #B77441",
"n 	c #C8711F",
"o 	c #AC6935",
"p 	c #966C5F",
"q 	c #8A655D",
"r 	c #755650",
"s 	c #644945",
"t 	c #644A46",
"u 	c #632423",
"v 	c #682624",
"w 	c #5F3F3C",
"x 	c #71534E",
"y 	c #966E64",
"z 	c #9E7469",
"A 	c #A3796F",
"B 	c #A17870",
"C 	c #B06A33",
"D 	c #D08534",
"E 	c #D18A3E",
"F 	c #C36C17",
"G 	c #AC6A36",
"H 	c #956F68",
"I 	c #916B61",
"J 	c #936D64",
"K 	c #825F58",
"L 	c #684D48",
"M 	c #5B2221",
"N 	c #5D403D",
"O 	c #795953",
"P 	c #8D675F",
"Q 	c #9C7368",
"R 	c #926C62",
"S 	c #987066",
"T 	c #9F766D",
"U 	c #A56B43",
"V 	c #BF762D",
"W 	c #BB7729",
"X 	c #B36D29",
"Y 	c #AA704C",
"Z 	c #987169",
"` 	c #9A7268",
" .	c #9B736A",
"..	c #977067",
"+.	c #956F66",
"@.	c #916A61",
"#.	c #88645B",
"$.	c #6C4F4A",
"%.	c #86635B",
"&.	c #694D49",
"*.	c #633432",
"=.	c #77534E",
"-.	c #86625B",
";.	c #87635B",
">.	c #86625A",
",.	c #98716A",
"'.	c #A26C4B",
").	c #B26C34",
"!.	c #A56F50",
"~.	c #9C7369",
"{.	c #7C5B54",
"].	c #795952",
"^.	c #72544E",
"/.	c #765650",
"(.	c #785852",
"_.	c #6B4F4A",
":.	c #5B4340",
"<.	c #684844",
"[.	c #836059",
"}.	c #8D685F",
"|.	c #7D5C55",
"1.	c #8B665D",
"2.	c #A0766C",
"3.	c #A2796F",
"4.	c #9D756C",
"5.	c #997268",
"6.	c #916B62",
"7.	c #89645C",
"8.	c #7F5D56",
"9.	c #775751",
"0.	c #5E4541",
"a.	c #634845",
"b.	c #9E746A",
"c.	c #997167",
"d.	c #8E685F",
"e.	c #836058",
"f.	c #6A4D49",
"g.	c #5E4543",
"h.	c #6E514D",
"i.	c #7F5D57",
"j.	c #9A7167",
"k.	c #73544F",
"l.	c #664A46",
"m.	c #3D344C",
"n.	c #403650",
"o.	c #6A5054",
"p.	c #7C5B57",
"q.	c #8A665E",
"r.	c #89655C",
"s.	c #7B5B54",
"t.	c #6B4E49",
"u.	c #312B43",
"v.	c #513F49",
"w.	c #775956",
"x.	c #815F59",
"y.	c #504052",
"z.	c #383251",
"A.	c #614B55",
"B.	c #715452",
"C.	c #6C5050",
"D.	c #644A47",
"E.	c #2D2944",
"F.	c #524048",
"G.	c #916C65",
"H.	c #A17C72",
"I.	c #A1796F",
"J.	c #705452",
"K.	c #463B59",
"L.	c #393458",
"M.	c #383253",
"N.	c #373154",
"O.	c #483A4B",
"P.	c #725553",
"Q.	c #9C776D",
"R.	c #A48077",
"S.	c #A37E75",
"T.	c #8A675D",
"U.	c #574764",
"V.	c #413B68",
"W.	c #403963",
"X.	c #3E3860",
"Y.	c #3A355A",
"Z.	c #332E4E",
"`.	c #60494D",
" +	c #977269",
".+	c #A27C72",
"++	c #967065",
"@+	c #584862",
"#+	c #4C4679",
"$+	c #4E4678",
"%+	c #453D6B",
"&+	c #3E375F",
"*+	c #322D4C",
"=+	c #2C2944",
"-+	c #4A353F",
";+	c #835F58",
">+	c #9D7368",
",+	c #A37D74",
"'+	c #A67C6F",
")+	c #654E57",
"!+	c #4E4570",
"~+	c #575086",
"{+	c #4A4372",
"]+	c #393358",
"^+	c #353051",
"/+	c #4A2832",
"(+	c #4B2C31",
"_+	c #5B4245",
":+	c #87645E",
"<+	c #A1776B",
"[+	c #645A6F",
"}+	c #38364E",
"|+	c #3F385D",
"1+	c #4F487B",
"2+	c #463F6C",
"3+	c #373255",
"4+	c #4A3037",
"5+	c #3F3F5E",
"6+	c #3C4D80",
"7+	c #635A71",
"8+	c #5F4C51",
"9+	c #463C57",
"0+	c #433C69",
"a+	c #453E6B",
"b+	c #383357",
"c+	c #32263B",
"d+	c #50404A",
"e+	c #6C555B",
"f+	c #926D67",
"g+	c #936C62",
"h+	c #7E5D58",
"i+	c #51425A",
"j+	c #403A66",
"k+	c #3C365D",
"l+	c #312C4B",
"m+	c #574245",
"n+	c #775650",
"o+	c #8A655C",
"p+	c #715551",
"q+	c #42384D",
"r+	c #373358",
"s+	c #393357",
"t+	c #302C49",
"u+	c #25263B",
"v+	c #4B3E49",
"w+	c #5A484D",
"x+	c #5A474C",
"y+	c #393D59",
"z+	c #243156",
"A+	c #2C2E4D",
"B+	c #322E4D",
"C+	c #2F2B48",
"D+	c #252D4C",
"E+	c #253358",
"F+	c #25365F",
"G+	c #253B69",
"H+	c #263964",
"I+	c #252C48",
"J+	c #28263E",
"K+	c #253256",
"L+	c #263E71",
"M+	c #263F72",
"N+	c #25345A",
"O+	c #252842",
"P+	c #2D314A",
"Q+	c #253660",
"R+	c #243E73",
"S+	c #233C6F",
"T+	c #232C4B",
"U+	c #725552",
"V+	c #41395D",
"W+	c #253668",
"X+	c #575267",
"Y+	c #6A575F",
"Z+	c #524248",
"`+	c #362E5A",
" @	c #312E64",
".@	c #463A6C",
"+@	c #533F7B",
"@@	c #463769",
"#@	c #342C47",
"$@	c #2A2641",
"%@	c #292544",
"&@	c #2A2648",
"*@	c #2A2645",
"=@	c #28253E",
"                                                                ",
"                                                                ",
"                                                                ",
"                        .                                       ",
"              + @   # $ %                                       ",
"          & *   = - ; > , ' ) !                                 ",
"      ~       { ] ^ / ( _ : < [ } |                             ",
"        1 2 3 4 5 6 7 8 9 0 a b c d )                           ",
"          e f g h i 9 j k l m n o p q r s ! ! ! t s             ",
"      u v w x q y z 9 A B C D E F G H : I 6 J 6 < K ] L         ",
"        M N O P y Q R S T U V W X Y Z z `  ...+.@.#.$.%.&.      ",
"          *.=.-.h 7 ;.>.y ,.'.).!.Z ~.< {.].r ^./.^.(.x _.:.    ",
"            <.r [.6 }.|.1.2.3.4.5.6.7.8.) } 9.} 9.} } 0.        ",
"              a.(.}.6 < 7 b.c.d.>.e.r | f.&.&.f.&.f.|           ",
"              g.h.i.P j.Q P [.k.s l.a.                          ",
"              m.n.o.p.q.r.s.t.                                  ",
"          u.v.w.x.y.z.A.B.C.D.                                  ",
"        E.F.G.H.I.J.K.L.M.N.O.                                  ",
"        E.P.Q.R.S.T.U.V.W.X.Y.Z.                                ",
"        E.`. +.+S.++@+#+$+%+&+*+                                ",
"        =+-+;+>+,+'+)+!+~+{+]+^+*+                              ",
"        /+(+_+:+<+[+}+|+1+2+3+L.^+                              ",
"            4+5+6+7+8+9+0+a+Y.b+^+                              ",
"            c+d+e+f+g+h+i+j+k+l+                                ",
"              m+n+o+d.p+q+r+s+t+                                ",
"              u+v+w+x+y+z+A+B+C+                                ",
"                D+E+F+G+H+I+J+                                  ",
"                  K+L+M+N+O+                                    ",
"                P+Q+R+S+T+                                      ",
"              U+V+W+X+Y+Z+                                      ",
"                `+ @.@+@@@#@                                    ",
"                  $@%@&@*@=@                                    "};
