/* XPM */
static char * turn_right_foot_xpm[] = {
"32 32 307 2",
"  	c None",
". 	c #5E2220",
"+ 	c #56201F",
"@ 	c #5D2221",
"# 	c #652422",
"$ 	c #5B2D2B",
"% 	c #5E3331",
"& 	c #613330",
"* 	c #652523",
"= 	c #582120",
"- 	c #613230",
"; 	c #5C3634",
"> 	c #644743",
", 	c #6E524D",
"' 	c #765852",
") 	c #745550",
"! 	c #6C4F4A",
"~ 	c #634945",
"{ 	c #57201F",
"] 	c #5B3432",
"^ 	c #674B47",
"/ 	c #71544F",
"( 	c #815F58",
"_ 	c #8E685F",
": 	c #956D64",
"< 	c #936C63",
"[ 	c #8C675E",
"} 	c #7D5C55",
"| 	c #70524D",
"1 	c #664B47",
"2 	c #612422",
"3 	c #622422",
"4 	c #5B3836",
"5 	c #71534D",
"6 	c #86625B",
"7 	c #916A61",
"8 	c #956E64",
"9 	c #9C7368",
"0 	c #9E756A",
"a 	c #9E746A",
"b 	c #9B7166",
"c 	c #966D61",
"d 	c #90695F",
"e 	c #826058",
"f 	c #6D504B",
"g 	c #592322",
"h 	c #5E403D",
"i 	c #795953",
"j 	c #926B62",
"k 	c #9D7469",
"l 	c #9F756A",
"m 	c #A4796F",
"n 	c #A3786E",
"o 	c #976F64",
"p 	c #B37345",
"q 	c #C36F21",
"r 	c #A8693B",
"s 	c #946C62",
"t 	c #87635C",
"u 	c #72534E",
"v 	c #604743",
"w 	c #624744",
"x 	c #624844",
"y 	c #614744",
"z 	c #6A2725",
"A 	c #5F3E3B",
"B 	c #6F524C",
"C 	c #89645C",
"D 	c #9E7469",
"E 	c #A47A6F",
"F 	c #A17970",
"G 	c #AE6A36",
"H 	c #CF8435",
"I 	c #D4893B",
"J 	c #C36B18",
"K 	c #AA6938",
"L 	c #956F68",
"M 	c #8D685F",
"N 	c #8F6960",
"O 	c #8E6960",
"P 	c #8B665E",
"Q 	c #7F5D56",
"R 	c #6B4F4A",
"S 	c #654A46",
"T 	c #582020",
"U 	c #5D403D",
"V 	c #785953",
"W 	c #8C675F",
"X 	c #966E64",
"Y 	c #9C7369",
"Z 	c #997167",
"` 	c #9F766D",
" .	c #A86A3E",
"..	c #C3792E",
"+.	c #BB7A2F",
"@.	c #B46D26",
"#.	c #AD7048",
"$.	c #977068",
"%.	c #9A7268",
"&.	c #9D756B",
"*.	c #9A7269",
"=.	c #987167",
"-.	c #936C62",
";.	c #88645C",
">.	c #694C48",
",.	c #86625A",
"'.	c #5E2321",
").	c #633734",
"!.	c #77554F",
"~.	c #87645C",
"{.	c #987066",
"].	c #87635B",
"^.	c #88645B",
"/.	c #A36A44",
"(.	c #B66B2B",
"_.	c #A66E4A",
":.	c #987169",
"<.	c #926C62",
"[.	c #785852",
"}.	c #765650",
"|.	c #755650",
"1.	c #6F514C",
"2.	c #5C4340",
"3.	c #6B4945",
"4.	c #775751",
"5.	c #85615A",
"6.	c #946D63",
"7.	c #8B665D",
"8.	c #A0766B",
"9.	c #A2786E",
"0.	c #9E756C",
"a.	c #9B7369",
"b.	c #73544F",
"c.	c #5E4542",
"d.	c #795852",
"e.	c #9F756B",
"f.	c #906A61",
"g.	c #846159",
"h.	c #6B4E4A",
"i.	c #5F4642",
"j.	c #815F57",
"k.	c #8E6860",
"l.	c #9A7267",
"m.	c #9D7369",
"n.	c #674C47",
"o.	c #694D49",
"p.	c #3E344C",
"q.	c #42374F",
"r.	c #6D5254",
"s.	c #805E58",
"t.	c #7D5B55",
"u.	c #6C504B",
"v.	c #4A3B47",
"w.	c #6F5354",
"x.	c #785A57",
"y.	c #504052",
"z.	c #3D3451",
"A.	c #674F56",
"B.	c #775853",
"C.	c #715350",
"D.	c #654A47",
"E.	c #2D2944",
"F.	c #4E3D47",
"G.	c #8D6962",
"H.	c #A07A70",
"I.	c #A0786D",
"J.	c #6B5051",
"K.	c #433957",
"L.	c #3B3457",
"M.	c #3A3352",
"N.	c #393353",
"O.	c #4B3B4A",
"P.	c #705452",
"Q.	c #9C776D",
"R.	c #A48077",
"S.	c #A37E74",
"T.	c #89665C",
"U.	c #564763",
"V.	c #403A66",
"W.	c #3E3861",
"X.	c #3E375F",
"Y.	c #3A3459",
"Z.	c #644C4E",
"`.	c #99746A",
" +	c #A37D73",
".+	c #A37E75",
"++	c #936E63",
"@+	c #574762",
"#+	c #4B4578",
"$+	c #4C4476",
"%+	c #443D6A",
"&+	c #3E3860",
"*+	c #322E4D",
"=+	c #2B2944",
"-+	c #4A3641",
";+	c #A37D74",
">+	c #A77C6F",
",+	c #644D58",
"'+	c #4F4773",
")+	c #574F86",
"!+	c #4A4372",
"~+	c #393459",
"{+	c #342F4F",
"]+	c #312C4A",
"^+	c #452835",
"/+	c #4B2C33",
"(+	c #604547",
"_+	c #A3796C",
":+	c #6E5F6F",
"<+	c #3F394E",
"[+	c #41395E",
"}+	c #514A7E",
"|+	c #47406D",
"1+	c #373154",
"2+	c #393458",
"3+	c #353051",
"4+	c #4B3138",
"5+	c #46435F",
"6+	c #46517E",
"7+	c #5D5771",
"8+	c #554650",
"9+	c #423957",
"0+	c #433D6A",
"a+	c #453E6B",
"b+	c #3A345A",
"c+	c #393357",
"d+	c #34273A",
"e+	c #4A3F4C",
"f+	c #625360",
"g+	c #8F6C68",
"h+	c #795A58",
"i+	c #50425C",
"j+	c #413B67",
"k+	c #3C365D",
"l+	c #322D4C",
"m+	c #5A4445",
"n+	c #795851",
"o+	c #8D675E",
"p+	c #916B61",
"q+	c #463A4E",
"r+	c #38345A",
"s+	c #393358",
"t+	c #302B49",
"u+	c #534044",
"v+	c #614A4B",
"w+	c #624B4C",
"x+	c #3D3E57",
"y+	c #253154",
"z+	c #2D2E4D",
"A+	c #262942",
"B+	c #272F4F",
"C+	c #273458",
"D+	c #263A66",
"E+	c #253965",
"F+	c #252F4F",
"G+	c #282842",
"H+	c #2C2843",
"I+	c #2A2C43",
"J+	c #253256",
"K+	c #252943",
"L+	c #243154",
"M+	c #253D6F",
"N+	c #263E71",
"O+	c #25355C",
"P+	c #252942",
"Q+	c #4B404C",
"R+	c #2C3C65",
"S+	c #233867",
"T+	c #222E51",
"U+	c #363A54",
"V+	c #2D3E69",
"W+	c #233C6D",
"X+	c #25345B",
"Y+	c #232E4F",
"Z+	c #212844",
"`+	c #4D3F4A",
" @	c #2C3A60",
".@	c #233E73",
"+@	c #4D4D67",
"@@	c #4C4452",
"#@	c #3D3441",
"$@	c #4F434F",
"%@	c #3F3C61",
"&@	c #25376B",
"*@	c #474C6A",
"=@	c #614F56",
"-@	c #5B474A",
";@	c #22243A",
">@	c #2D2F5D",
",@	c #323371",
"'@	c #4A3C65",
")@	c #403445",
"!@	c #2B2C59",
"~@	c #453B65",
"{@	c #574267",
"]@	c #584376",
"^@	c #4F3D6C",
"/@	c #382F4C",
"(@	c #282744",
"_@	c #2A2749",
":@	c #272646",
"<@	c #24253E",
"[@	c #2A2545",
"}@	c #292547",
"|@	c #2B264E",
"1@	c #2B274C",
"2@	c #292541",
"                                                                ",
"                                                                ",
"                        .                                       ",
"      +       @ #   $ % &                                       ",
"          * =   - ; > , ' ) ! ~                                 ",
"            { ] ^ / ( _ : < [ } | 1                             ",
"        2 3 4 5 6 7 8 9 0 a b c d e f                           ",
"          g h i j k l m n o p q r s t u v w w x y x             ",
"      * z A B C 8 D l E F G H I J K L < M N N O P Q R S         ",
"        T U V W X Y : Z `  ...+.@.#.$.k %.&.*.=.-.;.>.,.1       ",
"        '.).!.~.< {.].^.{.$./.(._.:.k <.e } [.}.[.}.i |.1.2.    ",
"            3.4.5.6.M } 7.8.9.0.a.6.[ Q f u |.5 |.5 b.c.        ",
"              S d.O j [ 8 e.a.f.C g.4.! f f f f f f h.          ",
"              i.5 j.k.l.m.N 6 }.n.o.S                           ",
"              p.q.r.s.M P t.u.                                  ",
"            v.w.x.y.z.A.B.C.D.                                  ",
"        E.F.G.H.I.J.K.L.M.N.O.                                  ",
"        E.P.Q.R.S.T.U.V.W.X.Y.                                  ",
"        E.Z.`. +.+++@+#+$+%+&+*+                                ",
"        =+-+6 D ;+>+,+'+)+!+~+{+]+                              ",
"        ^+/+(+W _+:+<+[+}+|+1+2+3+                              ",
"            4+5+6+7+8+9+0+a+b+c+3+                              ",
"            d+e+f+g+f.h+i+j+k+l+                                ",
"              m+n+o+p+' q+r+s+t+                                ",
"                u+v+w+x+y+z+{+t+                                ",
"                A+B+C+D+E+F+G+H+                                ",
"              I+J+K+L+M+N+O+P+                                  ",
"            Q+R+S+T+U+V+W+X+Y+Z+                                ",
"          `+ @.@+@@@#@$@%@&@*@=@-@                              ",
"          ;@>@,@'@)@      !@~@{@]@^@/@                          ",
"            (@_@:@<@        [@}@|@1@2@                          ",
"                                                                "};
