/* XPM */
static char * turn_left_right_foot_xpm[] = {
"32 32 308 2",
"  	c None",
". 	c #722926",
"+ 	c #643936",
"@ 	c #5C3533",
"# 	c #633735",
"$ 	c #662523",
"% 	c #5E4542",
"& 	c #6B4F4A",
"* 	c #73544F",
"= 	c #7D5D56",
"- 	c #785953",
"; 	c #70534E",
"> 	c #624440",
", 	c #603B38",
"' 	c #5B2F2E",
") 	c #5E2321",
"! 	c #614744",
"~ 	c #71534D",
"{ 	c #795953",
"] 	c #89655D",
"^ 	c #936C62",
"/ 	c #976F65",
"( 	c #956E64",
"_ 	c #8E6960",
": 	c #815F58",
"< 	c #755751",
"[ 	c #674B47",
"} 	c #5D3533",
"| 	c #6B2725",
"1 	c #664B47",
"2 	c #7F5D56",
"3 	c #8E6860",
"4 	c #996C5A",
"5 	c #9D6F5C",
"6 	c #9D7368",
"7 	c #9E756A",
"8 	c #A0766B",
"9 	c #9B7268",
"0 	c #86635B",
"a 	c #6E514C",
"b 	c #5E3735",
"c 	c #682523",
"d 	c #622423",
"e 	c #674C48",
"f 	c #684C48",
"g 	c #694D49",
"h 	c #694D48",
"i 	c #86625A",
"j 	c #926B60",
"k 	c #A06C4D",
"l 	c #BD691B",
"m 	c #D07D2F",
"n 	c #A46D4B",
"o 	c #9E7365",
"p 	c #A67B71",
"q 	c #A2786D",
"r 	c #9F756A",
"s 	c #9C7368",
"t 	c #8F6960",
"u 	c #765751",
"v 	c #5E3E3C",
"w 	c #582625",
"x 	c #561F1F",
"y 	c #6C4F4A",
"z 	c #7C5B54",
"A 	c #916A61",
"B 	c #956E65",
"C 	c #977066",
"D 	c #946D63",
"E 	c #997167",
"F 	c #9A6D5A",
"G 	c #C26B17",
"H 	c #C07326",
"I 	c #D8974E",
"J 	c #C36E18",
"K 	c #A67156",
"L 	c #A37970",
"M 	c #A0766C",
"N 	c #87635B",
"O 	c #6E524D",
"P 	c #5F3C3A",
"Q 	c #642422",
"R 	c #836059",
"S 	c #75554F",
"T 	c #8E685F",
"U 	c #8F6A61",
"V 	c #926C64",
"W 	c #9A7268",
"X 	c #9B7267",
"Y 	c #9A7062",
"Z 	c #B07040",
"` 	c #B06B20",
" .	c #C47A29",
"..	c #AA6933",
"+.	c #A0725F",
"@.	c #9E746A",
"#.	c #9A7267",
"$.	c #946D64",
"%.	c #8A665D",
"&.	c #745650",
"*.	c #5E3C3A",
"=.	c #5F2221",
"-.	c #59423F",
";.	c #644945",
">.	c #6B4E49",
",.	c #74554F",
"'.	c #70524D",
").	c #71524D",
"!.	c #6F514C",
"~.	c #72544E",
"{.	c #997166",
"].	c #AC714C",
"^.	c #A96D46",
"/.	c #9B7064",
"(.	c #8C675E",
"_.	c #825F58",
":.	c #966E65",
"<.	c #8D675F",
"[.	c #805F58",
"}.	c #744C47",
"|.	c #612D2B",
"1.	c #5C4340",
"2.	c #785852",
"3.	c #795852",
"4.	c #755650",
"5.	c #826058",
"6.	c #936C63",
"7.	c #987168",
"8.	c #9E756C",
"9.	c #A47A70",
"0.	c #836058",
"a.	c #926C62",
"b.	c #7D5C55",
"c.	c #634945",
"d.	c #634845",
"e.	c #7E5C56",
"f.	c #805E57",
"g.	c #9D7469",
"h.	c #956D64",
"i.	c #926B62",
"j.	c #604642",
"k.	c #604643",
"l.	c #7E5D56",
"m.	c #88635A",
"n.	c #745654",
"o.	c #5D464A",
"p.	c #73544D",
"q.	c #7D5B54",
"r.	c #8A655C",
"s.	c #755858",
"t.	c #694F55",
"u.	c #584653",
"v.	c #4A3D51",
"w.	c #42374B",
"x.	c #5F4541",
"y.	c #5A454D",
"z.	c #584550",
"A.	c #5E4952",
"B.	c #443955",
"C.	c #37314F",
"D.	c #695055",
"E.	c #936C61",
"F.	c #86645E",
"G.	c #60494F",
"H.	c #372E43",
"I.	c #45384A",
"J.	c #3A3356",
"K.	c #373258",
"L.	c #363257",
"M.	c #3C3761",
"N.	c #5A4757",
"O.	c #8A675F",
"P.	c #A47E74",
"Q.	c #A57F75",
"R.	c #926E65",
"S.	c #59444B",
"T.	c #2B2843",
"U.	c #383358",
"V.	c #3F3861",
"W.	c #423B66",
"X.	c #47406E",
"Y.	c #443E6E",
"Z.	c #68505D",
"`.	c #947065",
" +	c #A48076",
".+	c #A48077",
"++	c #987469",
"@+	c #684E50",
"#+	c #2B2743",
"$+	c #2E2A46",
"%+	c #353052",
"&+	c #413B65",
"*+	c #4A4374",
"=+	c #575085",
"-+	c #46406D",
";+	c #755A62",
">+	c #A27B70",
",+	c #A27C73",
"'+	c #A1786D",
")+	c #88655F",
"!+	c #4B3B46",
"~+	c #2B2844",
"{+	c #2E2A45",
"]+	c #3A3459",
"^+	c #3C365C",
"/+	c #544D80",
"(+	c #514A7F",
"_+	c #473B55",
":+	c #70575B",
"<+	c #9C7871",
"[+	c #A47B6F",
"}+	c #926B61",
"|+	c #6D4D4B",
"1+	c #472F3A",
"2+	c #332840",
"3+	c #3B365C",
"4+	c #363152",
"5+	c #3D375E",
"6+	c #494171",
"7+	c #443E6D",
"8+	c #37324D",
"9+	c #383B5A",
"0+	c #615A73",
"a+	c #7A6570",
"b+	c #644F57",
"c+	c #4D353B",
"d+	c #48292F",
"e+	c #363153",
"f+	c #353051",
"g+	c #423B67",
"h+	c #423C68",
"i+	c #50425E",
"j+	c #6A5155",
"k+	c #8B675E",
"l+	c #6A5E72",
"m+	c #3C4770",
"n+	c #3B364F",
"o+	c #412A36",
"p+	c #2C2843",
"q+	c #342F4F",
"r+	c #39345A",
"s+	c #644C4F",
"t+	c #8A655B",
"u+	c #987066",
"v+	c #90695F",
"w+	c #79574F",
"x+	c #513F45",
"y+	c #2D2944",
"z+	c #373154",
"A+	c #2C2E4E",
"B+	c #353752",
"C+	c #624E52",
"D+	c #775750",
"E+	c #574347",
"F+	c #292842",
"G+	c #253051",
"H+	c #243865",
"I+	c #2E3A5D",
"J+	c #343957",
"K+	c #343A58",
"L+	c #2B2F49",
"M+	c #252840",
"N+	c #253257",
"O+	c #252B48",
"P+	c #253053",
"Q+	c #243762",
"R+	c #243B69",
"S+	c #243966",
"T+	c #252F51",
"U+	c #3A3342",
"V+	c #2C335D",
"W+	c #2A3D78",
"X+	c #293564",
"Y+	c #2F2E45",
"Z+	c #28283C",
"`+	c #243359",
" @	c #243F76",
".@	c #233E74",
"+@	c #233258",
"@@	c #503D4D",
"#@	c #674D62",
"$@	c #3F3270",
"%@	c #392F71",
"&@	c #312B5B",
"*@	c #33354D",
"=@	c #3F435F",
"-@	c #4A4B64",
";@	c #3B4363",
">@	c #31385A",
",@	c #54404E",
"'@	c #25263E",
")@	c #2C2951",
"!@	c #2E2A5A",
"~@	c #2D2951",
"{@	c #2D2950",
"]@	c #443548",
"^@	c #594363",
"/@	c #6C5071",
"(@	c #53466B",
"_@	c #2C3168",
":@	c #3E335D",
"<@	c #54444C",
"[@	c #292645",
"}@	c #2E2857",
"|@	c #2E285A",
"1@	c #2D2750",
"2@	c #2D274B",
"3@	c #2B2749",
"                                                                ",
"                                                                ",
"                                      .                         ",
"                                      + @ #     $               ",
"                                % & * = - ; > , '   )           ",
"                            ! ~ { ] ^ / ( _ : < [ }       |     ",
"                          1 2 3 4 5 6 7 8 9 / ^ 0 a b c d       ",
"            e f g h h f a i j k l m n o p q r s t u v w x       ",
"        y g z A B C C B D E F G H I J K L M r s D N O P Q       ",
"      y R S 2 T U V B W X r Y Z `  ...+.@.t D #.$.%.&.*.=.      ",
"    -.;.>.,.'.).'.!.,.~.z / 9 {.].^./.W (._.t :.<.[.}.|.        ",
"        1.~ 2.2.2.2.3.4.2.5.N 6.7.8.9.9 0.0.a.T b.a             ",
"            c.c.c.c.c.c.d.[ z e.f.t / g./ h.i.N '.j.            ",
"                            k.k.! 2.l.t 9 D m.n.o.              ",
"                                  % p.q.r.s.t.u.v.w.            ",
"                                  x.y.z.A.B.C.D.E.F.G.H.        ",
"                                  I.J.K.L.M.N.O.P.Q.R.S.T.      ",
"                                  U.V.W.X.Y.Z.`. +.+++@+#+      ",
"                                $+%+&+*+=+-+;+>+,+'+)+!+~+      ",
"                              {+]+%+^+/+(+_+:+<+[+}+|+1+2+      ",
"                              {+3+4+5+6+7+8+9+0+a+b+c+d+        ",
"                                e+f+g+h+i+j+k+l+m+n+o+          ",
"                                p+q+V.r+s+t+u+v+w+x+            ",
"                                y+q+z+A+B+C+D+,.E+              ",
"                                y+$+F+G+H+I+J+K+L+              ",
"                                  M+N+O+P+Q+R+S+T+              ",
"                                U+V+W+X+Y+Z+`+ @.@+@            ",
"                              @@#@$@%@&@    *@=@-@;@>@,@        ",
"                            '@)@!@~@{@      ]@^@/@(@_@:@<@      ",
"                                            [@}@|@1@2@3@        ",
"                                                                ",
"                                                                "};
