/* XPM */
static char * turn_left_xpm[] = {
"32 32 284 2",
"  	c None",
". 	c #5E2220",
"+ 	c #613330",
"@ 	c #5E3331",
"# 	c #5B2D2B",
"$ 	c #652422",
"% 	c #5D2221",
"& 	c #56201F",
"* 	c #634945",
"= 	c #6C4F4A",
"- 	c #745550",
"; 	c #765852",
"> 	c #6E524D",
", 	c #644743",
"' 	c #5C3634",
") 	c #613230",
"! 	c #582120",
"~ 	c #652523",
"{ 	c #664B47",
"] 	c #70524D",
"^ 	c #7D5C55",
"/ 	c #8C675E",
"( 	c #936C63",
"_ 	c #956D64",
": 	c #8E685F",
"< 	c #815F58",
"[ 	c #71544F",
"} 	c #674B47",
"| 	c #5B3432",
"1 	c #57201F",
"2 	c #6D504B",
"3 	c #826058",
"4 	c #90695F",
"5 	c #966D61",
"6 	c #9B7166",
"7 	c #9E746A",
"8 	c #9E756A",
"9 	c #9C7368",
"0 	c #956E64",
"a 	c #916A61",
"b 	c #86625B",
"c 	c #71534D",
"d 	c #5B3836",
"e 	c #622422",
"f 	c #612422",
"g 	c #624844",
"h 	c #614744",
"i 	c #624744",
"j 	c #604743",
"k 	c #72534E",
"l 	c #87635C",
"m 	c #946C62",
"n 	c #A8693B",
"o 	c #C36F21",
"p 	c #B37345",
"q 	c #976F64",
"r 	c #A3786E",
"s 	c #A4796F",
"t 	c #9F756A",
"u 	c #9D7469",
"v 	c #926B62",
"w 	c #795953",
"x 	c #5E403D",
"y 	c #592322",
"z 	c #654A46",
"A 	c #6B4F4A",
"B 	c #7F5D56",
"C 	c #8B665E",
"D 	c #8E6960",
"E 	c #8F6960",
"F 	c #8D685F",
"G 	c #956F68",
"H 	c #AA6938",
"I 	c #C36B18",
"J 	c #D4893B",
"K 	c #CF8435",
"L 	c #AE6A36",
"M 	c #A17970",
"N 	c #A47A6F",
"O 	c #9E7469",
"P 	c #89645C",
"Q 	c #6F524C",
"R 	c #5F3E3B",
"S 	c #6A2725",
"T 	c #86625A",
"U 	c #694C48",
"V 	c #88645C",
"W 	c #936C62",
"X 	c #987167",
"Y 	c #9A7269",
"Z 	c #9D756B",
"` 	c #9A7268",
" .	c #977068",
"..	c #AD7048",
"+.	c #B46D26",
"@.	c #BB7A2F",
"#.	c #C3792E",
"$.	c #A86A3E",
"%.	c #9F766D",
"&.	c #997167",
"*.	c #9C7369",
"=.	c #966E64",
"-.	c #8C675F",
";.	c #785953",
">.	c #5D403D",
",.	c #582020",
"'.	c #5C4340",
").	c #6F514C",
"!.	c #755650",
"~.	c #765650",
"{.	c #785852",
"].	c #926C62",
"^.	c #987169",
"/.	c #A66E4A",
"(.	c #B66B2B",
"_.	c #A36A44",
":.	c #987066",
"<.	c #88645B",
"[.	c #87635B",
"}.	c #87645C",
"|.	c #77554F",
"1.	c #633734",
"2.	c #5E2321",
"3.	c #5E4542",
"4.	c #73544F",
"5.	c #946D63",
"6.	c #9B7369",
"7.	c #9E756C",
"8.	c #A2786E",
"9.	c #A0766B",
"0.	c #8B665D",
"a.	c #85615A",
"b.	c #775751",
"c.	c #6B4945",
"d.	c #6B4E4A",
"e.	c #846159",
"f.	c #906A61",
"g.	c #9F756B",
"h.	c #795852",
"i.	c #694D49",
"j.	c #674C47",
"k.	c #9D7369",
"l.	c #9A7267",
"m.	c #8E6860",
"n.	c #815F57",
"o.	c #5F4642",
"p.	c #6C504B",
"q.	c #7D5B55",
"r.	c #805E58",
"s.	c #6D5254",
"t.	c #42374F",
"u.	c #3E344C",
"v.	c #654A47",
"w.	c #715350",
"x.	c #775853",
"y.	c #674F56",
"z.	c #3D3451",
"A.	c #504052",
"B.	c #785A57",
"C.	c #6F5354",
"D.	c #4A3B47",
"E.	c #4B3B4A",
"F.	c #393353",
"G.	c #3A3352",
"H.	c #3B3457",
"I.	c #433957",
"J.	c #6B5051",
"K.	c #A0786D",
"L.	c #A07A70",
"M.	c #8D6962",
"N.	c #4E3D47",
"O.	c #2D2944",
"P.	c #3A3459",
"Q.	c #3E375F",
"R.	c #3E3861",
"S.	c #403A66",
"T.	c #564763",
"U.	c #89665C",
"V.	c #A37E74",
"W.	c #A48077",
"X.	c #9C776D",
"Y.	c #705452",
"Z.	c #322E4D",
"`.	c #3E3860",
" +	c #443D6A",
".+	c #4C4476",
"++	c #4B4578",
"@+	c #574762",
"#+	c #936E63",
"$+	c #A37E75",
"%+	c #A37D73",
"&+	c #99746A",
"*+	c #644C4E",
"=+	c #312C4A",
"-+	c #342F4F",
";+	c #393459",
">+	c #4A4372",
",+	c #574F86",
"'+	c #4F4773",
")+	c #644D58",
"!+	c #A77C6F",
"~+	c #A37D74",
"{+	c #4A3641",
"]+	c #2B2944",
"^+	c #353051",
"/+	c #393458",
"(+	c #373154",
"_+	c #47406D",
":+	c #514A7E",
"<+	c #41395E",
"[+	c #3F394E",
"}+	c #6E5F6F",
"|+	c #A3796C",
"1+	c #604547",
"2+	c #4B2C33",
"3+	c #452835",
"4+	c #393357",
"5+	c #3A345A",
"6+	c #453E6B",
"7+	c #433D6A",
"8+	c #423957",
"9+	c #554650",
"0+	c #5D5771",
"a+	c #46517E",
"b+	c #46435F",
"c+	c #4B3138",
"d+	c #322D4C",
"e+	c #3C365D",
"f+	c #413B67",
"g+	c #50425C",
"h+	c #795A58",
"i+	c #8F6C68",
"j+	c #625360",
"k+	c #4A3F4C",
"l+	c #34273A",
"m+	c #302B49",
"n+	c #393358",
"o+	c #38345A",
"p+	c #463A4E",
"q+	c #916B61",
"r+	c #8D675E",
"s+	c #7A5851",
"t+	c #5B4445",
"u+	c #2D2E4E",
"v+	c #253154",
"w+	c #3D3E57",
"x+	c #624B4B",
"y+	c #614B4C",
"z+	c #514148",
"A+	c #28273C",
"B+	c #29273F",
"C+	c #252C48",
"D+	c #253864",
"E+	c #263B68",
"F+	c #27365D",
"G+	c #273459",
"H+	c #262F4E",
"I+	c #252943",
"J+	c #25355C",
"K+	c #263E71",
"L+	c #263D6F",
"M+	c #253255",
"N+	c #232C4C",
"O+	c #223C70",
"P+	c #233E74",
"Q+	c #25365F",
"R+	c #2B2F47",
"S+	c #4C3F48",
"T+	c #605360",
"U+	c #504F67",
"V+	c #253667",
"W+	c #403A5C",
"X+	c #6F5350",
"Y+	c #382F47",
"Z+	c #4C3A66",
"`+	c #5C4579",
" @	c #4D3F6C",
".@	c #303066",
"+@	c #39305B",
"@@	c #28253F",
"#@	c #2B264A",
"$@	c #2B274E",
"%@	c #2A2648",
"&@	c #2B2645",
"                                                                ",
"                                                                ",
"                                      .                         ",
"                                      + @ #   $ %       &       ",
"                                * = - ; > , ' )   ! ~           ",
"                            { ] ^ / ( _ : < [ } | 1             ",
"                          2 3 4 5 6 7 8 9 0 a b c d e f         ",
"            g h g i i j k l m n o p q r s t u v w x y           ",
"        z A B C D E E F ( G H I J K L M N t O 0 P Q R S ~       ",
"      { T U V W X Y Z ` u  ...+.@.#.$.%.&._ *.=.-.;.>.,.        ",
"    '.).!.w ~.{.~.{.^ 3 ].u ^./.(._. .:.<.[.:.( }.|.1.2.        ",
"        3.4.c !.c !.k 2 B / 5.6.7.8.9.0.^ F 5.a.b.c.            ",
"          d.2 2 2 2 2 2 = b.e.P f.6.g.0 / v D h.z               ",
"                          z i.j.~.b E k.l.m.n.c o.              ",
"                                  p.q.C F r.s.t.u.              ",
"                                  v.w.x.y.z.A.B.C.D.            ",
"                                  E.F.G.H.I.J.K.L.M.N.O.        ",
"                                  P.Q.R.S.T.U.V.W.X.Y.O.        ",
"                                Z.`. +.+++@+#+$+%+&+*+O.        ",
"                              =+-+;+>+,+'+)+!+~+O b {+]+        ",
"                              ^+/+(+_+:+<+[+}+|+-.1+2+3+        ",
"                              ^+4+5+6+7+8+9+0+a+b+c+            ",
"                                d+e+f+g+h+f.i+j+k+l+            ",
"                                m+n+o+p+; q+r+s+t+              ",
"                                m+-+u+v+w+x+y+z+A+              ",
"                                  B+C+D+E+F+G+H+                ",
"                                    I+J+K+L+M+                  ",
"                                      N+O+P+Q+R+                ",
"                                      S+T+U+V+W+X+              ",
"                                    Y+Z+`+ @.@+@                ",
"                                    @@#@$@%@&@                  ",
"                                                                "};
