/* XPM */
static char * turn_right_left_foot_xpm[] = {
"32 32 309 2",
"  	c None",
". 	c #692724",
"+ 	c #712926",
"@ 	c #662523",
"# 	c #633835",
"$ 	c #5B3634",
"% 	c #643936",
"& 	c #5E2321",
"* 	c #5A2D2B",
"= 	c #603B38",
"- 	c #60423F",
"; 	c #6F524D",
"> 	c #775852",
", 	c #7D5D56",
"' 	c #73544F",
") 	c #6C4F4A",
"! 	c #5F4542",
"~ 	c #6C2825",
"{ 	c #5C3230",
"] 	c #654845",
"^ 	c #735550",
"/ 	c #7E5D56",
"( 	c #8D685F",
"_ 	c #946D63",
": 	c #976F65",
"< 	c #926B62",
"[ 	c #89655D",
"} 	c #795952",
"| 	c #70524D",
"1 	c #624744",
"2 	c #622422",
"3 	c #672523",
"4 	c #5F3533",
"5 	c #6B4F4A",
"6 	c #846159",
"7 	c #916A61",
"8 	c #966E65",
"9 	c #9A7167",
"0 	c #9F756B",
"a 	c #9E756A",
"b 	c #9D7469",
"c 	c #9B6F60",
"d 	c #976C5D",
"e 	c #664B47",
"f 	c #582322",
"g 	c #5C3A38",
"h 	c #72544F",
"i 	c #8D675F",
"j 	c #9B7268",
"k 	c #9F756A",
"l 	c #A1776D",
"m 	c #A67B71",
"n 	c #9E7468",
"o 	c #9E6C52",
"p 	c #CC7A2F",
"q 	c #BC681B",
"r 	c #9F6C51",
"s 	c #926A60",
"t 	c #6C4F4B",
"u 	c #644946",
"v 	c #654A46",
"w 	c #642523",
"x 	c #603A37",
"y 	c #6B4F4B",
"z 	c #A0766C",
"A 	c #A47A71",
"B 	c #A4735C",
"C 	c #C06C19",
"D 	c #D9974E",
"E 	c #C67627",
"F 	c #BF6916",
"G 	c #9C6D57",
"H 	c #987067",
"I 	c #926C62",
"J 	c #936D63",
"K 	c #936D64",
"L 	c #926C63",
"M 	c #8E685F",
"N 	c #7E5C55",
"O 	c #694D49",
"P 	c #684C48",
"Q 	c #581F1E",
"R 	c #5D3A38",
"S 	c #71544F",
"T 	c #9A7267",
"U 	c #987066",
"V 	c #9E756B",
"W 	c #A17360",
"X 	c #AF682A",
"Y 	c #C88132",
"Z 	c #AD6C22",
"` 	c #B97135",
" .	c #9B6E5D",
"..	c #9D746A",
"+.	c #9C7369",
"@.	c #997269",
"#.	c #977067",
"$.	c #946D64",
"%.	c #916B62",
"&.	c #815F57",
"*.	c #6F514C",
"=.	c #85625A",
"-.	c #694D48",
";.	c #60302E",
">.	c #734D47",
",.	c #836159",
"'.	c #8F6960",
").	c #825F58",
"!.	c #986E61",
"~.	c #AD6A37",
"{.	c #B26F3C",
"].	c #996F62",
"^.	c #86625A",
"/.	c #7B5A53",
"(.	c #785852",
"_.	c #74554F",
":.	c #755550",
"<.	c #73554F",
"[.	c #775751",
"}.	c #71534D",
"|.	c #6A4E49",
"1.	c #5B4340",
"2.	c #70534E",
"3.	c #805E56",
"4.	c #8E6960",
"5.	c #936C63",
"6.	c #836058",
"7.	c #997167",
"8.	c #A47A6F",
"9.	c #9F766E",
"0.	c #9B736B",
"a.	c #8C675E",
"b.	c #88645C",
"c.	c #765751",
"d.	c #755650",
"e.	c #72534E",
"f.	c #5D4441",
"g.	c #604743",
"h.	c #916B61",
"i.	c #85615A",
"j.	c #805E57",
"k.	c #6D504B",
"l.	c #6A4D49",
"m.	c #674B47",
"n.	c #674B48",
"o.	c #7B5B54",
"p.	c #956E64",
"q.	c #966E64",
"r.	c #84615A",
"s.	c #3A324A",
"t.	c #3F3650",
"u.	c #594553",
"v.	c #7C5B56",
"w.	c #82605A",
"x.	c #815E57",
"y.	c #634845",
"z.	c #483A47",
"A.	c #6F5353",
"B.	c #826059",
"C.	c #644D54",
"D.	c #393250",
"E.	c #4B3D54",
"F.	c #755755",
"G.	c #6C5050",
"H.	c #6A4F4E",
"I.	c #493A46",
"J.	c #84635E",
"K.	c #A27B71",
"L.	c #A37C71",
"M.	c #85635D",
"N.	c #4F3F50",
"O.	c #3C365D",
"P.	c #383253",
"Q.	c #3B3452",
"R.	c #523F45",
"S.	c #634B4F",
"T.	c #977268",
"U.	c #A48077",
"V.	c #957166",
"W.	c #6A525B",
"X.	c #423C6A",
"Y.	c #413A65",
"Z.	c #3F3861",
"`.	c #3D375E",
" +	c #373255",
".+	c #53414A",
"++	c #8E6A63",
"@+	c #A37C72",
"#+	c #A37E74",
"$+	c #9C776C",
"%+	c #735860",
"&+	c #443E6E",
"*+	c #534B7F",
"=+	c #473F6F",
"-+	c #423B66",
";+	c #393357",
">+	c #2D2944",
",+	c #42313F",
"'+	c #765551",
")+	c #9A7166",
"!+	c #A67E73",
"~+	c #856360",
"{+	c #4A3E5D",
"]+	c #564E84",
"^+	c #534C80",
"/+	c #3F3962",
"(+	c #353051",
"_+	c #492A31",
":+	c #563C3F",
"<+	c #7B5C58",
"[+	c #9E7569",
"}+	c #80686F",
"|+	c #3F405E",
"1+	c #37324C",
"2+	c #4A4273",
"3+	c #4F487A",
"4+	c #3C365C",
"5+	c #353052",
"6+	c #2E2A47",
"7+	c #472E36",
"8+	c #443B52",
"9+	c #3A4A7A",
"0+	c #53567A",
"a+	c #69555B",
"b+	c #4E3F4F",
"c+	c #413A63",
"d+	c #453E6C",
"e+	c #413B65",
"f+	c #363052",
"g+	c #3B355B",
"h+	c #2E2A46",
"i+	c #3B2637",
"j+	c #433846",
"k+	c #665156",
"l+	c #846564",
"m+	c #997166",
"n+	c #86635C",
"o+	c #685057",
"p+	c #3E3860",
"q+	c #423C67",
"r+	c #2F2B48",
"s+	c #6D504C",
"t+	c #866259",
"u+	c #815F59",
"v+	c #55434C",
"w+	c #343052",
"x+	c #342F50",
"y+	c #3D3543",
"z+	c #5A484D",
"A+	c #5A474C",
"B+	c #4B4352",
"C+	c #26355C",
"D+	c #272E4F",
"E+	c #312D4C",
"F+	c #322E4D",
"G+	c #252B48",
"H+	c #25365E",
"I+	c #253762",
"J+	c #253965",
"K+	c #253863",
"L+	c #252E4E",
"M+	c #252A44",
"N+	c #2A2740",
"O+	c #25355E",
"P+	c #263D6E",
"Q+	c #253A66",
"R+	c #253154",
"S+	c #242C4B",
"T+	c #252F4F",
"U+	c #253A68",
"V+	c #242D4A",
"W+	c #333348",
"X+	c #23335B",
"Y+	c #233D71",
"Z+	c #243E73",
"`+	c #233259",
" @	c #2D2939",
".@	c #3F3544",
"+@	c #2F3266",
"@@	c #31387A",
"#@	c #34346A",
"$@	c #56444C",
"%@	c #513F57",
"&@	c #2D3661",
"*@	c #4B4C66",
"=@	c #6C5960",
"-@	c #584B56",
";@	c #453B47",
">@	c #2C284E",
",@	c #372D69",
"'@	c #392F6A",
")@	c #523F6C",
"!@	c #443658",
"~@	c #362E57",
"{@	c #302E64",
"]@	c #41386A",
"^@	c #533F78",
"/@	c #4A3970",
"(@	c #392E4E",
"_@	c #282744",
":@	c #282745",
"<@	c #28274A",
"[@	c #272746",
"}@	c #25263D",
"|@	c #2A2641",
"1@	c #292543",
"2@	c #2A2647",
"3@	c #2A2646",
"4@	c #28253F",
"                                                                ",
"                                                                ",
"                                                                ",
"              .           +                                     ",
"                @     # $ %                                     ",
"            &   * = - ; > , ' ) !                               ",
"      ~       { ] ^ / ( _ : < [ } | 1                           ",
"        2 3 4 5 6 7 8 9 0 a b c d ( / e                         ",
"          f g h i j k l m n o p q r s 6 t u v v v u v           ",
"      w 3 x y 6 _ j k z A B C D E F G H I < J K L M N O P       ",
"        Q R S [ _ T U < V W X Y Z `  ...j +.@.#.$.%.&.*.=.-.    ",
"          ;.>.,.'.: '.).'.j !.~.{.].+.T ^./.(.' _.:.<.[.}.|.1.  ",
"              2.3.4.5.6.3.7.8.9.0.U a.b.[.}.c.d.d.c.d.e.f.      ",
"              g.| b.5.h.h.b +.$.b.i.j.k.O l.O O O O |.m.        ",
"                n.o.b.p.b q.r.j.m.v v                           ",
"              s.t.u.v.w.'.x._.y.                                ",
"            z.A.B.C.D.E.F.G.H.!                                 ",
"          I.J.K.L.M.N.O.P.P.Q.R.                                ",
"          S.T.U.U.V.W.X.Y.Z.`. +                                ",
"          .+++@+#+$+%+&+*+=+-+;+>+                              ",
"          ,+'+)+K.!+~+{+]+^+/+(+(+                              ",
"          _+:+<+[+}+|+1+2+3+4+5+4+6+                            ",
"            7+8+9+0+a+b+c+d+e+f+g+h+                            ",
"            i+j+k+l+m+n+o+p+q+(+r+                              ",
"                s+t+M u+v+w+g+x+>+                              ",
"                y+z+A+B+C+D+E+F+>+                              ",
"                G+H+I+J+K+L+M+N+                                ",
"                O+P+Q+R+S+T+U+V+                                ",
"            W+X+Y+Z+`+ @.@+@@@#@$@                              ",
"          %@&@*@=@-@;@    >@,@'@)@!@                            ",
"          ~@{@]@^@/@(@      _@:@<@[@}@                          ",
"            |@1@2@3@4@                                          "};
