/* XPM */
static char * turn_left_foot_xpm[] = {
"32 32 306 2",
"  	c None",
". 	c #623633",
"+ 	c #5D3431",
"@ 	c #592D2B",
"# 	c #5A2120",
"$ 	c #59201F",
"% 	c #674B47",
"& 	c #6F514B",
"* 	c #75544F",
"= 	c #76544E",
"- 	c #704F4A",
"; 	c #664541",
"> 	c #5E3836",
", 	c #5E302E",
"' 	c #552322",
") 	c #694D49",
"! 	c #72534E",
"~ 	c #7C5B55",
"{ 	c #87635B",
"] 	c #8F6960",
"^ 	c #906A61",
"/ 	c #8A655D",
"( 	c #7E5D56",
"_ 	c #73534D",
": 	c #694844",
"< 	c #5E3634",
"[ 	c #552523",
"} 	c #6F524D",
"| 	c #7F5D55",
"1 	c #8D6456",
"2 	c #976A56",
"3 	c #9B6E5F",
"4 	c #9B7267",
"5 	c #9C7369",
"6 	c #9A7167",
"7 	c #936C63",
"8 	c #8C675F",
"9 	c #815E57",
"0 	c #6E4D48",
"a 	c #5D3633",
"b 	c #582322",
"c 	c #581F1E",
"d 	c #6A4E48",
"e 	c #755550",
"f 	c #846059",
"g 	c #956855",
"h 	c #A96A3D",
"i 	c #BA7134",
"j 	c #B17346",
"k 	c #A0715C",
"l 	c #A0756B",
"m 	c #A1776D",
"n 	c #9E7469",
"o 	c #9A7166",
"p 	c #8E6960",
"q 	c #795852",
"r 	c #63413E",
"s 	c #5C2A29",
"t 	c #57201F",
"u 	c #6C4F4A",
"v 	c #7A5953",
"w 	c #846159",
"x 	c #88645C",
"y 	c #8A655C",
"z 	c #89655C",
"A 	c #8E6861",
"B 	c #956B5F",
"C 	c #A76A40",
"D 	c #BC6E26",
"E 	c #CB7E2F",
"F 	c #C57C35",
"G 	c #AC6F44",
"H 	c #A17567",
"I 	c #9C7267",
"J 	c #6E4F4A",
"K 	c #603A37",
"L 	c #602625",
"M 	c #6A4E49",
"N 	c #775751",
"O 	c #8C675E",
"P 	c #916B62",
"Q 	c #956E65",
"R 	c #956E64",
"S 	c #987067",
"T 	c #9A7063",
"U 	c #A76E48",
"V 	c #B46E2D",
"W 	c #BD772D",
"X 	c #BB7632",
"Y 	c #A86E46",
"Z 	c #9D7264",
"` 	c #977066",
" .	c #956D64",
"..	c #997066",
"+.	c #956D63",
"@.	c #89655D",
"#.	c #75554F",
"$.	c #613E3A",
"%.	c #592524",
"&.	c #694C48",
"*.	c #72544E",
"=.	c #7A5A53",
"-.	c #7F5E56",
";.	c #8F6A60",
">.	c #987065",
",.	c #9C6F5F",
"'.	c #A66E49",
").	c #AE6E3A",
"!.	c #A76E47",
"~.	c #9B6F5E",
"{.	c #946D63",
"].	c #8B665D",
"^.	c #74514B",
"/.	c #633734",
"(.	c #634845",
"_.	c #6F514C",
":.	c #71534D",
"<.	c #72534D",
"[.	c #71524D",
"}.	c #7D5C54",
"|.	c #926B61",
"1.	c #996F62",
"2.	c #9E7161",
"3.	c #A07466",
"4.	c #9B7268",
"5.	c #8D685F",
"6.	c #836058",
"7.	c #906A60",
"8.	c #856159",
"9.	c #765650",
"0.	c #6C4844",
"a.	c #6B4F4A",
"b.	c #6B4E4A",
"c.	c #6B4E49",
"d.	c #6D504B",
"e.	c #775750",
"f.	c #805E56",
"g.	c #86625B",
"h.	c #8D6860",
"i.	c #977067",
"j.	c #9A7268",
"k.	c #946C63",
"l.	c #8D685E",
"m.	c #694D48",
"n.	c #6D4F4A",
"o.	c #836059",
"p.	c #8E685F",
"q.	c #976E64",
"r.	c #7E5D57",
"s.	c #6A4E4D",
"t.	c #5B4445",
"u.	c #7D5B55",
"v.	c #89645C",
"w.	c #87645D",
"x.	c #785958",
"y.	c #684E53",
"z.	c #53414F",
"A.	c #483A4A",
"B.	c #624847",
"C.	c #694E4F",
"D.	c #6D5253",
"E.	c #614B55",
"F.	c #4E3E52",
"G.	c #594552",
"H.	c #6F5457",
"I.	c #6B5155",
"J.	c #53414B",
"K.	c #4A3B4B",
"L.	c #433852",
"M.	c #423854",
"N.	c #413857",
"O.	c #483B56",
"P.	c #6B5256",
"Q.	c #936F66",
"R.	c #97736A",
"S.	c #7F605D",
"T.	c #53414A",
"U.	c #3B3456",
"V.	c #3C365D",
"W.	c #3D3761",
"X.	c #413A64",
"Y.	c #574760",
"Z.	c #82625F",
"`.	c #9F796F",
" +	c #A37E74",
".+	c #947068",
"++	c #674F51",
"@+	c #322E4E",
"#+	c #3B355C",
"$+	c #433C69",
"%+	c #494273",
"&+	c #4B4371",
"*+	c #604D63",
"=+	c #8E6B65",
"-+	c #A17B71",
";+	c #906D65",
">+	c #614A4F",
",+	c #302B4A",
"'+	c #342F4F",
")+	c #3A345A",
"!+	c #47406F",
"~+	c #51497D",
"{+	c #4E456F",
"]+	c #624E5E",
"^+	c #926F69",
"/+	c #A27B70",
"(+	c #7E5C57",
"_+	c #513B44",
":+	c #332E4F",
"<+	c #363154",
"[+	c #393358",
"}+	c #453F6C",
"|+	c #4B4475",
"1+	c #443C61",
"2+	c #4C4256",
"3+	c #715E6A",
"4+	c #8C6E6E",
"5+	c #81615F",
"6+	c #634648",
"7+	c #4B2F37",
"8+	c #373154",
"9+	c #3A345B",
"0+	c #423C67",
"a+	c #463E67",
"b+	c #4B3F59",
"c+	c #594956",
"d+	c #62576B",
"e+	c #595571",
"f+	c #50465A",
"g+	c #4A343E",
"h+	c #332D4E",
"i+	c #403962",
"j+	c #4F415B",
"k+	c #6E5357",
"l+	c #85635E",
"m+	c #816465",
"n+	c #625360",
"o+	c #4A3E4E",
"p+	c #3D2C3B",
"q+	c #363155",
"r+	c #383457",
"s+	c #463C51",
"t+	c #6C5254",
"u+	c #86635B",
"v+	c #85625A",
"w+	c #6F5350",
"x+	c #524045",
"y+	c #2F2A48",
"z+	c #312D4C",
"A+	c #2C2E4F",
"B+	c #2D3454",
"C+	c #424056",
"D+	c #5B4A51",
"E+	c #5D494D",
"F+	c #513F45",
"G+	c #2B2742",
"H+	c #292944",
"I+	c #252F51",
"J+	c #243761",
"K+	c #283962",
"L+	c #2D3555",
"M+	c #2E314B",
"N+	c #2C2D45",
"O+	c #232945",
"P+	c #243358",
"Q+	c #243B6B",
"R+	c #253A69",
"S+	c #253255",
"T+	c #222B4B",
"U+	c #232E51",
"V+	c #2B2E45",
"W+	c #283150",
"X+	c #25355E",
"Y+	c #283B69",
"Z+	c #303C63",
"`+	c #313752",
" @	c #2A3251",
".@	c #283860",
"+@	c #2D3A5F",
"@@	c #544250",
"#@	c #524557",
"$@	c #3F4262",
"%@	c #2C3764",
"&@	c #383A5E",
"*@	c #443E52",
"=@	c #3E3746",
"-@	c #423D51",
";@	c #404365",
">@	c #2C3D6C",
",@	c #31395C",
"'@	c #48395E",
")@	c #503E65",
"!@	c #4F3E60",
"~@	c #3F385F",
"{@	c #2F2F58",
"]@	c #3D3448",
"^@	c #40385D",
"/@	c #313366",
"(@	c #2A2E58",
"_@	c #2B2643",
":@	c #30294F",
"<@	c #322A53",
"[@	c #30294D",
"}@	c #2E2849",
"|@	c #2B2849",
"1@	c #2B284D",
"                                                                ",
"                                                                ",
"                                                                ",
"                                      . + @   # $               ",
"                                % & * = - ; > , '               ",
"                            ) ! ~ { ] ^ / ( _ : < [             ",
"                          } | 1 2 3 4 5 6 7 8 9 0 a b c         ",
"                      d e f g h i j k l m n o p q r s t         ",
"          u v w x y z z A B C D E F G H m n I 7 w J K L         ",
"      M N ! 9 O P 7 Q R S T U V W X Y Z `  ...+.@.#.$.%.        ",
"      &.*.e N v =.~ -.w ;.>.,.'.).!.~.{.y ].{.^ w ^./.          ",
"        (._.:.<.:.! [.:.}./ |.1.2.3.4.5.6.].7.8.9.0.            ",
"          &.u u a.u b.c.d.e.f.g.h.i.j.k.l.] / q m.              ",
"                            c.n.e.o.p.q.+.O r.s.t.              ",
"                                  _.u.v.w.x.y.z.A.              ",
"                                  B.C.D.E.F.G.H.I.J.            ",
"                                  K.L.M.N.O.P.Q.R.S.T.          ",
"                                  U.V.W.X.Y.Z.`. +.+++          ",
"                                @+#+$+%+&+*+=+-+-+;+>+          ",
"                              ,+'+)+!+~+{+]+^+/+j.(+_+          ",
"                              :+<+[+}+|+1+2+3+4+5+6+7+          ",
"                              :+8+9+0+a+b+c+d+e+f+g+            ",
"                                h+)+i+j+k+l+m+n+o+p+            ",
"                                ,+q+r+s+t+u+v+w+x+              ",
"                                y+z+A+B+C+D+E+F+                ",
"                                G+H+I+J+K+L+M+N+                ",
"                                  O+P+Q+R+S+T+U+                ",
"                                V+W+X+Y+Z+`+ @.@+@              ",
"                              @@#@$@%@&@*@=@-@;@>@,@            ",
"                            '@)@!@~@{@      ]@^@/@(@            ",
"                          _@:@<@[@}@          |@1@              ",
"                                                                "};
