/* XPM */
static char * backwards_left_foot_xpm[] = {
"32 32 427 2",
"  	c #C8A2C8",
". 	c #474848",
"+ 	c #494A4A",
"@ 	c #4A4A4A",
"# 	c #464747",
"$ 	c #676868",
"% 	c #828383",
"& 	c #B9BDBD",
"* 	c #D3D5D5",
"= 	c #D9DADA",
"- 	c #D9DBDA",
"; 	c #D7D8D8",
"> 	c #CED0D0",
", 	c #AEB2B2",
"' 	c #6F7070",
") 	c #595C5C",
"! 	c #6E7272",
"~ 	c #929393",
"{ 	c #C2C3C3",
"] 	c #EAEBEB",
"^ 	c #F8F8F8",
"/ 	c #FCFCFC",
"( 	c #EEEEEE",
"_ 	c #A19EA1",
": 	c #7F797D",
"< 	c #807A7E",
"[ 	c #7F7A7E",
"} 	c #837F83",
"| 	c #D8D8D8",
"1 	c #F7F7F7",
"2 	c #F9F9F9",
"3 	c #F3F3F3",
"4 	c #E7E8E8",
"5 	c #D6D9D9",
"6 	c #A7A9A9",
"7 	c #828585",
"8 	c #646767",
"9 	c #3B3C3C",
"0 	c #999D9D",
"a 	c #DCDEDE",
"b 	c #F6F6F6",
"c 	c #FDFDFD",
"d 	c #F5F5F5",
"e 	c #CCCBCC",
"f 	c #7A6C77",
"g 	c #9B648A",
"h 	c #AA5790",
"i 	c #993D7E",
"j 	c #882E71",
"k 	c #792969",
"l 	c #63455D",
"m 	c #A8A2A7",
"n 	c #E3E3E3",
"o 	c #F4F4F4",
"p 	c #F0F0F0",
"q 	c #E4E5E5",
"r 	c #B6BABA",
"s 	c #5F6464",
"t 	c #272727",
"u 	c #727474",
"v 	c #EBEBEB",
"w 	c #FBFBFB",
"x 	c #FFFFFF",
"y 	c #D6D6D6",
"z 	c #3F383D",
"A 	c #A9538F",
"B 	c #DC8BC1",
"C 	c #E492CC",
"D 	c #D46BB7",
"E 	c #BC4094",
"F 	c #B03A8E",
"G 	c #993181",
"H 	c #4C2A44",
"I 	c #838684",
"J 	c #EFEFEF",
"K 	c #F2F2F2",
"L 	c #E0E2E2",
"M 	c #A9AEAE",
"N 	c #454848",
"O 	c #5C5E5E",
"P 	c #CFD2D2",
"Q 	c #CFCFCF",
"R 	c #2F282D",
"S 	c #9A367E",
"T 	c #C655A5",
"U 	c #CB5CA9",
"V 	c #C24E9E",
"W 	c #B43D90",
"X 	c #AA388C",
"Y 	c #A23489",
"Z 	c #46213E",
"` 	c #727573",
" .	c #E2E3E3",
"..	c #E8E8E8",
"+.	c #C8CCCC",
"@.	c #848B8B",
"#.	c #353737",
"$.	c #656666",
"%.	c #DFE0E0",
"&.	c #F1F1F1",
"*.	c #F6F5F5",
"=.	c #CECFCF",
"-.	c #423E42",
";.	c #722A66",
">.	c #A13385",
",.	c #B23A8F",
"'.	c #AF398E",
").	c #A6368B",
"!.	c #9B3185",
"~.	c #812972",
"{.	c #462C43",
"].	c #7D817F",
"^.	c #E1E2E2",
"/.	c #E9E9E9",
"(.	c #D1D3D3",
"_.	c #A3AAAA",
":.	c #3D3F3F",
"<.	c #646565",
"[.	c #DEE0E0",
"}.	c #A1A7A7",
"|.	c #5A585D",
"1.	c #5E3057",
"2.	c #6B275E",
"3.	c #6E2A60",
"4.	c #6C295F",
"5.	c #64275A",
"6.	c #463745",
"7.	c #777B7C",
"8.	c #D1D4D4",
"9.	c #A7AEAE",
"0.	c #3E4040",
"a.	c #E8E9E9",
"b.	c #CDD0D0",
"c.	c #AFB5B4",
"d.	c #757B7B",
"e.	c #5E6363",
"f.	c #606564",
"g.	c #626767",
"h.	c #8F9595",
"i.	c #BCC1C1",
"j.	c #D9DBDB",
"k.	c #C4C8C8",
"l.	c #BDC2C2",
"m.	c #BEC3C3",
"n.	c #D2D5D5",
"o.	c #EDEDED",
"p.	c #A6AEAE",
"q.	c #656565",
"r.	c #ECECEC",
"s.	c #E6E7E7",
"t.	c #C7CBCB",
"u.	c #A6ADAD",
"v.	c #5E6060",
"w.	c #CCCFCF",
"x.	c #EDEEEE",
"y.	c #EBECEC",
"z.	c #C0C5C5",
"A.	c #A1A8A8",
"B.	c #3E3F3F",
"C.	c #C3C8C8",
"D.	c #DDDEDE",
"E.	c #E3E4E4",
"F.	c #D6D8D8",
"G.	c #A4A9A9",
"H.	c #484A4A",
"I.	c #7C8181",
"J.	c #B1B7B7",
"K.	c #C4C9C9",
"L.	c #D0D3D3",
"M.	c #D0D2D2",
"N.	c #B3B9B9",
"O.	c #8D9393",
"P.	c #525656",
"Q.	c #5C6060",
"R.	c #757A7A",
"S.	c #919898",
"T.	c #A0A7A7",
"U.	c #A9B0B0",
"V.	c #AAB0B0",
"W.	c #ABB1B1",
"X.	c #ABB1B0",
"Y.	c #A8AFAF",
"Z.	c #9DA4A4",
"`.	c #8A9191",
" +	c #6D7171",
".+	c #515454",
"++	c #3C3E3E",
"@+	c #343636",
"#+	c #3B3D3D",
"$+	c #505252",
"%+	c #454646",
"&+	c #3C4347",
"*+	c #3A4750",
"=+	c #3A4952",
"-+	c #3A4851",
";+	c #3A474F",
">+	c #3C4448",
",+	c #434545",
"'+	c #4C4E4E",
")+	c #454747",
"!+	c #323434",
"~+	c #595959",
"{+	c #9D9E9E",
"]+	c #959696",
"^+	c #424140",
"/+	c #0D304B",
"(+	c #004D88",
"_+	c #005697",
":+	c #004C86",
"<+	c #004981",
"[+	c #004478",
"}+	c #0D2E48",
"|+	c #383634",
"1+	c #757676",
"2+	c #7C7D7D",
"3+	c #545555",
"4+	c #3C2C36",
"5+	c #421F38",
"6+	c #494A49",
"7+	c #7E807F",
"8+	c #B5B7B6",
"9+	c #BDBEBE",
"0+	c #3F4040",
"a+	c #0D4365",
"b+	c #006EBA",
"c+	c #0074CE",
"d+	c #0065B3",
"e+	c #00589B",
"f+	c #004F8C",
"g+	c #05406D",
"h+	c #254055",
"i+	c #636464",
"j+	c #878788",
"k+	c #8B8B8B",
"l+	c #6B3C5B",
"m+	c #7C1F61",
"n+	c #98357F",
"o+	c #662C58",
"p+	c #3A2837",
"q+	c #493845",
"r+	c #594854",
"s+	c #675B65",
"t+	c #898A89",
"u+	c #444444",
"v+	c #18344E",
"w+	c #086C43",
"x+	c #049567",
"y+	c #047AD6",
"z+	c #0471C5",
"A+	c #045796",
"B+	c #044B81",
"C+	c #044578",
"D+	c #0D3A5B",
"E+	c #31292F",
"F+	c #652D55",
"G+	c #682D57",
"H+	c #832D6C",
"I+	c #A33484",
"J+	c #B33C91",
"K+	c #973380",
"L+	c #2D222A",
"M+	c #602F50",
"N+	c #AC4D90",
"O+	c #C76EB3",
"P+	c #C060AA",
"Q+	c #AE4291",
"R+	c #8F3477",
"S+	c #4E2E49",
"T+	c #262125",
"U+	c #1D2225",
"V+	c #1E2A1F",
"W+	c #1E2E20",
"X+	c #1E2932",
"Y+	c #1E2931",
"Z+	c #1E252B",
"`+	c #1E2429",
" @	c #1E2428",
".@	c #1E2225",
"+@	c #2C2029",
"@@	c #721D60",
"#@	c #852474",
"$@	c #982E83",
"%@	c #A2348A",
"&@	c #94317E",
"*@	c #66275C",
"=@	c #412739",
"-@	c #BB4495",
";@	c #D66DC2",
">@	c #DF87C9",
",@	c #DC7CCA",
"'@	c #CF5CB8",
")@	c #B53C90",
"!@	c #872978",
"~@	c #30212D",
"{@	c #133B59",
"]@	c #0F4E7F",
"^@	c #0F558C",
"/@	c #0F5993",
"(@	c #0F5285",
"_@	c #0F4A77",
":@	c #0F3D60",
"<@	c #0F3552",
"[@	c #142D40",
"}@	c #242023",
"|@	c #3B1A30",
"1@	c #4F2247",
"2@	c #54254D",
"3@	c #55254D",
"4@	c #4C2446",
"5@	c #3D2636",
"6@	c #99377E",
"7@	c #BD489E",
"8@	c #C44EA3",
"9@	c #C44DA3",
"0@	c #BB449B",
"a@	c #A23588",
"b@	c #7B296E",
"c@	c #3A2D38",
"d@	c #0E4166",
"e@	c #01589B",
"f@	c #016BBC",
"g@	c #0071CA",
"h@	c #006CC0",
"i@	c #015595",
"j@	c #19415F",
"k@	c #273B4A",
"l@	c #26333E",
"m@	c #202121",
"n@	c #762F64",
"o@	c #7F306A",
"p@	c #7E3069",
"q@	c #772D66",
"r@	c #5F2656",
"s@	c #332831",
"t@	c #787778",
"u@	c #595E61",
"v@	c #3D444A",
"w@	c #283F51",
"x@	c #0A3D65",
"y@	c #0C3D64",
"z@	c #2D3C48",
"A@	c #707172",
"B@	c #989796",
"C@	c #767676",
"D@	c #202020",
"E@	c #202120",
"F@	c #40233C",
"G@	c #622857",
"H@	c #5A2A4E",
"I@	c #292829",
"J@	c #9D9D9D",
"K@	c #90908F",
"L@	c #5F5F5E",
"M@	c #252526",
"N@	c #777777",
"O@	c #A7A9A8",
"P@	c #B6B8B7",
"Q@	c #939594",
"R@	c #642A58",
"S@	c #A7348E",
"T@	c #91337A",
"U@	c #362734",
"V@	c #616162",
"W@	c #7A7C7A",
"X@	c #787978",
"Y@	c #545554",
"Z@	c #252625",
"`@	c #7A7D7B",
" #	c #898388",
".#	c #6F626C",
"+#	c #52444F",
"@#	c #443641",
"##	c #2F232E",
"$#	c #502549",
"%#	c #812C71",
"&#	c #9C3286",
"*#	c #882D77",
"=#	c #592F50",
"-#	c #4D2E47",
";#	c #43283C",
">#	c #31222C",
",#	c #212121",
"'#	c #4B3145",
")#	c #7D366D",
"!#	c #9D4088",
"~#	c #A6458F",
"{#	c #9E3A86",
"]#	c #892E78",
"^#	c #54254C",
"/#	c #592650",
"(#	c #652B58",
"_#	c #8D2E79",
":#	c #8D2B7D",
"<#	c #701B5C",
"[#	c #441433",
"}#	c #2B2229",
"|#	c #642C56",
"1#	c #983380",
"2#	c #A93A8F",
"3#	c #AB4595",
"4#	c #A74793",
"5#	c #9E3686",
"6#	c #912C7B",
"7#	c #902B7D",
"8#	c #482442",
"9#	c #3F233B",
"0#	c #42233E",
"a#	c #3A1F34",
"b#	c #2A1D25",
"c#	c #342331",
"d#	c #952F80",
"e#	c #892773",
"f#	c #721B5B",
"g#	c #66144E",
"h#	c #62134B",
"i#	c #63134B",
"j#	c #64144D",
"k#	c #7F216B",
"l#	c #45223E",
"m#	c #6D285F",
"n#	c #521A42",
"o#	c #481537",
"p#	c #471436",
"q#	c #481436",
"r#	c #491537",
"s#	c #5C1E4F",
"t#	c #3D2138",
"                                                                ",
"                        . + + + + + + + @ #                     ",
"                  $ % & * = - - - - = ; ; > , ' )               ",
"            ! ~ { ] ^ / ( _ : < [ } | 1 2 1 3 4 5 6 7 8         ",
"        9 0 a b / c d e f g h i j k l m n b d o 3 p q r s t     ",
"        u v 2 w c x y z A B C D E F G H I J o o K p J L M N     ",
"      O P K b 1 ^ w Q R S T U V W X Y Z `  .3 3 p J J ..+.@.#.  ",
"      $.%.J &.3 o *.=.-.;.>.,.'.).!.~.{.].^.J J J ( J /.(._.:.  ",
"      <.[.( J J J p ^.}.|.1.2.3.4.5.6.7.r [.( ( ( J J /.8.9.0.  ",
"      <.[.( ( ( ( J a.b.c.d.e.f.f.g.h.i.j...( J J J J /.8.9.0.  ",
"      <.[.( J J J J ( /.j.k.i.l.l.m.n.q o.J J J J J J a.P p.0.  ",
"      q.[.( J J J J J J o.r.r.r.r.r.o.( J J J J J J J s.t.u.0.  ",
"      v.w.s.x.( ( ( ( ( ( ( ( ( ( ( ( ( ( ( ( ( ( ( y.[.z.A.B.  ",
"        v.C.D.E.q q q q q q q q q q q q q q q q q [.F.+.G.H.    ",
"          I.J.K.b.L.L.P P P P P P P P P P P P M.b.K.N.O.P.      ",
"            ) Q.R.S.T.U.V.W.W.W.X.X.X.W.W.W.Y.Z.`. +.+++        ",
"                  @+#+$+.+%+&+*+=+-+-+;+>+,+'+)+!+              ",
"                    ~+{+]+^+/+(+_+:+<+[+}+|+1+2+3+4+5+          ",
"                6+7+8+9+~ 0+a+b+c+d+e+f+g+h+i+j+k+l+m+n+o+      ",
"              p+q+r+s+t+u+v+w+x+y+z+A+B+C+D+E+F+G+H+I+J+K+L+    ",
"          M+N+O+P+Q+R+S+T+U+V+W+X+Y+Z+`+ @.@+@@@#@$@%@&@*@      ",
"        =@-@;@>@,@'@)@!@~@{@]@^@/@(@_@:@<@[@}@|@1@2@3@4@        ",
"        5@6@7@8@9@0@a@b@c@d@e@f@g@h@i@j@k@l@m@                  ",
"            n@o@p@q@r@s@t@u@v@w@x@y@z@A@B@C@D@                  ",
"              E@F@G@H@I@% J@K@L@D@M@N@O@P@Q@%+                  ",
"                R@S@T@U@V@W@X@Y@D@Z@`@ #.#+#@###                ",
"                $#%#&#*#=#-#;#>#D@,#'#)#!#~#{#]#^#              ",
"                    /#(#_#:#<#[#}#|#1#2#3#4#5#6#7#8#            ",
"                        9#0#a#b#c#d#e#f#g#h#i#j#k#l#            ",
"                                  m#n#o#p#q#q#r#s#t#            ",
"                                                                ",
"                                                                "};
