/* XPM */
static char * backwards_right_foot_xpm[] = {
"32 32 431 2",
"  	c #C8A2C8",
". 	c #565858",
"+ 	c #838787",
"@ 	c #9A9B9B",
"# 	c #9B9C9C",
"$ 	c #9C9E9E",
"% 	c #9E9F9F",
"& 	c #9D9E9E",
"* 	c #888C8C",
"= 	c #606363",
"- 	c #3F4141",
"; 	c #4F5050",
"> 	c #949696",
", 	c #BFC1C1",
"' 	c #D9D9D9",
") 	c #EFF0F0",
"! 	c #F8F8F8",
"~ 	c #FAFAFA",
"{ 	c #FCFDFD",
"] 	c #DEE0DF",
"^ 	c #C9CBCA",
"/ 	c #CACDCB",
"( 	c #CBCDCB",
"_ 	c #EFEFEF",
": 	c #D4D5D5",
"< 	c #B3B5B5",
"[ 	c #909494",
"} 	c #505151",
"| 	c #414343",
"1 	c #656868",
"2 	c #B6BABA",
"3 	c #E0E0E0",
"4 	c #F3F3F3",
"5 	c #FBFBFB",
"6 	c #FEFEFE",
"7 	c #FDFDFD",
"8 	c #B9BBBA",
"9 	c #846E7E",
"0 	c #6D4160",
"a 	c #653657",
"b 	c #5D3354",
"c 	c #583352",
"d 	c #918A90",
"e 	c #D9DADA",
"f 	c #F4F4F4",
"g 	c #E9EAEA",
"h 	c #B5B9B9",
"i 	c #5E6161",
"j 	c #545656",
"k 	c #D6D9D9",
"l 	c #F5F5F5",
"m 	c #F2F2F2",
"n 	c #888788",
"o 	c #835677",
"p 	c #BE78A6",
"q 	c #DE87C2",
"r 	c #CC60AD",
"s 	c #B23C90",
"t 	c #A23487",
"u 	c #732A63",
"v 	c #6D5868",
"w 	c #B0B2B1",
"x 	c #F1F1F1",
"y 	c #E7E7E7",
"z 	c #ADB2B2",
"A 	c #535656",
"B 	c #555858",
"C 	c #ADB1B1",
"D 	c #F5F4F4",
"E 	c #F9F9F9",
"F 	c #FCFCFC",
"G 	c #3A393A",
"H 	c #973E7B",
"I 	c #D772B8",
"J 	c #DC83C3",
"K 	c #D066B1",
"L 	c #BB4194",
"M 	c #B13B8F",
"N 	c #A7368C",
"O 	c #47213E",
"P 	c #757877",
"Q 	c #E6E7E7",
"R 	c #D5D8D8",
"S 	c #8C9191",
"T 	c #464A4A",
"U 	c #6E6F6F",
"V 	c #DFE1E1",
"W 	c #F6F6F6",
"X 	c #F7F7F7",
"Y 	c #E2E2E2",
"Z 	c #3B393A",
"` 	c #7E2C6B",
" .	c #B43E93",
"..	c #BE4598",
"+.	c #B94194",
"@.	c #AE3A8D",
"#.	c #A43589",
"$.	c #9B3086",
"%.	c #45203E",
"&.	c #747775",
"*.	c #E1E3E3",
"=.	c #EEEEEE",
"-.	c #DEDFDF",
";.	c #B2B7B7",
">.	c #646969",
",.	c #707171",
"'.	c #E1E2E2",
").	c #F0F0F0",
"!.	c #E4E5E5",
"~.	c #76797A",
"{.	c #573654",
"].	c #7F2B6D",
"^.	c #A03386",
"/.	c #A13487",
"(.	c #9B3284",
"_.	c #902C7E",
":.	c #612658",
"<.	c #544754",
"[.	c #959998",
"}.	c #E0E2E2",
"|.	c #DEE0E0",
"1.	c #BDC3C3",
"2.	c #707575",
"3.	c #6F7070",
"4.	c #EAEBEB",
"5.	c #C0C6C5",
"6.	c #838A89",
"7.	c #574A58",
"8.	c #492D45",
"9.	c #4D3048",
"0.	c #4C3048",
"a.	c #4A3047",
"b.	c #555559",
"c.	c #949A99",
"d.	c #C7CBCB",
"e.	c #EDEDED",
"f.	c #DCDEDE",
"g.	c #C6CACA",
"h.	c #9EA4A4",
"i.	c #868E8D",
"j.	c #878F8E",
"k.	c #899190",
"l.	c #AFB5B4",
"m.	c #CFD2D2",
"n.	c #E3E4E4",
"o.	c #707070",
"p.	c #D8DADA",
"q.	c #D2D5D5",
"r.	c #D3D6D6",
"s.	c #EAEAEA",
"t.	c #DADCDC",
"u.	c #BBC0C0",
"v.	c #717676",
"w.	c #D4D7D7",
"x.	c #B8BEBE",
"y.	c #606161",
"z.	c #B7BABA",
"A.	c #ECECEC",
"B.	c #ECEDED",
"C.	c #E2E3E3",
"D.	c #CBCFCF",
"E.	c #A5ABAB",
"F.	c #666A6A",
"G.	c #505252",
"H.	c #BCC1C1",
"I.	c #D5D7D7",
"J.	c #DFE0E0",
"K.	c #DDDFDF",
"L.	c #D4D6D6",
"M.	c #C9CDCD",
"N.	c #ACB1B1",
"O.	c #5B5E5E",
"P.	c #676B6B",
"Q.	c #A5ACAC",
"R.	c #B3B8B8",
"S.	c #C1C5C5",
"T.	c #C8CCCC",
"U.	c #C9CCCC",
"V.	c #C5C9C9",
"W.	c #BDC1C1",
"X.	c #ADB3B3",
"Y.	c #8E9494",
"Z.	c #545858",
"`.	c #444646",
" +	c #444747",
".+	c #7D8383",
"++	c #8D9393",
"@+	c #979D9D",
"#+	c #989E9E",
"$+	c #999E9D",
"%+	c #999E9C",
"&+	c #969D9D",
"*+	c #909797",
"=+	c #808686",
"-+	c #676C6C",
";+	c #454747",
">+	c #343636",
",+	c #212222",
"'+	c #353535",
")+	c #474848",
"!+	c #434343",
"~+	c #2D3031",
"{+	c #243C4D",
"]+	c #233E51",
"^+	c #233D51",
"/+	c #233B4D",
"(+	c #233848",
"_+	c #243745",
":+	c #4B4C4C",
"<+	c #4C4D4D",
"[+	c #383939",
"}+	c #282929",
"|+	c #5F2A52",
"1+	c #431B37",
"2+	c #5B5057",
"3+	c #7D7F7E",
"4+	c #878988",
"5+	c #686868",
"6+	c #20272E",
"7+	c #03508C",
"8+	c #0065B4",
"9+	c #006ABD",
"0+	c #005EA7",
"a+	c #004C88",
"b+	c #034375",
"c+	c #20272C",
"d+	c #767676",
"e+	c #8E8F8F",
"f+	c #6F6F6F",
"g+	c #444545",
"h+	c #41263A",
"i+	c #873371",
"j+	c #B34191",
"k+	c #701B55",
"l+	c #8C7184",
"m+	c #959194",
"n+	c #6B6769",
"o+	c #323D46",
"p+	c #0A4675",
"q+	c #006EC2",
"r+	c #0087EF",
"s+	c #0086ED",
"t+	c #0076D2",
"u+	c #0063AF",
"v+	c #004E8A",
"w+	c #0A3E67",
"x+	c #313B43",
"y+	c #898988",
"z+	c #A0A2A1",
"A+	c #787A79",
"B+	c #4E504E",
"C+	c #4B2940",
"D+	c #C3489D",
"E+	c #D36CBD",
"F+	c #AA3F8E",
"G+	c #7E2C67",
"H+	c #6D275A",
"I+	c #512243",
"J+	c #192731",
"K+	c #074C81",
"L+	c #0765AE",
"M+	c #0774C7",
"N+	c #076EBE",
"O+	c #0768B2",
"P+	c #075FA3",
"Q+	c #074B7E",
"R+	c #07487A",
"S+	c #626361",
"T+	c #6D626A",
"U+	c #54394E",
"V+	c #543B51",
"W+	c #402639",
"X+	c #3D2339",
"Y+	c #873A70",
"Z+	c #C657AE",
"`+	c #B84297",
" @	c #972E82",
".@	c #80216E",
"+@	c #581E4A",
"@@	c #202121",
"#@	c #1F2325",
"$@	c #1F2427",
"%@	c #202427",
"&@	c #202326",
"*@	c #202225",
"=@	c #482A40",
"-@	c #8B3D79",
";@	c #C45EAE",
">@	c #D177BE",
",@	c #B94FA3",
"'@	c #9A3485",
")@	c #642859",
"!@	c #5C2D4C",
"~@	c #572A4B",
"{@	c #4F2647",
"]@	c #411E39",
"^@	c #2F1C27",
"/@	c #1C242A",
"(@	c #0D3453",
"_@	c #0D3E64",
":@	c #0C5288",
"<@	c #0C5995",
"[@	c #0C5084",
"}@	c #0C426B",
"|@	c #0C3D63",
"1@	c #0C3C61",
"2@	c #1B252C",
"3@	c #84326A",
"4@	c #CC59AF",
"5@	c #DB7CC8",
"6@	c #DD84C7",
"7@	c #D569C5",
"8@	c #BB459A",
"9@	c #9C2F86",
"0@	c #4F2449",
"a@	c #232629",
"b@	c #2E3D48",
"c@	c #2B3E4D",
"d@	c #0D4B7B",
"e@	c #005AA0",
"f@	c #005190",
"g@	c #024070",
"h@	c #043F6D",
"i@	c #233039",
"j@	c #70315E",
"k@	c #AC408E",
"l@	c #C34CA0",
"m@	c #C24B9F",
"n@	c #BF479E",
"o@	c #AC398F",
"p@	c #872C76",
"q@	c #4A2445",
"r@	c #383838",
"s@	c #989898",
"t@	c #8B8B8A",
"u@	c #4F5153",
"v@	c #1D3E57",
"w@	c #0A3D65",
"x@	c #193D59",
"y@	c #41464A",
"z@	c #43474B",
"A@	c #656667",
"B@	c #403C3F",
"C@	c #4E2744",
"D@	c #7A2F67",
"E@	c #782F66",
"F@	c #782F65",
"G@	c #6A285F",
"H@	c #747675",
"I@	c #B8BAB9",
"J@	c #A1A2A2",
"K@	c #888888",
"L@	c #474747",
"M@	c #1D1D1D",
"N@	c #3B3A3A",
"O@	c #8A8A8A",
"P@	c #9E9E9E",
"Q@	c #8E8E8E",
"R@	c #424443",
"S@	c #2D1A27",
"T@	c #421834",
"U@	c #3C1931",
"V@	c #222021",
"W@	c #3E2F39",
"X@	c #564852",
"Y@	c #5D515B",
"Z@	c #675D65",
"`@	c #787677",
" #	c #464746",
".#	c #323232",
"+#	c #696A69",
"@#	c #838583",
"##	c #6C6E6C",
"$#	c #3E393E",
"%#	c #55214B",
"&#	c #82226F",
"*#	c #6B1F5B",
"=#	c #252024",
"-#	c #833A70",
";#	c #B14998",
">#	c #AA4390",
",#	c #99347E",
"'#	c #852C71",
")#	c #552C4C",
"!#	c #2E252C",
"~#	c #1F201F",
"{#	c #292228",
"]#	c #42293D",
"^#	c #482D44",
"/#	c #4B2E45",
"(#	c #702B65",
"_#	c #842674",
":#	c #711F5F",
"<#	c #49193B",
"[#	c #202020",
"}#	c #8F437E",
"|#	c #C454AE",
"1#	c #B94FA7",
"2#	c #A94397",
"3#	c #9B3180",
"4#	c #932C7B",
"5#	c #81246E",
"6#	c #561C47",
"7#	c #2E1C27",
"8#	c #321F2D",
"9#	c #6B1A58",
"0#	c #802470",
"a#	c #922D7F",
"b#	c #702963",
"c#	c #4D1E42",
"d#	c #39192E",
"e#	c #853B77",
"f#	c #A1378A",
"g#	c #7A1F64",
"h#	c #64144D",
"i#	c #65154E",
"j#	c #751D61",
"k#	c #781D64",
"l#	c #501E44",
"m#	c #241F22",
"n#	c #351B2D",
"o#	c #402039",
"p#	c #452340",
"q#	c #59234E",
"r#	c #601C4F",
"s#	c #4F153C",
"t#	c #4C1338",
"u#	c #4C1339",
"v#	c #50153D",
"w#	c #611D51",
"x#	c #4F2146",
"                                                                ",
"                                                                ",
"                    . + @ # # $ % % % & # * =                   ",
"            - ; > , ' ) ! ~ { ] ^ / / ( _ ) : < [ } |           ",
"          1 2 3 4 5 6 6 7 5 8 9 0 a b c d e ! f g : h i         ",
"        j k l ~ 7 6 6 6 m n o p q r s t u v w 4 x _ y z A       ",
"      B C D E ~ 5 F F F y G H I J K L M N O P Q x _ _ R S T     ",
"      U V x f W W W W X Y Z `  ...+.@.#.$.%.&.*._ _ =.-.;.>.    ",
"      ,.'._ ).x x x x m !.~.{.].^./.(._.:.<.[.}._ _ =.|.1.2.    ",
"      3.}.=.=.=.=.=.=._ 4.5.6.7.8.9.0.a.b.c.d.}._ _ =.-.1.2.    ",
"      3.}.=._ _ _ _ _ _ e.f.g.h.i.j.j.k.l.m.n.e._ _ =.|.1.2.    ",
"      o.'.=._ _ _ _ _ _ =.=.!.p.q.r.r.r.|.s._ _ _ _ =.t.u.v.    ",
"      3.'.=._ _ _ _ _ _ _ _ _ _ _ _ _ _ _ _ _ _ _ _ =.w.x.v.    ",
"      y.z.}.A.e.B.e.e.e.e.e.e.e.e.e.e.e.e.e.e.e.A.s.C.D.E.F.    ",
"        G.H.I.-.V J.J.J.J.J.J.J.J.J.J.J.J.J.J.V K.L.M.N.O.      ",
"          P.Q.R.S.d.T.U.U.U.U.U.U.U.U.U.U.U.T.V.W.X.Y.Z.        ",
"            `. +>..+++@+#+$+%+%+$+$+$+#+&+@+*+=+-+;+>+          ",
"                ,+'+)+!+~+{+]+^+/+(+_+~+:+<+[+}+                ",
"            |+1+2+3+4+5+6+7+8+9+0+a+b+c+d+e+f+g+                ",
"        h+i+j+k+l+m+n+o+p+q+r+s+t+u+v+w+x+y+z+A+B+              ",
"        C+D+E+F+G+H+I+J+K+L+M+N+O+P+Q+R+J+S+T+U+V+W+X+          ",
"          Y+Z+`+ @.@+@@@#@$@$@%@%@&@*@*@@@=@-@;@>@,@'@)@        ",
"            !@~@{@]@^@/@(@_@:@<@[@}@|@1@2@3@4@5@6@7@8@9@0@      ",
"                      a@b@c@d@e@0+f@g@h@i@j@k@l@m@n@o@p@q@      ",
"                      r@s@t@u@v@w@x@y@z@A@B@C@D@E@F@G@          ",
"                      H@I@J@K@L@M@N@O@P@Q@R@S@T@U@V@            ",
"                    W@X@Y@Z@`@ #M@.#+#@###$#%#&#*#=#            ",
"                  -#;#>#,#'#)#!#~#{#]#^#/#(#_#:#<#              ",
"              [#}#|#1#2#3#4#5#6#7#8#9#0#a#b#c#d#                ",
"              [#e#f#g#h#i#i#j#k#l#m#n#o#p#                      ",
"                q#r#s#t#u#u#v#w#x#                              ",
"                                                                "};
