/* XPM */
static char * backwards_xpm[] = {
"32 32 369 2",
"  	c #C8A2C8",
". 	c #6E7171",
"+ 	c #7F8080",
"@ 	c #808181",
"# 	c #818282",
"$ 	c #727474",
"% 	c #A6A8A8",
"& 	c #C7C7C7",
"* 	c #E8EAEA",
"= 	c #F5F6F6",
"- 	c #F2F2F2",
"; 	c #D8DAD9",
"> 	c #D7D9D8",
", 	c #D7DAD8",
"' 	c #D9DBDA",
") 	c #F0F1F1",
"! 	c #F2F3F3",
"~ 	c #E5E7E7",
"{ 	c #BABCBC",
"] 	c #959999",
"^ 	c #676A6A",
"/ 	c #878B8B",
"( 	c #C6C9C9",
"_ 	c #E8E8E8",
": 	c #F9F9F9",
"< 	c #FEFEFE",
"[ 	c #FFFFFF",
"} 	c #ECEDED",
"| 	c #A7A3A6",
"1 	c #715268",
"2 	c #67415B",
"3 	c #603E58",
"4 	c #5D4058",
"5 	c #A29DA1",
"6 	c #E9EAE9",
"7 	c #F8F8F8",
"8 	c #F4F4F4",
"9 	c #EEEFEF",
"0 	c #D9DADA",
"a 	c #B9BCBC",
"b 	c #7A7E7E",
"c 	c #8E9191",
"d 	c #E7E9E9",
"e 	c #FAFAFA",
"f 	c #FCFCFC",
"g 	c #DADBDA",
"h 	c #837680",
"i 	c #945B83",
"j 	c #D687BB",
"k 	c #CC66AF",
"l 	c #B23F91",
"m 	c #9E3283",
"n 	c #6F2E61",
"o 	c #7B6E78",
"p 	c #D2D3D3",
"q 	c #F6F6F6",
"r 	c #F3F3F3",
"s 	c #F1F1F1",
"t 	c #ECECEC",
"u 	c #C3C6C6",
"v 	c #666B6B",
"w 	c #707373",
"x 	c #D1D3D3",
"y 	c #FBFBFB",
"z 	c #B8BAB9",
"A 	c #45293C",
"B 	c #C659A5",
"C 	c #DD86C3",
"D 	c #D571B9",
"E 	c #BE4698",
"F 	c #B23B8F",
"G 	c #A33589",
"H 	c #3D2338",
"I 	c #A3A6A5",
"J 	c #F0F0F0",
"K 	c #EFEFEF",
"L 	c #E1E2E2",
"M 	c #A1A6A6",
"N 	c #4B4F4F",
"O 	c #9D9F9F",
"P 	c #EAEBEB",
"Q 	c #F5F5F5",
"R 	c #B4B6B5",
"S 	c #3E2438",
"T 	c #A33689",
"U 	c #BC4597",
"V 	c #BB4395",
"W 	c #B03B8F",
"X 	c #A4368A",
"Y 	c #973083",
"Z 	c #3C2438",
"` 	c #9FA2A1",
" .	c #EBECEC",
"..	c #E6E7E7",
"+.	c #C0C4C4",
"@.	c #6F7474",
"#.	c #A0A1A1",
"$.	c #EAEAEA",
"%.	c #C9CCCB",
"&.	c #655E67",
"*.	c #612B58",
"=.	c #96307F",
"-.	c #9E3384",
";.	c #993182",
">.	c #8D2C7B",
",.	c #5E2855",
"'.	c #5A545C",
").	c #B3B7B6",
"!.	c #E8E9E9",
"~.	c #EEEEEE",
"{.	c #E6E6E6",
"].	c #C7CCCC",
"^.	c #7D8282",
"/.	c #E1E3E3",
"(.	c #AEB4B3",
"_.	c #707275",
":.	c #4B3749",
"<.	c #4C3548",
"[.	c #4A3648",
"}.	c #5E6062",
"|.	c #A3A9A9",
"1.	c #D1D4D4",
"2.	c #7C8282",
"3.	c #D8DADA",
"4.	c #BBC0BF",
"5.	c #949C9B",
"6.	c #929A98",
"7.	c #B8BDBC",
"8.	c #D7D9D9",
"9.	c #E9E9E9",
"0.	c #E3E4E4",
"a.	c #DBDDDD",
"b.	c #DADCDC",
"c.	c #C2C7C7",
"d.	c #9EA0A0",
"e.	c #DEE0E0",
"f.	c #BEC4C4",
"g.	c #7E8484",
"h.	c #6F7171",
"i.	c #BBBEBE",
"j.	c #E4E5E5",
"k.	c #EBEBEB",
"l.	c #A6ABAB",
"m.	c #616565",
"n.	c #787C7C",
"o.	c #BFC4C4",
"p.	c #D5D7D7",
"q.	c #DBDCDC",
"r.	c #D4D7D7",
"s.	c #C8CCCC",
"t.	c #A9AEAE",
"u.	c #626565",
"v.	c #727777",
"w.	c #929898",
"x.	c #A2A8A8",
"y.	c #B7BCBC",
"z.	c #BDC2C2",
"A.	c #C0C5C5",
"B.	c #B3B8B8",
"C.	c #9EA4A4",
"D.	c #7F8585",
"E.	c #545858",
"F.	c #414444",
"G.	c #595D5D",
"H.	c #696E6E",
"I.	c #737878",
"J.	c #737777",
"K.	c #6A6E6E",
"L.	c #424242",
"M.	c #595857",
"N.	c #1B252D",
"O.	c #0C3758",
"P.	c #0B3758",
"Q.	c #0B3759",
"R.	c #0C3656",
"S.	c #1B252C",
"T.	c #464544",
"U.	c #353535",
"V.	c #707171",
"W.	c #ABACAB",
"X.	c #83878A",
"Y.	c #14354E",
"Z.	c #005AA0",
"`.	c #0061AC",
" +	c #0060AB",
".+	c #005A9F",
"++	c #00518F",
"@+	c #00477E",
"#+	c #143046",
"$+	c #6F7375",
"%+	c #7E7E7E",
"&+	c #4F4F4F",
"*+	c #8E8F8F",
"=+	c #CDCECE",
"-+	c #C0C0C0",
";+	c #656F77",
">+	c #0C4067",
",+	c #0067B6",
"'+	c #0080E2",
")+	c #0089F2",
"!+	c #006DC1",
"~+	c #004C86",
"{+	c #0B395D",
"]+	c #3F4A52",
"^+	c #949494",
"/+	c #979898",
"(+	c #5F6060",
"_+	c #70345D",
":+	c #61234D",
"<+	c #7D6575",
"[+	c #BFBDBF",
"}+	c #BCBBBC",
"|+	c #828483",
"1+	c #3E3F3F",
"2+	c #1C272F",
"3+	c #15354D",
"4+	c #153C5A",
"5+	c #15456B",
"6+	c #153C59",
"7+	c #153146",
"8+	c #1C262E",
"9+	c #1F2020",
"0+	c #6A6B6A",
"a+	c #918F90",
"b+	c #848183",
"c+	c #634A5B",
"d+	c #551D47",
"e+	c #582650",
"f+	c #833B6F",
"g+	c #CC6BB2",
"h+	c #BD58A5",
"i+	c #8F3878",
"j+	c #7E3767",
"k+	c #69375B",
"l+	c #3D2E39",
"m+	c #1A2C3A",
"n+	c #0A3C63",
"o+	c #1A3144",
"p+	c #1A3447",
"q+	c #1A3346",
"r+	c #1A3347",
"s+	c #1A3041",
"t+	c #1A2D3C",
"u+	c #0A3B61",
"v+	c #182A38",
"w+	c #3B2C37",
"x+	c #653055",
"y+	c #7A3466",
"z+	c #8D3676",
"A+	c #A33486",
"B+	c #973182",
"C+	c #612658",
"D+	c #914483",
"E+	c #D979C4",
"F+	c #D56EBD",
"G+	c #C249A0",
"H+	c #AE388B",
"I+	c #982E82",
"J+	c #632559",
"K+	c #1A262E",
"L+	c #0A3E65",
"M+	c #005A9E",
"N+	c #006ABB",
"O+	c #0171C8",
"P+	c #0171C6",
"Q+	c #0162AC",
"R+	c #01508D",
"S+	c #A63588",
"T+	c #C24BA1",
"U+	c #C04BA2",
"V+	c #B23C90",
"W+	c #A23489",
"X+	c #6C2762",
"Y+	c #8D3C7D",
"Z+	c #AF4290",
"`+	c #A83B87",
" @	c #983380",
".@	c #722965",
"+@	c #382134",
"@@	c #3B3B3A",
"#@	c #62686C",
"$@	c #223A4D",
"%@	c #1C3B53",
"&@	c #163A56",
"*@	c #153A56",
"=@	c #1A3951",
"-@	c #1E3649",
";@	c #4A4F53",
">@	c #313130",
",@	c #382135",
"'@	c #782C68",
")@	c #9C3582",
"!@	c #9F3783",
"~@	c #96327F",
"{@	c #752A68",
"]@	c #515252",
"^@	c #BFC0C0",
"/@	c #A09F9E",
"(@	c #777574",
"_@	c #282624",
":@	c #272523",
"<@	c #696867",
"[@	c #828180",
"}@	c #8F8F8F",
"|@	c #525352",
"1@	c #CACBCB",
"2@	c #2B2B2B",
"3@	c #2C2C2C",
"4@	c #A7A8A8",
"5@	c #B8B9B9",
"6@	c #A3A4A4",
"7@	c #444545",
"8@	c #512649",
"9@	c #522249",
"0@	c #4A4749",
"a@	c #B1B3B2",
"b@	c #C6C9C8",
"c@	c #A0A2A1",
"d@	c #B0B2B1",
"e@	c #BCBEBD",
"f@	c #A1A3A2",
"g@	c #464245",
"h@	c #512249",
"i@	c #4F2548",
"j@	c #5A2A4E",
"k@	c #A8408D",
"l@	c #9F3B83",
"m@	c #692F56",
"n@	c #776671",
"o@	c #92818D",
"p@	c #7F717A",
"q@	c #272727",
"r@	c #82737D",
"s@	c #9B8A95",
"t@	c #7B6975",
"u@	c #672E55",
"v@	c #8F2B76",
"w@	c #902F7D",
"x@	c #4E2548",
"y@	c #602B52",
"z@	c #C152A8",
"A@	c #D369C0",
"B@	c #B4489A",
"C@	c #8A2E6F",
"D@	c #7E2465",
"E@	c #6B1E59",
"F@	c #3E1932",
"G@	c #3F1A33",
"H@	c #75245E",
"I@	c #8D3072",
"J@	c #8B2B6C",
"K@	c #9D3280",
"L@	c #A13488",
"M@	c #982E83",
"N@	c #54254C",
"O@	c #6D3163",
"P@	c #9D408E",
"Q@	c #A54390",
"R@	c #9C3985",
"S@	c #842B73",
"T@	c #671F57",
"U@	c #391B30",
"V@	c #3A1B30",
"W@	c #6E235B",
"X@	c #8E327B",
"Y@	c #95337E",
"Z@	c #8F307A",
"`@	c #862B76",
" #	c #602657",
"                                                                ",
"                      . + @ # # # # @ + .                       ",
"                $ % & * = - ; > , ' ) ! ~ { ] ^                 ",
"            / ( _ : < [ } | 1 2 3 4 5 6 7 8 9 0 a b             ",
"          c d e f < [ g h i j k l m n o p q r s t u v           ",
"        w x : e y f < z A B C D E F G H I J r J K L M N         ",
"        O P r Q q q : R S T U V W X Y Z `  .J K K ..+.@.        ",
"        #.$.J s s s r %.&.*.=.-.;.>.,.'.).!.K ~.K {.].^.        ",
"        #.$.K ~.~.~.K /.(._.:.<.<.[.}.|.1.!.K K K {.].2.        ",
"        #.$.K K K K K $.3.4.5.6.6.5.7.8.9.~.K K K {.].2.        ",
"        #.$.K ~.K K ~.K } 0.a.b.b.a.0.} K K ~.~.K 0.c.2.        ",
"        d.!.K K K K K K K K J J J J K K K K K K K e.f.g.        ",
"        h.i.j.k.P P P P P P P P P P P P P P P !.L 1.l.m.        ",
"          n.o.p.a.a.q.b.b.b.b.b.b.b.b.b.b.q.q.r.s.t.u.          ",
"            v.w.x.y.z.A.A.A.A.A.A.A.A.A.A.z.B.C.D.E.            ",
"                F.G.H.v.I.J.J.J.J.J.J.I.v.K.G.F.                ",
"                    L.M.N.O.P.P.Q.P.R.S.T.U.                    ",
"                  V.W.X.Y.Z.`. +.+++@+#+$+%+&+                  ",
"                *+=+-+;+>+,+'+)+!+.+~+{+]+^+/+(+                ",
"          _+:+<+[+}+|+1+2+3+4+5+6+3+7+8+9+0+a+b+c+d+e+          ",
"        f+g+h+i+j+k+l+m+n+o+p+q+r+s+t+u+v+w+x+y+z+A+B+C+        ",
"        D+E+F+G+H+I+J+K+L+M+N+O+P+Q+R+u+K+J+S+T+U+V+W+X+        ",
"          Y+Z+`+ @.@+@@@#@$@%@&@*@=@-@;@>@,@'@)@!@~@{@          ",
"                      ]@^@/@(@_@:@<@[@}@L.                      ",
"                      |@=+1@#.2@3@4@5@6@7@                      ",
"                  8@9@0@a@b@c@2@3@d@e@f@g@h@i@                  ",
"                j@k@l@m@n@o@p@q@q@r@s@t@u@v@w@x@                ",
"                y@z@A@B@C@D@E@F@G@H@I@J@K@L@M@N@                ",
"                  O@P@Q@R@S@T@U@V@W@X@Y@Z@`@ #                  ",
"                                                                ",
"                                                                ",
"                                                                "};
