/* XPM */
static char * front_right_xpm[] = {
"32 32 399 2",
"  	c #C8A2C8",
". 	c #A2668F",
"+ 	c #B25C98",
"@ 	c #9C3E82",
"# 	c #8B3075",
"$ 	c #652959",
"% 	c #93467B",
"& 	c #D583BA",
"* 	c #D783C0",
"= 	c #C1539F",
"- 	c #AE398A",
"; 	c #A03485",
"> 	c #5B2850",
", 	c #4C4C4C",
"' 	c #644F5D",
") 	c #735C6D",
"! 	c #735D6D",
"~ 	c #6C5264",
"{ 	c #664B5E",
"] 	c #5E4558",
"^ 	c #3A2E38",
"/ 	c #626565",
"( 	c #878888",
"_ 	c #BDC0C0",
": 	c #E2E2E2",
"< 	c #E8E8E8",
"[ 	c #EBEBEB",
"} 	c #EBECEB",
"| 	c #E9EAE9",
"1 	c #E7E9E8",
"2 	c #E3E4E3",
"3 	c #DBDEDD",
"4 	c #CACFCD",
"5 	c #979A9A",
"6 	c #696B6B",
"7 	c #8D9191",
"8 	c #B7B8B8",
"9 	c #E3E5E5",
"0 	c #FBFBFB",
"a 	c #FEFEFE",
"b 	c #F8F8F8",
"c 	c #F2F2F2",
"d 	c #E6E7E7",
"e 	c #C4C6C6",
"f 	c #999B9B",
"g 	c #717575",
"h 	c #434545",
"i 	c #AEB3B3",
"j 	c #EBECEC",
"k 	c #F9F9F9",
"l 	c #FAFAFA",
"m 	c #F7F7F7",
"n 	c #F6F6F6",
"o 	c #F5F6F6",
"p 	c #F4F5F5",
"q 	c #F3F3F3",
"r 	c #F0F0F0",
"s 	c #F1F1F1",
"t 	c #F2F1F1",
"u 	c #EAEBEB",
"v 	c #CBCFCF",
"w 	c #7E8282",
"x 	c #D6D9D9",
"y 	c #C4C7C7",
"z 	c #9D9D9D",
"A 	c #827E7F",
"B 	c #7E7A7B",
"C 	c #7B7778",
"D 	c #7C7879",
"E 	c #7D797A",
"F 	c #8A8888",
"G 	c #AEB0B0",
"H 	c #EEEEEE",
"I 	c #E8E9E9",
"J 	c #ADB1B1",
"K 	c #494D4D",
"L 	c #505151",
"M 	c #CFD3D3",
"N 	c #D9DADA",
"O 	c #949596",
"P 	c #877D7F",
"Q 	c #A28388",
"R 	c #9C7A80",
"S 	c #9E7C82",
"T 	c #BC97A1",
"U 	c #C19DA7",
"V 	c #A9868E",
"W 	c #9A787D",
"X 	c #B08D95",
"Y 	c #B7949C",
"Z 	c #968185",
"` 	c #8F8E8F",
" .	c #C5C8C8",
"..	c #D4D7D7",
"+.	c #747A7A",
"@.	c #242424",
"#.	c #565757",
"$.	c #E1E2E2",
"%.	c #C2C3C3",
"&.	c #40393A",
"*.	c #AC878D",
"=.	c #D8AEB9",
"-.	c #5A4849",
";.	c #574748",
">.	c #E5BFCD",
",.	c #FFD8E8",
"'.	c #FFD6E6",
").	c #8E757B",
"!.	c #443636",
"~.	c #AC8F98",
"{.	c #FFD4E3",
"].	c #D5A9B3",
"^.	c #786366",
"/.	c #7E8080",
"(.	c #F4F4F4",
"_.	c #DEE0E0",
":.	c #858B8B",
"<.	c #413A3B",
"[.	c #B99299",
"}.	c #D9B0BC",
"|.	c #322E30",
"1.	c #2E2C2D",
"2.	c #DEBBC9",
"3.	c #FFD7E8",
"4.	c #FFD7E7",
"5.	c #726369",
"6.	c #161918",
"7.	c #97828A",
"8.	c #FFD5E4",
"9.	c #DCB0BB",
"0.	c #735B5F",
"a.	c #686868",
"b.	c #E0E2E2",
"c.	c #BFC0C0",
"d.	c #332F31",
"e.	c #302D2E",
"f.	c #736469",
"g.	c #181A19",
"h.	c #98828B",
"i.	c #DCB0BA",
"j.	c #735C5F",
"k.	c #696969",
"l.	c #DCDFDF",
"m.	c #565656",
"n.	c #BEBFBE",
"o.	c #D7AEBA",
"p.	c #322E2F",
"q.	c #FED4E3",
"r.	c #DBAFB9",
"s.	c #725B5E",
"t.	c #686969",
"u.	c #828888",
"v.	c #444646",
"w.	c #B1B6B6",
"x.	c #BDBFBF",
"y.	c #555051",
"z.	c #AE898F",
"A.	c #D3AAB4",
"B.	c #554446",
"C.	c #534344",
"D.	c #DEB7C3",
"E.	c #F8CEDD",
"F.	c #F8CDDB",
"G.	c #887075",
"H.	c #403333",
"I.	c #A68991",
"J.	c #F1C5D2",
"K.	c #CEA3AC",
"L.	c #7F696C",
"M.	c #7C7F7F",
"N.	c #E9EAEA",
"O.	c #B9BEBE",
"P.	c #686E6E",
"Q.	c #232323",
"R.	c #565959",
"S.	c #A7AEAE",
"T.	c #8F9595",
"U.	c #8C8083",
"V.	c #C09DA5",
"W.	c #A27F85",
"X.	c #A07D83",
"Y.	c #BC969F",
"Z.	c #C29BA5",
"`.	c #C29BA4",
" +	c #AB878E",
".+	c #9D7A7F",
"++	c #B18C94",
"@+	c #BB969E",
"#+	c #9F888C",
"$+	c #929091",
"%+	c #B4B9B9",
"&+	c #C4C9C9",
"*+	c #878D8D",
"=+	c #363838",
"-+	c #5D6262",
";+	c #7B8181",
">+	c #888F8F",
",+	c #828485",
"'+	c #666465",
")+	c #625F60",
"!+	c #605E5F",
"~+	c #615E5F",
"{+	c #636061",
"]+	c #717171",
"^+	c #969B9B",
"/+	c #A9B0B0",
"(+	c #959B9B",
"_+	c #707575",
":+	c #4A4E4E",
"<+	c #434646",
"[+	c #575A5A",
"}+	c #535757",
"|+	c #5B5E5E",
"1+	c #5C6060",
"2+	c #555959",
"3+	c #52595C",
"4+	c #515A5F",
"5+	c #515A5E",
"6+	c #52585A",
"7+	c #595D5D",
"8+	c #4B504F",
"9+	c #464646",
"0+	c #898A8A",
"a+	c #868686",
"b+	c #303133",
"c+	c #07385E",
"d+	c #02518E",
"e+	c #024B83",
"f+	c #024578",
"g+	c #024070",
"h+	c #11293B",
"i+	c #4E4D4B",
"j+	c #787A79",
"k+	c #544C51",
"l+	c #341C2D",
"m+	c #323432",
"n+	c #A0A2A1",
"o+	c #B2B4B3",
"p+	c #686B6C",
"q+	c #1C4A5E",
"r+	c #016CB9",
"s+	c #0084EB",
"t+	c #0074D0",
"u+	c #005BA4",
"v+	c #004E8C",
"w+	c #073D66",
"x+	c #394A56",
"y+	c #6E5C67",
"z+	c #7E3F6C",
"A+	c #952E78",
"B+	c #98397D",
"C+	c #592A4D",
"D+	c #442B3C",
"E+	c #62495A",
"F+	c #584453",
"G+	c #242A26",
"H+	c #097D2E",
"I+	c #0681B1",
"J+	c #067AD4",
"K+	c #2585CE",
"L+	c #3171A2",
"M+	c #16517E",
"N+	c #054271",
"O+	c #112D40",
"P+	c #4E1F44",
"Q+	c #9C2E80",
"R+	c #C754A7",
"S+	c #CE5EB2",
"T+	c #85346D",
"U+	c #6C2D5C",
"V+	c #A83E8A",
"W+	c #C15AA4",
"X+	c #C263A1",
"Y+	c #A43C86",
"Z+	c #5A2750",
"`+	c #272A24",
" @	c #1E292B",
".@	c #1F2930",
"+@	c #B27648",
"@@	c #ED964F",
"#@	c #6B4D36",
"$@	c #192127",
"%@	c #1D2122",
"&@	c #491F40",
"*@	c #8C2974",
"=@	c #B24499",
"-@	c #A34892",
";@	c #5C2A4F",
">@	c #3F2539",
",@	c #A9388B",
"'@	c #C1489C",
")@	c #D56CC1",
"!@	c #D87ABE",
"~@	c #BC4798",
"{@	c #902C7E",
"]@	c #322234",
"^@	c #0C5387",
"/@	c #0A69B3",
"(@	c #387CAF",
"_@	c #4A7A9C",
":@	c #234E70",
"<@	c #143E5F",
"[@	c #1D303E",
"}@	c #281C22",
"|@	c #3B1E34",
"1@	c #492542",
"2@	c #7F316B",
"3@	c #B23D8F",
"4@	c #B74195",
"5@	c #B54195",
"6@	c #9D3485",
"7@	c #6C2A61",
"8@	c #49414C",
"9@	c #17517C",
"0@	c #015FA7",
"a@	c #0061AE",
"b@	c #024980",
"c@	c #2C4559",
"d@	c #6B7378",
"e@	c #606466",
"f@	c #55294A",
"g@	c #56294B",
"h@	c #502846",
"i@	c #4D2446",
"j@	c #2C272C",
"k@	c #808281",
"l@	c #666667",
"m@	c #233745",
"n@	c #132D40",
"o@	c #414950",
"p@	c #8B8A89",
"q@	c #9C9E9C",
"r@	c #7C7E7D",
"s@	c #424443",
"t@	c #44243F",
"u@	c #792B69",
"v@	c #4E2947",
"w@	c #6D6A6D",
"x@	c #6B6C6B",
"y@	c #463241",
"z@	c #281E24",
"A@	c #737473",
"B@	c #8A8D8B",
"C@	c #675563",
"D@	c #57354E",
"E@	c #4F2D46",
"F@	c #472540",
"G@	c #32232E",
"H@	c #9A3682",
"I@	c #C14FA8",
"J@	c #A43A8B",
"K@	c #742F64",
"L@	c #5B2550",
"M@	c #702160",
"N@	c #3B2035",
"O@	c #494849",
"P@	c #69405F",
"Q@	c #993D82",
"R@	c #BD4A9E",
"S@	c #B74497",
"T@	c #A6378A",
"U@	c #822C71",
"V@	c #4E2447",
"W@	c #97337F",
"X@	c #B24198",
"Y@	c #A7378D",
"Z@	c #942C80",
"`@	c #7C2068",
" #	c #5B1849",
".#	c #2E1E29",
"+#	c #662B58",
"@#	c #AB3E90",
"##	c #C558AB",
"$#	c #C663B1",
"%#	c #BC52A3",
"&#	c #AA3B8E",
"*#	c #9C3085",
"=#	c #6A285E",
"-#	c #512248",
";#	c #5B2551",
">#	c #5B2652",
",#	c #53224A",
"'#	c #441A38",
")#	c #202020",
"!#	c #752C65",
"~#	c #9A2F82",
"{#	c #86276F",
"]#	c #751F5F",
"^#	c #701C5A",
"/#	c #6D1A57",
"(#	c #782063",
"_#	c #622556",
":#	c #5A234F",
"<#	c #631C51",
"[#	c #51143E",
"}#	c #4E123A",
"|#	c #4F123A",
"1#	c #431633",
"2#	c #361D2F",
"                                                                ",
"                                                                ",
"                                . + @ # $                       ",
"                              % & * = - ; >                     ",
"                            , ' ) ! ~ { ] ^                     ",
"                  / ( _ : < [ } | 1 2 3 4 5 6                   ",
"              7 8 9 0 a a a a a a a a 0 b c d e f g             ",
"          h i j k l b m n o o o o o p q c r s t u v w           ",
"          7 x d y z A B C C C C C C D E C F G x H I J K         ",
"        L M N O P Q R S T U U U U U V W X Y Z `  .t ..+.@.      ",
"        #.$.%.&.*.=.-.;.>.,.'.'.'.,.).!.~.{.].^./.(._.:.@.      ",
"        #.$.%.<.[.}.|.1.2.3.'.'.'.4.5.6.7.8.9.0.a.(._.:.@.      ",
"        #.b.c.<.[.}.d.e.2.3.'.'.'.4.f.g.h.8.i.j.k.q l.:.@.      ",
"        m._.n.&.[.o.p.1.2.,.'.'.'.,.5.6.h.q.r.s.t.r ..u.@.      ",
"        v.w.x.y.z.A.B.C.D.E.F.F.F.E.G.H.I.J.K.L.M.N.O.P.Q.      ",
"          R.S.T.U.V.W.X.Y.Z.`.`.`.Z. +.+++@+#+$+%+&+*+=+        ",
"            -+;+>+,+'+)+!+!+!+~+~+~+)+{+!+]+^+/+(+_+:+          ",
"                <+[+}+|+1+2+3+4+4+4+5+6+[+|+7+8+                ",
"                    9+0+a+b+c+d+e+f+g+h+i+j+k+l+                ",
"                  m+n+o+p+q+r+s+t+u+v+w+x+y+z+A+B+C+            ",
"                  D+E+F+G+H+I+J+K+L+M+N+O+P+Q+R+S+T+            ",
"              U+V+W+X+Y+Z+`+ @.@+@@@#@$@%@&@*@=@-@;@            ",
"            >@,@'@)@!@~@{@]@^@/@(@_@:@<@[@}@|@1@                ",
"              2@3@4@5@6@7@8@9@0@a@b@c@d@e@                      ",
"                f@g@h@i@j@k@l@m@n@o@p@q@r@s@                    ",
"                    t@u@v@w@x@y@z@A@B@C@D@E@F@                  ",
"                  G@H@I@J@K@L@M@N@O@P@Q@R@S@T@U@V@              ",
"                  G@W@X@Y@Z@`@ #.#+#@###$#%#&#*#=#              ",
"                    -#;#>#,#'#  )#!#~#{#]#^#/#(#_#              ",
"                                  :#<#[#}#|#1#2#                ",
"                                                                ",
"                                                                "};
