/* XPM */
static char * front_left_xpm[] = {
"32 32 393 2",
"  	c #C8A2C8",
". 	c #6C3E5E",
"+ 	c #612E51",
"@ 	c #58294D",
"# 	c #4B2445",
"$ 	c #633A57",
"% 	c #BB70A3",
"& 	c #E28DC6",
"* 	c #CF63B1",
"= 	c #B53D92",
"- 	c #A03585",
"; 	c #702C61",
"> 	c #4D2B42",
", 	c #8E4E7B",
"' 	c #966489",
") 	c #8D4F7B",
"! 	c #803668",
"~ 	c #7A3366",
"{ 	c #672E5A",
"] 	c #292428",
"^ 	c #3E3F3F",
"/ 	c #636565",
"( 	c #9B9E9E",
"_ 	c #B3B3B3",
": 	c #B4B5B4",
"< 	c #B5B6B6",
"[ 	c #B5B6B5",
"} 	c #B2B3B3",
"| 	c #ACACAC",
"1 	c #A4A5A5",
"2 	c #8C9090",
"3 	c #747575",
"4 	c #A5A7A7",
"5 	c #D4D6D6",
"6 	c #F0F0F0",
"7 	c #FBFBFB",
"8 	c #FFFFFF",
"9 	c #FDFDFD",
"0 	c #F9F9F9",
"a 	c #F0F1F1",
"b 	c #D8D9D9",
"c 	c #BEC1C1",
"d 	c #8C8E8E",
"e 	c #666969",
"f 	c #6F7373",
"g 	c #C2C5C5",
"h 	c #EDEEEE",
"i 	c #FAFAFA",
"j 	c #FEFEFE",
"k 	c #F8F8F8",
"l 	c #F6F6F6",
"m 	c #F4F4F4",
"n 	c #DADCDC",
"o 	c #A6ABAB",
"p 	c #595C5C",
"q 	c #575A5A",
"r 	c #AFB2B2",
"s 	c #E7E8E8",
"t 	c #F2F2F2",
"u 	c #E5E7E7",
"v 	c #C8CACA",
"w 	c #A8A9A9",
"x 	c #999898",
"y 	c #9A9999",
"z 	c #999899",
"A 	c #989797",
"B 	c #ABADAD",
"C 	c #CBCDCD",
"D 	c #E6E7E7",
"E 	c #DEE0E0",
"F 	c #878B8B",
"G 	c #292929",
"H 	c #9FA3A3",
"I 	c #E0E2E2",
"J 	c #EFEFEF",
"K 	c #CFD2D2",
"L 	c #9A9B9C",
"M 	c #8F8083",
"N 	c #A1848A",
"O 	c #9E7F87",
"P 	c #907277",
"Q 	c #97797F",
"R 	c #A78890",
"S 	c #A6878F",
"T 	c #95767C",
"U 	c #967A7F",
"V 	c #8B8183",
"W 	c #9C9E9E",
"X 	c #CDCFCF",
"Y 	c #BCC0C0",
"Z 	c #5A5F5F",
"` 	c #2A2A2A",
" .	c #B2B4B4",
"..	c #ECEDED",
"+.	c #F3F3F3",
"@.	c #838686",
"#.	c #786568",
"$.	c #CDA3AC",
"%.	c #FCD0DF",
"&.	c #BC9BA5",
"*.	c #544242",
"=.	c #896F75",
"-.	c #FED4E4",
";.	c #FED5E4",
">.	c #FED5E5",
",.	c #F7CEDD",
"'.	c #796165",
").	c #584545",
"!.	c #C29CA5",
"~.	c #BE969E",
"{.	c #554749",
"].	c #858787",
"^.	c #C6CBCB",
"/.	c #6C7171",
"(.	c #B3B4B4",
"_.	c #666666",
":.	c #725B5E",
"<.	c #DBAFB9",
"[.	c #FFD4E4",
"}.	c #A48C96",
"|.	c #181A19",
"1.	c #605459",
"2.	c #FFD6E6",
"3.	c #F5CEDD",
"4.	c #4A4245",
"5.	c #1D1E1E",
"6.	c #BA99A3",
"7.	c #D1A6AF",
"8.	c #574749",
"9.	c #7F8181",
"0.	c #C5CACA",
"a.	c #6D7171",
"b.	c #B3B5B5",
"c.	c #EBECEC",
"d.	c #676767",
"e.	c #DBAEB9",
"f.	c #A58C96",
"g.	c #191B1A",
"h.	c #61555A",
"i.	c #FDD5E5",
"j.	c #4B4346",
"k.	c #1E1F1F",
"l.	c #BB99A3",
"m.	c #57474A",
"n.	c #6D7272",
"o.	c #B0B2B2",
"p.	c #E2E3E3",
"q.	c #EFF0F0",
"r.	c #666767",
"s.	c #715A5E",
"t.	c #D9ADB7",
"u.	c #FED3E2",
"v.	c #181919",
"w.	c #494245",
"x.	c #1D1E1D",
"y.	c #B897A1",
"z.	c #D0A5AE",
"A.	c #7F8180",
"B.	c #C3C8C8",
"C.	c #6A6F6F",
"D.	c #272727",
"E.	c #7C8181",
"F.	c #BEC2C2",
"G.	c #7C7F7F",
"H.	c #806C6F",
"I.	c #C99FA8",
"J.	c #EDC0CD",
"K.	c #B4939C",
"L.	c #4E3D3E",
"M.	c #82696E",
"N.	c #F5CAD8",
"O.	c #F6CAD9",
"P.	c #F6CBD9",
"Q.	c #EFC4D2",
"R.	c #725C5F",
"S.	c #524141",
"T.	c #C09AA3",
"U.	c #C0979F",
"V.	c #675B5D",
"W.	c #8F9393",
"X.	c #ABB0B0",
"Y.	c #525757",
"Z.	c #303232",
"`.	c #818787",
" +	c #B6BCBC",
".+	c #B4BABA",
"++	c #98999A",
"@+	c #99888B",
"#+	c #AA8A91",
"$+	c #A38289",
"%+	c #94757A",
"&+	c #9C7B82",
"*+	c #AC8A92",
"=+	c #AB8991",
"-+	c #99797F",
";+	c #95757B",
">+	c #B29299",
",+	c #95898C",
"'+	c #8E9293",
")+	c #9FA7A7",
"!+	c #6A6E6E",
"~+	c #414444",
"{+	c #5C6060",
"]+	c #818686",
"^+	c #9EA4A4",
"/+	c #939999",
"(+	c #717575",
"_+	c #666768",
":+	c #656565",
"<+	c #656665",
"[+	c #646666",
"}+	c #666868",
"|+	c #7A7E7F",
"1+	c #7F8686",
"2+	c #6F7575",
"3+	c #555959",
"4+	c #343736",
"5+	c #4F5251",
"6+	c #545555",
"7+	c #3A4349",
"8+	c #354D5D",
"9+	c #354C5C",
"0+	c #354B5B",
"a+	c #354855",
"b+	c #364752",
"c+	c #3F4244",
"d+	c #585A59",
"e+	c #555757",
"f+	c #414343",
"g+	c #424444",
"h+	c #5B294E",
"i+	c #511E42",
"j+	c #715E6A",
"k+	c #979998",
"l+	c #5F6061",
"m+	c #11334D",
"n+	c #005DA5",
"o+	c #006ABC",
"p+	c #0063B1",
"q+	c #004E8B",
"r+	c #024375",
"s+	c #212C35",
"t+	c #737474",
"u+	c #8B8C8C",
"v+	c #626262",
"w+	c #742F61",
"x+	c #B44795",
"y+	c #B84293",
"z+	c #7D3969",
"A+	c #433640",
"B+	c #233643",
"C+	c #09538B",
"D+	c #007EE1",
"E+	c #0089F6",
"F+	c #007CDD",
"G+	c #006BBD",
"H+	c #005292",
"I+	c #08406B",
"J+	c #2F383E",
"K+	c #797A79",
"L+	c #7C7E7D",
"M+	c #373938",
"N+	c #88366D",
"O+	c #CE60B5",
"P+	c #CC56AC",
"Q+	c #A53389",
"R+	c #57234F",
"S+	c #1C2122",
"T+	c #173145",
"U+	c #37607F",
"V+	c #909395",
"W+	c #788086",
"X+	c #184A70",
"Y+	c #123957",
"Z+	c #133149",
"`+	c #28242E",
" @	c #653457",
".@	c #7B3A67",
"+@	c #723362",
"@@	c #642A5A",
"#@	c #80396B",
"$@	c #8D3876",
"%@	c #7A2C6A",
"&@	c #4A2343",
"*@	c #172833",
"=@	c #0D304B",
"-@	c #474A4D",
";@	c #BD906D",
">@	c #9E7D64",
",@	c #1F3341",
"'@	c #182B39",
")@	c #282228",
"!@	c #873670",
"~@	c #CE77B4",
"{@	c #DA7AC2",
"]@	c #D368C2",
"^@	c #B8469F",
"/@	c #8D2D79",
"(@	c #4C2446",
"_@	c #454646",
":@	c #515F69",
"<@	c #1D4463",
"[@	c #185483",
"}@	c #075FA3",
"|@	c #034A82",
"1@	c #05416F",
"2@	c #2D2C37",
"3@	c #96387B",
"4@	c #C656A7",
"5@	c #CC5CAD",
"6@	c #CA56AD",
"7@	c #C2489E",
"8@	c #9D3284",
"9@	c #4F2449",
"0@	c #545655",
"a@	c #A6A8A7",
"b@	c #817F7E",
"c@	c #535556",
"d@	c #1C2933",
"e@	c #1F2A33",
"f@	c #404A52",
"g@	c #77787A",
"h@	c #453341",
"i@	c #722D60",
"j@	c #83316D",
"k@	c #82316C",
"l@	c #83326D",
"m@	c #5D2A51",
"n@	c #2C2029",
"o@	c #433A41",
"p@	c #675E65",
"q@	c #7C797C",
"r@	c #8C8E8D",
"s@	c #606060",
"t@	c #232121",
"u@	c #342D31",
"v@	c #7B7C7A",
"w@	c #999B9A",
"x@	c #3D353C",
"y@	c #4E2045",
"z@	c #33202F",
"A@	c #823A73",
"B@	c #A24490",
"C@	c #9C3D86",
"D@	c #8A2D72",
"E@	c #6A295C",
"F@	c #53404F",
"G@	c #4A4B4A",
"H@	c #32222F",
"I@	c #6D2660",
"J@	c #5C3653",
"K@	c #623C59",
"L@	c #7F2F70",
"M@	c #902C7D",
"N@	c #6D1F5A",
"O@	c #351E2F",
"P@	c #7A3166",
"Q@	c #C559AE",
"R@	c #D26AC4",
"S@	c #CA5DB9",
"T@	c #B9489F",
"U@	c #A33487",
"V@	c #842A70",
"W@	c #4B2243",
"X@	c #32212F",
"Y@	c #7B266B",
"Z@	c #A03386",
"`@	c #B03A8E",
" #	c #B43C92",
".#	c #A7368C",
"+#	c #8F2A7C",
"@#	c #3D2239",
"##	c #6F2B5F",
"$#	c #8C2C75",
"%#	c #7D276A",
"&#	c #7E266B",
"*#	c #81266D",
"=#	c #8D2977",
"-#	c #932C7C",
";#	c #68215A",
">#	c #242024",
",#	c #652557",
"'#	c #7B3068",
")#	c #7D3169",
"!#	c #6F2A62",
"~#	c #551C47",
"{#	c #3E1C35",
"]#	c #461435",
"^#	c #52113C",
"/#	c #571442",
"(#	c #5F184C",
"_#	c #61184D",
":#	c #511A42",
"                                                                ",
"                                                                ",
"                                                                ",
"                    . + @ #                                     ",
"                $ % & * = - ;                                   ",
"                > , ' ) ! ~ { ]                                 ",
"              ^ / ( _ : < [ : } | 1 2                           ",
"          3 4 5 6 7 8 8 8 8 8 8 9 0 a b c d e                   ",
"      f g h i 9 j 9 9 9 9 9 9 9 7 i k l m h n o p               ",
"    q r s t u v w x y z A A A A A A x x B C D E F               ",
"  G H I J K L M N O P Q R R R R R S T P U V W X Y Z             ",
"  `  ...+.@.#.$.%.&.*.=.-.;.;.;.>.,.'.).!.~.{.].^./.            ",
"  ` (.h +._.:.<.[.}.|.1.>.2.2.2.2.3.4.5.6.7.8.9.0.a.            ",
"  ` b.c.t d.:.e.[.f.g.h.i.2.2.2.2.3.j.k.l.7.m.9.^.n.            ",
"  ` o.p.q.r.s.t.u.}.v.1.>.2.2.2.2.3.w.x.y.z.8.A.B.C.            ",
"  D.E.F.E G.H.I.J.K.L.M.N.O.O.O.P.Q.R.S.T.U.V.W.X.Y.            ",
"    Z.`. +.+++@+#+$+%+&+*+*+*+*+*+=+-+;+>+,+'+)+!+              ",
"      ~+{+]+^+/+(+/ _+_.:+:+<+<+[+/ [+}+|+1+2+3+                ",
"            4+5+/ 6+7+8+9+0+a+b+c+d+e+f+g+                      ",
"          h+i+j+k+l+m+n+o+p+q+r+s+t+u+v+                        ",
"        w+x+y+z+A+B+C+D+E+F+G+H+I+J+K+L+M+                      ",
"        N+O+P+Q+R+S+T+U+V+W+X+Y+Z+`+ @.@+@@@                    ",
"          #@$@%@&@*@=@-@;@>@,@'@)@!@~@{@]@^@/@(@                ",
"                  _@:@<@[@}@|@1@2@3@4@5@6@7@8@9@                ",
"                0@a@[ b@c@d@e@f@g@h@i@j@k@l@m@                  ",
"              n@o@p@q@r@s@t@u@v@w@x@y@z@                        ",
"            A@B@C@D@E@F@G@H@I@J@K@L@M@N@O@                      ",
"          P@Q@R@S@T@U@V@W@X@Y@Z@`@ #.#+#@#                      ",
"          ##$#%#&#*#=#-#;#>#  ,#'#)#!#~#                        ",
"            {#]#^#/#(#_#:#                                      ",
"                                                                ",
"                                                                "};
