/* XPM */
static char * front_xpm[] = {
"32 32 407 2",
"  	c #C8A2C8",
". 	c #744B68",
"+ 	c #AD6897",
"@ 	c #A04B87",
"# 	c #8D3576",
"$ 	c #7C2C6B",
"% 	c #512748",
"& 	c #482A3F",
"* 	c #B85D9C",
"= 	c #D188BA",
"- 	c #C76BAE",
"; 	c #AF3E8B",
"> 	c #A23582",
", 	c #8B2E75",
"' 	c #33202F",
") 	c #595B5B",
"! 	c #6A6468",
"~ 	c #7E6B78",
"{ 	c #82747F",
"] 	c #80707C",
"^ 	c #7C6976",
"/ 	c #796774",
"( 	c #746370",
"_ 	c #5F5D5F",
": 	c #545757",
"< 	c #6D7070",
"[ 	c #969898",
"} 	c #BFC0C0",
"| 	c #E4E6E6",
"1 	c #F6F7F7",
"2 	c #F6F7F6",
"3 	c #F7F7F7",
"4 	c #F7F8F7",
"5 	c #F5F6F5",
"6 	c #F0F1F1",
"7 	c #EAEBEB",
"8 	c #D8DADA",
"9 	c #ABADAD",
"0 	c #898C8C",
"a 	c #636565",
"b 	c #979B9B",
"c 	c #CCCDCD",
"d 	c #EAEAEA",
"e 	c #FCFDFD",
"f 	c #FFFFFF",
"g 	c #FEFEFE",
"h 	c #FCFCFC",
"i 	c #FAF9F9",
"j 	c #F6F6F6",
"k 	c #F0F0F0",
"l 	c #D9DADA",
"m 	c #BBBDBD",
"n 	c #888C8C",
"o 	c #383A3A",
"p 	c #949898",
"q 	c #E1E3E3",
"r 	c #F0F1F0",
"s 	c #E4E5E5",
"t 	c #D2D4D4",
"u 	c #C9CAC9",
"v 	c #C8C9C9",
"w 	c #C7C7C7",
"x 	c #C6C7C7",
"y 	c #C6C6C6",
"z 	c #C5C6C5",
"A 	c #C4C5C4",
"B 	c #CED0D0",
"C 	c #E0E2E2",
"D 	c #D7DADA",
"E 	c #808383",
"F 	c #8A8F8F",
"G 	c #D4D7D7",
"H 	c #DADCDC",
"I 	c #B0B3B3",
"J 	c #90898B",
"K 	c #887579",
"L 	c #836D72",
"M 	c #806A6F",
"N 	c #816C71",
"O 	c #857075",
"P 	c #816C70",
"Q 	c #836E73",
"R 	c #89777A",
"S 	c #918D8E",
"T 	c #B7BBBB",
"U 	c #DDDFDF",
"V 	c #B8BBBB",
"W 	c #575C5C",
"X 	c #252525",
"Y 	c #A6A8A8",
"Z 	c #EDEEEE",
"` 	c #959999",
" .	c #7C6E70",
"..	c #BB969D",
"+.	c #EBBFCB",
"@.	c #C19BA4",
"#.	c #715759",
"$.	c #9B7C82",
"%.	c #F6CCDB",
"&.	c #F7CDDC",
"*.	c #F1C8D6",
"=.	c #8E7175",
"-.	c #745A5C",
";.	c #CFA8B2",
">.	c #E9BBC8",
",.	c #B28E95",
"'.	c #766C6D",
").	c #A6A9A9",
"!.	c #D5D8D8",
"~.	c #717777",
"{.	c #AAABAB",
"].	c #686969",
"^.	c #725B5E",
"/.	c #DBAEB9",
"(.	c #FFD4E4",
"_.	c #A58D96",
":.	c #1A1B1A",
"<.	c #62555A",
"[.	c #FED5E5",
"}.	c #FFD6E6",
"|.	c #FFD6E7",
"1.	c #F5CEDD",
"2.	c #4C4346",
"3.	c #201F1F",
"4.	c #BFA1AD",
"5.	c #FFD2E2",
"6.	c #D2A6B0",
"7.	c #604D50",
"8.	c #818282",
"9.	c #D9DCDC",
"0.	c #757A7A",
"a.	c #EEEEEE",
"b.	c #676767",
"c.	c #A58C96",
"d.	c #191B1A",
"e.	c #61555A",
"f.	c #FDD5E5",
"g.	c #4B4346",
"h.	c #1E1F1F",
"i.	c #BEA1AD",
"j.	c #FFD2E1",
"k.	c #5F4D50",
"l.	c #808080",
"m.	c #D7DBDB",
"n.	c #747A7A",
"o.	c #A8AAAA",
"p.	c #ECECEC",
"q.	c #656666",
"r.	c #DAAEB8",
"s.	c #FED3E2",
"t.	c #A38B94",
"u.	c #171919",
"v.	c #605459",
"w.	c #494245",
"x.	c #1D1E1E",
"y.	c #BDA0AB",
"z.	c #FDD0DF",
"A.	c #D1A6AF",
"B.	c #5F4D4F",
"C.	c #7A7B7B",
"D.	c #D0D4D4",
"E.	c #727878",
"F.	c #242424",
"G.	c #7B7F7F",
"H.	c #D1D3D3",
"I.	c #7A7D7D",
"J.	c #786467",
"K.	c #C69CA4",
"L.	c #EEC0CD",
"M.	c #B18F97",
"N.	c #473939",
"O.	c #7E676B",
"P.	c #F7CCDA",
"Q.	c #F7CCDB",
"R.	c #F8CCDB",
"S.	c #F0C6D4",
"T.	c #6D585C",
"U.	c #4B3C3C",
"V.	c #C49FA8",
"W.	c #EABDC9",
"X.	c #BD959C",
"Y.	c #6C5C5F",
"Z.	c #828686",
"`.	c #B0B5B5",
" +	c #5B5F5F",
".+	c #303232",
"++	c #828787",
"@+	c #989898",
"#+	c #988689",
"$+	c #AD8C93",
"%+	c #A4838A",
"&+	c #937479",
"*+	c #9C7B82",
"=+	c #AF8D95",
"-+	c #AE8C94",
";+	c #99797F",
">+	c #94747A",
",+	c #A7868D",
"'+	c #A28389",
")+	c #8E7F82",
"!+	c #A4ABAB",
"~+	c #717676",
"{+	c #3F4242",
"]+	c #5D6060",
"^+	c #7B8080",
"/+	c #848989",
"(+	c #737677",
"_+	c #646566",
":+	c #656667",
"<+	c #666767",
"[+	c #656665",
"}+	c #666768",
"|+	c #656767",
"1+	c #646667",
"2+	c #757979",
"3+	c #838989",
"4+	c #767B7B",
"5+	c #585C5C",
"6+	c #3C3E3E",
"7+	c #494B4A",
"8+	c #535454",
"9+	c #373E43",
"0+	c #314656",
"a+	c #314655",
"b+	c #393E41",
"c+	c #4C4D4D",
"d+	c #414242",
"e+	c #3E4040",
"f+	c #606060",
"g+	c #949595",
"h+	c #797C7D",
"i+	c #123047",
"j+	c #005292",
"k+	c #005598",
"l+	c #005497",
"m+	c #005190",
"n+	c #004E8C",
"o+	c #004377",
"p+	c #182C3B",
"q+	c #6D6F70",
"r+	c #686867",
"s+	c #818181",
"t+	c #C7C9C8",
"u+	c #CACBCA",
"v+	c #76818A",
"w+	c #0B3F68",
"x+	c #0067B6",
"y+	c #007EDE",
"z+	c #0284E8",
"A+	c #026BBA",
"B+	c #00599D",
"C+	c #014D87",
"D+	c #0F3859",
"E+	c #495157",
"F+	c #8D8E8E",
"G+	c #454545",
"H+	c #813B6B",
"I+	c #8B3C78",
"J+	c #753464",
"K+	c #927288",
"L+	c #AFABAE",
"M+	c #7E7F7E",
"N+	c #363B3E",
"O+	c #192936",
"P+	c #153046",
"Q+	c #354857",
"R+	c #AF9079",
"S+	c #A48167",
"T+	c #283A48",
"U+	c #163043",
"V+	c #1A2934",
"W+	c #1F2224",
"X+	c #676867",
"Y+	c #888286",
"Z+	c #6A425C",
"`+	c #6D2557",
" @	c #7A2E69",
".@	c #5E2754",
"+@	c #974584",
"@@	c #D87ABF",
"#@	c #DA74C8",
"$@	c #BC4AA2",
"%@	c #953178",
"&@	c #722E62",
"*@	c #44283E",
"=@	c #13293A",
"-@	c #06406D",
";@	c #104269",
">@	c #295678",
",@	c #898888",
"'@	c #808386",
")@	c #1F496A",
"!@	c #103A5B",
"~@	c #053E69",
"{@	c #192834",
"]@	c #4A2843",
"^@	c #7B2E64",
"/@	c #AF4890",
"(@	c #C957AC",
"_@	c #BE48A0",
":@	c #A03386",
"<@	c #622659",
"[@	c #7A386D",
"}@	c #BF60AC",
"|@	c #CA58AC",
"1@	c #C2469A",
"2@	c #B33C91",
"3@	c #902F7C",
"4@	c #502349",
"5@	c #282E30",
"6@	c #28465D",
"7@	c #05487B",
"8@	c #055593",
"9@	c #045DA1",
"0@	c #045C9F",
"a@	c #055089",
"b@	c #074270",
"c@	c #2C4457",
"d@	c #272A2D",
"e@	c #5A2452",
"f@	c #9E3483",
"g@	c #C555AC",
"h@	c #C757AF",
"i@	c #B44096",
"j@	c #92307D",
"k@	c #592551",
"l@	c #592A4E",
"m@	c #6B2F59",
"n@	c #6D3159",
"o@	c #682E58",
"p@	c #545454",
"q@	c #A3A4A4",
"r@	c #6B6E70",
"s@	c #474A4C",
"t@	c #212527",
"u@	c #24282A",
"v@	c #4B4E50",
"w@	c #686B6C",
"x@	c #A1A2A2",
"y@	c #444444",
"z@	c #5F2A54",
"A@	c #632C55",
"B@	c #5D2852",
"C@	c #565757",
"D@	c #C5C7C6",
"E@	c #C2C3C2",
"F@	c #838484",
"G@	c #2F2F2F",
"H@	c #9C9D9C",
"I@	c #C3C5C4",
"J@	c #B5B6B6",
"K@	c #434343",
"L@	c #57274E",
"M@	c #602151",
"N@	c #5F3A53",
"O@	c #8A8288",
"P@	c #9D959B",
"Q@	c #6D666B",
"R@	c #232423",
"S@	c #2E2E2E",
"T@	c #979196",
"U@	c #AEA6AC",
"V@	c #867D83",
"W@	c #592F4C",
"X@	c #612354",
"Y@	c #642C55",
"Z@	c #B14696",
"`@	c #BC4C9E",
" #	c #9E367E",
".#	c #802D67",
"+#	c #7C2B66",
"@#	c #662255",
"##	c #3A1A2F",
"$#	c #401C34",
"%#	c #7D2F64",
"&#	c #89356E",
"*#	c #832F69",
"=#	c #9C337F",
"-#	c #A5358A",
";#	c #902E7D",
">#	c #4A2444",
",#	c #5F2B51",
"'#	c #AE4C9A",
")#	c #CB5FB9",
"!#	c #C756B1",
"~#	c #BC4BA5",
"{#	c #9D3186",
"]#	c #7D226C",
"^#	c #50133C",
"/#	c #571642",
"(#	c #9A327E",
"_#	c #BF55A6",
":#	c #C354AD",
"<#	c #AF3E94",
"[#	c #9E3186",
"}#	c #852B75",
"|#	c #482442",
"1#	c #662C5B",
"2#	c #6C315F",
"3#	c #682E5C",
"4#	c #59244F",
"5#	c #471E3D",
"6#	c #4C1F41",
"7#	c #5E2A55",
"8#	c #632C5A",
"9#	c #612956",
"0#	c #5D2654",
"                                                                ",
"                                                                ",
"                                                                ",
"                        . + @ # $ %                             ",
"                      & * = - ; > , '                           ",
"                    ) ! ~ { ] ^ / ( _ :                         ",
"              < [ } | 1 2 3 4 2 5 6 7 8 9 0 a                   ",
"          b c d e f f f f f f f f g h i j k l m n               ",
"      o p q r s t u v w x x x x x y y z A B C 7 D E             ",
"      F G H I J K L M N O O O O O O P M Q R S T U V W           ",
"    X Y Z `  ...+.@.#.$.%.&.&.&.&.*.=.-.;.>.,.'.).!.~.          ",
"    X {.6 ].^./.(._.:.<.[.}.}.}.|.1.2.3.4.5.6.7.8.9.0.          ",
"    X {.a.b.^./.(.c.d.e.f.}.}.}.}.1.g.h.i.j.6.k.l.m.n.          ",
"    X o.p.q.^.r.s.t.u.v.[.}.}.}.}.1.w.x.y.z.A.B.C.D.E.          ",
"    F.G.H.I.J.K.L.M.N.O.P.Q.Q.Q.R.S.T.U.V.W.X.Y.Z.`. +          ",
"      .+++`.@+#+$+%+&+*+=+=+=+=+=+-+;+>+,+'+)+[ !+~+            ",
"        {+]+^+/+(+_+:+<+[+[+[+[+[+[+}+|+1+2+3+4+5+              ",
"                6+7+8+9+0+a+a+0+0+a+b+c+d+e+                    ",
"                f+g+h+i+j+k+l+m+n+o+p+q+r+                      ",
"              s+t+u+v+w+x+y+z+A+B+C+D+E+@+F+G+                  ",
"        H+I+J+K+L+M+N+O+P+Q+R+S+T+U+V+W+X+Y+Z+`+ @.@            ",
"      +@@@#@$@%@&@*@=@-@;@>@,@'@)@!@~@{@]@^@/@(@_@:@<@          ",
"      [@}@|@1@2@3@4@5@6@7@8@9@0@a@b@c@d@e@f@g@h@i@j@k@          ",
"        l@m@n@o@    p@q@r@s@t@u@v@w@x@y@    z@A@B@              ",
"                    C@D@E@F@X G@H@I@J@K@                        ",
"                L@M@N@O@P@Q@R@S@T@U@V@W@X@                      ",
"              Y@Z@`@ #.#+#@###$#%#&#*#=#-#;#>#                  ",
"              ,#'#)#!#~#{#]#^#/#(#_#:#<#[#}#|#                  ",
"                  1#2#3#4#5#    6#7#8#9#0#                      ",
"                                                                ",
"                                                                ",
"                                                                "};
