/* XPM */
static char * turn_left_xpm[] = {
"32 32 356 2",
"  	c #C8A2C8",
". 	c #855577",
"+ 	c #BB6FA2",
"@ 	c #AC5090",
"# 	c #993A7F",
"$ 	c #8B3076",
"% 	c #1E1F1F",
"& 	c #884272",
"* 	c #D473B6",
"= 	c #E495CB",
"- 	c #DB7BC2",
"; 	c #C34C9D",
"> 	c #B63D91",
", 	c #A5A6A6",
"' 	c #B8B9B9",
") 	c #BEBEBE",
"! 	c #C0C0C0",
"~ 	c #C2C2C2",
"{ 	c #C3C3C3",
"] 	c #BCBCBC",
"^ 	c #A5A7A7",
"/ 	c #7D7F7F",
"( 	c #202120",
"_ 	c #752C63",
": 	c #B74298",
"< 	c #C552A2",
"[ 	c #C14C9D",
"} 	c #B53F92",
"| 	c #AC398C",
"1 	c #5F6161",
"2 	c #717171",
"3 	c #A7A8A8",
"4 	c #DCDCDC",
"5 	c #E9E9E9",
"6 	c #FBFBFB",
"7 	c #FFFFFF",
"8 	c #FDFDFD",
"9 	c #FCFCFC",
"0 	c #F5F6F6",
"a 	c #EAEAEA",
"b 	c #D7D8D8",
"c 	c #B2B6B6",
"d 	c #6C6F6E",
"e 	c #5F3A5A",
"f 	c #7D2A6B",
"g 	c #A53488",
"h 	c #A8378A",
"i 	c #A23588",
"j 	c #9A3184",
"k 	c #838888",
"l 	c #D7D9D9",
"m 	c #F4F4F4",
"n 	c #FEFEFE",
"o 	c #FAFAFA",
"p 	c #F7F7F7",
"q 	c #E3E5E5",
"r 	c #9DA2A1",
"s 	c #665C68",
"t 	c #502D4B",
"u 	c #4A2543",
"v 	c #4F2647",
"w 	c #4D2546",
"x 	c #3B3C3C",
"y 	c #919595",
"z 	c #B1B2B2",
"A 	c #B8B8B8",
"B 	c #B9BABA",
"C 	c #C1C2C2",
"D 	c #D4D6D6",
"E 	c #EAECEC",
"F 	c #F9F9F9",
"G 	c #F6F6F6",
"H 	c #F3F3F3",
"I 	c #D5D8D8",
"J 	c #B0B7B6",
"K 	c #808786",
"L 	c #343836",
"M 	c #3F3637",
"N 	c #6B5659",
"O 	c #816A70",
"P 	c #836C71",
"Q 	c #80696E",
"R 	c #7F686D",
"S 	c #846E73",
"T 	c #938386",
"U 	c #929494",
"V 	c #C0C4C4",
"W 	c #E7E9E9",
"X 	c #F8F8F8",
"Y 	c #F5F5F5",
"Z 	c #F1F1F1",
"` 	c #E8E9E9",
" .	c #D8DADA",
"..	c #BBC0C0",
"+.	c #8B9191",
"@.	c #343535",
"#.	c #645154",
"$.	c #C0979E",
"%.	c #E8BBC7",
"&.	c #F5CAD9",
"*.	c #A38288",
"=.	c #7C5F61",
"-.	c #99787C",
";.	c #DBB1BC",
">.	c #9A7C81",
",.	c #746F70",
"'.	c #A8ACAC",
").	c #F2F2F2",
"!.	c #EFEFEF",
"~.	c #E6E7E7",
"{.	c #D2D4D4",
"].	c #B7BBBB",
"^.	c #665356",
"/.	c #C49BA3",
"(.	c #ECC0CC",
"_.	c #FDD4E3",
":.	c #65585D",
"<.	c #1C1C1B",
"[.	c #5B4F53",
"}.	c #F6CDDC",
"|.	c #BB939B",
"1.	c #4B3F41",
"2.	c #7D7E7E",
"3.	c #EEEEEE",
"4.	c #E5E6E6",
"5.	c #B8BDBD",
"6.	c #3C3C3C",
"7.	c #C49BA2",
"8.	c #ECBFCC",
"9.	c #FCD3E2",
"0.	c #62565B",
"a.	c #171919",
"b.	c #574D51",
"c.	c #F6CEDD",
"d.	c #BC959C",
"e.	c #493D3E",
"f.	c #7B7B7B",
"g.	c #FCD3E3",
"h.	c #181919",
"i.	c #584D51",
"j.	c #7B7C7B",
"k.	c #E6E6E6",
"l.	c #D0D3D3",
"m.	c #B2B7B7",
"n.	c #3A3B3B",
"o.	c #FCD2E2",
"p.	c #64575C",
"q.	c #1B1B1B",
"r.	c #574B4F",
"s.	c #ECC1CE",
"t.	c #BA9299",
"u.	c #4B3F40",
"v.	c #7C7D7D",
"w.	c #E1E3E3",
"x.	c #C6C9C9",
"y.	c #7F8585",
"z.	c #313333",
"A.	c #C1979F",
"B.	c #9D7B81",
"C.	c #785B5D",
"D.	c #8F6F73",
"E.	c #C69CA4",
"F.	c #9A7B80",
"G.	c #6B6768",
"H.	c #999E9E",
"I.	c #E3E4E4",
"J.	c #C5C9C9",
"K.	c #999D9D",
"L.	c #323434",
"M.	c #70595D",
"N.	c #856C72",
"O.	c #836A70",
"P.	c #826A6F",
"Q.	c #846D71",
"R.	c #867577",
"S.	c #7B7E7E",
"T.	c #909797",
"U.	c #B3B8B8",
"V.	c #CED1D1",
"W.	c #CDD0D0",
"X.	c #CCCFCF",
"Y.	c #C7CACA",
"Z.	c #BBC1C1",
"`.	c #A5ABAB",
" +	c #797F7F",
".+	c #464A4A",
"++	c #3B3E3E",
"@+	c #505555",
"#+	c #646A6A",
"$+	c #808787",
"%+	c #8A9191",
"&+	c #969C9C",
"*+	c #9CA2A1",
"=+	c #9EA2A1",
"-+	c #9DA2A2",
";+	c #9DA3A3",
">+	c #9CA2A2",
",+	c #9BA2A2",
"'+	c #9BA1A1",
")+	c #959B9B",
"!+	c #888E8E",
"~+	c #737979",
"{+	c #565959",
"]+	c #404343",
"^+	c #323231",
"/+	c #2B353D",
"(+	c #253C4D",
"_+	c #253A4A",
":+	c #2E3134",
"<+	c #3D3E3E",
"[+	c #4A4B4B",
"}+	c #484949",
"|+	c #2F3030",
"1+	c #103653",
"2+	c #005496",
"3+	c #01589B",
"4+	c #1A2730",
"5+	c #777675",
"6+	c #A5A5A5",
"7+	c #959696",
"8+	c #676868",
"9+	c #0A375A",
"0+	c #005494",
"a+	c #0070C7",
"b+	c #017CDA",
"c+	c #1B2D3A",
"d+	c #9F9F9E",
"e+	c #DADBDB",
"f+	c #C8C9C9",
"g+	c #B2B3B3",
"h+	c #4F4F4F",
"i+	c #202020",
"j+	c #5B5A58",
"k+	c #486276",
"l+	c #0D4977",
"m+	c #104974",
"n+	c #1D252C",
"o+	c #878786",
"p+	c #A2A3A3",
"q+	c #7E7D7E",
"r+	c #797879",
"s+	c #666566",
"t+	c #383738",
"u+	c #A76F44",
"v+	c #8C6343",
"w+	c #19252D",
"x+	c #1D262D",
"y+	c #202122",
"z+	c #433B41",
"A+	c #6B4461",
"B+	c #883C73",
"C+	c #903D76",
"D+	c #83326D",
"E+	c #762B67",
"F+	c #5B2652",
"G+	c #254A66",
"H+	c #165687",
"I+	c #025391",
"J+	c #055089",
"K+	c #1B272F",
"L+	c #742C5F",
"M+	c #BD5DA1",
"N+	c #DF89C7",
"O+	c #D870C3",
"P+	c #C0479C",
"Q+	c #AD398E",
"R+	c #963082",
"S+	c #6E2763",
"T+	c #242123",
"U+	c #1D2D3A",
"V+	c #144265",
"W+	c #04497D",
"X+	c #212C33",
"Y+	c #732D61",
"Z+	c #B04394",
"`+	c #C958AB",
" @	c #C350A9",
".@	c #B94196",
"+@	c #AC398E",
"@@	c #993084",
"#@	c #712766",
"$@	c #525251",
"%@	c #747677",
"&@	c #242F38",
"*@	c #7D7F80",
"=@	c #615760",
"-@	c #5E3156",
";@	c #7E2A6B",
">@	c #893272",
",@	c #893372",
"'@	c #7E2D6E",
")@	c #612757",
"!@	c #6F7070",
"~@	c #A7A7A7",
"{@	c #2F2F2E",
"]@	c #B5B6B6",
"^@	c #BFC0C0",
"/@	c #949495",
"(@	c #5A575A",
"_@	c #272326",
":@	c #1B1D1B",
"<@	c #545655",
"[@	c #797B7A",
"}@	c #2E2E2E",
"|@	c #B0B1B1",
"1@	c #DDDEDE",
"2@	c #D3D4D4",
"3@	c #949594",
"4@	c #242424",
"5@	c #5E2C50",
"6@	c #6B2E5A",
"7@	c #592C4B",
"8@	c #532A47",
"9@	c #522B49",
"0@	c #442A41",
"a@	c #262626",
"b@	c #646665",
"c@	c #888988",
"d@	c #848584",
"e@	c #5C5D5C",
"f@	c #222222",
"g@	c #392533",
"h@	c #632E54",
"i@	c #8A3E72",
"j@	c #C865AD",
"k@	c #C351A1",
"l@	c #B23E91",
"m@	c #9C3682",
"n@	c #793266",
"o@	c #783265",
"p@	c #773163",
"q@	c #773063",
"r@	c #722E61",
"s@	c #602657",
"t@	c #1C1F1C",
"u@	c #472F42",
"v@	c #C762B0",
"w@	c #D781BC",
"x@	c #D26FB7",
"y@	c #C857AA",
"z@	c #C0489F",
"A@	c #C148A1",
"B@	c #B74096",
"C@	c #AF398F",
"D@	c #A4348B",
"E@	c #8A2A7B",
"F@	c #30222E",
"G@	c #5D2954",
"H@	c #6A315A",
"I@	c #6C315C",
"J@	c #6C305B",
"K@	c #6B2F5B",
"L@	c #6B2F5A",
"M@	c #632A56",
"N@	c #5A2551",
"O@	c #572550",
"                                                                ",
"                                                      . + @ # $ ",
"                                                  % & * = - ; > ",
"                    , ' ) ! ~ { { { ~ ) ] ^ /     ( _ : < [ } | ",
"          1 2 3 4 5 6 7 7 7 7 7 7 7 7 8 9 0 a b c d e f g h i j ",
"        k l m n 7 7 7 7 7 7 7 7 7 7 7 7 7 8 o p m q r s t u v w ",
"      x y z A B C D E F n n n n n n n n n n o G G H I J K L     ",
"    M N O P Q R S T U V W o F F F F F F F X p Y H Z `  ...+.@.  ",
"    #.$.%.&.*.=.-.;.>.,.'.m ).).).).).).).).).Z !.!.!.~.{.].x   ",
"    ^./.(._.:.<.[.}.|.1.2.).!.!.!.!.!.!.!.!.!.!.3.3.!.4.{.5.6.  ",
"    ^.7.8.9.0.a.b.c.d.e.f.).3.3.3.3.3.3.3.3.3.3.!.!.!.4.{.5.6.  ",
"    ^.7.8.g.0.h.i.c.d.e.j.).!.!.!.!.!.!.!.!.!.!.!.!.!.k.l.m.n.  ",
"    ^./.8.o.p.q.r.s.t.u.v.).3.3.3.3.3.3.3.3.3.3.3.3.a w.x.y.z.  ",
"    #.A.%.(.B.C.D.E.F.G.H.k.I.I.I.I.I.I.I.I.I.I.I.w.I J.K.L.    ",
"      M.N.N.O.P.Q.R.S.T.U.V.W.W.W.W.W.W.W.W.W.X.Y.Z.`. +.+      ",
"        % % ++@+#+$+%+&+*+=+-+;+>+,+,+;+'+'+)+!+~+{+]+          ",
"                      ^+/+(+_+:+<+[+}+|+                        ",
"                        1+2+3+4+5+6+7+8+                        ",
"                      9+0+a+b+c+d+e+f+g+h+                      ",
"                    i+j+k+l+m+n+o+p+q+r+s+t+                    ",
"                    i+u+v+w+x+y+z+A+B+C+D+E+F+                  ",
"                      G+H+I+J+K+L+M+N+O+P+Q+R+S+T+              ",
"                        U+V+W+X+Y+Z+`+ @.@+@@@#@T+              ",
"                        $@%@&@*@=@-@;@>@,@'@)@                  ",
"                        !@~@{@]@^@/@(@_@                        ",
"                      :@<@[@}@|@1@2@3@4@                        ",
"                5@6@7@8@9@0@a@b@c@d@e@f@                        ",
"              g@h@i@j@k@l@m@n@o@p@q@r@s@                        ",
"              t@u@v@w@x@y@z@A@A@B@C@D@E@F@                      ",
"                  G@H@I@J@K@K@K@L@M@N@O@                        ",
"                                                                ",
"                                                                "};
