/* XPM */
static char * turn_left_right_foot_xpm[] = {
"32 32 349 2",
"  	c #C8A2C8",
". 	c #59344E",
"+ 	c #502944",
"@ 	c #482641",
"# 	c #A46791",
"$ 	c #D780BB",
"% 	c #C054A1",
"& 	c #A8378A",
"* 	c #822E6F",
"= 	c #5D2F4F",
"- 	c #D269B2",
"; 	c #DD85C4",
"> 	c #CC5FAC",
", 	c #B73E91",
"' 	c #AD398E",
") 	c #642B57",
"! 	c #5E5E5E",
"~ 	c #828282",
"{ 	c #CECECE",
"] 	c #DCDCDC",
"^ 	c #DFDFDF",
"/ 	c #E2E2E2",
"( 	c #E0E0E0",
"_ 	c #CECFCF",
": 	c #9B9E9E",
"< 	c #595C5A",
"[ 	c #5A3F54",
"} 	c #97377C",
"| 	c #BF4699",
"1 	c #B74093",
"2 	c #AA388C",
"3 	c #A13389",
"4 	c #5F2855",
"5 	c #787A7A",
"6 	c #A3A3A3",
"7 	c #E8E9E9",
"8 	c #F9F9F9",
"9 	c #FFFFFF",
"0 	c #FCFCFC",
"a 	c #FAFAFA",
"b 	c #F4F4F4",
"c 	c #E4E5E5",
"d 	c #ABAFAE",
"e 	c #6F5B6A",
"f 	c #7F3169",
"g 	c #9F3386",
"h 	c #973082",
"i 	c #752968",
"j 	c #959A9A",
"k 	c #EAEBEB",
"l 	c #FEFEFE",
"m 	c #FBFBFB",
"n 	c #F7F7F7",
"o 	c #F2F2F2",
"p 	c #C0C4C3",
"q 	c #6E6971",
"r 	c #482E43",
"s 	c #3F233A",
"t 	c #313333",
"u 	c #888B8B",
"v 	c #ABACAB",
"w 	c #AFB0AF",
"x 	c #B1B2B1",
"y 	c #B8B9B9",
"z 	c #D2D5D5",
"A 	c #EEF0F0",
"B 	c #FDFDFD",
"C 	c #F6F6F6",
"D 	c #F5F5F5",
"E 	c #E1E3E3",
"F 	c #B5BBBB",
"G 	c #6E7574",
"H 	c #2C2829",
"I 	c #645153",
"J 	c #826A6F",
"K 	c #846C72",
"L 	c #836B71",
"M 	c #80686D",
"N 	c #846D72",
"O 	c #908386",
"P 	c #A0A4A4",
"Q 	c #DDDFDF",
"R 	c #F8F9F9",
"S 	c #ECECEC",
"T 	c #D9DBDB",
"U 	c #B2B7B7",
"V 	c #5E6161",
"W 	c #393233",
"X 	c #AF898F",
"Y 	c #E7BBC7",
"Z 	c #F7CDDC",
"` 	c #DFB7C3",
" .	c #87686A",
"..	c #9A787D",
"+.	c #CCA4AD",
"@.	c #877376",
"#.	c #929696",
"$.	c #F0F0F0",
"%.	c #F1F1F1",
"&.	c #EFEFEF",
"*.	c #E6E7E7",
"=.	c #CFD2D2",
"-.	c #767979",
";.	c #3A3334",
">.	c #B28D94",
",.	c #ECC0CC",
"'.	c #FFD8E8",
").	c #D3B2BE",
"!.	c #2C2828",
"~.	c #584D51",
"{.	c #E7BFCC",
"].	c #8C6F74",
"^.	c #5D5C5C",
"/.	c #EBECEC",
"(.	c #EEEEEE",
"_.	c #E5E6E6",
":.	c #777A7A",
"<.	c #B28D93",
"[.	c #ECBFCC",
"}.	c #FFD7E7",
"|.	c #D1B0BD",
"1.	c #252525",
"2.	c #544B4E",
"3.	c #E8C0CE",
"4.	c #595859",
"5.	c #EBEBEB",
"6.	c #262525",
"7.	c #544B4F",
"8.	c #E9C1CE",
"9.	c #5A5959",
"0.	c #CDD1D1",
"a.	c #757878",
"b.	c #252425",
"c.	c #52484C",
"d.	c #E3BAC6",
"e.	c #595858",
"f.	c #EDEDED",
"g.	c #BBC0C0",
"h.	c #5D6161",
"i.	c #393333",
"j.	c #EABDC9",
"k.	c #F4C9D7",
"l.	c #D4ADB8",
"m.	c #604B4C",
"n.	c #795F62",
"o.	c #C89EA7",
"p.	c #897073",
"q.	c #E5E5E5",
"r.	c #E7E8E8",
"s.	c #E0E1E1",
"t.	c #D0D3D3",
"u.	c #8A8D8D",
"v.	c #352F2F",
"w.	c #886A6F",
"x.	c #B28F97",
"y.	c #B59199",
"z.	c #AF8B93",
"A.	c #9F7D83",
"B.	c #9D7B81",
"C.	c #90787C",
"D.	c #7B7B7C",
"E.	c #9FA5A5",
"F.	c #D3D6D6",
"G.	c #D5D7D7",
"H.	c #C1C6C6",
"I.	c #949A9A",
"J.	c #4C4F4F",
"K.	c #2A2828",
"L.	c #302E2E",
"M.	c #484848",
"N.	c #575758",
"O.	c #676869",
"P.	c #848A8A",
"Q.	c #99A1A1",
"R.	c #AEB4B4",
"S.	c #B6BCBC",
"T.	c #B2B9B9",
"U.	c #A5ABAB",
"V.	c #8A8F8F",
"W.	c #666B6B",
"X.	c #434646",
"Y.	c #3F4343",
"Z.	c #4E5251",
"`.	c #565A5A",
" +	c #565959",
".+	c #535758",
"++	c #52585A",
"@+	c #555858",
"#+	c #595C5C",
"$+	c #575A5A",
"%+	c #525555",
"&+	c #535656",
"*+	c #545757",
"=+	c #535757",
"-+	c #474A4A",
";+	c #172733",
">+	c #083557",
",+	c #363737",
"'+	c #7C7C7C",
")+	c #666666",
"!+	c #2C2C2C",
"~+	c #2D2D2D",
"{+	c #10344E",
"]+	c #1B415F",
"^+	c #6A6B6B",
"/+	c #BDBEBE",
"(+	c #B1B2B2",
"_+	c #696969",
":+	c #424242",
"<+	c #727272",
"[+	c #262530",
"}+	c #202A3E",
"|+	c #464145",
"1+	c #A7A8A7",
"2+	c #C8C9C9",
"3+	c #B1B1B1",
"4+	c #6C6D6D",
"5+	c #606060",
"6+	c #636564",
"7+	c #3A2236",
"8+	c #56264E",
"9+	c #5A304F",
"0+	c #9E4A86",
"a+	c #A64487",
"b+	c #84376F",
"c+	c #6A5866",
"d+	c #939594",
"e+	c #7E7D7D",
"f+	c #4B4948",
"g+	c #1F1E1D",
"h+	c #3B3C3B",
"i+	c #5A565A",
"j+	c #5F2954",
"k+	c #953081",
"l+	c #592551",
"m+	c #402538",
"n+	c #B14D94",
"o+	c #DE87C7",
"p+	c #D368BC",
"q+	c #B53E92",
"r+	c #8B3176",
"s+	c #54344E",
"t+	c #3A424A",
"u+	c #143249",
"v+	c #152B39",
"w+	c #342531",
"x+	c #712E62",
"y+	c #9B3284",
"z+	c #9F3288",
"A+	c #612658",
"B+	c #3C2436",
"C+	c #9B3983",
"D+	c #C352A5",
"E+	c #BF4AA1",
"F+	c #B33C91",
"G+	c #9E3287",
"H+	c #68255D",
"I+	c #1E252C",
"J+	c #1C3549",
"K+	c #1C2E3A",
"L+	c #45253F",
"M+	c #92307D",
"N+	c #96327F",
"O+	c #732A66",
"P+	c #492443",
"Q+	c #7B2C6A",
"R+	c #883171",
"S+	c #832E6F",
"T+	c #632658",
"U+	c #332731",
"V+	c #4F4F4E",
"W+	c #858483",
"X+	c #626160",
"Y+	c #251F24",
"Z+	c #363335",
"`+	c #625F62",
" @	c #434143",
".@	c #3C3D3C",
"+@	c #969696",
"@@	c #C1C2C2",
"#@	c #9B9C9C",
"$@	c #454545",
"%@	c #702D62",
"&@	c #8C3E72",
"*@	c #86386F",
"=@	c #652859",
"-@	c #4A454A",
";@	c #9D9E9E",
">@	c #646564",
",@	c #3A3B3A",
"'@	c #8F908F",
")@	c #C3C4C4",
"!@	c #777877",
"~@	c #222022",
"{@	c #3D2536",
"]@	c #B94D97",
"^@	c #DF86C3",
"/@	c #D66EBD",
"(@	c #B8479A",
"_@	c #98357D",
":@	c #7A306C",
"<@	c #493546",
"[@	c #342C31",
"}@	c #472A3F",
"|@	c #594654",
"1@	c #7B7D7C",
"2@	c #878B88",
"3@	c #615A5F",
"4@	c #58284F",
"5@	c #822A73",
"6@	c #5B2553",
"7@	c #3A2435",
"8@	c #A43D8A",
"9@	c #C45EAA",
"0@	c #CE63B5",
"a@	c #D465C3",
"b@	c #C650A9",
"c@	c #99357F",
"d@	c #5A2650",
"e@	c #7F386C",
"f@	c #BF52A8",
"g@	c #A54C96",
"h@	c #794774",
"i@	c #73406A",
"j@	c #7F3469",
"k@	c #AA398C",
"l@	c #622659",
"m@	c #462440",
"n@	c #4F2844",
"o@	c #642F57",
"p@	c #993E8B",
"q@	c #A84391",
"r@	c #7B3267",
"s@	c #48273E",
"t@	c #BD4B9F",
"u@	c #DC7BC8",
"v@	c #E288CE",
"w@	c #DD74CE",
"x@	c #CD5AB7",
"y@	c #AD3B8C",
"z@	c #96337E",
"A@	c #712964",
"B@	c #3C2337",
"C@	c #7A2F6A",
"D@	c #964782",
"E@	c #A55D9B",
"F@	c #9E5090",
"G@	c #883674",
"H@	c #632858",
"                                                  . + @         ",
"                                                # $ % & *       ",
"                                              = - ; > , ' )     ",
"                    ! ~ { ] ^ / / / ( ] _ : < [ } | 1 2 3 4     ",
"                5 6 7 8 9 9 9 9 9 9 9 0 a b c d e f g h i       ",
"              j k l 9 9 9 9 9 9 9 9 9 9 l m n o p q r s         ",
"            t u v w x y z A B l l l l l l m C D E F G           ",
"          H I J K L M N O P Q R 8 8 8 8 8 n b o S T U V         ",
"          W X Y Z `  ...+.@.#.$.o o o o o o %.&.&.*.=.-.        ",
"          ;.>.,.'.).!.~.{.].^./.&.&.&.&.&.&.&.(.&._.=.:.        ",
"          ;.<.[.}.|.1.2.3.].4.5.&.(.(.(.(.(.(.&.&._.=.:.        ",
"          ;.<.[.}.|.6.7.8.].9.5.&.&.&.&.&.&.&.(.&._.0.a.        ",
"          ;.<.,.}.|.b.c.d.].e.5.&.&.&.&.&.&.&.&.f.c g.h.        ",
"          i.<.j.k.l.m.n.o.p.-.q.r.r.r.r.r.r.r.r.s.t.u.          ",
"          v.w.x.y.z.A.B.C.D.E.F.G.G.G.G.G.G.G.t.H.I.J.          ",
"              K.L.M.N.O.P.Q.R.S.S.S.S.S.S.T.U.V.W.X.            ",
"                  Y.Z.`. +.+++@+#+$+%+&+*+=+-+                  ",
"                          ;+>+,+'+)+!+1.~+                      ",
"                          {+]+^+/+(+_+:+<+                      ",
"                        [+}+|+1+2+3+4+!+5+6+7+8+                ",
"                      9+0+a+b+c+d+e+f+g+h+i+j+k+l+              ",
"                    m+n+o+p+q+r+s+t+u+v+w+x+y+z+A+              ",
"                    B+C+D+E+F+G+H+I+J+K+L+M+N+O+                ",
"                      P+Q+R+S+T+U+V+W+X+Y+                      ",
"                          Z+`+ @.@+@@@#@$@                      ",
"                %@&@*@=@  -@;@>@,@'@@@)@!@~@                    ",
"              {@]@^@/@(@_@:@<@[@}@|@1@2@3@4@5@6@                ",
"              7@8@9@0@a@b@c@d@e@f@g@h@i@j@k@z+l@                ",
"                m@n@o@p@q@r@s@t@u@v@w@x@y@z@A@                  ",
"                            B@C@D@E@F@G@H@                      ",
"                                                                ",
"                                                                "};
