/* XPM */
static char * turn_right_right_foot_xpm[] = {
"32 32 403 2",
"  	c #C8A2C8",
". 	c #7C486D",
"+ 	c #72335E",
"@ 	c #662C58",
"# 	c #5A2651",
"$ 	c #56364D",
"% 	c #B46A9D",
"& 	c #E395C8",
"* 	c #D671BB",
"= 	c #BB4397",
"- 	c #AA388C",
"; 	c #832F70",
"> 	c #40253A",
", 	c #562C49",
"' 	c #C554A3",
") 	c #D776BB",
"! 	c #CE64AF",
"~ 	c #BC4395",
"{ 	c #B03B8E",
"] 	c #A5368A",
"^ 	c #46263F",
"/ 	c #535454",
"( 	c #686868",
"_ 	c #696969",
": 	c #6A6A6A",
"< 	c #585A5A",
"[ 	c #492542",
"} 	c #9F3386",
"| 	c #B73E92",
"1 	c #B63E92",
"2 	c #AC398D",
"3 	c #A13488",
"4 	c #922D7F",
"5 	c #42253D",
"6 	c #424645",
"7 	c #8F9393",
"8 	c #D6D8D8",
"9 	c #F5F5F5",
"0 	c #F7F7F7",
"a 	c #F9F9F9",
"b 	c #F4F4F4",
"c 	c #DFE2E2",
"d 	c #B2B4B4",
"e 	c #838484",
"f 	c #5D6060",
"g 	c #54264C",
"h 	c #862D74",
"i 	c #8D3078",
"j 	c #8A2E76",
"k 	c #7E286F",
"l 	c #542F4F",
"m 	c #6A686D",
"n 	c #ABB0AF",
"o 	c #E4E5E5",
"p 	c #FCFCFC",
"q 	c #FEFEFE",
"r 	c #FFFFFF",
"s 	c #FFFEFE",
"t 	c #F5F6F6",
"u 	c #D2D4D4",
"v 	c #A3A5A5",
"w 	c #7D8282",
"x 	c #2D232B",
"y 	c #403941",
"z 	c #575158",
"A 	c #8B8F8F",
"B 	c #C9CDCC",
"C 	c #EDEDED",
"D 	c #FAFAFA",
"E 	c #FDFDFD",
"F 	c #FBFBFB",
"G 	c #F9F8F8",
"H 	c #EAEBEB",
"I 	c #C0C5C5",
"J 	c #989E9E",
"K 	c #333434",
"L 	c #636868",
"M 	c #969C9B",
"N 	c #C0C4C4",
"O 	c #DFE1E1",
"P 	c #F2F3F3",
"Q 	c #F8F8F8",
"R 	c #E6E7E7",
"S 	c #C4C7C7",
"T 	c #9E9F9F",
"U 	c #818080",
"V 	c #737374",
"W 	c #676868",
"X 	c #2E2D2D",
"Y 	c #404141",
"Z 	c #E3E4E4",
"` 	c #E9EAEA",
" .	c #EEEEEE",
"..	c #F1F1F1",
"+.	c #F3F3F3",
"@.	c #F6F6F6",
"#.	c #D4D7D7",
"$.	c #9EA1A1",
"%.	c #8E8386",
"&.	c #A2848A",
"*.	c #97777E",
"=.	c #9B7A81",
"-.	c #A3828A",
";.	c #816569",
">.	c #322D2E",
",.	c #444444",
"'.	c #D3D5D5",
").	c #EFEFEF",
"!.	c #F0F0F0",
"~.	c #949797",
"{.	c #726466",
"].	c #BF98A0",
"^.	c #C6A1AA",
"/.	c #644D4E",
"(.	c #795F61",
"_.	c #DDB1BC",
":.	c #B48D94",
"<.	c #3C3536",
"[.	c #F2F2F2",
"}.	c #737474",
"|.	c #614E51",
"1.	c #D7AEB8",
"2.	c #BEA1AC",
"3.	c #1E1F1F",
"4.	c #3E3839",
"5.	c #D8AEB9",
"6.	c #B58E95",
"7.	c #747474",
"8.	c #614F51",
"9.	c #1F1F1F",
"0.	c #3F383A",
"a.	c #D7AEB9",
"b.	c #B48E95",
"c.	c #3E383A",
"d.	c #3E3F3F",
"e.	c #B3B8B8",
"f.	c #757676",
"g.	c #635053",
"h.	c #D1A7B0",
"i.	c #B697A0",
"j.	c #222121",
"k.	c #423A3B",
"l.	c #D8AFB9",
"m.	c #3D3536",
"n.	c #4D4F4F",
"o.	c #C5C8C8",
"p.	c #DFE0E0",
"q.	c #E1E2E2",
"r.	c #E5E6E6",
"s.	c #959999",
"t.	c #74696B",
"u.	c #AB888E",
"v.	c #7B5E60",
"w.	c #8C6C70",
"x.	c #DCB1BB",
"y.	c #B28B91",
"z.	c #3C3435",
"A.	c #727777",
"B.	c #999E9E",
"C.	c #B7BCBC",
"D.	c #C6CACA",
"E.	c #CDD0D0",
"F.	c #CED1D1",
"G.	c #CFD2D2",
"H.	c #B0B6B6",
"I.	c #888E8E",
"J.	c #7D787A",
"K.	c #887275",
"L.	c #886E73",
"M.	c #896F74",
"N.	c #8A7076",
"O.	c #6D575A",
"P.	c #3B3E3E",
"Q.	c #515454",
"R.	c #737878",
"S.	c #8E9494",
"T.	c #9FA5A5",
"U.	c #A6ACAC",
"V.	c #A4ABAB",
"W.	c #A5ABAB",
"X.	c #A5ACAC",
"Y.	c #A6ACAB",
"Z.	c #9AA2A2",
"`.	c #878F8F",
" +	c #686E6E",
".+	c #3E4242",
"++	c #212121",
"@+	c #353737",
"#+	c #363838",
"$+	c #414242",
"%+	c #515353",
"&+	c #4E5050",
"*+	c #444545",
"=+	c #383B3C",
"-+	c #32404A",
";+	c #32414C",
">+	c #363C40",
",+	c #373938",
"'+	c #3B3C3C",
")+	c #3E4040",
"!+	c #383A3A",
"~+	c #7D7E7E",
"{+	c #A8A9A9",
"]+	c #959696",
"^+	c #636262",
"/+	c #20272D",
"(+	c #034171",
"_+	c #00467C",
":+	c #004377",
"<+	c #14293A",
"[+	c #393837",
"}+	c #575A58",
"|+	c #9EA09F",
"1+	c #C8CAC9",
"2+	c #BDBEBE",
"3+	c #9A9A9A",
"4+	c #626263",
"5+	c #1F2D38",
"6+	c #02528F",
"7+	c #005699",
"8+	c #004D8B",
"9+	c #043D69",
"0+	c #2D404E",
"a+	c #575656",
"b+	c #505050",
"c+	c #422539",
"d+	c #4F3648",
"e+	c #584154",
"f+	c #726771",
"g+	c #929593",
"h+	c #70706F",
"i+	c #282F34",
"j+	c #0D3A5D",
"k+	c #07548F",
"l+	c #074F86",
"m+	c #2B5A7F",
"n+	c #365B76",
"o+	c #27343F",
"p+	c #484847",
"q+	c #5C555B",
"r+	c #392235",
"s+	c #41253A",
"t+	c #3B2237",
"u+	c #5A2B4F",
"v+	c #A6588F",
"w+	c #C35EA6",
"x+	c #B44594",
"y+	c #9D3283",
"z+	c #772B69",
"A+	c #51354D",
"B+	c #404040",
"C+	c #202121",
"D+	c #1F2326",
"E+	c #1F2428",
"F+	c #232527",
"G+	c #C07840",
"H+	c #F49547",
"I+	c #784F2F",
"J+	c #332234",
"K+	c #6C2B60",
"L+	c #9E388A",
"M+	c #AC4599",
"N+	c #902E7C",
"O+	c #792465",
"P+	c #491E3E",
"Q+	c #2C2329",
"R+	c #9E3A81",
"S+	c #D777BC",
"T+	c #DA78C8",
"U+	c #C552A7",
"V+	c #AF3B8E",
"W+	c #9E3188",
"X+	c #6B255F",
"Y+	c #1A2933",
"Z+	c #0B4774",
"`+	c #0B4E80",
" @	c #0C4169",
".@	c #0D3B5E",
"+@	c #455766",
"@@	c #5A6064",
"#@	c #363939",
"$@	c #5B2750",
"%@	c #A3338A",
"&@	c #B03F94",
"*@	c #BE4AA1",
"=@	c #A5368B",
"-@	c #9B3084",
";@	c #80246E",
">@	c #33212F",
",@	c #712B63",
"'@	c #AB3F8F",
")@	c #BA449B",
"!@	c #B64095",
"~@	c #AB388E",
"{@	c #8F2E7C",
"]@	c #58244E",
"^@	c #182E3E",
"/@	c #005392",
"(@	c #0B4A7A",
"_@	c #2E4353",
":@	c #32404B",
"<@	c #0C3B5F",
"[@	c #0F2B42",
"}@	c #1A2225",
"|@	c #4F2548",
"1@	c #882D76",
"2@	c #A5358A",
"3@	c #A6358A",
"4@	c #9A2F84",
"5@	c #862774",
"6@	c #621F53",
"7@	c #2F202C",
"8@	c #56254E",
"9@	c #682B5A",
"0@	c #6B2D5C",
"a@	c #652959",
"b@	c #4E2448",
"c@	c #1C262E",
"d@	c #11314A",
"e@	c #2A2F32",
"f@	c #848483",
"g@	c #979796",
"h@	c #606263",
"i@	c #2E2E2F",
"j@	c #612757",
"k@	c #642958",
"l@	c #5B2552",
"m@	c #4A1E40",
"n@	c #757575",
"o@	c #5C5B5B",
"p@	c #333333",
"q@	c #9FA0A0",
"r@	c #CCCDCD",
"s@	c #A9AAAA",
"t@	c #6E6E6E",
"u@	c #3C3B3C",
"v@	c #B8B9B9",
"w@	c #8A8B8B",
"x@	c #303030",
"y@	c #717171",
"z@	c #C2C3C3",
"A@	c #BDBFBF",
"B@	c #9C9D9D",
"C@	c #4B4D4C",
"D@	c #2A1F29",
"E@	c #42243D",
"F@	c #44253E",
"G@	c #3E223A",
"H@	c #5C2751",
"I@	c #604159",
"J@	c #6B6B6B",
"K@	c #787878",
"L@	c #5A595A",
"M@	c #242424",
"N@	c #292A29",
"O@	c #929493",
"P@	c #808181",
"Q@	c #624359",
"R@	c #7C2E69",
"S@	c #9D3384",
"T@	c #9C3383",
"U@	c #8C2A79",
"V@	c #6C215D",
"W@	c #282126",
"X@	c #5D2555",
"Y@	c #8F2B7F",
"Z@	c #8C2E79",
"`@	c #7A2D68",
" #	c #7B2C69",
".#	c #6B2B5C",
"+#	c #272125",
"@#	c #2C232A",
"##	c #483C45",
"$#	c #672E5C",
"%#	c #7C2D68",
"&#	c #A53D87",
"*#	c #BD4398",
"=#	c #B94093",
"-#	c #B43D90",
";#	c #A43489",
">#	c #7B276E",
",#	c #292127",
"'#	c #712866",
")#	c #742967",
"!#	c #752968",
"~#	c #65275A",
"{#	c #2F222D",
"]#	c #77286B",
"^#	c #95327D",
"/#	c #BB3F95",
"(#	c #C850AA",
"_#	c #C74FA7",
":#	c #B53C91",
"<#	c #9C3582",
"[#	c #752A64",
"}#	c #551E48",
"|#	c #57254F",
"1#	c #682D59",
"2#	c #6B2E5A",
"3#	c #6A2E59",
"4#	c #6F315C",
"5#	c #642B57",
"6#	c #4F2549",
"                                                                ",
"      . + @ #                                                   ",
"  $ % & * = - ; >                                               ",
"  , ' ) ! ~ { ] ^     / ( _ : : : : _ ( <                       ",
"  [ } | 1 2 3 4 5 6 7 8 9 0 a a a a 0 b c d e f                 ",
"    g h i j k l m n o p q r r r r r r q s r t u v w             ",
"        x y z A B C D q r r r r r r r r q E F G H I J K         ",
"        L M N O P Q D p E E E E E E p F 0 R S T U V W X         ",
"      Y S Z `  ...+.@.0 0 0 0 0 0 0 9 b #.$.%.&.*.=.-.;.>.      ",
"      ,.'.C ).).).!.................)...~.{.].^./.(._.:.<.      ",
"      ,.u C ).). . . . . . . . . . . .[.}.|.1.2.3.4.5.6.<.      ",
"      ,.u C ).).).).).).).).).).).).).[.7.8.1.2.9.0.a.b.<.      ",
"      ,.'.C ).).).).).).).).).).).).).[.}.|.1.2.9.c.a.b.<.      ",
"      d.e.Z  . . . . . . . . . . . . ...f.g.h.i.j.k.l.6.m.      ",
"        n.o.p.q.Z Z Z Z Z Z Z Z Z Z Z r.s.t.u.:.v.w.x.y.z.      ",
"          A.B.C.D.E.F.F.F.F.F.F.F.F.F.G.H.I.J.K.L.M.N.O.        ",
"            P.Q.R.S.T.U.V.W.X.U.Y.Y.Y.U.V.Z.`. +.+++9.          ",
"                  @+#+$+%+&+*+=+-+;+;+>+,+'+)+!+                ",
"                      ~+{+]+^+/+(+_+:+<+[+                      ",
"                  }+|+1+2+3+4+5+6+7+8+9+0+a+b+                  ",
"                c+d+e+f+g+h+i+j+k+l+m+n+o+p+q+r+s+t+            ",
"            u+v+w+x+y+z+A+B+C+D+E+F+G+H+I+J+K+L+M+N+O+P+        ",
"          Q+R+S+T+U+V+W+X+Y+Z+`+ @.@+@@@#@$@%@&@*@=@-@;@>@      ",
"            ,@'@)@!@~@{@]@^@/@(@_@:@<@[@}@|@1@2@3@4@5@6@7@      ",
"              8@9@0@a@b@  c@d@e@f@g@h@i@      j@k@l@m@          ",
"                          n@o@p@q@r@s@t@u@                      ",
"                        : v@w@x@y@z@A@B@C@D@E@F@G@              ",
"                    H@I@J@K@L@M@N@O@P@W Q@R@S@T@U@V@W@          ",
"                  X@Y@Z@`@ #.#+#@###$#%#&#*#=#-#;#>#,#          ",
"                    8@'#)#!#~#{#]#^#{ /#(#_#:#<#[#}#            ",
"                                |#1#2#3#4#4#5#6#                ",
"                                                                "};
