/* XPM */
static char * turn_left_left_foot_xpm[] = {
"32 32 369 2",
"  	c #C8A2C8",
". 	c #815373",
"+ 	c #B6699E",
"@ 	c #A54889",
"# 	c #913479",
"$ 	c #782B69",
"% 	c #613554",
"& 	c #D16FB2",
"* 	c #E391CA",
"= 	c #D46CB7",
"- 	c #BC4094",
"; 	c #AF3A8E",
"> 	c #873073",
", 	c #292228",
"' 	c #616161",
") 	c #ABACAC",
"! 	c #BFC0C0",
"~ 	c #C4C3C3",
"{ 	c #C6C6C6",
"] 	c #C7C7C7",
"^ 	c #C4C4C4",
"/ 	c #C1C1C1",
"( 	c #ADAFAF",
"_ 	c #7E8080",
": 	c #333634",
"< 	c #532648",
"[ 	c #B44095",
"} 	c #C450A0",
"| 	c #BD4799",
"1 	c #B03B8E",
"2 	c #A6368B",
"3 	c #862E74",
"4 	c #292227",
"5 	c #6D6F6F",
"6 	c #919191",
"7 	c #D7D8D8",
"8 	c #ECECEC",
"9 	c #FCFCFC",
"0 	c #FFFFFF",
"a 	c #FDFDFD",
"b 	c #F7F8F8",
"c 	c #EDEEEE",
"d 	c #ACAEAD",
"e 	c #604C5E",
"f 	c #752A66",
"g 	c #A13285",
"h 	c #A33587",
"i 	c #9D3286",
"j 	c #882C78",
"k 	c #5A2652",
"l 	c #404242",
"m 	c #989D9D",
"n 	c #E8EAEA",
"o 	c #FEFDFD",
"p 	c #FAFAFA",
"q 	c #F0F1F1",
"r 	c #BFC3C2",
"s 	c #746E76",
"t 	c #553851",
"u 	c #50324B",
"v 	c #44243E",
"w 	c #393A3A",
"x 	c #8A8D8D",
"y 	c #A6A6A6",
"z 	c #ADADAD",
"A 	c #C6C9C9",
"B 	c #E5E7E7",
"C 	c #FEFEFE",
"D 	c #F6F6F6",
"E 	c #F3F3F4",
"F 	c #DADCDB",
"G 	c #AFB5B4",
"H 	c #7F8785",
"I 	c #353938",
"J 	c #373031",
"K 	c #785F63",
"L 	c #90747A",
"M 	c #896E73",
"N 	c #8C7177",
"O 	c #978387",
"P 	c #929293",
"Q 	c #C7CACA",
"R 	c #F2F3F3",
"S 	c #F9F9F9",
"T 	c #F8F8F8",
"U 	c #F4F4F4",
"V 	c #F2F2F2",
"W 	c #EDEDED",
"X 	c #DFE0E0",
"Y 	c #BEC2C2",
"Z 	c #7B7F7F",
"` 	c #242424",
" .	c #4B3F41",
"..	c #C198A0",
"+.	c #CEA5AE",
"@.	c #715759",
"#.	c #83676A",
"$.	c #D8AEB9",
"%.	c #997C80",
"&.	c #6E6F6F",
"*.	c #DBDCDC",
"=.	c #F3F3F3",
"-.	c #F1F1F1",
";.	c #F0F0F0",
">.	c #EFEFEF",
",.	c #E8E9E9",
"'.	c #D3D6D6",
").	c #979B9B",
"!.	c #252525",
"~.	c #4B4041",
"{.	c #C49BA3",
"].	c #BD9AA3",
"^.	c #242323",
"/.	c #443E40",
"(.	c #E7C1CF",
"_.	c #AB878E",
":.	c #413C3D",
"<.	c #CFD0CF",
"[.	c #EEEEEE",
"}.	c #E7E8E8",
"|.	c #D2D5D5",
"1.	c #C49BA2",
"2.	c #443D40",
"3.	c #E7C1CE",
"4.	c #403C3D",
"5.	c #CFCFCF",
"6.	c #BC9AA3",
"7.	c #232222",
"8.	c #433D3F",
"9.	c #E7C0CE",
"0.	c #403B3C",
"a.	c #E8E8E8",
"b.	c #CFD2D2",
"c.	c #8D9292",
"d.	c #C09CA5",
"e.	c #312B2B",
"f.	c #4C4143",
"g.	c #D9B0BB",
"h.	c #A78389",
"i.	c #494546",
"j.	c #CFD0D0",
"k.	c #E9EAEA",
"l.	c #DFE1E1",
"m.	c #B8BCBC",
"n.	c #5C6060",
"o.	c #483C3E",
"p.	c #B68E95",
"q.	c #CEA4AD",
"r.	c #977478",
"s.	c #9B777C",
"t.	c #B18B92",
"u.	c #887578",
"v.	c #7B7E7F",
"w.	c #CED1D1",
"x.	c #E0E1E1",
"y.	c #DDDFDF",
"z.	c #D4D7D7",
"A.	c #BBC0C0",
"B.	c #7A7E7E",
"C.	c #504244",
"D.	c #594B4E",
"E.	c #5B4D51",
"F.	c #675B5E",
"G.	c #7B7677",
"H.	c #878E8E",
"I.	c #A5ACAC",
"J.	c #C1C6C6",
"K.	c #C5CACA",
"L.	c #C4C8C8",
"M.	c #BDC2C2",
"N.	c #ADB3B3",
"O.	c #929898",
"P.	c #676B6B",
"Q.	c #484C4C",
"R.	c #636969",
"S.	c #757B7B",
"T.	c #7B8080",
"U.	c #7C8181",
"V.	c #7C8080",
"W.	c #757A7A",
"X.	c #646969",
"Y.	c #4D5050",
"Z.	c #2A2A2A",
"`.	c #222324",
" +	c #11344F",
".+	c #0D395B",
"++	c #0D395A",
"@+	c #1B2831",
"#+	c #403F3F",
"$+	c #656565",
"%+	c #686868",
"&+	c #414141",
"*+	c #606162",
"=+	c #223645",
"-+	c #02528F",
";+	c #006CBF",
">+	c #005CA4",
",+	c #172F41",
"'+	c #6D6C6A",
")+	c #BABBBB",
"!+	c #939393",
"~+	c #636463",
"{+	c #333033",
"]+	c #777776",
"^+	c #2F3539",
"/+	c #0D4B7B",
"(+	c #0969B1",
"_+	c #0377CF",
":+	c #0166B3",
"<+	c #0C3F66",
"[+	c #3D474E",
"}+	c #A7A7A7",
"|+	c #C2C4C3",
"1+	c #848384",
"2+	c #5B565A",
"3+	c #403B3E",
"4+	c #252024",
"5+	c #5B3050",
"6+	c #94467E",
"7+	c #9E4583",
"8+	c #983F81",
"9+	c #762E69",
"0+	c #4B3548",
"a+	c #322B29",
"b+	c #B17A51",
"c+	c #C6895B",
"d+	c #3F4346",
"e+	c #192B38",
"f+	c #1C2023",
"g+	c #5F5F5E",
"h+	c #695E67",
"i+	c #754267",
"j+	c #9A4581",
"k+	c #973D7D",
"l+	c #853071",
"m+	c #65285B",
"n+	c #492740",
"o+	c #B54F98",
"p+	c #DE86C6",
"q+	c #D76EC3",
"r+	c #C452AC",
"s+	c #A6378C",
"t+	c #872C75",
"u+	c #362931",
"v+	c #817468",
"w+	c #8F8177",
"x+	c #2D4D65",
"y+	c #103755",
"z+	c #123855",
"A+	c #12344D",
"B+	c #1C2931",
"C+	c #712F5D",
"D+	c #C866AC",
"E+	c #DE82C9",
"F+	c #CC5BB1",
"G+	c #B23B90",
"H+	c #9C3186",
"I+	c #66265D",
"J+	c #43253C",
"K+	c #983881",
"L+	c #C04EA2",
"M+	c #BE49A0",
"N+	c #B33D92",
"O+	c #A23488",
"P+	c #7E2C6E",
"Q+	c #2D242F",
"R+	c #13354D",
"S+	c #044E87",
"T+	c #1C486A",
"U+	c #244056",
"V+	c #0D446F",
"W+	c #00477F",
"X+	c #122E42",
"Y+	c #5F2850",
"Z+	c #AA4190",
"`+	c #C24EA4",
" @	c #BB459C",
".@	c #AF3A90",
"+@	c #973082",
"@@	c #612658",
"#@	c #6B295E",
"$@	c #762F64",
"%@	c #752E64",
"&@	c #642759",
"*@	c #232120",
"=@	c #3F4549",
"-@	c #808181",
";@	c #908F8E",
">@	c #3E4245",
",@	c #0F2F48",
"'@	c #182936",
")@	c #55254D",
"!@	c #712B61",
"~@	c #772F64",
"{@	c #722C62",
"]@	c #582650",
"^@	c #9D9E9D",
"/@	c #C8C9C9",
"(@	c #BBBCBC",
"_@	c #4A4A4A",
":@	c #5E5E5E",
"<@	c #717171",
"[@	c #472441",
"}@	c #502945",
"|@	c #4F2845",
"1@	c #40223B",
"2@	c #2C2A2C",
"3@	c #939594",
"4@	c #C7C8C8",
"5@	c #888888",
"6@	c #353535",
"7@	c #868787",
"8@	c #B1B3B2",
"9@	c #696969",
"0@	c #3D2437",
"a@	c #A0398A",
"b@	c #C056AC",
"c@	c #C35FAC",
"d@	c #AF4EA0",
"e@	c #79396A",
"f@	c #6B5D68",
"g@	c #726E72",
"h@	c #939494",
"i@	c #404240",
"j@	c #1E1E1E",
"k@	c #524E51",
"l@	c #6B666A",
"m@	c #5D585C",
"n@	c #603C57",
"o@	c #67285B",
"p@	c #4A2445",
"q@	c #3E2538",
"r@	c #AD3E93",
"s@	c #D569C1",
"t@	c #E18CCC",
"u@	c #DC79CB",
"v@	c #CF62BE",
"w@	c #A33E85",
"x@	c #832D6E",
"y@	c #5B3552",
"z@	c #3E283A",
"A@	c #272126",
"B@	c #642957",
"C@	c #872D73",
"D@	c #852D72",
"E@	c #8F2D7C",
"F@	c #872A78",
"G@	c #53254C",
"H@	c #5F2854",
"I@	c #7D376A",
"J@	c #AD4D9E",
"K@	c #BE54A9",
"L@	c #C354AA",
"M@	c #B54193",
"N@	c #B03C8D",
"O@	c #A13785",
"P@	c #8A2C79",
"Q@	c #3D2339",
"R@	c #472442",
"S@	c #5E2655",
"T@	c #5D2654",
"U@	c #5C2654",
"V@	c #41233C",
"W@	c #4B2741",
"X@	c #502A43",
"Y@	c #4D2942",
"Z@	c #4C2842",
"`@	c #4C2942",
" #	c #45253F",
"                                                                ",
"                                                                ",
"                                                . + @ # $       ",
"                                              % & * = - ; > ,   ",
"                    ' ) ! ~ { ] ] ] ^ / ( _ : < [ } | 1 2 3 4   ",
"              5 6 7 8 9 0 0 0 0 0 0 0 a b c d e f g h i j k     ",
"          l m n 9 0 0 0 0 0 0 0 0 0 0 0 o p q r s t u v         ",
"          w x y z A B p C C C C C C C C a p D E F G H I         ",
"        J K L M N O P Q R S T T T T T T T D U V W X Y Z `       ",
"         ...+.@.#.$.%.&.*.=.-.-.-.-.-.-.-.-.;.>.>.,.'.).!.      ",
"        ~.{.].^./.(._.:.<.-.[.[.[.[.[.[.[.>.[.[.>.}.|.).!.      ",
"        ~.1.].^.2.3._.4.5.-.>.>.>.>.>.>.>.>.>.>.>.}.|.).!.      ",
"        ~.1.6.7.8.9._.0.5.-.>.>.>.>.>.>.>.>.>.>.>.a.b.c.!.      ",
"        ~.{.d.e.f.g.h.i.j.>.W W W W W W W W W W k.l.m.n.        ",
"        o.p.q.r.s.t.u.v.w.x.X X X X X X X X X y.z.A.B.          ",
"          C.D.E.F.G.H.I.J.K.K.K.K.K.K.K.K.L.M.N.O.P.            ",
"                Q.R.S.T.U.V.V.V.U.T.T.T.T.W.X.Y.                ",
"                      Z.`. +.+++@+#+$+%+&+                      ",
"                      *+=+-+;+>+,+'+)+)+!+~+                    ",
"                  {+]+^+/+(+_+:+<+[+}+|+1+2+3+4+                ",
"          5+6+7+8+9+0+a+b+c+d+,+e+f+g+h+i+j+k+l+m+              ",
"        n+o+p+q+r+s+t+u+v+w+x+y+z+A+B+C+D+E+F+G+H+I+            ",
"        J+K+L+M+N+O+P+Q+R+S+T+U+V+W+X+Y+Z+`+ @.@+@@@            ",
"            #@$@%@&@    *@=@-@;@>@,@'@  )@!@~@{@]@              ",
"                        ' ^@/@(@_@:@<@                          ",
"              [@}@|@1@2@3@4@j.5@6@7@8@9@                        ",
"            0@a@b@c@d@e@f@g@h@i@j@k@l@m@n@o@p@                  ",
"            q@r@s@t@u@v@w@x@y@z@A@B@C@D@E@F@G@                  ",
"              H@I@J@K@L@M@N@O@P@Q@R@S@T@U@                      ",
"                  V@W@X@Y@Z@`@ #                                ",
"                                                                ",
"                                                                "};
