/* XPM */
static char * turn_right_left_foot_xpm[] = {
"32 32 360 2",
"  	c #C8A2C8",
". 	c #774C6B",
"+ 	c #BB73A4",
"@ 	c #B25796",
"# 	c #9D3C82",
"$ 	c #8D3078",
"% 	c #682A5C",
"& 	c #512F47",
"* 	c #C960A9",
"= 	c #E18FC7",
"- 	c #DA7AC0",
"; 	c #C34C9D",
"> 	c #B73D92",
", 	c #A33687",
"' 	c #5F2852",
") 	c #47263F",
"! 	c #A8388C",
"~ 	c #BF499B",
"{ 	c #BE4799",
"] 	c #B33D91",
"^ 	c #8F3376",
"/ 	c #5F3555",
"( 	c #494349",
"_ 	c #555656",
": 	c #6E6F6F",
"< 	c #8C9090",
"[ 	c #C8C9C9",
"} 	c #D4D4D4",
"| 	c #D6D6D6",
"1 	c #D7D7D7",
"2 	c #CFCFCF",
"3 	c #AFB3B3",
"4 	c #7F8080",
"5 	c #595A5A",
"6 	c #5F2755",
"7 	c #91307B",
"8 	c #97337F",
"9 	c #692F5B",
"0 	c #514651",
"a 	c #707776",
"b 	c #ADB3B3",
"c 	c #E1E3E3",
"d 	c #F4F4F4",
"e 	c #FBFBFB",
"f 	c #FFFFFF",
"g 	c #FDFDFD",
"h 	c #F7F7F7",
"i 	c #B3B6B6",
"j 	c #858787",
"k 	c #686C6C",
"l 	c #352432",
"m 	c #5E6163",
"n 	c #919998",
"o 	c #C0C5C5",
"p 	c #E5E6E6",
"q 	c #F9F9F9",
"r 	c #FEFFFF",
"s 	c #FBFCFC",
"t 	c #E3E6E5",
"u 	c #B8BEBE",
"v 	c #8C9191",
"w 	c #2F3030",
"x 	c #6B706F",
"y 	c #ACB2B1",
"z 	c #D1D4D4",
"A 	c #E7E8E8",
"B 	c #F3F3F3",
"C 	c #F6F6F6",
"D 	c #FAFAFA",
"E 	c #FCFCFC",
"F 	c #EBECEC",
"G 	c #B9BABA",
"H 	c #959394",
"I 	c #8B8889",
"J 	c #8A8787",
"K 	c #827F80",
"L 	c #757475",
"M 	c #696969",
"N 	c #2F2D2E",
"O 	c #333434",
"P 	c #BEC1C1",
"Q 	c #EEEEEE",
"R 	c #EFEFEF",
"S 	c #F0F0F0",
"T 	c #F2F2F2",
"U 	c #C7C8C9",
"V 	c #938D8E",
"W 	c #A98E93",
"X 	c #A07E84",
"Y 	c #96757B",
"Z 	c #A6848B",
"` 	c #B997A1",
" .	c #B9969F",
"..	c #B08D95",
"+.	c #8A6C70",
"@.	c #342F2F",
"#.	c #343535",
"$.	c #C5C6C6",
"%.	c #CECECE",
"&.	c #545353",
"*.	c #9C7B80",
"=.	c #E6BBC8",
"-.	c #82696E",
";.	c #473838",
">.	c #9A7F86",
",.	c #FFD9E9",
"'.	c #FCD2E1",
").	c #E7BAC6",
"!.	c #B48D94",
"~.	c #3D3536",
"{.	c #C4C6C6",
"].	c #EBEBEB",
"^.	c #F1F1F1",
"/.	c #C5C5C5",
"(.	c #363233",
"_.	c #A68389",
":.	c #F1C8D6",
"<.	c #64585D",
"[.	c #161817",
"}.	c #7F6E75",
"|.	c #FBD1E0",
"1.	c #E5B9C5",
"2.	c #B38D93",
"3.	c #353535",
"4.	c #C5C6C5",
"5.	c #373334",
"6.	c #A68388",
"7.	c #65595E",
"8.	c #171919",
"9.	c #806E75",
"0.	c #BCBFBF",
"a.	c #F1C8D7",
"b.	c #FFD9EA",
"c.	c #FBD2E1",
"d.	c #E6B9C5",
"e.	c #646767",
"f.	c #C5C7C7",
"g.	c #E6E7E7",
"h.	c #E8E9E9",
"i.	c #555454",
"j.	c #9B7B80",
"k.	c #E3B9C5",
"l.	c #856B70",
"m.	c #4D3D3D",
"n.	c #9A7D83",
"o.	c #F7CDDB",
"p.	c #F4C8D6",
"q.	c #B48D93",
"r.	c #3C3536",
"s.	c #7E8282",
"t.	c #AAAFAF",
"u.	c #CDD1D1",
"v.	c #D3D6D6",
"w.	c #D5D7D7",
"x.	c #D4D7D7",
"y.	c #D5D8D8",
"z.	c #C6CACA",
"A.	c #8D9494",
"B.	c #7C7A7B",
"C.	c #977F83",
"D.	c #9A7A7F",
"E.	c #96767C",
"F.	c #A18087",
"G.	c #AF8D95",
"H.	c #B08E96",
"I.	c #AB8991",
"J.	c #84686C",
"K.	c #383131",
"L.	c #434646",
"M.	c #5B5F5F",
"N.	c #787D7D",
"O.	c #929898",
"P.	c #A3A9A9",
"Q.	c #ACB2B2",
"R.	c #AEB4B4",
"S.	c #A4AAA9",
"T.	c #929A9A",
"U.	c #838989",
"V.	c #6D6F70",
"W.	c #5E5F60",
"X.	c #525354",
"Y.	c #3E3E3E",
"Z.	c #282627",
"`.	c #373A3A",
" +	c #414343",
".+	c #464848",
"++	c #3E4040",
"@+	c #3F4141",
"#+	c #3D3F3F",
"$+	c #4C4E4E",
"%+	c #575959",
"&+	c #4D4F4F",
"*+	c #3E4345",
"=+	c #3A4851",
"-+	c #404344",
";+	c #474949",
">+	c #494C4C",
",+	c #454848",
"'+	c #2B2B2B",
")+	c #464747",
"!+	c #888888",
"~+	c #9FA0A0",
"{+	c #6C6C6B",
"]+	c #1B2832",
"^+	c #053C67",
"/+	c #1A242C",
"(+	c #404141",
"_+	c #9B9B9B",
":+	c #888989",
"<+	c #8D8E8E",
"[+	c #CECFCF",
"}+	c #D1D2D2",
"|+	c #B8B8B8",
"1+	c #717678",
"2+	c #192F3E",
"3+	c #0D3C5D",
"4+	c #192830",
"5+	c #A36198",
"6+	c #9A608D",
"7+	c #403F40",
"8+	c #A2A4A3",
"9+	c #373737",
"0+	c #212120",
"a+	c #80807F",
"b+	c #CFD1D0",
"c+	c #AFB1B0",
"d+	c #776C75",
"e+	c #603053",
"f+	c #64345D",
"g+	c #5E2D53",
"h+	c #85467B",
"i+	c #E077CD",
"j+	c #C56DB0",
"k+	c #7E376B",
"l+	c #544150",
"m+	c #262426",
"n+	c #1B2933",
"o+	c #303F4A",
"p+	c #70777B",
"q+	c #80797D",
"r+	c #734C6B",
"s+	c #A95899",
"t+	c #D37DB9",
"u+	c #D46CBB",
"v+	c #BE479B",
"w+	c #892F74",
"x+	c #482442",
"y+	c #5E2F4F",
"z+	c #9B4587",
"A+	c #BB4EA4",
"B+	c #AC3A8C",
"C+	c #8B3175",
"D+	c #2D232D",
"E+	c #143853",
"F+	c #103755",
"G+	c #1B2C36",
"H+	c #572B4B",
"I+	c #A03586",
"J+	c #BA479C",
"K+	c #D065B3",
"L+	c #CA5BB3",
"M+	c #B54197",
"N+	c #A13388",
"O+	c #53274A",
"P+	c #4E2844",
"Q+	c #4E2845",
"R+	c #492741",
"S+	c #262325",
"T+	c #6C6C6C",
"U+	c #828282",
"V+	c #545554",
"W+	c #362B34",
"X+	c #53254C",
"Y+	c #852C73",
"Z+	c #95347A",
"`+	c #94347B",
" @	c #852D73",
".@	c #5A2652",
"+@	c #565757",
"@@	c #B3B4B4",
"#@	c #D0D1D1",
"$@	c #B6B7B7",
"%@	c #666766",
"&@	c #2A292A",
"*@	c #4B434A",
"=@	c #494047",
"-@	c #2D262C",
";@	c #2F312F",
">@	c #B1B2B2",
",@	c #DBDCDC",
"'@	c #DEDFDF",
")@	c #B4B6B5",
"!@	c #5D605E",
"~@	c #323433",
"{@	c #5E5F5E",
"]@	c #362934",
"^@	c #6B2C5D",
"/@	c #7E316C",
"(@	c #81326D",
"_@	c #782D66",
":@	c #5C2450",
"<@	c #5B2D50",
"[@	c #AD4693",
"}@	c #A65090",
"|@	c #6E4868",
"1@	c #827E82",
"2@	c #8B8C8C",
"3@	c #7C7D7D",
"4@	c #695063",
"5@	c #572C4E",
"6@	c #3F253B",
"7@	c #31292F",
"8@	c #5C2E52",
"9@	c #91337B",
"0@	c #AE4896",
"a@	c #C55AAC",
"b@	c #CE5CB5",
"c@	c #C44DA7",
"d@	c #B33B91",
"e@	c #893074",
"f@	c #262125",
"g@	c #592C4D",
"h@	c #B04A9A",
"i@	c #D775BF",
"j@	c #D791A8",
"k@	c #A56396",
"l@	c #9C5594",
"m@	c #995090",
"n@	c #AD4A96",
"o@	c #B03D94",
"p@	c #8F2F7B",
"q@	c #632659",
"r@	c #54284A",
"s@	c #A23787",
"t@	c #BC48A0",
"u@	c #BF4FA4",
"v@	c #AE4A98",
"w@	c #973B84",
"x@	c #832B6F",
"y@	c #642354",
"z@	c #7C386B",
"A@	c #914C79",
"B@	c #C059AD",
"C@	c #CB5BB7",
"D@	c #C652AA",
"E@	c #B94499",
"F@	c #A7388B",
"G@	c #942D7F",
"H@	c #6D2360",
"I@	c #2A2128",
"J@	c #632857",
"K@	c #6C2A5E",
"L@	c #6A285D",
"M@	c #502548",
"N@	c #512847",
"O@	c #592B4B",
"P@	c #5A2C4C",
"Q@	c #562A4A",
"R@	c #4F2747",
"S@	c #462240",
"                                                                ",
"                                                                ",
"                                                                ",
"                                                                ",
"    . + @ # $ %                                                 ",
"  & * = - ; > , '                                               ",
"  ) ! ~ { ] ^ / ( _ : < [ } | 1 1 1 | } 2 3 4 5                 ",
"    6 7 8 9 0 a b c d e f f f f f f f f f g h c i j k           ",
"        l m n o p q g f f f f f f f f f f f r s h t u v w       ",
"        x y z A B C D E g g g g g g g q F G H I J K L M N       ",
"      O P p Q R S T d C C C C C C h R U V W X Y Z `  ...+.@.    ",
"      #.$.F R Q Q R S S S S S S S T %.&.*.=.-.;.>.,.'.).!.~.    ",
"      #.{.].R R R Q Q Q Q Q Q Q Q ^./.(._.:.<.[.}.,.|.1.2.~.    ",
"      3.$.F R Q R R R R R R R R R ^.4.5.6.:.7.8.9.,.|.1.2.~.    ",
"      O 0.A Q R R R R R R R R R R T /.(._.a.<.[.}.b.c.d.2.~.    ",
"        e.f.g.h.h.h.h.h.h.h.h.h.h.].[ i.j.k.l.m.n.o.p.d.q.r.    ",
"          s.t.o u.v.w.x.x.x.x.x.x.y.z.A.B.C.D.E.F.G.H.I.J.K.    ",
"            L.M.N.O.P.Q.R.R.R.b Q.b Q.S.T.U.V.W.X.Y.Z.Z.        ",
"                  `. +.+++@+#+$+%+&+*+=+-+;+>+,+#+              ",
"                        _ '+)+!+~+{+]+^+/+                      ",
"                    (+_+:+3.<+[+}+|+1+2+3+4+                    ",
"                5+6+7+8+9+0+a+4.b+c+d+e+f+g+                    ",
"              h+i+j+k+l+m+n+o+p+q+r+s+t+u+v+w+x+                ",
"              y+z+A+B+C+D+E+F+G+H+I+J+K+L+M+N+O+                ",
"                  P+Q+R+S+T+U+V+W+X+Y+Z+`+ @.@                  ",
"                        +@@@#@$@%@&@*@=@-@                      ",
"                      ;@>@,@'@)@!@~@%@{@]@  ^@/@(@_@:@          ",
"                <@[@}@|@1@2@3@4@5@6@7@8@9@0@a@b@c@d@e@f@        ",
"                g@h@i@j@k@l@m@n@o@p@q@r@s@t@u@v@w@x@y@          ",
"                    z@A@B@C@D@E@F@G@H@I@J@K@L@M@                ",
"                        N@O@P@Q@R@S@                            ",
"                                                                "};
