/* XPM */
static char * turn_right_xpm[] = {
"32 32 308 2",
"  	c #C8A2C8",
". 	c #542E48",
"+ 	c #4B2842",
"@ 	c #44243F",
"# 	c #774769",
"$ 	c #C57EAD",
"% 	c #D072B4",
"& 	c #B64896",
"* 	c #A23586",
"= 	c #7A2D69",
"- 	c #282326",
"; 	c #A04484",
"> 	c #D979BC",
", 	c #D878BD",
"' 	c #C44F9F",
") 	c #B43C90",
"! 	c #AB378E",
"~ 	c #59284E",
"{ 	c #262125",
"] 	c #812E6F",
"^ 	c #B43E93",
"/ 	c #BB4295",
"( 	c #B23C90",
"_ 	c #A43589",
": 	c #7D2D6B",
"< 	c #4F374B",
"[ 	c #535756",
"} 	c #747575",
"| 	c #8E8F8F",
"1 	c #BCBEBE",
"2 	c #E8E8E8",
"3 	c #EBEBEB",
"4 	c #EDEDED",
"5 	c #ECECEC",
"6 	c #EAEAEA",
"7 	c #E4E4E4",
"8 	c #C2C5C5",
"9 	c #8C8D8D",
"0 	c #656767",
"a 	c #782B69",
"b 	c #8D3078",
"c 	c #8D3079",
"d 	c #632E58",
"e 	c #514B53",
"f 	c #7A8281",
"g 	c #AEB4B4",
"h 	c #DFE1E1",
"i 	c #FDFDFD",
"j 	c #FFFFFF",
"k 	c #FEFEFE",
"l 	c #FBFBFB",
"m 	c #E2E4E4",
"n 	c #B0B1B1",
"o 	c #888C8C",
"p 	c #545757",
"q 	c #2C212A",
"r 	c #595B5D",
"s 	c #959D9C",
"t 	c #B9BEBE",
"u 	c #DADCDC",
"v 	c #F5F5F5",
"w 	c #FCFCFC",
"x 	c #F8F8F8",
"y 	c #F2F3F3",
"z 	c #CED2D2",
"A 	c #A9AFAF",
"B 	c #4D5050",
"C 	c #636766",
"D 	c #A3A9A9",
"E 	c #C8CCCC",
"F 	c #DCDEDE",
"G 	c #EEEEEE",
"H 	c #F7F7F7",
"I 	c #FAFAFA",
"J 	c #CED2D1",
"K 	c #A7A7A8",
"L 	c #868384",
"M 	c #7E7A7B",
"N 	c #726F70",
"O 	c #6B696A",
"P 	c #403D3E",
"Q 	c #979999",
"R 	c #E4E5E5",
"S 	c #F0F0F0",
"T 	c #F2F2F2",
"U 	c #F6F6F6",
"V 	c #AFB3B3",
"W 	c #888283",
"X 	c #AB8D93",
"Y 	c #A17E84",
"Z 	c #9C797F",
"` 	c #B8949D",
" .	c #BF99A3",
"..	c #9F7D83",
"+.	c #493D3E",
"@.	c #9B9D9D",
"#.	c #EAEBEB",
"$.	c #EFEFEF",
"%.	c #F1F1F1",
"&.	c #DADADA",
"*.	c #5A595A",
"=.	c #9D7C81",
"-.	c #E2B9C5",
";.	c #6C585B",
">.	c #4B3C3C",
",.	c #D0AEBA",
"'.	c #F5C8D6",
").	c #C89EA6",
"!.	c #57484A",
"~.	c #9B9C9C",
"{.	c #E9EAEA",
"].	c #D5D6D6",
"^.	c #413D3E",
"/.	c #A48288",
"(.	c #EAC3D1",
"_.	c #4A4346",
":.	c #1F1F1F",
"<.	c #C4A6B2",
"[.	c #C79DA5",
"}.	c #9C9D9D",
"|.	c #D6D6D6",
"1.	c #423E3F",
"2.	c #4B4447",
"3.	c #202020",
"4.	c #C5A6B2",
"5.	c #969999",
"6.	c #E6E7E7",
"7.	c #E8C0CD",
"8.	c #494245",
"9.	c #5F6262",
"0.	c #B9BCBC",
"a.	c #E8E9E9",
"b.	c #EBECEC",
"c.	c #575656",
"d.	c #9D7B80",
"e.	c #D2A8B2",
"f.	c #645153",
"g.	c #473939",
"h.	c #C9A6B1",
"i.	c #F3C6D3",
"j.	c #767A7A",
"k.	c #B7BCBC",
"l.	c #CACDCD",
"m.	c #D4D7D7",
"n.	c #D8DADA",
"o.	c #D9DBDB",
"p.	c #CED1D1",
"q.	c #8C9192",
"r.	c #7E7678",
"s.	c #9C7E83",
"t.	c #A07C82",
"u.	c #9F7C82",
"v.	c #BA959D",
"w.	c #C59EA8",
"x.	c #A38086",
"y.	c #4E4042",
"z.	c #6D7171",
"A.	c #8D9393",
"B.	c #A6ACAC",
"C.	c #B4B9B9",
"D.	c #B8BEBE",
"E.	c #B9BFBF",
"F.	c #B9BFBE",
"G.	c #B8BDBD",
"H.	c #AAB1B1",
"I.	c #929A9A",
"J.	c #808484",
"K.	c #605F60",
"L.	c #4F4D4E",
"M.	c #3A3637",
"N.	c #342F30",
"O.	c #342E2F",
"P.	c #474A4A",
"Q.	c #5A5E5E",
"R.	c #585B5B",
"S.	c #565959",
"T.	c #5C5F5F",
"U.	c #5B5E5E",
"V.	c #55595A",
"W.	c #535B5F",
"X.	c #535B5E",
"Y.	c #565A5A",
"Z.	c #595D5D",
"`.	c #595C5C",
" +	c #4F5352",
".+	c #404444",
"++	c #575757",
"@+	c #868686",
"#+	c #6C6B6A",
"$+	c #1C2830",
"%+	c #043F6D",
"&+	c #063B64",
"*+	c #1B2125",
"=+	c #5A5B5B",
"-+	c #C8C9C9",
";+	c #A1A09F",
">+	c #203240",
",+	c #005EA5",
"'+	c #005392",
")+	c #0C3657",
"!+	c #414442",
"~+	c #868987",
"{+	c #AAADAC",
"]+	c #B6B8B7",
"^+	c #A1A1A0",
"/+	c #21313D",
"(+	c #075998",
"_+	c #0B5B97",
":+	c #2B5A7D",
"<+	c #23292E",
"[+	c #683458",
"}+	c #6D395D",
"|+	c #613157",
"1+	c #5E3D59",
"2+	c #575557",
"3+	c #222425",
"4+	c #1D242A",
"5+	c #38332F",
"6+	c #C57B42",
"7+	c #3D3026",
"8+	c #582B4A",
"9+	c #AC5690",
"0+	c #D97BBD",
"a+	c #CB5CAE",
"b+	c #B03A8F",
"c+	c #932F7F",
"d+	c #5D2453",
"e+	c #1F2832",
"f+	c #0A4470",
"g+	c #11446B",
"h+	c #44515A",
"i+	c #28292A",
"j+	c #5F2A51",
"k+	c #BF4FA1",
"l+	c #D269B9",
"m+	c #C654AB",
"n+	c #B33D91",
"o+	c #A2348A",
"p+	c #782769",
"q+	c #1E2936",
"r+	c #02487E",
"s+	c #0B385B",
"t+	c #18252F",
"u+	c #6B2A5E",
"v+	c #97337F",
"w+	c #9E3782",
"x+	c #9A3480",
"y+	c #7B2B6C",
"z+	c #553750",
"A+	c #4A4E53",
"B+	c #223746",
"C+	c #4C4D4F",
"D+	c #272626",
"E+	c #362332",
"F+	c #3D2E3A",
"G+	c #665D65",
"H+	c #8D8F8E",
"I+	c #7B7C7B",
"J+	c #383736",
"K+	c #7B7B7B",
"L+	c #2D2D2D",
"M+	c #4D4F4E",
"N+	c #BEBFBF",
"O+	c #B2B4B4",
"P+	c #818181",
"Q+	c #373837",
"R+	c #777978",
"S+	c #2A2C2B",
"T+	c #404341",
"U+	c #949796",
"V+	c #676A68",
"W+	c #2A282A",
"X+	c #493446",
"Y+	c #3D2638",
"Z+	c #382134",
"`+	c #55254E",
" @	c #482442",
".@	c #6A325B",
"+@	c #77406A",
"@@	c #7A4570",
"#@	c #77426C",
"$@	c #773867",
"%@	c #95317F",
"&@	c #9D3483",
"*@	c #882A74",
"=@	c #5C2350",
"-@	c #52244A",
";@	c #2D222B",
">@	c #532D49",
",@	c #C54CA5",
"'@	c #D15CB5",
")@	c #D86CC0",
"!@	c #D769BE",
"~@	c #CD55AF",
"{@	c #BB4196",
"]@	c #B13B90",
"^@	c #A9378C",
"/@	c #922D7D",
"(@	c #352231",
"_@	c #1E201F",
":@	c #7A3366",
"<@	c #803769",
"[@	c #81396A",
"}@	c #7F3668",
"|@	c #773163",
"1@	c #753062",
"2@	c #6D2C5E",
"3@	c #632758",
"                                                                ",
"                                                                ",
"          . + @                                                 ",
"      # $ % & * =                                               ",
"    - ; > , ' ) ! ~                                             ",
"    { ] ^ / ( _ : < [ } | 1 2 3 4 4 4 5 6 7 8 9 0               ",
"        a b c d e f g h i j j j j j j j j j k l m n o p         ",
"            q r s t u v k j j j j j j j j j k w x y z A B       ",
"            C D E F G H I w i i i i i i l y J K L M N O P       ",
"            Q R 3 G S T v U U U U U U U 5 V W X Y Z `  ...+.    ",
"            @.#.$.$.G $.S S S S S S S %.&.*.=.-.;.>.,.'.).!.    ",
"            ~.{.$.$.$.G G G G G G G G S ].^./.(._.:.<.'.[.!.    ",
"            }.6 $.G $.$.$.$.$.$.$.$.$.S |.1./.(.2.3.4.'.[.!.    ",
"            5.6.G $.$.$.$.$.$.$.$.$.$.S |.^./.7.8.:.<.'.[.!.    ",
"            9.0.a.#.6 6 6 6 6 6 6 6 6 b.].c.d.e.f.g.h.i.).!.    ",
"              j.k.l.m.n.n.n.n.n.n.n.n.o.p.q.r.s.t.u.v.w.x.y.    ",
"                B z.A.B.C.D.t E.t t E.F.G.H.I.J.K.L.M.N.O.      ",
"                      P.p Q.R.S.T.U.V.W.X.Y.Z.`. +.+            ",
"                              ++@+#+$+%+&+*+                    ",
"                            =+-+].;+>+,+'+)+                    ",
"                          !+~+{+]+^+/+(+_+:+<+                  ",
"                          [+}+|+1+2+3+4+5+6+7+                  ",
"                      8+9+0+a+b+c+d+e+f+g+h+i+                  ",
"                      j+k+l+m+n+o+p+q+r+s+t+                    ",
"                        u+v+w+x+y+z+A+B+C+D+                    ",
"                            E+F+G+H+I+J+K+L+                    ",
"                              M+N+O+P+Q+R+S+                    ",
"                              T+U+H+V+W+X+Y+Z+`+ @              ",
"                              .@+@@@#@$@%@&@*@=@-@;@            ",
"                            >@,@'@)@!@~@{@]@^@/@(@_@            ",
"                              :@<@[@[@}@|@1@2@3@                ",
"                                                                "};
