/* XPM */
static char * box_xpm[] = {
"32 32 493 2",
"  	c #C8A2C8",
". 	c #E9C089",
"+ 	c #EBC18A",
"@ 	c #EBC38C",
"# 	c #ECC58E",
"$ 	c #EBC48E",
"% 	c #ECC691",
"& 	c #ECC893",
"* 	c #ECC995",
"= 	c #EDCC99",
"- 	c #EDCD9B",
"; 	c #ECCB9A",
"> 	c #EAC998",
", 	c #E8C897",
"' 	c #E7C796",
") 	c #E6C696",
"! 	c #E5C596",
"~ 	c #E5C698",
"{ 	c #E4C597",
"] 	c #E4C698",
"^ 	c #E3C597",
"/ 	c #E1C395",
"( 	c #E1C397",
"_ 	c #EDC289",
": 	c #EBC189",
"< 	c #F2C88E",
"[ 	c #F3CA90",
"} 	c #F5CF96",
"| 	c #F6D198",
"1 	c #F6D29A",
"2 	c #F3CF97",
"3 	c #F5D29B",
"4 	c #F6D59F",
"5 	c #F5D49E",
"6 	c #F3D29D",
"7 	c #F3D29E",
"8 	c #F2D29F",
"9 	c #F1D19D",
"0 	c #F0D19E",
"a 	c #EFD1A0",
"b 	c #EDCF9E",
"c 	c #ECCE9D",
"d 	c #EBCD9D",
"e 	c #ECCE9F",
"f 	c #EBCE9F",
"g 	c #E5C89A",
"h 	c #E9CEA1",
"i 	c #EFC48B",
"j 	c #EFC58C",
"k 	c #F2C990",
"l 	c #F4CC92",
"m 	c #F5CE95",
"n 	c #F6D097",
"o 	c #F3CE96",
"p 	c #F4CF98",
"q 	c #F3CF98",
"r 	c #F2CE98",
"s 	c #F1CD97",
"t 	c #F2D09A",
"u 	c #F2D19D",
"v 	c #F0CF9B",
"w 	c #F0D09E",
"x 	c #EFD09F",
"y 	c #EECF9F",
"z 	c #EDCE9E",
"A 	c #ECCE9E",
"B 	c #EBCD9F",
"C 	c #E9CB9C",
"D 	c #E4C596",
"E 	c #E5C697",
"F 	c #E8BD85",
"G 	c #E9BD85",
"H 	c #E5BA82",
"I 	c #D0A774",
"J 	c #D2AA78",
"K 	c #D3AB7A",
"L 	c #D3AC7A",
"M 	c #D3AD7B",
"N 	c #D3AE7D",
"O 	c #D5B180",
"P 	c #D5B282",
"Q 	c #D5B283",
"R 	c #D4B182",
"S 	c #D3B182",
"T 	c #D1B082",
"U 	c #D2B183",
"V 	c #D0AF82",
"W 	c #DBB887",
"X 	c #E3BE8B",
"Y 	c #E2BE8B",
"Z 	c #E5C28F",
"` 	c #E4C08C",
" .	c #DFB985",
"..	c #F0C78E",
"+.	c #EDC48C",
"@.	c #E8C088",
"#.	c #C09E75",
"$.	c #DDC197",
"%.	c #DFC399",
"&.	c #E1C59B",
"*.	c #E0C69C",
"=.	c #E3C99F",
"-.	c #E2C89F",
";.	c #E1C69D",
">.	c #DEC196",
",.	c #D9BA8E",
"'.	c #D8BA8F",
").	c #D8BA90",
"!.	c #CEAC80",
"~.	c #E3B881",
"{.	c #E6BA81",
"].	c #E6BB82",
"^.	c #F2CA92",
"/.	c #EEC78F",
"(.	c #E9BD83",
"_.	c #F1C78E",
":.	c #E9C189",
"<.	c #CDAC81",
"[.	c #F5DCAF",
"}.	c #F8DEB1",
"|.	c #F8DEB2",
"1.	c #FAE2B5",
"2.	c #F5DBAF",
"3.	c #F8E0B5",
"4.	c #FBE4B8",
"5.	c #FAE2B6",
"6.	c #F6DBAE",
"7.	c #F2D5A6",
"8.	c #EBCEA1",
"9.	c #E1C092",
"0.	c #EDC187",
"a.	c #EBBF85",
"b.	c #E7BB83",
"c.	c #F2CB92",
"d.	c #F3CC93",
"e.	c #ECC086",
"f.	c #F1C78D",
"g.	c #EAC18A",
"h.	c #CCAC82",
"i.	c #F4DAAE",
"j.	c #F6DCAF",
"k.	c #F7DDB0",
"l.	c #F8DFB3",
"m.	c #F4DBAE",
"n.	c #F8E1B6",
"o.	c #FAE3B8",
"p.	c #FAE2B7",
"q.	c #FAE3B7",
"r.	c #ECD0A2",
"s.	c #DCBB8D",
"t.	c #E6BC85",
"u.	c #EEC287",
"v.	c #E8BC83",
"w.	c #C6A071",
"x.	c #EEC892",
"y.	c #F7D096",
"z.	c #F0C68D",
"A.	c #E9C18A",
"B.	c #CDAD82",
"C.	c #F4DAAD",
"D.	c #F5DBAE",
"E.	c #F7DEB1",
"F.	c #F3D9AD",
"G.	c #F9E2B8",
"H.	c #FBE4B9",
"I.	c #F2D8AB",
"J.	c #DEBE90",
"K.	c #E4BB85",
"L.	c #EBC087",
"M.	c #EFC68C",
"N.	c #EBC188",
"O.	c #C7A375",
"P.	c #C9AC83",
"Q.	c #F1CD96",
"R.	c #ECC187",
"S.	c #EFC58B",
"T.	c #E7BF88",
"U.	c #CCAC81",
"V.	c #F5DBAD",
"W.	c #F4DBAF",
"X.	c #FBE4BA",
"Y.	c #F6DEB3",
"Z.	c #E2C497",
"`.	c #E1B882",
" +	c #EABF86",
".+	c #EEC48B",
"++	c #C9A678",
"@+	c #D5BA92",
"#+	c #E9CEA2",
"$+	c #F3D09A",
"%+	c #EBBF86",
"&+	c #ECC38A",
"*+	c #EDC38A",
"=+	c #E8C08A",
"-+	c #CBAB81",
";+	c #F5DAAE",
">+	c #F8E0B4",
",+	c #F4DCB1",
"'+	c #F7DFB4",
")+	c #E5C99D",
"!+	c #E0B883",
"~+	c #E8BE85",
"{+	c #EEC58D",
"]+	c #CAA678",
"^+	c #D3B992",
"/+	c #EBD0A3",
"(+	c #F2CF99",
"_+	c #F4CF96",
":+	c #E9BE85",
"<+	c #EAC088",
"[+	c #E7C08A",
"}+	c #CBAB80",
"|+	c #F7DFB3",
"1+	c #F4DCB0",
"2+	c #F8E1B7",
"3+	c #E5CA9F",
"4+	c #E6BC84",
"5+	c #CCA97A",
"6+	c #D1B68F",
"7+	c #FBE5BB",
"8+	c #EBD0A4",
"9+	c #F0CC97",
"0+	c #F3CD95",
"a+	c #E8BE86",
"b+	c #EAC087",
"c+	c #E6BF89",
"d+	c #CAAA80",
"e+	c #F1D6A9",
"f+	c #F3D9AC",
"g+	c #F4DBB0",
"h+	c #F5DDB2",
"i+	c #E7CDA2",
"j+	c #E0BC89",
"k+	c #E6BE86",
"l+	c #EDC790",
"m+	c #EEC992",
"n+	c #CDAA7B",
"o+	c #CCB189",
"p+	c #F6DFB4",
"q+	c #F9E2B7",
"r+	c #FAE4BA",
"s+	c #EBD1A5",
"t+	c #EECA95",
"u+	c #F1CB93",
"v+	c #E9BF86",
"w+	c #E6C08A",
"x+	c #F0D5A9",
"y+	c #F3D8AB",
"z+	c #F2D9AE",
"A+	c #E5CBA1",
"B+	c #E1BD8B",
"C+	c #E6BF88",
"D+	c #ECC891",
"E+	c #F0CC96",
"F+	c #CEAD7E",
"G+	c #C5A77F",
"H+	c #F1D8AC",
"I+	c #ECD2A7",
"J+	c #EEC790",
"K+	c #E6BD85",
"L+	c #E7BD85",
"M+	c #E5BF8A",
"N+	c #F0D4A8",
"O+	c #E4CA9F",
"P+	c #DFBE8C",
"Q+	c #E7C28B",
"R+	c #ECC892",
"S+	c #EFCC97",
"T+	c #D2B184",
"U+	c #C3A57D",
"V+	c #E8CCA0",
"W+	c #F6DDB1",
"X+	c #F9E3B9",
"Y+	c #ECD3A9",
"Z+	c #EDCA95",
"`+	c #EBC48C",
" @	c #E4BA82",
".@	c #E4BB84",
"+@	c #E5BC84",
"@@	c #E3BE89",
"#@	c #C9A980",
"$@	c #F0D6A9",
"%@	c #F2D7AA",
"&@	c #DFBD8D",
"*@	c #E7C28C",
"=@	c #EBC792",
"-@	c #EFCD99",
";@	c #D4B487",
">@	c #C5A881",
",@	c #E8CC9F",
"'@	c #EFD4A7",
")@	c #F9E3B8",
"!@	c #FAE4BB",
"~@	c #EBD2A8",
"{@	c #EAC691",
"]@	c #E8C089",
"^@	c #E3B981",
"/@	c #E2B982",
"(@	c #E4BB83",
"_@	c #E2BD88",
":@	c #C8A97F",
"<@	c #DEBE8E",
"[@	c #E7C48F",
"}@	c #EAC995",
"|@	c #EECE9B",
"1@	c #D6B689",
"2@	c #C3A77F",
"3@	c #EACFA3",
"4@	c #F1D5A8",
"5@	c #EFD5A9",
"6@	c #F7E0B5",
"7@	c #F8E2B8",
"8@	c #FBE7BF",
"9@	c #EAD0A6",
"0@	c #E7C38E",
"a@	c #E1B881",
"b@	c #E3BA83",
"c@	c #E0BB87",
"d@	c #C8A87E",
"e@	c #EFD4A8",
"f@	c #E4C89C",
"g@	c #DDBD8D",
"h@	c #E6C490",
"i@	c #E9C896",
"j@	c #EECF9E",
"k@	c #D7B98C",
"l@	c #C5A982",
"m@	c #F0D5A8",
"n@	c #F7E0B6",
"o@	c #FCE8C0",
"p@	c #EBD3AA",
"q@	c #E4BF8B",
"r@	c #E2B981",
"s@	c #E1B780",
"t@	c #E0B780",
"u@	c #DEB884",
"v@	c #C7A87E",
"w@	c #E3C79C",
"x@	c #DDBE8F",
"y@	c #E6C492",
"z@	c #E9C997",
"A@	c #EBCB99",
"B@	c #D7B88A",
"C@	c #C3A780",
"D@	c #EAD1A7",
"E@	c #EFD3A6",
"F@	c #F0D7AB",
"G@	c #ECD4AC",
"H@	c #E0B67F",
"I@	c #DEB57F",
"J@	c #DDB782",
"K@	c #BD9D74",
"L@	c #DABB8E",
"M@	c #E5C492",
"N@	c #E9CA99",
"O@	c #EBCB9A",
"P@	c #D7B88C",
"Q@	c #C3A781",
"R@	c #E9D0A6",
"S@	c #F5DCB0",
"T@	c #F2D7AB",
"U@	c #F0D7AC",
"V@	c #FBE6BE",
"W@	c #E1BC88",
"X@	c #DEB47D",
"Y@	c #DDB47E",
"Z@	c #DDB783",
"`@	c #CDAD80",
" #	c #E5C594",
".#	c #E8C998",
"+#	c #EACC9C",
"@#	c #BFA27C",
"##	c #E6CDA4",
"$#	c #F5DCB1",
"%#	c #F2D9AD",
"&#	c #F1D7AA",
"*#	c #F7E1B7",
"=#	c #FAE6BD",
"-#	c #E9D0A7",
";#	c #DDB47D",
">#	c #DCB37D",
",#	c #DDB57F",
"'#	c #DFB781",
")#	c #E1C190",
"!#	c #E8C999",
"~#	c #D9BB8E",
"{#	c #C1A57F",
"]#	c #E3CAA0",
"^#	c #F2D8AC",
"/#	c #F0D4A7",
"(#	c #F1D8AD",
"_#	c #F7DFB5",
":#	c #FBE7BE",
"<#	c #DCB682",
"[#	c #DAB27E",
"}#	c #DBB27C",
"|#	c #DDB581",
"1#	c #DEB782",
"2#	c #DDB884",
"3#	c #E0C091",
"4#	c #E5C494",
"5#	c #D9BA8D",
"6#	c #B89B75",
"7#	c #DDC49C",
"8#	c #EBD3A9",
"9#	c #EDD5AB",
"0#	c #ECD2A8",
"a#	c #EACFA4",
"b#	c #E8CDA1",
"c#	c #E9CEA3",
"d#	c #EBD2A9",
"e#	c #F0D8AF",
"f#	c #F1DBB2",
"g#	c #F0D9B1",
"h#	c #F3DEB7",
"i#	c #E3CAA2",
"j#	c #DAB582",
"k#	c #DAB37F",
"l#	c #DAB17D",
"m#	c #F2D4A1",
"n#	c #F2D6A5",
"o#	c #F3D7A7",
"p#	c #F1D5A4",
"q#	c #F2D3A1",
"r#	c #E6C797",
"s#	c #E2C394",
"t#	c #EDCF9F",
"u#	c #E5C696",
"v#	c #E2C292",
"w#	c #E1C192",
"x#	c #E1C293",
"y#	c #E0C192",
"z#	c #DFBF91",
"A#	c #DEBF91",
"B#	c #D9B98A",
"C#	c #DDBA89",
"D#	c #DEBA88",
"E#	c #DCB885",
"F#	c #FDE0AA",
"G#	c #FBDEA9",
"H#	c #FEE0A9",
"I#	c #FDDDA6",
"J#	c #FBD8A0",
"K#	c #FAD69E",
"L#	c #F9D49C",
"M#	c #F5D098",
"N#	c #F1CC94",
"O#	c #EFC992",
"P#	c #EBC58E",
"Q#	c #EAC48D",
"R#	c #E9C38C",
"S#	c #E7C18A",
"T#	c #E5BE88",
"U#	c #E3BD87",
"V#	c #E1BB85",
"W#	c #E0BA84",
"X#	c #DEB883",
"Y#	c #DDB883",
"Z#	c #DBB581",
"`#	c #FAD8A0",
" $	c #FCD79D",
".$	c #FAD49B",
"+$	c #F8D299",
"@$	c #F7D097",
"#$	c #F3CD94",
"$$	c #F0C991",
"%$	c #EDC68E",
"&$	c #EAC38B",
"*$	c #E9C28B",
"=$	c #E8C18A",
"-$	c #E4BE88",
";$	c #E3BC86",
">$	c #DDB681",
",$	c #DBB37E",
"'$	c #DAB27D",
")$	c #DEBC8A",
"!$	c #D9B685",
"~$	c #D5B280",
"{$	c #D1AE7D",
"]$	c #CDA979",
"^$	c #C9A475",
"/$	c #C6A172",
"($	c #C49F70",
"_$	c #C29E6F",
":$	c #C09C6E",
"<$	c #BF9A6D",
"[$	c #BD996B",
"}$	c #BC976A",
"|$	c #BB9769",
"1$	c #BB976A",
"2$	c #BC9769",
"3$	c #BE9869",
"4$	c #C19A6B",
"                                                                ",
"                                                                ",
"                                                                ",
"        . + @ # # $ % & * = - ; > , ' ' ) ! ~ { ] ^ / (         ",
"        _ : < [ } | 1 2 3 4 5 6 7 8 9 0 a b c d e f g h         ",
"        i j k l m n } o p q r s t u v w x y z A B C D E         ",
"        F G H I J K L M N O P P Q R S T U V W X Y Z `  .        ",
"        ..+.@.#.$.%.%.&.$.*.=.-.;.>.,.'.).!.~.{.].^./.(.        ",
"        _._.:.<.[.}.|.1.2.3.4.4.5.6.7.8.9.F 0.a.b.c.d.e.        ",
"        f.< g.h.i.j.k.l.m.n.o.p.q.6.r.s.t.e.u.v.w.x.y.e.        ",
"        z.f.A.B.C.D.j.E.F.G.H.q.p.I.J.K.L.M.N.O.P.Q.n R.        ",
"        j S.T.U.F.V.D.l.W.G.X.p.Y.Z.`. +.+: ++@+#+$+n %+        ",
"        &+*+=+-+I.;+D.>+,+G.X.'+)+!+~+{++.]+^+n./+(+_+:+        ",
"        <+N.[+}+I.C.D.|+1+n.2+3+ .4+/./.5+6+2+7+8+9+0+~+        ",
"        a+b+c+d+e+f+i.>+g+h+i+j+k+l+m+n+o+p+q+r+s+t+u+a+        ",
"        a+v+w+d+x+y+i.3.z+A+B+C+D+E+F+G+H+q+>+r+I+t+J+4+        ",
"        K+L+M+d+N+y+C.Y.O+P+Q+R+S+T+U+V+W+X+'+n.Y+Z+`+ @        ",
"        .@+@@@#@$@%@F.i+&@*@=@-@;@>@,@'@'+)@n.!@~@{@]@^@        ",
"        /@(@_@:@$@e+3+<@[@}@|@1@2@3@4@5@6@7@2+8@9@0@+@a@        ",
"        a@b@c@d@e@f@g@h@i@j@k@l@3@%@m@5@n@7@2+o@p@q@r@s@        ",
"        t@/@u@v@w@x@y@z@A@B@C@D@f+e+E@F@n@7@2+8@G@_@H@t@        ",
"        I@t@J@K@L@M@N@O@P@Q@R@S@T@4@E@U@6@2+7@V@p@W@X@I@        ",
"        Y@I@Z@`@ #.#+#,.@###$#%#&#m@'@U@6@*#*#=#-#u@;#>#        ",
"        ,#'# .)# #!#~#{#]#,+1+^#m@/#e@(#n@7@_#:#-#<#[#}#        ",
"        |#1#2#3#4#5#6#7#8#9#0#a#b##+c#d#e#f#g#h#i#j#k#l#        ",
"        m#n#o#p#q#r#s#t#d +#!#r#u#D v#w#x#y#z#A#B#C#D#E#        ",
"        F#G#H#I#J#K#L#M#o N#O#P#Q#R#S#T#U#V#W#X#J@Y#<#Z#        ",
"        F#`# $.$+$@$m #$c.$$%$`+&$*$=$c+-$;$V#W#X#>$,$'$        ",
"        )$!$~${$]$^$/$($_$_$:$<$[$}$|$1$1$1$1$1$}$2$3$4$        ",
"                                                                ",
"                                                                ",
"                                                                "};
