/* XPM */
static char * coins_2_xpm[] = {
"32 32 814 2",
"  	c #C8A2C8",
". 	c #FFFCE9",
"+ 	c #DACBAC",
"@ 	c #7C643E",
"# 	c #BB8D6B",
"$ 	c #B98963",
"% 	c #A9885F",
"& 	c #866A42",
"* 	c #836742",
"= 	c #A38261",
"- 	c #BF977D",
"; 	c #966A4F",
"> 	c #AA7E5B",
", 	c #D7B08F",
"' 	c #FFF5E0",
") 	c #FDEEE9",
"! 	c #AC8975",
"~ 	c #CCA278",
"{ 	c #C29957",
"] 	c #B18232",
"^ 	c #D39B46",
"/ 	c #DEA74D",
"( 	c #C4993D",
"_ 	c #AD852D",
": 	c #B18838",
"< 	c #9A6926",
"[ 	c #80430D",
"} 	c #81440D",
"| 	c #BB873E",
"1 	c #DDAB64",
"2 	c #DDA373",
"3 	c #CC9E7C",
"4 	c #E9DCBA",
"5 	c #ECDACE",
"6 	c #B89C84",
"7 	c #996A40",
"8 	c #AB7132",
"9 	c #DBA14D",
"0 	c #FFCE6B",
"a 	c #FFC65E",
"b 	c #FFC358",
"c 	c #FFCC5F",
"d 	c #FFCC61",
"e 	c #FFD471",
"f 	c #D59C43",
"g 	c #AD681A",
"h 	c #DA9748",
"i 	c #D5A042",
"j 	c #CD973D",
"k 	c #C98544",
"l 	c #C08750",
"m 	c #C4AB72",
"n 	c #FFF7DB",
"o 	c #FFECE1",
"p 	c #FEDEC7",
"q 	c #F2CEAA",
"r 	c #B99460",
"s 	c #8D6122",
"t 	c #FFD28A",
"u 	c #F5B666",
"v 	c #EEAD53",
"w 	c #ECA344",
"x 	c #F8A847",
"y 	c #F2A442",
"z 	c #F4AB4D",
"A 	c #E9A84C",
"B 	c #E3A84C",
"C 	c #F4B95B",
"D 	c #FFCC67",
"E 	c #FFCB64",
"F 	c #9F6F0B",
"G 	c #996C11",
"H 	c #F8C479",
"I 	c #ECBA71",
"J 	c #B99342",
"K 	c #B28C41",
"L 	c #FFDEAA",
"M 	c #FFDDBB",
"N 	c #F8E6D2",
"O 	c #FFF4E2",
"P 	c #F2D0AD",
"Q 	c #9E7340",
"R 	c #804F0C",
"S 	c #BE8939",
"T 	c #FFD379",
"U 	c #E6A74A",
"V 	c #F5B355",
"W 	c #EDAB4B",
"X 	c #EEA546",
"Y 	c #FAA74B",
"Z 	c #FEA94F",
"` 	c #F4A24E",
" .	c #F8AC58",
"..	c #EEA94E",
"+.	c #F1B14F",
"@.	c #ECAC3E",
"#.	c #E5A939",
"$.	c #FFCF6A",
"%.	c #D4A346",
"&.	c #6E3F00",
"*.	c #6D3B00",
"=.	c #CA943A",
"-.	c #F9C16A",
";.	c #AA6C21",
">.	c #9C6628",
",.	c #CFAD80",
"'.	c #FFF8DC",
").	c #CAA77D",
"!.	c #BD8C49",
"~.	c #FAC670",
"{.	c #FAC261",
"].	c #F1B350",
"^.	c #F4B04B",
"/.	c #F3AB45",
"(.	c #EEA944",
"_.	c #EAAF49",
":.	c #F1B251",
"<.	c #FDAD56",
"[.	c #FFA957",
"}.	c #FFA85A",
"|.	c #FFA956",
"1.	c #F3A447",
"2.	c #FDB24D",
"3.	c #F2A83F",
"4.	c #F8B149",
"5.	c #EEAC4C",
"6.	c #F0B150",
"7.	c #F9C359",
"8.	c #FFC763",
"9.	c #C3812D",
"0.	c #AF6D19",
"a.	c #FEC463",
"b.	c #FFCB6D",
"c.	c #D6A256",
"d.	c #B18B5A",
"e.	c #FDF1E1",
"f.	c #C69E6A",
"g.	c #C2893C",
"h.	c #FFD473",
"i.	c #F9BC52",
"j.	c #F9B44D",
"k.	c #F0A740",
"l.	c #F9AA45",
"m.	c #F9AD4B",
"n.	c #F4B453",
"o.	c #EEAD4F",
"p.	c #CA7A23",
"q.	c #CD7422",
"r.	c #D17426",
"s.	c #CD7020",
"t.	c #F9A147",
"u.	c #FFAC4C",
"v.	c #FFAD4A",
"w.	c #F5A745",
"x.	c #F5AB4C",
"y.	c #F6B04E",
"z.	c #F5B54B",
"A.	c #FFC05C",
"B.	c #B0681C",
"C.	c #955404",
"D.	c #FFD467",
"E.	c #FFDD6D",
"F.	c #DBA249",
"G.	c #AF7E44",
"H.	c #FFF2DF",
"I.	c #FFFBE5",
"J.	c #B99366",
"K.	c #935C1C",
"L.	c #F7B96C",
"M.	c #F2AF58",
"N.	c #F2AC4D",
"O.	c #F6AA4C",
"P.	c #FFAC50",
"Q.	c #E38D36",
"R.	c #D17F2D",
"S.	c #D58530",
"T.	c #D6852A",
"U.	c #D37E24",
"V.	c #D77B26",
"W.	c #DB7C2C",
"X.	c #D37827",
"Y.	c #DB8532",
"Z.	c #D9852B",
"`.	c #FCAB4F",
" +	c #F7AB4D",
".+	c #F4AA4B",
"++	c #F3A64A",
"@+	c #FBB05D",
"#+	c #9A5713",
"$+	c #8C5409",
"%+	c #FFDE6E",
"&+	c #BC8B3C",
"*+	c #875726",
"=+	c #FAEEDE",
"-+	c #CEB99C",
";+	c #A87F49",
">+	c #B57C37",
",+	c #EDAB5F",
"'+	c #EFA755",
")+	c #FEB05B",
"!+	c #F5A44B",
"~+	c #E48F35",
"{+	c #D57B25",
"]+	c #CC7120",
"^+	c #D57A27",
"/+	c #E28D30",
"(+	c #ED9939",
"_+	c #F1973F",
":+	c #EE9340",
"<+	c #DC8033",
"[+	c #C76D1F",
"}+	c #D07A25",
"|+	c #E29136",
"1+	c #EFA043",
"2+	c #F9AA4E",
"3+	c #FFAD59",
"4+	c #F8A95C",
"5+	c #C8853F",
"6+	c #A97220",
"7+	c #DEB247",
"8+	c #EBC155",
"9+	c #CE9949",
"0+	c #996430",
"a+	c #E5B79D",
"b+	c #FFE4D5",
"c+	c #FFE9D6",
"d+	c #6A4721",
"e+	c #C6984B",
"f+	c #FFD475",
"g+	c #F0A94F",
"h+	c #F29949",
"i+	c #EB903F",
"j+	c #C77215",
"k+	c #DF8827",
"l+	c #F69739",
"m+	c #EC9432",
"n+	c #E69230",
"o+	c #E79438",
"p+	c #EA9640",
"q+	c #EA8F3E",
"r+	c #F79C4B",
"s+	c #E69039",
"t+	c #CD791F",
"u+	c #DF8E32",
"v+	c #F2A347",
"w+	c #FAAA53",
"x+	c #F5A955",
"y+	c #FDB761",
"z+	c #AC6702",
"A+	c #E7A13F",
"B+	c #F4AE58",
"C+	c #EEAB67",
"D+	c #A6673E",
"E+	c #F3B69A",
"F+	c #FFE8D1",
"G+	c #AC7D51",
"H+	c #DFA752",
"I+	c #FFC55D",
"J+	c #EEA445",
"K+	c #FBA74F",
"L+	c #E58538",
"M+	c #CA6A1D",
"N+	c #EB9339",
"O+	c #EF9837",
"P+	c #ED9333",
"Q+	c #E78D2D",
"R+	c #EA9230",
"S+	c #EA9634",
"T+	c #E19537",
"U+	c #E3933A",
"V+	c #EC9641",
"W+	c #EE963F",
"X+	c #FEAD51",
"Y+	c #FFC768",
"Z+	c #CB7A21",
"`+	c #F8AB51",
" @	c #F1A84A",
".@	c #F0AC4B",
"+@	c #DC9837",
"@@	c #B76A10",
"#@	c #F2A148",
"$@	c #FBAB52",
"%@	c #E89E53",
"&@	c #AB683B",
"*@	c #FBBC9D",
"=@	c #FFE7C6",
"-@	c #A56F40",
";@	c #E09343",
">@	c #FFAF4F",
",@	c #F4A74B",
"'@	c #FFB35A",
")@	c #DE7F2F",
"!@	c #CB6719",
"~@	c #E98D3A",
"{@	c #E9933C",
"]@	c #E4943F",
"^@	c #E5953C",
"/@	c #EB9735",
"(@	c #E69430",
"_@	c #DE9433",
":@	c #E2993B",
"<@	c #EFA044",
"[@	c #FAAB4C",
"}@	c #EDA93E",
"|@	c #FEB74F",
"1@	c #C8771E",
"2@	c #D5832D",
"3@	c #FDB354",
"4@	c #EBAA44",
"5@	c #FFC95E",
"6@	c #EAB04D",
"7@	c #803F00",
"8@	c #D88E43",
"9@	c #FFB159",
"0@	c #EB9D52",
"a@	c #703912",
"b@	c #E0B29B",
"c@	c #FFEBC9",
"d@	c #B27A47",
"e@	c #D98C3A",
"f@	c #FAA845",
"g@	c #F2A849",
"h@	c #FDAD54",
"i@	c #E18230",
"j@	c #CD691B",
"k@	c #ED9440",
"l@	c #E5933D",
"m@	c #E0923F",
"n@	c #E2943F",
"o@	c #E89434",
"p@	c #E59330",
"q@	c #E39A3B",
"r@	c #EBA448",
"s@	c #F3A64E",
"t@	c #F5AD4B",
"u@	c #F2B743",
"v@	c #FFC350",
"w@	c #D18223",
"x@	c #CF7E22",
"y@	c #F3AE46",
"z@	c #FEC252",
"A@	c #FFCE62",
"B@	c #E3AE4E",
"C@	c #723600",
"D@	c #D6934D",
"E@	c #FEB356",
"F@	c #DB9746",
"G@	c #62320A",
"H@	c #DDB8A6",
"I@	c #FFE6C9",
"J@	c #AE7947",
"K@	c #D59D40",
"L@	c #FFC455",
"M@	c #F2AD46",
"N@	c #F8A94C",
"O@	c #E08431",
"P@	c #C86C19",
"Q@	c #DF9637",
"R@	c #E6953C",
"S@	c #E9943A",
"T@	c #E99233",
"U@	c #EB983A",
"V@	c #F0A44C",
"W@	c #F6AC57",
"X@	c #FCAB5A",
"Y@	c #EDA748",
"Z@	c #EBB93E",
"`@	c #FFD554",
" #	c #DF9729",
".#	c #DA8D21",
"+#	c #FFC449",
"@#	c #FFCE55",
"##	c #FFCC65",
"$#	c #D59B47",
"%#	c #713400",
"&#	c #DFA35D",
"*#	c #FFC865",
"=#	c #E6B559",
"-#	c #6C4218",
";#	c #D0AD99",
">#	c #FFE6CF",
",#	c #936534",
"'#	c #D2A645",
")#	c #FFD562",
"!#	c #E9A43D",
"~#	c #FFAE52",
"{#	c #E28633",
"]#	c #C36913",
"^#	c #E19734",
"/#	c #DF9733",
"(#	c #E79339",
"_#	c #E89037",
":#	c #E89338",
"<#	c #F2A145",
"[#	c #F6AC53",
"}#	c #F2A853",
"|#	c #F2A452",
"1#	c #F5AF4F",
"2#	c #E6B638",
"3#	c #FFD652",
"4#	c #D89520",
"5#	c #E09724",
"6#	c #FFD75A",
"7#	c #FEC34B",
"8#	c #F2B654",
"9#	c #D09245",
"0#	c #763800",
"a#	c #E6AD68",
"b#	c #FFDB6F",
"c#	c #E7BF5D",
"d#	c #613C0F",
"e#	c #D6B5A2",
"f#	c #FFE9D7",
"g#	c #603F14",
"h#	c #C09C3E",
"i#	c #FFD263",
"j#	c #EDA543",
"k#	c #FFAB52",
"l#	c #E28130",
"m#	c #C96B14",
"n#	c #E99734",
"o#	c #E39833",
"p#	c #E6963D",
"q#	c #E0903B",
"r#	c #E99741",
"s#	c #EEA147",
"t#	c #F2AD4E",
"u#	c #F0AE4D",
"v#	c #F5AA4D",
"w#	c #F4AF4A",
"x#	c #E9B73E",
"y#	c #FFD255",
"z#	c #D5941E",
"A#	c #E19A28",
"B#	c #FFC654",
"C#	c #ECA93E",
"D#	c #F0AD52",
"E#	c #DB994F",
"F#	c #713600",
"G#	c #E4AF69",
"H#	c #FFD863",
"I#	c #E9C356",
"J#	c #5F3D0F",
"K#	c #D3B3A4",
"L#	c #6C5029",
"M#	c #B9983B",
"N#	c #FFD161",
"O#	c #F6AE4C",
"P#	c #FFA74E",
"Q#	c #E48332",
"R#	c #C66612",
"S#	c #EB9435",
"T#	c #DE8E2D",
"U#	c #E19236",
"V#	c #E3963E",
"W#	c #F9A952",
"X#	c #EFAA45",
"Y#	c #F4A848",
"Z#	c #F2AA44",
"`#	c #E9B53F",
" $	c #FFD95E",
".$	c #D8971F",
"+$	c #D8911F",
"@$	c #F1A73E",
"#$	c #F6AC4D",
"$$	c #F9B25A",
"%$	c #D69247",
"&$	c #703100",
"*$	c #E0A764",
"=$	c #FFD264",
"-$	c #E6B952",
";$	c #684317",
">$	c #D2B0A4",
",$	c #654421",
"'$	c #B99A3F",
")$	c #FFD864",
"!$	c #EDA944",
"~$	c #FBA84C",
"{$	c #E48835",
"]$	c #C76816",
"^$	c #EC933F",
"/$	c #EA9A3B",
"($	c #E79738",
"_$	c #F5A649",
":$	c #F7A64A",
"<$	c #FEAC49",
"[$	c #F9A744",
"}$	c #FFAE51",
"|$	c #F2A845",
"1$	c #EAB541",
"2$	c #FFD456",
"3$	c #D6981D",
"4$	c #D89021",
"5$	c #FDAC50",
"6$	c #F4A44F",
"7$	c #F5AE56",
"8$	c #773300",
"9$	c #DD9958",
"0$	c #FAB55A",
"a$	c #DDA04F",
"b$	c #673615",
"c$	c #DBB3A7",
"d$	c #684726",
"e$	c #BD9B42",
"f$	c #FDD261",
"g$	c #E6A541",
"h$	c #FEAF53",
"i$	c #DF8431",
"j$	c #C76A1A",
"k$	c #E98E3D",
"l$	c #EA923B",
"m$	c #EF9C3E",
"n$	c #F2A241",
"o$	c #F9A94A",
"p$	c #F8A849",
"q$	c #FDA949",
"r$	c #F8A348",
"s$	c #FAAE4E",
"t$	c #EAAE40",
"u$	c #FFCD59",
"v$	c #DE9D29",
"w$	c #D48A1F",
"x$	c #FFAD57",
"y$	c #F7A654",
"z$	c #F7B056",
"A$	c #D5913C",
"B$	c #7C3200",
"C$	c #DC9054",
"D$	c #F8AD5C",
"E$	c #E09D57",
"F$	c #693415",
"G$	c #DBACA2",
"H$	c #704F2C",
"I$	c #C09642",
"J$	c #FFCD65",
"K$	c #EAA84A",
"L$	c #DB8230",
"M$	c #C46717",
"N$	c #F0913D",
"O$	c #EA9038",
"P$	c #EA963C",
"Q$	c #FCAB50",
"R$	c #FEAE4F",
"S$	c #FAAA4B",
"T$	c #F3A34A",
"U$	c #F0A349",
"V$	c #F8AE4B",
"W$	c #FFCD67",
"X$	c #D98B27",
"Y$	c #CC7D1E",
"Z$	c #F7A74E",
"`$	c #F5A951",
" %	c #F5B051",
".%	c #D38D37",
"+%	c #813100",
"@%	c #E09055",
"#%	c #FCB364",
"$%	c #E2A35E",
"%%	c #6B3519",
"&%	c #E1B0A9",
"*%	c #543719",
"=%	c #C4984F",
"-%	c #FFD878",
";%	c #E3A443",
">%	c #F2AD52",
",%	c #E0974A",
"'%	c #CC7E34",
")%	c #D78937",
"!%	c #E3933C",
"~%	c #EC9F43",
"{%	c #F9AD4D",
"]%	c #F5AA45",
"^%	c #F3A946",
"/%	c #EEA849",
"(%	c #F3AE51",
"_%	c #FFBD5D",
":%	c #FFBA59",
"<%	c #FFB85B",
"[%	c #EC993D",
"}%	c #D78426",
"|%	c #E19034",
"1%	c #FEAF52",
"2%	c #ECA345",
"3%	c #FBBA5E",
"4%	c #E8A451",
"5%	c #802C00",
"6%	c #D68045",
"7%	c #E69C53",
"8%	c #CE9152",
"9%	c #5C2A13",
"0%	c #DBB0AA",
"a%	c #8A6F5A",
"b%	c #B68F56",
"c%	c #DDAD58",
"d%	c #E9B548",
"e%	c #E2AF46",
"f%	c #EBBC76",
"g%	c #ECC083",
"h%	c #D0A056",
"i%	c #D19944",
"j%	c #DD9D39",
"k%	c #E9A739",
"l%	c #F6B849",
"m%	c #F3B94B",
"n%	c #F5BB50",
"o%	c #F4B74D",
"p%	c #F6B64A",
"q%	c #FDB850",
"r%	c #F0A144",
"s%	c #C67519",
"t%	c #EF9F3C",
"u%	c #FDAE49",
"v%	c #FAAC48",
"w%	c #F1AB4C",
"x%	c #EAAC59",
"y%	c #D28E45",
"z%	c #953E00",
"A%	c #A86A39",
"B%	c #8F6857",
"C%	c #D7BDBC",
"D%	c #9B784E",
"E%	c #81550A",
"F%	c #FFDD69",
"G%	c #DDB845",
"H%	c #F5D58C",
"I%	c #FFFABF",
"J%	c #FFF6AF",
"K%	c #DCAA55",
"L%	c #C1821B",
"M%	c #D08C1D",
"N%	c #FFC151",
"O%	c #FFC052",
"P%	c #FFC45A",
"Q%	c #FFC154",
"R%	c #D49426",
"S%	c #BD790E",
"T%	c #C37719",
"U%	c #F8A94D",
"V%	c #F4A944",
"W%	c #F7AC46",
"X%	c #F5AA44",
"Y%	c #FBB158",
"Z%	c #A5621E",
"`%	c #813A00",
" &	c #A15116",
".&	c #7E441C",
"+&	c #FFECDE",
"@&	c #9D7C5D",
"#&	c #815A17",
"$&	c #FEDF6A",
"%&	c #EDD156",
"&&	c #FFE58F",
"*&	c #FFF1AB",
"=&	c #E4B367",
"-&	c #E8AA55",
";&	c #F2A847",
">&	c #F7A43E",
",&	c #DD8322",
"'&	c #CC7413",
")&	c #C0700D",
"!&	c #BB700B",
"~&	c #EAA13A",
"{&	c #F4AC46",
"]&	c #F1A746",
"^&	c #F2A94A",
"/&	c #F2AC4A",
"(&	c #F3AE49",
"_&	c #F1A744",
":&	c #FEB15F",
"<&	c #AE6230",
"[&	c #944213",
"}&	c #9E531A",
"|&	c #7B4924",
"1&	c #FFEEE1",
"2&	c #967C65",
"3&	c #72511C",
"4&	c #FDE180",
"5&	c #F8DC6F",
"6&	c #FFDE87",
"7&	c #F8CD7E",
"8&	c #E5AA5A",
"9&	c #F2AA55",
"0&	c #FFAF53",
"a&	c #FBA244",
"b&	c #FEA144",
"c&	c #F1963B",
"d&	c #EC9D3E",
"e&	c #F3A747",
"f&	c #F7AB4B",
"g&	c #F8AC4E",
"h&	c #F8AD50",
"i&	c #F0A94D",
"j&	c #EDA64C",
"k&	c #FFB361",
"l&	c #FDAC6A",
"m&	c #AD5C2D",
"n&	c #843306",
"o&	c #DD8848",
"p&	c #DB8D4D",
"q&	c #8D5323",
"r&	c #6B4727",
"s&	c #E1D4C1",
"t&	c #B79F7B",
"u&	c #886731",
"v&	c #8D6520",
"w&	c #C39547",
"x&	c #F8C46E",
"y&	c #E8A64F",
"z&	c #F4A74F",
"A&	c #FAA44D",
"B&	c #FAA249",
"C&	c #F7AE4F",
"D&	c #F2AB4F",
"E&	c #F3AC50",
"F&	c #F5A84E",
"G&	c #F4A34A",
"H&	c #F9A54D",
"I&	c #F7A34D",
"J&	c #FFB15E",
"K&	c #E3934C",
"L&	c #A54F1E",
"M&	c #AA5628",
"N&	c #B86931",
"O&	c #AF692E",
"P&	c #8C4C1E",
"Q&	c #78471F",
"R&	c #997A5B",
"S&	c #D0C0A9",
"T&	c #FCECDC",
"U&	c #A68A74",
"V&	c #B58F6B",
"W&	c #A77A41",
"X&	c #A5702C",
"Y&	c #FAB771",
"Z&	c #F3A95E",
"`&	c #FEAB5B",
" *	c #F8A650",
".*	c #F3AA4C",
"+*	c #EEA94C",
"@*	c #F7B159",
"#*	c #F0A853",
"$*	c #F4A852",
"%*	c #FFB15F",
"&*	c #FCA85F",
"**	c #FFAB65",
"=*	c #D3803C",
"-*	c #B26026",
";*	c #95411D",
">*	c #994928",
",*	c #914D1E",
"'*	c #9E6839",
")*	c #B48B6D",
"!*	c #A58A75",
"~*	c #D9CDBD",
"{*	c #DBB8A5",
"]*	c #8E6046",
"^*	c #BD8264",
"/*	c #C38353",
"(*	c #D89348",
"_*	c #FCB259",
":*	c #F3A34C",
"<*	c #FBA955",
"[*	c #F9A857",
"}*	c #FAAD5B",
"|*	c #F8B157",
"1*	c #DE9747",
"2*	c #CB824B",
"3*	c #DA8D61",
"4*	c #A0501F",
"5*	c #914313",
"6*	c #A55C33",
"7*	c #A16040",
"8*	c #8C5C46",
"9*	c #A78778",
"0*	c #FFE0DD",
"a*	c #734C45",
"b*	c #71432B",
"c*	c #9B682F",
"d*	c #DDA35A",
"e*	c #E7A35C",
"f*	c #E49B57",
"g*	c #DE965B",
"h*	c #DA985B",
"i*	c #DEA35D",
"j*	c #A76D2E",
"k*	c #692D08",
"l*	c #6F2F13",
"m*	c #975533",
"n*	c #A1623F",
"o*	c #865131",
"p*	c #673E28",
"q*	c #D1B2AF",
"r*	c #D0B598",
"s*	c #5C3911",
"t*	c #80552B",
"u*	c #774A23",
"v*	c #72492B",
"w*	c #654025",
"x*	c #674023",
"y*	c #693F26",
"z*	c #71442F",
"A*	c #5E341C",
"B*	c #9B7B66",
"C*	c #F1D9C1",
"D*	c #FCDDC1",
"E*	c #F6D8BE",
"F*	c #F1D7C8",
"G*	c #F1D9CD",
"H*	c #F5D8D2",
"I*	c #F7D6CD",
"J*	c #F8D4C6",
"K*	c #F8D5C2",
"L*	c #F1D4C2",
"M*	c #FBE9DB",
"                                                                ",
"                  . + @ # $ % & * = - ; > , '                   ",
"              ) ! ~ { ] ^ / ( _ : < [ } | 1 2 3 4               ",
"            5 6 7 8 9 0 a b c d e f g h i j k l m   n           ",
"      o p q r s t u v w x y z A B C D E F G H I J K L M N       ",
"    O P Q R S T U V W X Y Z `  ...+.@.#.$.%.&.*.=.-.;.>.,.'.    ",
"    ).!.~.{.].^./.(._.:.<.[.}.|.1.2.3.4.5.6.7.8.9.0.a.b.c.d.e.  ",
"    f.g.h.i.j.k.l.m.n.o.p.q.r.s.t.u.v.w.x.y.z.A.B.C.D.E.F.G.H.  ",
"  I.J.K.L.M.N.O.P.Q.R.S.T.U.V.W.X.Y.Z.`. +.+++@+#+$+E.%+&+*+    ",
"=+-+;+>+,+'+)+!+~+{+]+^+/+(+_+:+<+[+}+|+1+2+3+4+5+6+7+8+9+0+a+b+",
"c+d+e+f+g+3+h+i+j+k+l+l+m+n+o+p+q+r+s+t+u+v+w+x+y+..z+A+B+C+D+E+",
"F+G+H+I+J+K+L+M+N+O+P+Q+R+S+T+U+V+W+X+Y+T.Z+`+ @.@+@@@#@$@%@&@*@",
"=@-@;@>@,@'@)@!@~@{@]@^@/@(@_@:@<@[@}@|@1@2@3@4@5@6@7@8@9@0@a@b@",
"c@d@e@f@g@h@i@j@k@l@m@n@o@p@q@r@s@t@u@v@w@x@y@z@A@B@C@D@E@F@G@H@",
"I@J@K@L@M@N@O@P@T+Q@R@S@T@U@V@W@X@Y@Z@`@ #.#+#@###$#%#&#*#=#-#;#",
">#,#'#)#!#~#{#]#^#/#(#_#:#<#[#}#|#1#2#3#4#5#6#7#8#9#0#a#b#c#d#e#",
"f#g#h#i#j#k#l#m#n#o#p#q#r#s#t#u#v#w#x#y#z#A#B#C#D#E#F#G#H#I#J#K#",
"  L#M#N#O#P#Q#R#S#T#U#V#W#`+y.X#Y#Z#`# $.$+$@$#$$$%$&$*$=$-$;$>$",
"  ,$'$)$!$~${$]$^$(#/$($_$:$<$[$}$|$1$2$3$4$5$6$7$F@8$9$0$a$b$c$",
"  d$e$f$g$h$i$j$k$l$m$n$o$p$q$q$r$s$t$u$v$w$x$y$z$A$B$C$D$E$F$G$",
"  H$I$J$K$)+L$M$N$O$P$Q$R$S$T$`+U$x.V$W$X$Y$Z$`$ %.%+%@%#%$%%%&%",
"  *%=%-%;%>%,%'%)%!%~%{%]%^%/%(%_%:%<%[%}%|%1%2%3%4%5%6%7%8%9%0%",
"  a%b%c%d%e%f%g%h%i%j%k%l%m%n%o%p%q%r%s%t%u%v%w%x%y%z%    A%B%C%",
"    D%E%F%G%H%I%J%K%L%M%N%O%P%Q%R%S%T%U%V%W%X%Y%Z%`%     &.&+&  ",
"    @&#&$&%&&&*&=&-&;&>&,&'&)&!&~&{&]&^&/&(&_&:&<&[&    }&|&1&  ",
"    2&3&4&5&6&7&8&9&0&a&b&c&m$d&e&f&g&h&i&j&k&l&m&n&o&p&q&r&    ",
"    s&t&u&v&w&x&y&z&A&B&1%C&D&E&F&G&H&I&J&K&L&M&N&O&P&Q&R&S&    ",
"      T&U&V&W&X&Y&Z&`& *.*+*@*#*$*%*&***=*-*;*>*,*'*)*!*~*      ",
"            {*]*^*/*(*_*:*<*[*}*|*1*2*3*4*5*6*7*8*9*            ",
"              0*a*b*c*d*e*f*g*h*i*j*k*l*m*n*o*p*q*              ",
"                    r*s*t*u*v*w*x*y*z*z*A*B*                    ",
"                      C*D*E*F*G*H*I*J*K*L*M*                    "};
