/* XPM */
static char * coins_3_xpm[] = {
"32 32 774 2",
"  	c #C8A2C8",
". 	c #BEB39F",
"+ 	c #A79B81",
"@ 	c #B0A184",
"# 	c #B69782",
"$ 	c #B3937E",
"% 	c #D9BDA7",
"& 	c #DABCA4",
"* 	c #DBB69B",
"= 	c #DCB69F",
"- 	c #DCBCB1",
"; 	c #E0CDBF",
"> 	c #D6B7A3",
", 	c #EFC7AE",
"' 	c #E8C1A4",
") 	c #D0B194",
"! 	c #8F7449",
"~ 	c #7C5E22",
"{ 	c #85631C",
"] 	c #936622",
"^ 	c #915B1D",
"/ 	c #824516",
"( 	c #97562C",
"_ 	c #914E23",
": 	c #8E4D25",
"< 	c #9A5B38",
"[ 	c #F7BF9C",
"} 	c #FFCBA3",
"| 	c #E9C0A0",
"1 	c #FFF9E5",
"2 	c #F9E5CA",
"3 	c #9F7D57",
"4 	c #6E4213",
"5 	c #AD7748",
"6 	c #9C6433",
"7 	c #75430E",
"8 	c #E8BB7A",
"9 	c #FFD883",
"0 	c #FFCF72",
"a 	c #FFCD73",
"b 	c #FFC370",
"c 	c #A35513",
"d 	c #944407",
"e 	c #934105",
"f 	c #904005",
"g 	c #9E511B",
"h 	c #A55E26",
"i 	c #A56327",
"j 	c #B47F49",
"k 	c #EDC9A7",
"l 	c #FFF9DE",
"m 	c #EACC9A",
"n 	c #946F29",
"o 	c #DDB05D",
"p 	c #FFCE78",
"q 	c #FFCD7D",
"r 	c #F9B667",
"s 	c #F0AD5C",
"t 	c #E9A951",
"u 	c #EAB04C",
"v 	c #E6AB47",
"w 	c #F3AC54",
"x 	c #F2A553",
"y 	c #F2A555",
"z 	c #F1A454",
"A 	c #F8A557",
"B 	c #F9A75B",
"C 	c #E69951",
"D 	c #763300",
"E 	c #C58A44",
"F 	c #FDCB86",
"G 	c #A77A39",
"H 	c #B28856",
"I 	c #FFF8E1",
"J 	c #B78F5E",
"K 	c #C4964B",
"L 	c #F8C569",
"M 	c #EDB852",
"N 	c #F0B54D",
"O 	c #F2B050",
"P 	c #FBB254",
"Q 	c #F9AA4D",
"R 	c #F6AA48",
"S 	c #ECA740",
"T 	c #F0AB46",
"U 	c #F7AA52",
"V 	c #F5A452",
"W 	c #F5A953",
"X 	c #F8AD52",
"Y 	c #F5A54C",
"Z 	c #FBAB54",
"` 	c #ECA24B",
" .	c #E5A34D",
"..	c #AE7820",
"+.	c #784600",
"@.	c #EDB868",
"#.	c #EAB56F",
"$.	c #A6783D",
"%.	c #A67C4A",
"&.	c #A98257",
"*.	c #E4C5B0",
"=.	c #B8854C",
"-.	c #E6A958",
";.	c #EFB255",
">.	c #F7BC58",
",.	c #F2B352",
"'.	c #EEAE4D",
").	c #F5B051",
"!.	c #EEA547",
"~.	c #F9A84D",
"{.	c #FCA94D",
"].	c #FFB153",
"^.	c #FFAE52",
"/.	c #FCB05A",
"(.	c #F6AC53",
"_.	c #EAA145",
":.	c #FBB055",
"<.	c #F3A84B",
"[.	c #F5AC4D",
"}.	c #EDAC46",
"|.	c #E1AD3F",
"1.	c #D5A43D",
"2.	c #B07728",
"3.	c #BF873A",
"4.	c #E3B555",
"5.	c #E4B953",
"6.	c #E6B056",
"7.	c #BF8D4E",
"8.	c #DBBBA6",
"9.	c #D2B192",
"0.	c #965A11",
"a.	c #FFC661",
"b.	c #FFC75E",
"c.	c #EAA941",
"d.	c #F5B055",
"e.	c #EDA84B",
"f.	c #F8AF53",
"g.	c #FFAC54",
"h.	c #E28A33",
"i.	c #D98026",
"j.	c #DC842B",
"k.	c #CE8129",
"l.	c #CE842D",
"m.	c #F1A84C",
"n.	c #FBB256",
"o.	c #EFA94A",
"p.	c #F0AB4E",
"q.	c #EFB053",
"r.	c #F5BB57",
"s.	c #FDC959",
"t.	c #FFD76F",
"u.	c #894E00",
"v.	c #975F0A",
"w.	c #FFDA63",
"x.	c #FFD757",
"y.	c #FFC957",
"z.	c #A96C19",
"A.	c #BE9776",
"B.	c #D4B799",
"C.	c #A76C20",
"D.	c #FFC058",
"E.	c #FFC355",
"F.	c #EDAD43",
"G.	c #F2AB4F",
"H.	c #F2AA55",
"I.	c #F6B156",
"J.	c #F0A44C",
"K.	c #E18B36",
"L.	c #D67A27",
"M.	c #CF711A",
"N.	c #CB7119",
"O.	c #D4842D",
"P.	c #D98D35",
"Q.	c #E1943A",
"R.	c #EBA043",
"S.	c #F1AC4F",
"T.	c #E5AA50",
"U.	c #E4B565",
"V.	c #FFDC8A",
"W.	c #FFD67A",
"X.	c #FFC96F",
"Y.	c #9A5D0D",
"Z.	c #AA7117",
"`.	c #FFD65E",
" +	c #FFD04F",
".+	c #FFCA52",
"++	c #AD6D13",
"@+	c #CCA377",
"#+	c #D7BE9F",
"$+	c #AE7830",
"%+	c #FFBE5D",
"&+	c #FFC559",
"*+	c #EAA73C",
"=+	c #F9AE51",
"-+	c #F5A752",
";+	c #EFA54E",
">+	c #D68833",
",+	c #C16816",
"'+	c #E68A35",
")+	c #F79C43",
"!+	c #E99235",
"~+	c #FFB154",
"{+	c #FFC566",
"]+	c #DE9232",
"^+	c #DB9331",
"/+	c #E7A544",
"(+	c #EAB75E",
"_+	c #EBCA87",
":+	c #FFFCBC",
"<+	c #FFDF91",
"[+	c #FABF6F",
"}+	c #B3742D",
"|+	c #BA7D2D",
"1+	c #FFCB5E",
"2+	c #FFCA51",
"3+	c #FFB949",
"4+	c #B2721B",
"5+	c #CA9F74",
"6+	c #C0AC89",
"7+	c #855419",
"8+	c #F9BB68",
"9+	c #FFC560",
"0+	c #F2AE43",
"a+	c #F5A242",
"b+	c #F39D46",
"c+	c #BA6918",
"d+	c #D17E2E",
"e+	c #EE9543",
"f+	c #ED953C",
"g+	c #E39332",
"h+	c #E29731",
"i+	c #DF962F",
"j+	c #DF9830",
"k+	c #FFCC61",
"l+	c #F0B044",
"m+	c #C6871E",
"n+	c #FECC77",
"o+	c #FFF7C5",
"p+	c #FFFBCE",
"q+	c #FBD189",
"r+	c #E2AA60",
"s+	c #7F410E",
"t+	c #94511C",
"u+	c #F5AF5A",
"v+	c #F1A746",
"w+	c #F4A94C",
"x+	c #B37029",
"y+	c #D1A483",
"z+	c #B39F7E",
"A+	c #673600",
"B+	c #F2B366",
"C+	c #FFC665",
"D+	c #F6B14A",
"E+	c #DB8224",
"F+	c #C96B13",
"G+	c #E9933E",
"H+	c #EA9542",
"I+	c #E38D3A",
"J+	c #E8943A",
"K+	c #E49836",
"L+	c #DD962E",
"M+	c #E39C32",
"N+	c #DC982B",
"O+	c #D79525",
"P+	c #EBAC3B",
"Q+	c #FFCA58",
"R+	c #D19C3E",
"S+	c #BA9963",
"T+	c #FFFBCC",
"U+	c #FFD28B",
"V+	c #DEA15E",
"W+	c #874920",
"X+	c #935025",
"Y+	c #FDAF65",
"Z+	c #F7A64D",
"`+	c #AA6927",
" @	c #CDA186",
".@	c #CCAE92",
"+@	c #9C6022",
"@@	c #FFBF6D",
"#@	c #FFC76A",
"$@	c #EAA444",
"%@	c #DC7D23",
"&@	c #CA650B",
"*@	c #E78D2D",
"=@	c #EC993B",
"-@	c #E5953E",
";@	c #E1943C",
">@	c #E09436",
",@	c #E29835",
"'@	c #E6A13A",
")@	c #DF9A32",
"!@	c #DC952B",
"~@	c #F4AE3E",
"{@	c #FFCD52",
"]@	c #D59825",
"^@	c #C48B34",
"/@	c #F9BB72",
"(@	c #F1A75C",
"_@	c #F8AE6D",
":@	c #7E4017",
"<@	c #925327",
"[@	c #F5AC5D",
"}@	c #FBAC4D",
"|@	c #F3A447",
"1@	c #AD6A24",
"2@	c #C9A084",
"3@	c #C09C82",
"4@	c #884405",
"5@	c #F1A350",
"6@	c #FAB75C",
"7@	c #F7AE50",
"8@	c #DE7E28",
"9@	c #C9640C",
"0@	c #EE9634",
"a@	c #E1912E",
"b@	c #E6993F",
"c@	c #E2953D",
"d@	c #E5943B",
"e@	c #E7983B",
"f@	c #D98F2C",
"g@	c #DD952F",
"h@	c #DD922C",
"i@	c #EEA637",
"j@	c #FFD558",
"k@	c #DB9D22",
"l@	c #C87F18",
"m@	c #F0A145",
"n@	c #F8A652",
"o@	c #F4A560",
"p@	c #884614",
"q@	c #9E6027",
"r@	c #FFC565",
"s@	c #FFC356",
"t@	c #F7B352",
"u@	c #8C510B",
"v@	c #B08D71",
"w@	c #C69C84",
"x@	c #8A3F05",
"y@	c #EE9948",
"z@	c #F1A84A",
"A@	c #FAAF52",
"B@	c #D97A28",
"C@	c #CA6918",
"D@	c #E59234",
"E@	c #E89A38",
"F@	c #E59236",
"G@	c #EA953B",
"H@	c #EB933C",
"I@	c #E58F38",
"J@	c #EC993D",
"K@	c #E79734",
"L@	c #DF922A",
"M@	c #F1AD3E",
"N@	c #FFD45E",
"O@	c #D09922",
"P@	c #D58B1E",
"Q@	c #FEAC48",
"R@	c #F7AB4D",
"S@	c #F3AB57",
"T@	c #AD6322",
"U@	c #AE6B1C",
"V@	c #FFD358",
"W@	c #FFD754",
"X@	c #F9C764",
"Y@	c #603700",
"Z@	c #997F64",
"`@	c #D8AC93",
" #	c #B4682E",
".#	c #F8A24F",
"+#	c #F5AD4B",
"@#	c #F6AC49",
"##	c #D87E28",
"$#	c #C16510",
"%#	c #E79738",
"&#	c #E19331",
"*#	c #EA953A",
"=#	c #E99138",
"-#	c #E9903E",
";#	c #EA943F",
">#	c #E78F35",
",#	c #E99533",
"'#	c #E1922B",
")#	c #EDA93A",
"!#	c #FFD05A",
"~#	c #D39C27",
"{#	c #D18418",
"]#	c #F8A441",
"^#	c #F7AD4E",
"/#	c #F4AE58",
"(#	c #AE6520",
"_#	c #BF7F28",
":#	c #FFD550",
"<#	c #FFD44A",
"[#	c #F3C862",
"}#	c #744E0D",
"|#	c #A78E70",
"1#	c #D7AC8A",
"2#	c #B26328",
"3#	c #F39D4A",
"4#	c #F1AE46",
"5#	c #F9B54A",
"6#	c #DA8322",
"7#	c #C96C0D",
"8#	c #E6922F",
"9#	c #E69431",
"0#	c #EA963C",
"a#	c #E6913E",
"b#	c #E49143",
"c#	c #E69442",
"d#	c #E79436",
"e#	c #E89632",
"f#	c #E59830",
"g#	c #F0AA3A",
"h#	c #FFCF56",
"i#	c #DC9B23",
"j#	c #D68722",
"k#	c #F1A34E",
"l#	c #F3AB5F",
"m#	c #7E4102",
"n#	c #945F11",
"o#	c #FFD953",
"p#	c #FAC960",
"q#	c #9D6E28",
"r#	c #C29F81",
"s#	c #D8B28E",
"t#	c #A45C21",
"u#	c #F0B648",
"v#	c #FFD15D",
"w#	c #EA992E",
"x#	c #D27913",
"y#	c #EC9631",
"z#	c #E29136",
"A#	c #E49641",
"B#	c #E29642",
"C#	c #DC903A",
"D#	c #EA9834",
"E#	c #F0A63D",
"F#	c #FBB847",
"G#	c #FFD256",
"H#	c #D9971F",
"I#	c #D68824",
"J#	c #F7A954",
"K#	c #EDA85B",
"L#	c #83460F",
"M#	c #905B17",
"N#	c #FFD669",
"O#	c #F3BB5A",
"P#	c #6F3C00",
"Q#	c #A68166",
"R#	c #B7987B",
"S#	c #743901",
"T#	c #F6B65F",
"U#	c #FCCF5A",
"V#	c #FFD95C",
"W#	c #E29626",
"X#	c #DC851E",
"Y#	c #EA9332",
"Z#	c #EA9739",
"`#	c #E09A3A",
" $	c #DD9839",
".$	c #DF993A",
"+$	c #F1A044",
"@$	c #F7A748",
"#$	c #EDA840",
"$$	c #F9BC49",
"%$	c #FFD357",
"&$	c #CF8E18",
"*$	c #C37A14",
"=$	c #F5A94B",
"-$	c #F0A748",
";$	c #EDA956",
">$	c #8B4915",
",$	c #904F19",
"'$	c #FBB55D",
")$	c #F3AE4F",
"!$	c #ECA85D",
"~$	c #693402",
"{$	c #9C806A",
"]$	c #AE937E",
"^$	c #602D00",
"/$	c #F5BD68",
"($	c #FFD761",
"_$	c #FFD85A",
":$	c #DA8E1E",
"<$	c #C9700C",
"[$	c #E99036",
"}$	c #E9943A",
"|$	c #E19537",
"1$	c #DF9A35",
"2$	c #DD9E37",
"3$	c #EAA643",
"4$	c #F6A64D",
"5$	c #F9AA4E",
"6$	c #ECAB43",
"7$	c #F9C04F",
"8$	c #FFCD57",
"9$	c #D49221",
"0$	c #CA7E1C",
"a$	c #F1A545",
"b$	c #F4AC48",
"c$	c #F0AA55",
"d$	c #884211",
"e$	c #9A5124",
"f$	c #FAAC62",
"g$	c #F4A556",
"h$	c #E8A161",
"i$	c #703B11",
"j$	c #9A846F",
"k$	c #B39B8F",
"l$	c #633305",
"m$	c #F2BB69",
"n$	c #FACF5C",
"o$	c #F9C349",
"p$	c #D8851D",
"q$	c #C25F04",
"r$	c #F79443",
"s$	c #EF9040",
"t$	c #E69337",
"u$	c #E09633",
"v$	c #DD9D33",
"w$	c #EEAD47",
"x$	c #F3A74F",
"y$	c #F9AD57",
"z$	c #E9A947",
"A$	c #F8BD55",
"B$	c #FFD86E",
"C$	c #D38B25",
"D$	c #C9791A",
"E$	c #F7A448",
"F$	c #F5A949",
"G$	c #F1A955",
"H$	c #88400E",
"I$	c #9C5225",
"J$	c #FAAA65",
"K$	c #F8AA60",
"L$	c #E6A064",
"M$	c #673409",
"N$	c #937E6D",
"O$	c #AD978A",
"P$	c #5F3100",
"Q$	c #F1BD6A",
"R$	c #F9CB5B",
"S$	c #E4AB37",
"T$	c #E28E2C",
"U$	c #E17E2B",
"V$	c #DD792E",
"W$	c #E8883C",
"X$	c #E89D37",
"Y$	c #E0A034",
"Z$	c #F2B349",
"`$	c #F4AE4E",
" %	c #F3AE51",
".%	c #FABB5A",
"+%	c #F0B04F",
"@%	c #E7A141",
"#%	c #D98A2D",
"$%	c #D88027",
"%%	c #FFA950",
"&%	c #F1A957",
"*%	c #89420E",
"=%	c #9A5021",
"-%	c #F9A964",
";%	c #F6A75C",
">%	c #ECA565",
",%	c #693506",
"'%	c #998270",
")%	c #B09C84",
"!%	c #623500",
"~%	c #F3BD65",
"{%	c #FACA5C",
"]%	c #E8AE40",
"^%	c #F9A950",
"/%	c #FAA052",
"(%	c #CA6F26",
"_%	c #D78031",
":%	c #D8872B",
"<%	c #F6AD44",
"[%	c #F8B947",
"}%	c #F9BE48",
"|%	c #F3B844",
"1%	c #EBAF41",
"2%	c #F8B857",
"3%	c #E39D45",
"4%	c #B56810",
"5%	c #F6A04B",
"6%	c #FFA852",
"7%	c #FDA54E",
"8%	c #FAAD53",
"9%	c #EFA858",
"0%	c #864108",
"a%	c #9C531C",
"b%	c #F7A559",
"c%	c #F4A24E",
"d%	c #E79B50",
"e%	c #723602",
"f%	c #A2836F",
"g%	c #B69C81",
"h%	c #603200",
"i%	c #F5BD66",
"j%	c #FEC95F",
"k%	c #E6AC41",
"l%	c #F9AD55",
"m%	c #F9A656",
"n%	c #FFAD5F",
"o%	c #DE8C3A",
"p%	c #BC6B0F",
"q%	c #FCAE4A",
"r%	c #FFCB5F",
"s%	c #FFBF4F",
"t%	c #FFC251",
"u%	c #BA7516",
"v%	c #D0862F",
"w%	c #FFAD57",
"x%	c #FAA44F",
"y%	c #FDA450",
"z%	c #FAA64E",
"A%	c #F1AB4C",
"B%	c #EDAB57",
"C%	c #8D480F",
"D%	c #91460F",
"E%	c #CE7929",
"F%	c #D77E2A",
"G%	c #CC7A31",
"H%	c #703100",
"I%	c #A4816E",
"J%	c #734009",
"K%	c #F2B767",
"L%	c #FEC762",
"M%	c #E8AB41",
"N%	c #F1A849",
"O%	c #F9AC52",
"P%	c #F9A753",
"Q%	c #FAA552",
"R%	c #FAA24B",
"S%	c #D57D24",
"T%	c #C36B12",
"U%	c #C46F15",
"V%	c #C47318",
"W%	c #F9A84C",
"X%	c #FAA74B",
"Y%	c #F6A44E",
"Z%	c #F6AB50",
"`%	c #EAAA46",
" &	c #EAAD54",
".&	c #8B460F",
"+&	c #914110",
"@&	c #C76921",
"#&	c #C8681C",
"$&	c #C16B2E",
"%&	c #733006",
"&&	c #A78373",
"*&	c #B08F7C",
"=&	c #522700",
"-&	c #F8C785",
";&	c #FFD279",
">&	c #E3AC47",
",&	c #EFAE4A",
"'&	c #F8AB51",
")&	c #FDAB55",
"!&	c #F19844",
"~&	c #EB9240",
"{&	c #F29748",
"]&	c #F29649",
"^&	c #EF9646",
"/&	c #F6A74B",
"(&	c #F4A848",
"_&	c #FAAB4C",
":&	c #E5AA46",
"<&	c #F4B661",
"[&	c #8A430F",
"}&	c #89370F",
"|&	c #CB723A",
"1&	c #C76E34",
"2&	c #B06335",
"3&	c #612908",
"4&	c #94766B",
"5&	c #E4D5CE",
"6&	c #BBA58E",
"7&	c #8E7145",
"8&	c #A7853D",
"9&	c #F9CD74",
"0&	c #F1BA56",
"a&	c #ECAB47",
"b&	c #F6AD51",
"c&	c #F6A951",
"d&	c #FBAE54",
"e&	c #F7AA50",
"f&	c #FCAF55",
"g&	c #FEA85D",
"h&	c #FDA858",
"i&	c #FBAA4E",
"j&	c #F9AB49",
"k&	c #EBA448",
"l&	c #F1AC4D",
"m&	c #FFCD6F",
"n&	c #D89640",
"o&	c #97530C",
"p&	c #AA602F",
"q&	c #9B512C",
"r&	c #803717",
"s&	c #803F21",
"t&	c #7D4C2E",
"u&	c #C09D87",
"v&	c #DCCBC4",
"w&	c #A99980",
"x&	c #9E8755",
"y&	c #B4914D",
"z&	c #E7B765",
"A&	c #FDC16B",
"B&	c #F2AE5D",
"C&	c #F7B060",
"D&	c #F0AD56",
"E&	c #EBAB47",
"F&	c #EAA847",
"G&	c #F1AA52",
"H&	c #F2A652",
"I&	c #F2AE5B",
"J&	c #FFC26F",
"K&	c #F3B761",
"L&	c #C88B3A",
"M&	c #B4742C",
"N&	c #9A581E",
"O&	c #914D28",
"P&	c #92543B",
"Q&	c #BF8C7B",
"R&	c #A88172",
"S&	c #AA9081",
"T&	c #F0DCC4",
"U&	c #7C5C36",
"V&	c #BB905D",
"W&	c #D8A46A",
"X&	c #C78A51",
"Y&	c #C88B4C",
"Z&	c #C58C3D",
"`&	c #F7C556",
" *	c #F2BF4C",
".*	c #F5BC51",
"+*	c #F1B253",
"@*	c #D79247",
"#*	c #D08B48",
"$*	c #C78B45",
"%*	c #DCA564",
"&*	c #CE975E",
"**	c #622D00",
"=*	c #864D16",
"-*	c #B2794E",
";*	c #8D5846",
">*	c #B28780",
",*	c #9F8167",
"'*	c #694525",
")*	c #7F5432",
"!*	c #85582E",
"~*	c #6E4408",
"{*	c #7A400E",
"]*	c #6A2F05",
"^*	c #6E3A0A",
"/*	c #623305",
"(*	c #633615",
"_*	c #7D5436",
":*	c #79512E",
"<*	c #6D482E",
"[*	c #FEDBD7",
"}*	c #9B7C5D",
"|*	c #74512B",
"1*	c #714925",
"2*	c #6E4525",
"3*	c #6D432A",
"4*	c #6F4634",
"5*	c #643B29",
"6*	c #724832",
"7*	c #643E29",
"8*	c #735346",
"9*	c #FFEADF",
"                                                                ",
"                      . + @ # $ % & * = -                       ",
"            ; > , ' ) ! ~ { ] ^ / ( _ : < [ } |                 ",
"        1 2 3 4 5 6 7 8 9 0 a b c d e f g h i j k               ",
"      l m n o p q r s t u v w x y z A B C D E F G H             ",
"    I J K L M N O P Q R S T U V W X Y Z `  ...+.@.#.$.%.&.      ",
"  *.=.-.;.>.,.'.).!.~.{.].^.U /.(._.:.<.[.}.|.1.2.3.4.5.6.7.8.  ",
"  9.0.a.b.c.).d.e.f.g.h.i.j.k.l.m.n.o.p.q.r.s.t.u.v.w.x.y.z.A.  ",
"  B.C.D.E.F.G.H.I.J.K.L.M.N.O.P.Q.R.S.T.U.V.W.X.Y.Z.`. +.+++@+  ",
"  #+$+%+&+*+=+-+;+>+,+'+)+!+~+{+]+^+/+(+_+:+<+[+}+|+1+2+3+4+5+  ",
"  6+7+8+9+0+a+b+c+d+e+f+g+h+i+j+k+l+m+n+o+p+q+r+s+t+u+v+w+x+y+  ",
"  z+A+B+C+D+E+F+G+H+I+J+K+L+M+N+O+P+Q+R+S+T+U+V+W+X+Y+Z+U `+ @  ",
"  .@+@@@#@$@%@&@*@=@-@;@>@,@'@)@!@~@{@]@^@/@(@_@:@<@[@}@|@1@2@  ",
"  3@4@5@6@7@8@9@0@a@b@c@d@e@f@g@h@i@j@k@l@m@n@o@p@q@r@s@t@u@v@  ",
"  w@x@y@z@A@B@C@D@E@F@G@H@I@J@K@L@M@N@O@P@Q@R@S@T@U@V@W@X@Y@Z@  ",
"  `@ #.#+#@###$#%#&#*#=#-#;#>#,#'#)#!#~#{#]#^#/#(#_#:#<#[#}#|#  ",
"  1#2#3#4#5#6#7#8#9#0#a#b#c#d#e#f#g#h#i#j#^.k#l#m#n#j@o#p#q#r#  ",
"  s#t#k#u#v#w#x#y#9#z#A#B#C#D@D#E#F#G#H#I#Z+J#K#L#M#N#N@O#P#Q#  ",
"  R#S#T#U#V#W#X#Y#Z#>@`# $.$+$@$#$$$%$&$*$=$-$;$>$,$'$)$!$~${$  ",
"  ]$^$/$($_$:$<$[$}$|$1$2$3$4$5$6$7$8$9$0$a$b$c$d$e$f$g$h$i$j$  ",
"  k$l$m$n$o$p$q$r$s$t$u$v$w$x$y$z$A$B$C$D$E$F$G$H$I$J$K$L$M$N$  ",
"  O$P$Q$R$S$T$U$V$W$*#X$Y$Z$`$ %.%+%@%#%$%%%|@&%*%=%-%;%>%,%'%  ",
"  )%!%~%{%]%^%/%(%_%:%<%[%}%|%1%2%3%4%5%6%7%8%9%0%a%b%c%d%e%f%  ",
"  g%h%i%j%k%l%m%n%o%p%q%r%s%t%&+u%v%w%x%y%z%A%B%C%D%E%F%G%H%I%  ",
"  3@J%K%L%M%N%O%P%Q%R%S%T%U%U%V%R.w+W%X%Y%Z%`% &.&+&@&#&$&%&&&  ",
"  *&=&-&;&>&,&N%'&)&x%!&~&{&]&^&/&(&_&R@Z%p.:&<&[&}&|&1&2&3&4&  ",
"  5&6&7&8&9&0&a&b&c&d&e&f&Z g&h&i&j&<.k&l&m&n&o&p&q&r&s&t&u&v&  ",
"      w&x&y&z&A&B&C&D&  E&F&G&H&c&l%I&J&K&L&M&N&O&P&Q&R&S&      ",
"        T&U&V&W&X&Y&Z&  `& *.*+*@*#*$*%*&***=*-*;*>*            ",
"            ,*'*)*!*~*          {*]*^*/*(*_*:*<*[*              ",
"                      }*|*1*2*3*4*5*6*7*8*9*                    ",
"                                                                "};
