/* XPM */
static char * coins_2_xpm[] = {
"32 32 765 2",
"  	c #C8A2C8",
". 	c #FFEED2",
"+ 	c #B6977A",
"@ 	c #9B6E5B",
"# 	c #B88B78",
"$ 	c #BB9C80",
"% 	c #836B49",
"& 	c #87734E",
"* 	c #89734E",
"= 	c #8D6E52",
"- 	c #886C56",
"; 	c #7A6B56",
"> 	c #DDD2C0",
", 	c #EEC6AC",
"' 	c #D7A479",
") 	c #D8A76C",
"! 	c #DAA265",
"~ 	c #A15726",
"{ 	c #7F3908",
"] 	c #7F5316",
"^ 	c #A7853D",
"/ 	c #A68131",
"( 	c #A47B29",
"_ 	c #AE8032",
": 	c #B1823A",
"< 	c #A57D40",
"[ 	c #AE8655",
"} 	c #B58966",
"| 	c #BD9981",
"1 	c #EDCEB2",
"2 	c #CA956D",
"3 	c #C58650",
"4 	c #C48A40",
"5 	c #DD9E4E",
"6 	c #E19348",
"7 	c #BE7226",
"8 	c #B57D26",
"9 	c #FFD174",
"0 	c #FFCF6D",
"a 	c #FFCF68",
"b 	c #FFCD68",
"c 	c #FFC768",
"d 	c #FFD483",
"e 	c #B57835",
"f 	c #82430E",
"g 	c #96653D",
"h 	c #CFB59C",
"i 	c #F9DBB5",
"j 	c #FFDAA4",
"k 	c #B38047",
"l 	c #DBA16F",
"m 	c #FFC38D",
"n 	c #D8A25A",
"o 	c #834D00",
"p 	c #E8AE4A",
"q 	c #FFD46A",
"r 	c #FFC75F",
"s 	c #E8A43F",
"t 	c #EFA94A",
"u 	c #E9A344",
"v 	c #F7AD4C",
"w 	c #EEA445",
"x 	c #E99D49",
"y 	c #F8AE63",
"z 	c #FFB876",
"A 	c #E1A46E",
"B 	c #693E13",
"C 	c #D3B497",
"D 	c #FFE5D7",
"E 	c #F4E1DB",
"F 	c #C2A374",
"G 	c #99712C",
"H 	c #B68135",
"I 	c #FFC57A",
"J 	c #A86B2A",
"K 	c #692E00",
"L 	c #90600E",
"M 	c #F9CB6B",
"N 	c #E6B445",
"O 	c #E4A836",
"P 	c #F6B041",
"Q 	c #FAAC47",
"R 	c #F9AC50",
"S 	c #F4A74F",
"T 	c #FAA94E",
"U 	c #FEAD51",
"V 	c #F7A64A",
"W 	c #F1A859",
"X 	c #E9A65F",
"Y 	c #ECB273",
"Z 	c #8B5926",
"` 	c #5E310A",
" .	c #846247",
"..	c #AC875B",
"+.	c #CBA64E",
"@.	c #FDD069",
"#.	c #EEB55E",
"$.	c #A56412",
"%.	c #DC9A44",
"&.	c #FBC064",
"*.	c #E9BC55",
"=.	c #E2B64B",
"-.	c #EEB449",
";.	c #F2AF47",
">.	c #F0A842",
",.	c #F4AA49",
"'.	c #F4A850",
").	c #FAAC59",
"!.	c #F8AA55",
"~.	c #F4A549",
"{.	c #FFB14C",
"].	c #F4AB44",
"^.	c #F2AC4C",
"/.	c #F0AD54",
"(.	c #EDA956",
"_.	c #E5A357",
":.	c #DC9D5A",
"<.	c #C79564",
"[.	c #72583D",
"}.	c #E7DAD1",
"|.	c #AF8650",
"1.	c #DCB24E",
"2.	c #FFD765",
"3.	c #FBC364",
"4.	c #D29032",
"5.	c #FFC562",
"6.	c #E9B94D",
"7.	c #E4B146",
"8.	c #EEAD49",
"9.	c #FAB051",
"0.	c #F9AA4E",
"a.	c #FDAD56",
"b.	c #D08029",
"c.	c #CA7C27",
"d.	c #C97B26",
"e.	c #DC9032",
"f.	c #F7A93C",
"g.	c #FBAF3F",
"h.	c #F4AD45",
"i.	c #F0AA4A",
"j.	c #F6AB4E",
"k.	c #F5AB54",
"l.	c #FBB263",
"m.	c #D19557",
"n.	c #613D1D",
"o.	c #EBD7CC",
"p.	c #845E31",
"q.	c #C0933E",
"r.	c #FFDB73",
"s.	c #F8C663",
"t.	c #C4842A",
"u.	c #F5B45A",
"v.	c #EAAB4E",
"w.	c #EDAC4E",
"x.	c #F5AF4F",
"y.	c #EA9B3F",
"z.	c #DB7F32",
"A.	c #DE8134",
"B.	c #D57D26",
"C.	c #CE7D21",
"D.	c #CC8223",
"E.	c #D98E29",
"F.	c #E59121",
"G.	c #E5911F",
"H.	c #EFA039",
"I.	c #FBAF4F",
"J.	c #F2A54B",
"K.	c #F8AC56",
"L.	c #F7AC5B",
"M.	c #D18F52",
"N.	c #663719",
"O.	c #FCE0D4",
"P.	c #DCC0AB",
"Q.	c #9D7A50",
"R.	c #D9B372",
"S.	c #F6CE79",
"T.	c #CFA43E",
"U.	c #AA750D",
"V.	c #D49538",
"W.	c #F8B159",
"X.	c #F4A852",
"Y.	c #F9AC52",
"Z.	c #E79B3D",
"`.	c #D9852B",
" +	c #C86A20",
".+	c #D37128",
"++	c #EF933C",
"@+	c #ED983B",
"#+	c #E5993B",
"$+	c #E59735",
"%+	c #E18A21",
"&+	c #D88016",
"*+	c #DF8D2A",
"=+	c #E99A3D",
"-+	c #FCAD51",
";+	c #FBAB54",
">+	c #F9A856",
",+	c #E59F5A",
"'+	c #8E592F",
")+	c #C6A691",
"!+	c #EDDCCC",
"~+	c #A17F5C",
"{+	c #FFEEC1",
"]+	c #FFFDD4",
"^+	c #EDD79B",
"/+	c #A57F1C",
"(+	c #FFD05E",
"_+	c #FFC05B",
":+	c #EFA345",
"<+	c #FAA54B",
"[+	c #F59D43",
"}+	c #CB7717",
"|+	c #D98427",
"1+	c #F49946",
"2+	c #EC8F3F",
"3+	c #E98D38",
"4+	c #E98F39",
"5+	c #E38F39",
"6+	c #E9953F",
"7+	c #EF9740",
"8+	c #EA9239",
"9+	c #E09134",
"0+	c #D78B2D",
"a+	c #F9A54B",
"b+	c #F8A349",
"c+	c #FEA851",
"d+	c #F1A557",
"e+	c #F1B97C",
"f+	c #613C12",
"g+	c #AA9A8A",
"h+	c #FFEAD8",
"i+	c #C99F75",
"j+	c #FFE3B2",
"k+	c #FFFAD4",
"l+	c #F6D8A4",
"m+	c #D3AA4E",
"n+	c #FFCD61",
"o+	c #F4B04D",
"p+	c #FAA94D",
"q+	c #F89C47",
"r+	c #CD6F18",
"s+	c #E4892E",
"t+	c #E99034",
"u+	c #E78F35",
"v+	c #EC943B",
"w+	c #EC923A",
"x+	c #F09640",
"y+	c #E99340",
"z+	c #E79040",
"A+	c #E68F3F",
"B+	c #E4923E",
"C+	c #E39D3D",
"D+	c #E49C38",
"E+	c #CF7C1C",
"F+	c #FAA344",
"G+	c #FFAA4D",
"H+	c #FAAE56",
"I+	c #E3A85A",
"J+	c #6D460F",
"K+	c #C2B09A",
"L+	c #E8D1C3",
"M+	c #7B471F",
"N+	c #DA9B65",
"O+	c #FDC089",
"P+	c #C58B4B",
"Q+	c #834E00",
"R+	c #FAC369",
"S+	c #FCB962",
"T+	c #FDAD58",
"U+	c #F99C4F",
"V+	c #C26114",
"W+	c #E68735",
"X+	c #F1953E",
"Y+	c #ED943A",
"Z+	c #EA9336",
"`+	c #E69232",
" @	c #EA9739",
".@	c #EA923B",
"+@	c #E7913E",
"@@	c #E59540",
"#@	c #E9A246",
"$@	c #F3B94D",
"%@	c #FCC050",
"&@	c #D3841B",
"*@	c #F59F38",
"=@	c #FCAB42",
"-@	c #F8B04C",
";@	c #FFC76A",
">@	c #724907",
",@	c #BCA38D",
"'@	c #DAC7B8",
")@	c #693408",
"!@	c #DC9756",
"~@	c #F5B065",
"{@	c #C68535",
"]@	c #794000",
"^@	c #FBC072",
"/@	c #F5B35D",
"(@	c #F6A853",
"_@	c #F39849",
":@	c #C8671A",
"<@	c #E38734",
"[@	c #F19741",
"}@	c #E38E34",
"|@	c #E69335",
"1@	c #E49836",
"2@	c #E69039",
"3@	c #EE9843",
"4@	c #F3AF4C",
"5@	c #ECB745",
"6@	c #E9B23E",
"7@	c #CB841A",
"8@	c #E39832",
"9@	c #F9B44C",
"0@	c #FFCB64",
"a@	c #FFD376",
"b@	c #784C0B",
"c@	c #B69B88",
"d@	c #E0D4BC",
"e@	c #6E3C09",
"f@	c #E8A95C",
"g@	c #FFC967",
"h@	c #CD9936",
"i@	c #783F00",
"j@	c #FFC575",
"k@	c #F9BA5D",
"l@	c #F9B051",
"m@	c #F39E43",
"n@	c #C66D13",
"o@	c #DE8B2F",
"p@	c #E59639",
"q@	c #DD9034",
"r@	c #E39A3B",
"s@	c #DB9533",
"t@	c #E19839",
"u@	c #E99743",
"v@	c #F4A04A",
"w@	c #F7A446",
"x@	c #F1A841",
"y@	c #EFB645",
"z@	c #F0BA4D",
"A@	c #C08625",
"B@	c #FBC268",
"C@	c #FFD879",
"D@	c #F9CD6E",
"E@	c #EEBB68",
"F@	c #754B11",
"G@	c #C1A798",
"H@	c #DED4B9",
"I@	c #683B04",
"J@	c #ECB562",
"K@	c #FFE073",
"L@	c #D0A535",
"M@	c #794300",
"N@	c #FFC26F",
"O@	c #F8B656",
"P@	c #F3AA44",
"Q@	c #F5A141",
"R@	c #C16A0B",
"S@	c #DD8D2E",
"T@	c #E09436",
"U@	c #E4993C",
"V@	c #DE9839",
"W@	c #DA9935",
"X@	c #E39F3E",
"Y@	c #F0A24D",
"Z@	c #FCAA56",
"`@	c #FDAA4E",
" #	c #F5AA44",
".#	c #F8BC4C",
"+#	c #FECA5C",
"@#	c #B98225",
"##	c #FFE58F",
"$#	c #FFE78C",
"%#	c #E6BA63",
"&#	c #E2AF60",
"*#	c #72450E",
"=#	c #C5A89A",
"-#	c #E3D4BD",
";#	c #633E07",
">#	c #EABC67",
",#	c #FFDA6B",
"'#	c #D0A836",
")#	c #724000",
"!#	c #FFC469",
"~#	c #FFB95A",
"{#	c #F7A444",
"]#	c #F29D40",
"^#	c #C26D10",
"/#	c #DB882A",
"(#	c #E69539",
"_#	c #E49539",
":#	c #E09637",
"<#	c #DF9A35",
"[#	c #EEA846",
"}#	c #F7AB55",
"|#	c #F5A452",
"1#	c #FAA852",
"2#	c #F2A847",
"3#	c #F7BE4D",
"4#	c #FCC858",
"5#	c #C08422",
"6#	c #FFD077",
"7#	c #FFCB73",
"8#	c #E2A854",
"9#	c #E7AC5C",
"0#	c #754209",
"a#	c #C6A191",
"b#	c #E0CEB8",
"c#	c #623A07",
"d#	c #EABB6D",
"e#	c #FFD872",
"f#	c #C79B30",
"g#	c #7D4800",
"h#	c #FEC168",
"i#	c #FFB256",
"j#	c #F8A346",
"k#	c #C26D12",
"l#	c #E08B31",
"m#	c #EA953B",
"n#	c #E7963B",
"o#	c #E39B37",
"p#	c #EDA543",
"q#	c #F3A751",
"r#	c #F7A957",
"s#	c #FBAB56",
"t#	c #F2AA48",
"u#	c #F3BC48",
"v#	c #FEC955",
"w#	c #C3821C",
"x#	c #E8A145",
"y#	c #F3AD57",
"z#	c #EDAA59",
"A#	c #E7A95C",
"B#	c #77440D",
"C#	c #C39F91",
"D#	c #EED3C0",
"E#	c #63320A",
"F#	c #DCA064",
"G#	c #F6BB6D",
"H#	c #C88B38",
"I#	c #7D3F00",
"J#	c #FFBE70",
"K#	c #FDB65C",
"L#	c #F6AA4A",
"M#	c #F4A347",
"N#	c #C36D16",
"O#	c #D7812E",
"P#	c #EB9542",
"Q#	c #E59439",
"R#	c #E69738",
"S#	c #EDA141",
"T#	c #F7AA4E",
"U#	c #F6AA56",
"V#	c #F5A955",
"W#	c #F4A74B",
"X#	c #F2AD45",
"Y#	c #F6BE45",
"Z#	c #FFC84F",
"`#	c #CD841B",
" $	c #EC9D3E",
".$	c #F3A64C",
"+$	c #F3AC5C",
"@$	c #EBAF69",
"#$	c #6B3F10",
"$$	c #BFA79D",
"%$	c #EACDBD",
"&$	c #6A3412",
"*$	c #D89561",
"=$	c #F7B06E",
"-$	c #CB873E",
";$	c #7A3B00",
">$	c #FFC477",
",$	c #FBB65B",
"'$	c #F7AD4E",
")$	c #EF9E45",
"!$	c #BC6613",
"~$	c #E08B3B",
"{$	c #F09B4A",
"]$	c #E19034",
"^$	c #E79738",
"/$	c #F5A649",
"($	c #F7A954",
"_$	c #F7AB49",
":$	c #F3AF40",
"<$	c #FAC043",
"[$	c #FFC347",
"}$	c #D08317",
"|$	c #F2A03D",
"1$	c #F5A449",
"2$	c #F8AD5C",
"3$	c #EAAA6A",
"4$	c #693C12",
"5$	c #BDA79A",
"6$	c #E9CDC1",
"7$	c #733818",
"8$	c #E19865",
"9$	c #FAB16D",
"0$	c #CC893B",
"a$	c #7D4600",
"b$	c #FBC36E",
"c$	c #F5A84C",
"d$	c #F49D4D",
"e$	c #BD6619",
"f$	c #E79645",
"g$	c #E59840",
"h$	c #EB9838",
"i$	c #F5A448",
"j$	c #F5A64A",
"k$	c #FAAA51",
"l$	c #F5A949",
"m$	c #F8AB3F",
"n$	c #EEA731",
"o$	c #FCBF40",
"p$	c #FFC94D",
"q$	c #CA7E10",
"r$	c #EF9D39",
"s$	c #F9A84C",
"t$	c #F6A959",
"u$	c #E4A363",
"v$	c #78451A",
"w$	c #C1A58F",
"x$	c #E7CEC7",
"y$	c #60290B",
"z$	c #D28857",
"A$	c #EB9E5A",
"B$	c #C17C2E",
"C$	c #763E00",
"D$	c #FFCB78",
"E$	c #FDBB5D",
"F$	c #F3A749",
"G$	c #F8A44E",
"H$	c #DC8939",
"I$	c #C47B2E",
"J$	c #CF8735",
"K$	c #F39F45",
"L$	c #FFAC4C",
"M$	c #F4AC48",
"N$	c #F1AD48",
"O$	c #F2AD48",
"P$	c #F3AC42",
"Q$	c #FEB741",
"R$	c #FFBC40",
"S$	c #FDBB40",
"T$	c #EBA62F",
"U$	c #DF9125",
"V$	c #FCAA47",
"W$	c #FBAA4F",
"X$	c #F3AA5D",
"Y$	c #EFB178",
"Z$	c #67370F",
"`$	c #BA9E86",
" %	c #E7D5D1",
".%	c #93604D",
"+%	c #B06840",
"@%	c #C97A37",
"#%	c #B86C21",
"$%	c #844404",
"%%	c #DFA45E",
"&%	c #ECAB51",
"*%	c #F5B049",
"=%	c #F7AE47",
"-%	c #FCB657",
";%	c #D4964D",
">%	c #D08D49",
",%	c #DD8A3E",
"'%	c #E8993D",
")%	c #F0B84B",
"!%	c #EDBE4A",
"~%	c #EAB543",
"{%	c #F5BA46",
"]%	c #FBBB3F",
"^%	c #FFC244",
"/%	c #EFAA33",
"(%	c #CC8415",
"_%	c #FDAB45",
":%	c #FCA94B",
"<%	c #F2A54D",
"[%	c #E8A45B",
"}%	c #C79260",
"|%	c #846040",
"1%	c #C7B6A4",
"2%	c #884926",
"3%	c #9E4F0D",
"4%	c #C27027",
"5%	c #B76C32",
"6%	c #753100",
"7%	c #C7872F",
"8%	c #F6B94F",
"9%	c #F4B742",
"0%	c #FFC75B",
"a%	c #FFF1A2",
"b%	c #ECAB67",
"c%	c #B8661C",
"d%	c #C17118",
"e%	c #F4B54B",
"f%	c #FFCA56",
"g%	c #FFC757",
"h%	c #FFC451",
"i%	c #CE8D15",
"j%	c #C7850D",
"k%	c #DB9325",
"l%	c #FDB24C",
"m%	c #F9A948",
"n%	c #FDB35E",
"o%	c #693810",
"p%	c #F9DAC5",
"q%	c #835035",
"r%	c #A05416",
"s%	c #C76F27",
"t%	c #BE6529",
"u%	c #873800",
"v%	c #CD8F38",
"w%	c #F6C157",
"x%	c #FACA4E",
"y%	c #FFD259",
"z%	c #F1BB59",
"A%	c #E8A851",
"B%	c #F2A44F",
"C%	c #FCA44B",
"D%	c #CF7618",
"E%	c #C56B0B",
"F%	c #CE7718",
"G%	c #D58320",
"H%	c #F5AB42",
"I%	c #F0A73E",
"J%	c #F6AC4B",
"K%	c #F2A849",
"L%	c #F7AB4D",
"M%	c #F4A94E",
"N%	c #F3AB59",
"O%	c #663817",
"P%	c #F3D7CC",
"Q%	c #63402D",
"R%	c #9E5C2C",
"S%	c #D58445",
"T%	c #CD743A",
"U%	c #8B3A00",
"V%	c #D8964A",
"W%	c #FFD77B",
"X%	c #FFD166",
"Y%	c #ECB84A",
"Z%	c #E6AD44",
"`%	c #ECAA49",
" &	c #FDB153",
".&	c #FAA249",
"+&	c #FA9841",
"@&	c #F4903A",
"#&	c #F6963F",
"$&	c #FAA346",
"%&	c #F4A644",
"&&	c #F3A948",
"*&	c #F8AC54",
"=&	c #F4AA55",
"-&	c #EEA652",
";&	c #F5B062",
">&	c #FFBC75",
",&	c #653D24",
"'&	c #EAD3CD",
")&	c #D0BDB7",
"!&	c #9C7055",
"~&	c #874920",
"{&	c #9E5425",
"]&	c #B2652F",
"^&	c #B36C34",
"/&	c #A96828",
"(&	c #BA7731",
"_&	c #F0AD5E",
":&	c #F9B455",
"<&	c #EFA640",
"[&	c #FBAB4C",
"}&	c #FAA64C",
"|&	c #FDA951",
"1&	c #FFAE54",
"2&	c #FFAC50",
"3&	c #F7AF4B",
"4&	c #F0AA4B",
"5&	c #F1A653",
"6&	c #F2A85F",
"7&	c #FAB773",
"8&	c #A26429",
"9&	c #9C6230",
"0&	c #B2825C",
"a&	c #D6B7A3",
"b&	c #CDB7A9",
"c&	c #A78268",
"d&	c #AE7758",
"e&	c #A3633D",
"f&	c #8D4A1D",
"g&	c #8E4817",
"h&	c #924819",
"i&	c #BC7137",
"j&	c #EFA355",
"k&	c #FFB35B",
"l&	c #F3A64E",
"m&	c #FAAD55",
"n&	c #F4A651",
"o&	c #F5A850",
"p&	c #F7A84B",
"q&	c #F5AB4C",
"r&	c #F1AC4D",
"s&	c #F9B65F",
"t&	c #F8B26A",
"u&	c #E8A66A",
"v&	c #AA7243",
"w&	c #AD7D57",
"x&	c #B18568",
"y&	c #CBAB94",
"z&	c #8F6451",
"A&	c #9A623D",
"B&	c #A46134",
"C&	c #A35C30",
"D&	c #813708",
"E&	c #C17845",
"F&	c #D99156",
"G&	c #DA944C",
"H&	c #F2A95C",
"I&	c #FCAE5C",
"J&	c #F5A34F",
"K&	c #FFAE56",
"L&	c #F8A851",
"M&	c #F5AF5A",
"N&	c #D6944A",
"O&	c #CF8E54",
"P&	c #BB865C",
"Q&	c #815E42",
"R&	c #F2DBC9",
"S&	c #A47C62",
"T&	c #683613",
"U&	c #8A5231",
"V&	c #AA6E4C",
"W&	c #7C3D1C",
"X&	c #6B2D06",
"Y&	c #884E1C",
"Z&	c #DFA367",
"`&	c #E19D5E",
" *	c #E7A05E",
".*	c #E69D59",
"+*	c #E5A25E",
"@*	c #E2A76B",
"#*	c #996432",
"$*	c #73411C",
"%*	c #8B634A",
"&*	c #E9CEBD",
"**	c #684532",
"=*	c #673D27",
"-*	c #6C3F28",
";*	c #6B4128",
">*	c #694225",
",*	c #6B401E",
"'*	c #6E421F",
")*	c #744825",
"!*	c #855C3E",
"~*	c #5A3A23",
"{*	c #CCAF9F",
"]*	c #E9D3C8",
"^*	c #F1D0C1",
"/*	c #F6D1C1",
"(*	c #F1D1C4",
"_*	c #EED1C3",
":*	c #F4D5C1",
"<*	c #EFD0BB",
"[*	c #F1D2C0",
"}*	c #F5D9CD",
"|*	c #E3D0CA",
"                                                                ",
"                  . + @ # $ % & * = - ; >                       ",
"              , ' ) ! ~ { ] ^ / ( _ : < [ } |                   ",
"            1 2 3 4 5 6 7 8 9 0 a b c d e f g h                 ",
"        i j k l m n o p q r s t u v w x y z A B C D E           ",
"      F G H I J K L M N O P Q R S T U V S W X Y Z `  .          ",
"    ..+.@.#.$.%.&.*.=.-.;.>.,.'.).!.~.{.].^./.(._.:.<.[.}.      ",
"    |.1.2.3.  4.5.6.7.8.9.0.a.b.c.d.e.f.g.h.i.j.k.l.m.n.o.      ",
"    p.q.r.s.  t.u.v.w.x.y.z.A.B.C.D.E.F.G.H.I.J.K.L.M.N.O.      ",
"  P.Q.R.S.T.U.V.W.X.Y.Z.`. +.+++@+#+$+%+&+*+=+-+;+>+,+'+)+      ",
"!+~+{+]+^+/+(+_+:+<+[+}+|+1+2+3+4+5+6+7+8+9+0+a+b+c+d+e+f+g+    ",
"h+i+j+k+l+m+n+o+p+q+r+s+t+u+v+w+x+y+z+A+B+C+D+E+F+G+H+I+J+K+    ",
"L+M+N+O+P+Q+R+S+T+U+V+W+X+Y+Z+`+ @.@+@@@#@$@%@&@*@=@-@;@>@,@    ",
"'@)@!@~@{@]@^@/@(@_@:@<@[@}@|@1@$+2@3@J.4@5@6@7@8@9@0@a@b@c@    ",
"d@e@f@g@h@i@j@k@l@m@n@o@p@q@r@s@t@u@v@w@x@y@z@A@B@C@D@E@F@G@    ",
"H@I@J@K@L@M@N@O@P@Q@R@S@T@U@V@W@X@Y@Z@`@ #.#+#@###$#%#&#*#=#    ",
"-#;#>#,#'#)#!#~#{#]#^#/#(#_#:#<#[#}#|#1#2#3#4#5#6#7#8#9#0#a#    ",
"b#c#d#e#f#g#h#i#w@j#k#l#m#n#p@o#p#q#r#s#t#u#v#w#x#y#z#A#B#C#    ",
"D#E#F#G#H#I#J#K#L#M#N#O#P#Q#R#S#T#U#V#W#X#Y#Z#`# $.$+$@$#$$$    ",
"%$&$*$=$-$;$>$,$'$)$!$~${$]$^$/$0.($'._$:$<$[$}$|$1$2$3$4$5$    ",
"6$7$8$9$0$a$b$O@c$d$e$f$g$h$|$i$j$k$l$m$n$o$p$q$r$s$t$u$v$w$    ",
"x$y$z$A$B$C$D$E$F$G$H$I$J$K$L$M$N$O$P$Q$R$S$T$U$V$W$X$Y$Z$`$    ",
" %.%+%@%#%$%%%&%*%=%-%;%>%,%'%)%!%~%{%]%^%/%(%_%:%<%[%}%|%1%    ",
"    2%3%4%5%6%7%8%9%0%a%b%c%d%e%f%g%h%i%j%k%l%m%~.n%  o%p%      ",
"    q%r%s%t%u%v%w%x%y%z%A%B%C%D%E%F%G%H%I%J%K%L%M%N%  O%P%      ",
"    Q%R%S%T%U%V%W%X%Y%Z%`% &.&+&@&#&$&%&&&*&=&-&;&>&  ,&'&      ",
"    )&!&~&{&]&^&/&(&_&:&<&[&}&|&1&2&%&3&4&5&6&7&8&9&0&a&        ",
"      b&c&d&e&f&g&h&i&j&k&l&m&n&o&p&q&r&s&t&u&v&w&x&y&          ",
"            z&A&B&C&D&E&F&G&H&I&J&K&L&M&N&O&P&Q&R&              ",
"              S&T&U&V&W&X&Y&Z&`& *.*+*@*#*$*%*                  ",
"                  &***=*-*;*>*,*'*)*!*~*{*                      ",
"                    ]*^*/*(*_*:*<*[*}*|*                        "};
