/* XPM */
static char * coins_xpm[] = {
"32 32 738 2",
"  	c #C8A2C8",
". 	c #F4CFBF",
"+ 	c #E8BAA3",
"@ 	c #EDBEA0",
"# 	c #F2BE99",
"$ 	c #FEBE98",
"% 	c #FFC59A",
"& 	c #F9BE94",
"* 	c #FACEA9",
"= 	c #F8E8DB",
"- 	c #FFECD7",
"; 	c #A97E5E",
"> 	c #7F4E25",
", 	c #8F602C",
"' 	c #8F5D22",
") 	c #AF7438",
"! 	c #B07436",
"~ 	c #A97134",
"{ 	c #B98A56",
"] 	c #FFE4BD",
"^ 	c #FBEAD0",
"/ 	c #E3D4BD",
"( 	c #61411B",
"_ 	c #673905",
": 	c #D79E5B",
"< 	c #FFD07F",
"[ 	c #F8CA6C",
"} 	c #F9CC65",
"| 	c #FCCB62",
"1 	c #FBC660",
"2 	c #FFCF6F",
"3 	c #DFAD56",
"4 	c #8C5E13",
"5 	c #977037",
"6 	c #EBCCAF",
"7 	c #FFFEE8",
"8 	c #BFAF8D",
"9 	c #806434",
"0 	c #DFB173",
"a 	c #D2974B",
"b 	c #E9A64F",
"c 	c #F5B352",
"d 	c #EEB54C",
"e 	c #EBB747",
"f 	c #F0BC46",
"g 	c #EEBA44",
"h 	c #F5BD50",
"i 	c #F3BA53",
"j 	c #E8AE4D",
"k 	c #F3BC6C",
"l 	c #BB8C56",
"m 	c #D9B595",
"n 	c #B2987F",
"o 	c #987B53",
"p 	c #A68447",
"q 	c #C79C4E",
"r 	c #FEC56B",
"s 	c #F6B251",
"t 	c #F8AC4C",
"u 	c #F5A64A",
"v 	c #F6AC57",
"w 	c #EEA850",
"x 	c #EDAC48",
"y 	c #E9A93F",
"z 	c #ECA843",
"A 	c #F5B04B",
"B 	c #FFBE59",
"C 	c #FEBF5E",
"D 	c #E1A954",
"E 	c #CC9D57",
"F 	c #B58C5E",
"G 	c #BFA081",
"H 	c #FFF4DF",
"I 	c #EAE0C7",
"J 	c #C9B495",
"K 	c #C6A882",
"L 	c #A88251",
"M 	c #936728",
"N 	c #CB9B49",
"O 	c #FBC467",
"P 	c #E6A53F",
"Q 	c #F9AE48",
"R 	c #F7A444",
"S 	c #FFA74E",
"T 	c #F8A056",
"U 	c #FFAA5F",
"V 	c #FBAB54",
"W 	c #FFB456",
"X 	c #F5AB4A",
"Y 	c #F4AA47",
"Z 	c #EEA53F",
"` 	c #ECA740",
" .	c #FFC864",
"..	c #D99D45",
"+.	c #AD7836",
"@.	c #C69867",
"#.	c #D0AC88",
"$.	c #D4BB9D",
"%.	c #F0E1C4",
"&.	c #EAE0C5",
"*.	c #B2A06E",
"=.	c #7C5D1D",
"-.	c #875D11",
";.	c #F2BE6A",
">.	c #FFD379",
",.	c #F9BD5B",
"'.	c #F4AC4A",
").	c #F7A849",
"!.	c #FDA84B",
"~.	c #F89E46",
"{.	c #FC9D4D",
"].	c #F49447",
"^.	c #F69649",
"/.	c #ED9440",
"(.	c #EDA342",
"_.	c #F2AD46",
":.	c #F9AF4C",
"<.	c #FFB454",
"[.	c #F5A649",
"}.	c #FEB45D",
"|.	c #FFD288",
"1.	c #FFE2A5",
"2.	c #A57340",
"3.	c #976C3F",
"4.	c #C6A578",
"5.	c #FBE8C8",
"6.	c #816D4A",
"7.	c #9B7D3F",
"8.	c #FFD284",
"9.	c #FFC96E",
"0.	c #F0B150",
"a.	c #EBA744",
"b.	c #EFAA45",
"c.	c #F4AA49",
"d.	c #F6A74A",
"e.	c #FAA64C",
"f.	c #FFAB52",
"g.	c #E48831",
"h.	c #C16210",
"i.	c #CA691A",
"j.	c #CA661A",
"k.	c #C56818",
"l.	c #D3862A",
"m.	c #F8AF50",
"n.	c #F6A94D",
"o.	c #F5A449",
"p.	c #FAA74B",
"q.	c #F9A950",
"r.	c #EEA755",
"s.	c #E3A55A",
"t.	c #FFE19E",
"u.	c #FFEDB2",
"v.	c #E0B781",
"w.	c #9C805B",
"x.	c #89683F",
"y.	c #966626",
"z.	c #F5B76C",
"A.	c #EDA654",
"B.	c #F8B05B",
"C.	c #F2A84F",
"D.	c #F2A74C",
"E.	c #F6A64D",
"F.	c #FEAA54",
"G.	c #CE7521",
"H.	c #C66C16",
"I.	c #D77D25",
"J.	c #E68D39",
"K.	c #E48936",
"L.	c #DE8936",
"M.	c #C2701E",
"N.	c #C26D1C",
"O.	c #FBA653",
"P.	c #FAAB4E",
"Q.	c #F4AB4F",
"R.	c #EFAD56",
"S.	c #E8AD5F",
"T.	c #FFDF9B",
"U.	c #DAAF78",
"V.	c #84623D",
"W.	c #947B65",
"X.	c #B78E56",
"Y.	c #E5AD62",
"Z.	c #EDA958",
"`.	c #F7AB57",
" +	c #F3A753",
".+	c #F5A752",
"++	c #FEAE57",
"@+	c #F9A54F",
"#+	c #CD7422",
"$+	c #DD822F",
"%+	c #DA8229",
"&+	c #DF8B31",
"*+	c #E7973E",
"=+	c #E5953E",
"-+	c #F5A149",
";+	c #F8A44E",
">+	c #ED9B47",
",+	c #E39040",
"'+	c #E58F42",
")+	c #CB7626",
"!+	c #EF9B45",
"~+	c #FFB155",
"{+	c #F4AB4D",
"]+	c #F0AD52",
"^+	c #E4A850",
"/+	c #EEB96B",
"(+	c #F1C07E",
"_+	c #E0B483",
":+	c #C29B7C",
"<+	c #FFE2CC",
"[+	c #FFEDD4",
"}+	c #6D4E22",
"|+	c #D3A557",
"1+	c #FFCC6B",
"2+	c #EDA948",
"3+	c #F7AD4E",
"4+	c #F1A44A",
"5+	c #FEAD54",
"6+	c #F09B41",
"7+	c #D87E28",
"8+	c #D17623",
"9+	c #EF9740",
"0+	c #EB983A",
"a+	c #E79B39",
"b+	c #EFA647",
"c+	c #E49B3F",
"d+	c #FAAA53",
"e+	c #FAAA51",
"f+	c #F6AB4E",
"g+	c #FAAF54",
"h+	c #FBA858",
"i+	c #DC8639",
"j+	c #D88132",
"k+	c #E18F3D",
"l+	c #F7AF5A",
"m+	c #EFAF55",
"n+	c #EAAF53",
"o+	c #E0A74D",
"p+	c #F7BF68",
"q+	c #F5C175",
"r+	c #9D6E36",
"s+	c #FFDCAF",
"t+	c #FFEBCF",
"u+	c #876132",
"v+	c #D1A14C",
"w+	c #F9C057",
"x+	c #F2AE49",
"y+	c #F3A946",
"z+	c #F29E44",
"A+	c #DC8329",
"B+	c #D1751E",
"C+	c #EF9441",
"D+	c #E8923B",
"E+	c #E09230",
"F+	c #E79F39",
"G+	c #F7B151",
"H+	c #F3AC50",
"I+	c #F8AB53",
"J+	c #F5A84E",
"K+	c #F3A550",
"L+	c #FFAE5C",
"M+	c #E2903A",
"N+	c #DA8A31",
"O+	c #E9A246",
"P+	c #EFAD4F",
"Q+	c #F6B559",
"R+	c #EDAE4F",
"S+	c #EEB34F",
"T+	c #DEA74C",
"U+	c #AA7735",
"V+	c #FFE1A9",
"W+	c #704421",
"X+	c #C08D3E",
"Y+	c #F1B753",
"Z+	c #EAA847",
"`+	c #F6AC4D",
" @	c #FAA950",
".@	c #CB731C",
"+@	c #D3751D",
"@@	c #F69840",
"#@	c #EA913D",
"$@	c #E5943B",
"%@	c #E09836",
"&@	c #EBA641",
"*@	c #F6AD4F",
"=@	c #FAAE56",
"-@	c #F6A94F",
";@	c #F7AB49",
">@	c #F2AB4F",
",@	c #F0AC4B",
"'@	c #FFC251",
")@	c #F1AC37",
"!@	c #D1871A",
"~@	c #F7A945",
"{@	c #F9AD55",
"]@	c #F1AB53",
"^@	c #F2B751",
"/@	c #F4BD62",
"(@	c #AB7336",
"_@	c #FFDAAB",
":@	c #71452A",
"<@	c #D4A055",
"[@	c #FFC464",
"}@	c #EDA748",
"|@	c #F3A64C",
"1@	c #FCAA54",
"2@	c #D57F28",
"3@	c #D1761D",
"4@	c #F79C43",
"5@	c #E38D38",
"6@	c #F5A54C",
"7@	c #F3AB49",
"8@	c #F3AD4B",
"9@	c #F4A74F",
"0@	c #F4A850",
"a@	c #F5AA4D",
"b@	c #F9AF4E",
"c@	c #F3AE4F",
"d@	c #E5A63D",
"e@	c #FFD153",
"f@	c #F3B232",
"g@	c #D28513",
"h@	c #FBA943",
"i@	c #F7A64D",
"j@	c #F0A74B",
"k@	c #FCC257",
"l@	c #FEC76A",
"m@	c #A86D33",
"n@	c #FFDAB1",
"o@	c #744F34",
"p@	c #C48E46",
"q@	c #F3B153",
"r@	c #F8A84F",
"s@	c #FEAA52",
"t@	c #F9A753",
"u@	c #CB7923",
"v@	c #D38024",
"w@	c #E69136",
"x@	c #E8943E",
"y@	c #F7A750",
"z@	c #F7AB4D",
"A@	c #F7AB4B",
"B@	c #FBAA51",
"C@	c #FAA852",
"D@	c #F9AE51",
"E@	c #F3A84B",
"F@	c #F2A94B",
"G@	c #EDAD41",
"H@	c #FFC74A",
"I@	c #F0AC31",
"J@	c #D98B1F",
"K@	c #FDA947",
"L@	c #FBA84A",
"M@	c #FABE50",
"N@	c #EAB251",
"O@	c #AE7138",
"P@	c #FFDDB6",
"Q@	c #6B482C",
"R@	c #CE954E",
"S@	c #FFBD61",
"T@	c #F6A24A",
"U@	c #FBA550",
"V@	c #FEA956",
"W@	c #CD7B25",
"X@	c #CA791D",
"Y@	c #EB9A3E",
"Z@	c #E3933C",
"`@	c #F2A54D",
" #	c #F9AA4B",
".#	c #F8A650",
"+#	c #F1A448",
"@#	c #F7AC4F",
"##	c #F5A951",
"$#	c #F5AC50",
"%#	c #ECAA3A",
"&#	c #FFC749",
"*#	c #F6B237",
"=#	c #D0811A",
"-#	c #FBAB4C",
";#	c #F2B34A",
">#	c #ECB359",
",#	c #AC703A",
"'#	c #FFD5B0",
")#	c #70462E",
"!#	c #D79853",
"~#	c #FFBC62",
"{#	c #FAA64E",
"]#	c #F9A34E",
"^#	c #FFAA57",
"/#	c #EE9F42",
"(#	c #E59941",
"_#	c #FAB051",
":#	c #F5A647",
"<#	c #FAA854",
"[#	c #F6A951",
"}#	c #F8AC54",
"|#	c #F3A751",
"1#	c #F4A94E",
"2#	c #F8AC4A",
"3#	c #F0A839",
"4#	c #FFC847",
"5#	c #F1B032",
"6#	c #CF811C",
"7#	c #FDAC51",
"8#	c #F7AA50",
"9#	c #F4B156",
"0#	c #D7994E",
"a#	c #AF794B",
"b#	c #FFDBBA",
"c#	c #784E36",
"d#	c #C48540",
"e#	c #F9A84F",
"f#	c #FCA852",
"g#	c #F9A451",
"h#	c #D17D27",
"i#	c #D17E22",
"j#	c #E49538",
"k#	c #FCB259",
"l#	c #EDA64A",
"m#	c #F3A948",
"n#	c #F6A44E",
"o#	c #F5A850",
"p#	c #F1A54D",
"q#	c #F4AA3D",
"r#	c #FFC141",
"s#	c #F4B333",
"t#	c #D4871F",
"u#	c #F9AA4E",
"v#	c #F2A64E",
"w#	c #F3AB57",
"x#	c #F0AD5F",
"y#	c #E3A769",
"z#	c #A97951",
"A#	c #FFD5B8",
"B#	c #6E4B2F",
"C#	c #C18843",
"D#	c #F9B258",
"E#	c #F1A44C",
"F#	c #FCA756",
"G#	c #D27C29",
"H#	c #D07A23",
"I#	c #ED9C41",
"J#	c #F4AA51",
"K#	c #F1AA4E",
"L#	c #F3AB47",
"M#	c #F9A84C",
"N#	c #F3AA4E",
"O#	c #F8AD52",
"P#	c #F2A54B",
"Q#	c #FBAE54",
"R#	c #F1A640",
"S#	c #FFCA4E",
"T#	c #F4AD2D",
"U#	c #CB8211",
"V#	c #FBB04B",
"W#	c #F6AA52",
"X#	c #EAA557",
"Y#	c #FCBF7E",
"Z#	c #EEBA88",
"`#	c #8E6545",
" $	c #FEDCC1",
".$	c #6E4D2E",
"+$	c #C08B45",
"@$	c #FBBA60",
"#$	c #F1AA50",
"$$	c #FCA754",
"%$	c #D17824",
"&$	c #D0781F",
"*$	c #F09C42",
"=$	c #F0A44C",
"-$	c #F6AF53",
";$	c #F2A549",
">$	c #F9AE53",
",$	c #F4B04F",
"'$	c #F2AE4D",
")$	c #F9AC52",
"!$	c #EFA63D",
"~$	c #FFC148",
"{$	c #F7B233",
"]$	c #D08A18",
"^$	c #EEA944",
"/$	c #F3AB56",
"($	c #F0AC65",
"_$	c #FEC787",
":$	c #FFD6A5",
"<$	c #6F4C2C",
"[$	c #F9DBC3",
"}$	c #735034",
"|$	c #BA8944",
"1$	c #EAB255",
"2$	c #ECAD4E",
"3$	c #F0AA4B",
"4$	c #FFAE53",
"5$	c #ED943A",
"6$	c #E3852B",
"7$	c #E1882C",
"8$	c #FEAE55",
"9$	c #F3AA4B",
"0$	c #F2AC4C",
"a$	c #F1AC51",
"b$	c #F0AB50",
"c$	c #F4B04D",
"d$	c #F0AA48",
"e$	c #E8A439",
"f$	c #FFC650",
"g$	c #EFAA31",
"h$	c #E19F27",
"i$	c #E1A336",
"j$	c #F0AB60",
"k$	c #F0AF6D",
"l$	c #F6C47D",
"m$	c #E9C184",
"n$	c #795734",
"o$	c #F8D8C3",
"p$	c #5E3C23",
"q$	c #C69656",
"r$	c #F9C16A",
"s$	c #E6A64C",
"t$	c #F4AE4F",
"u$	c #FEAD51",
"v$	c #FFAC4F",
"w$	c #F79C3F",
"x$	c #E48B2D",
"y$	c #E8943A",
"z$	c #F4A74B",
"A$	c #F2AC4A",
"B$	c #EDAD4C",
"C$	c #EAAC49",
"D$	c #ECAD43",
"E$	c #EBAB3F",
"F$	c #FEB453",
"G$	c #FFBA57",
"H$	c #FBB94B",
"I$	c #F6B541",
"J$	c #E29C2A",
"K$	c #DC982B",
"L$	c #EDAF4A",
"M$	c #F3B75F",
"N$	c #F6B16C",
"O$	c #E5A567",
"P$	c #FFD08A",
"Q$	c #EBC78D",
"R$	c #715236",
"S$	c #F7D9CE",
"T$	c #8B6E5C",
"U$	c #BF905C",
"V$	c #EFB168",
"W$	c #EEAA59",
"X$	c #F8AC56",
"Y$	c #F2A249",
"Z$	c #F9A64A",
"`$	c #F7A343",
" %	c #D88527",
".%	c #EC9939",
"+%	c #EE9F38",
"@%	c #EEA63A",
"#%	c #F4B84A",
"$%	c #F0BB49",
"%%	c #EEBA40",
"&%	c #F0B83F",
"*%	c #F9B746",
"=%	c #FFB94D",
"-%	c #FDB850",
";%	c #D08822",
">%	c #E79D3A",
",%	c #FBB152",
"'%	c #EDAC5A",
")%	c #F4AF6A",
"!%	c #E9AD71",
"~%	c #E4B780",
"{%	c #E7C59F",
"]%	c #91766B",
"^%	c #F5DFE2",
"/%	c #966B41",
"(%	c #A26829",
"_%	c #F8B46B",
":%	c #F3A857",
"<%	c #FDAD54",
"[%	c #F7A748",
"}%	c #D98926",
"|%	c #D07D13",
"1%	c #EA9E30",
"2%	c #FFCD5B",
"3%	c #FFC952",
"4%	c #FFCA4C",
"5%	c #FFD356",
"6%	c #E9A633",
"7%	c #C78014",
"8%	c #D08826",
"9%	c #EEA549",
"0%	c #FFB55E",
"a%	c #F3AD58",
"b%	c #F4B160",
"c%	c #ECAE63",
"d%	c #E8AA71",
"e%	c #EDB788",
"f%	c #A47A50",
"g%	c #6D4F35",
"h%	c #8C6B4C",
"i%	c #A77842",
"j%	c #FFD38D",
"k%	c #EDA85A",
"l%	c #F4A854",
"m%	c #F6A64F",
"n%	c #F4AA4B",
"o%	c #F2A94A",
"p%	c #F2A845",
"q%	c #F9A741",
"r%	c #ED9A30",
"s%	c #D08317",
"t%	c #CF8615",
"u%	c #D28B15",
"v%	c #D18815",
"w%	c #DF952C",
"x%	c #EEA242",
"y%	c #F8AB51",
"z%	c #EDA551",
"A%	c #EDAE61",
"B%	c #EDB369",
"C%	c #E6AE61",
"D%	c #DFAC6A",
"E%	c #FFE2BD",
"F%	c #FFF5DC",
"G%	c #C7A389",
"H%	c #624734",
"I%	c #E6D2BA",
"J%	c #AE8E65",
"K%	c #774C17",
"L%	c #8A5215",
"M%	c #F0AB68",
"N%	c #FCB267",
"O%	c #F4AC58",
"P%	c #F8B04A",
"Q%	c #FDAB45",
"R%	c #F6A03B",
"S%	c #F19D3A",
"T%	c #EE9C38",
"U%	c #EC9B32",
"V%	c #ED9E37",
"W%	c #F5A546",
"X%	c #FFB357",
"Y%	c #EFA953",
"Z%	c #E4AB5C",
"`%	c #FECE84",
" &	c #FFECA8",
".&	c #97715A",
"+&	c #6D4D42",
"@&	c #A18675",
"#&	c #E3D0C2",
"$&	c #DCCDB6",
"%&	c #A58F77",
"&&	c #BD9A7C",
"*&	c #9A6641",
"=&	c #9C5E2B",
"-&	c #D08D47",
";&	c #FAB760",
">&	c #F2A940",
",&	c #FEA843",
"'&	c #FCA443",
")&	c #FFAA53",
"!&	c #F7AA4E",
"~&	c #F6AA4C",
"{&	c #F0AB4C",
"]&	c #F6C465",
"^&	c #DBB15F",
"/&	c #AD824B",
"(&	c #9B7453",
"_&	c #AB8E80",
":&	c #A5918A",
"<&	c #CDBCB4",
"[&	c #9E7D6E",
"}&	c #8E6247",
"|&	c #A16D3E",
"1&	c #C88D4B",
"2&	c #F9B763",
"3&	c #FFA84B",
"4&	c #F0A951",
"5&	c #F0A64F",
"6&	c #F4AE4C",
"7&	c #F5B257",
"8&	c #F6BD66",
"9&	c #D6AE59",
"0&	c #A48640",
"a&	c #84643D",
"b&	c #907562",
"c&	c #F9E8E1",
"d&	c #CBAE9E",
"e&	c #794C2F",
"f&	c #DFA074",
"g&	c #E19257",
"h&	c #FCA45A",
"i&	c #F7A84C",
"j&	c #EAB44A",
"k&	c #E6B647",
"l&	c #EFB54A",
"m&	c #EFB046",
"n&	c #F2B648",
"o&	c #E9B24D",
"p&	c #D9A454",
"q&	c #EBBF82",
"r&	c #876A3E",
"s&	c #A28F6F",
"t&	c #FFFCE9",
"u&	c #E4C7C1",
"v&	c #5F301C",
"w&	c #733411",
"x&	c #CB7F4B",
"y&	c #F8B46D",
"z&	c #E3B65B",
"A&	c #FBD574",
"B&	c #FDCF71",
"C&	c #FECD70",
"D&	c #FFD679",
"E&	c #E1B463",
"F&	c #633C05",
"G&	c #563816",
"H&	c #C8B6A0",
"I&	c #EEDCD2",
"J&	c #F4D5C3",
"K&	c #B3816A",
"L&	c #7B4425",
"M&	c #73441A",
"N&	c #7A5020",
"O&	c #754F1E",
"P&	c #785422",
"Q&	c #754F20",
"R&	c #85613F",
"S&	c #EFD3C5",
"T&	c #EBD8D1",
"U&	c #FBF1E7",
"V&	c #E7C1B8",
"W&	c #CF9F93",
"X&	c #D5A493",
"Y&	c #C99C85",
"Z&	c #C7A58A",
"`&	c #CDAF93",
" *	c #BB9882",
".*	c #D7B9AE",
"                        . + @ # $ % & *                         ",
"                    = - ; > , ' ) ! ~ { ] ^                     ",
"                  / ( _ : < [ } | 1 2 3 4 5 6                   ",
"              7 8 9 0 a b c d e f g h i j k l m                 ",
"            n o p q r s t u v w x y z A B C D E F G H           ",
"      I J K L M N O P Q R S T U V W X Y Z `  ...+.@.#.$.%.      ",
"    &.*.=.-.;.>.,.x '.).!.~.{.].^./.(._.:.<.[.}.|.1.2.3.4.5.    ",
"    6.7.8.9.0.a.b.c.d.e.f.g.h.i.j.k.l.m.n.o.p.q.r.s.t.u.v.w.    ",
"    x.y.z.A.B.C.D.E.F.G.H.I.J.J.K.J.L.M.N.O.e.P.Q.R.S.T.U.V.    ",
"  W.X.Y.Z.`. +.+++@+#+$+%+&+*+=+-+;+>+,+'+)+!+~+{+]+^+/+(+_+:+<+",
"[+}+|+1+2+3+4+5+6+7+8+9+0+a+b+c+d+e+f+g+h+i+j+k+l+m+n+o+p+q+r+s+",
"t+u+v+w+x+y+P.z+A+B+C+D+E+F+G+H+I+J+'.'.K+L+M+N+O+P+Q+R+S+T+U+V+",
"  W+X+Y+Z+`+ @.@+@@@#@$@%@&@*@=@.+-@;@Y >@,@'@)@!@~@{@]@^@/@(@_@",
"  :@<@[@}@|@1@2@3@4@5@6@7@8@-@9@0@a@t b@c@d@e@f@g@h@i@j@k@l@m@n@",
"  o@p@q@r@s@t@u@v@w@x@y@z@A@B@C@D@3+E@F@a.G@H@I@J@K@L@y+M@N@O@P@",
"  Q@R@S@T@U@V@W@X@Y@Z@`@z@ #;+.#+#@###$#A %#&#*#=#!.-#Y ;#>#,#'#",
"  )#!#~#{#]#^#W@X@/#(#C._#:#.#<#[#}#|#1#2#3#4#5#6#7#8#j@9#0#a#b#",
"  c#d#-@e#f#g#h#i#j#k#l#m#A@5+n#o#p#}#J+:#q#r#s#t#u#v#w#x#y#z#A#",
"  B#C#D#E#1@F#G#H#I#J#K#L#;@M#r@N#>@O#P#Q#R#S#T#U#V#W#X#Y#Z#`# $",
"  .$+$@$#$o#$$%$&$*$=$-$'.y+;$>$,$'$D.)$f+!$~${$]$^$/$($_$:$<$[$",
"  }$|$1$2$3$4$5$6$7$8$O#9$0$a$b$c$d$9@@#e$f$g$h$i$2$j$k$l$m$n$o$",
"  p$q$r$s$t$u$v$w$x$y$z$b@A$B$C$D$E$F$G$H$I$J$K$L$M$N$O$P$Q$R$S$",
"  T$U$V$W$X$Y$Z$!.`$ %.%+%@%#%$%%%&%*%=%-%;%>%,%9#'%)%!%~%{%]%^%",
"    /%(%_%:%K+<%M#-#[%}%|%1%2%3%4%5%6%7%8%9%0%a%b%c%d%e%f%g%    ",
"    h%i%j%k%l%m%n.n%o%p%q%r%s%t%u%v%w%x%y%z%A%B%C%D%E%F%G%H%    ",
"    I%J%K%L%M%N%O%l#'$P%Q%R%S%T%U%V%W%X%4+Y%Z%`% &  .&+&@&#&    ",
"      $&%&&&*&=&-&;&z >&,&'&)&V@++y%!&~&~&{&]&^&/&(&_&:&<&      ",
"            [&}&|&1&2&f+3&3&-@4&5&j@6&,@7&8&9&0&a&b&c&          ",
"                d&e&f&g&h&i&j&k&l&m&n&o&p&q&r&s&t&              ",
"                  u&v&w&x&y&z&A&B&C&D&E&F&G&H&                  ",
"                    I&J&K&L&M&N&O&P&Q&R&S&T&U&                  ",
"                        V&W&X&Y&Z&`& *.*                        "};
