/* XPM */
static char * coins_1_xpm[] = {
"32 32 780 2",
"  	c #C8A2C8",
". 	c #ECCDB8",
"+ 	c #E1B495",
"@ 	c #F0BB9B",
"# 	c #F4BB9E",
"$ 	c #FDBE9D",
"% 	c #FFC092",
"& 	c #FFC28F",
"* 	c #FFC390",
"= 	c #FEC496",
"- 	c #F0C49F",
"; 	c #FFF2D8",
"> 	c #F7F1E1",
", 	c #F2E6CE",
"' 	c #F1D8BA",
") 	c #8F6C46",
"! 	c #8A5C2A",
"~ 	c #96612B",
"{ 	c #955E28",
"] 	c #B47842",
"^ 	c #B6743A",
"/ 	c #AE682C",
"( 	c #AA5F26",
"_ 	c #B06A36",
": 	c #AD7844",
"< 	c #F2CDA1",
"[ 	c #FFEFD4",
"} 	c #F2E9DA",
"| 	c #C3AB91",
"1 	c #56350C",
"2 	c #754A15",
"3 	c #EAB974",
"4 	c #FFD178",
"5 	c #FAC865",
"6 	c #FFCC68",
"7 	c #FFCA6A",
"8 	c #FFD07D",
"9 	c #BC7D30",
"0 	c #A7520F",
"a 	c #CE7730",
"b 	c #FFC371",
"c 	c #BD802F",
"d 	c #A16728",
"e 	c #CBA075",
"f 	c #FFF7E4",
"g 	c #A0866F",
"h 	c #977144",
"i 	c #F0BE81",
"j 	c #E5AB61",
"k 	c #F1B45B",
"l 	c #EEB449",
"m 	c #F2B946",
"n 	c #ECB13D",
"o 	c #F1B749",
"p 	c #EEB856",
"q 	c #E1A149",
"r 	c #EF9A49",
"s 	c #F09542",
"t 	c #C87515",
"u 	c #FCB050",
"v 	c #FFC572",
"w 	c #DD9C5A",
"x 	c #B58E65",
"y 	c #FFFBE1",
"z 	c #FFF9E3",
"A 	c #FFF5CD",
"B 	c #B09967",
"C 	c #96754A",
"D 	c #B28955",
"E 	c #DCA85F",
"F 	c #FCBE69",
"G 	c #FFC169",
"H 	c #F5AA4D",
"I 	c #EDA23D",
"J 	c #F5AC45",
"K 	c #F4AF4A",
"L 	c #EFAB48",
"M 	c #EDAC48",
"N 	c #F2AE4D",
"O 	c #FCB052",
"P 	c #F7A64A",
"Q 	c #E8973B",
"R 	c #C57216",
"S 	c #CD7A1E",
"T 	c #E69C47",
"U 	c #E4AF63",
"V 	c #C69A59",
"W 	c #C0915D",
"X 	c #FDD7B3",
"Y 	c #E9D8BA",
"Z 	c #B5985E",
"` 	c #C19B54",
" .	c #A67533",
"..	c #E3A960",
"+.	c #FFC068",
"@.	c #E6A040",
"#.	c #F2A346",
"$.	c #F7A247",
"%.	c #FFAD50",
"&.	c #FFAA4F",
"*.	c #F7A74E",
"=.	c #F9AE53",
"-.	c #F7AC4F",
";.	c #F4AA4B",
">.	c #F2A845",
",.	c #F0A645",
"'.	c #F8AB4F",
").	c #D07F24",
"!.	c #C97618",
"~.	c #D18527",
"{.	c #D8993C",
"].	c #D69D44",
"^.	c #D39445",
"/.	c #D29C60",
"(.	c #EDCEB1",
"_.	c #F0E1CE",
":.	c #A98E5F",
"<.	c #90661C",
"[.	c #FFCD78",
"}.	c #FFCD7C",
"|.	c #F9B15C",
"1.	c #EFA949",
"2.	c #FBB150",
"3.	c #FCA850",
"4.	c #FFA956",
"5.	c #F89945",
"6.	c #EF903E",
"7.	c #EB9240",
"8.	c #E99443",
"9.	c #F9A454",
"0.	c #F7A654",
"a.	c #F8AD50",
"b.	c #F3AD4D",
"c.	c #F1AA4E",
"d.	c #F5AE54",
"e.	c #FDB255",
"f.	c #E2993B",
"g.	c #B26F14",
"h.	c #FBBA5C",
"i.	c #FFCD69",
"j.	c #D9A248",
"k.	c #BE9158",
"l.	c #F3D6B4",
"m.	c #856B48",
"n.	c #A88042",
"o.	c #FFD380",
"p.	c #E9A749",
"q.	c #F0A647",
"r.	c #F6A748",
"s.	c #F7A947",
"t.	c #F7A748",
"u.	c #F6A049",
"v.	c #FBA04D",
"w.	c #D97A26",
"x.	c #C36410",
"y.	c #C86D1A",
"z.	c #C56C1C",
"A.	c #EF9549",
"B.	c #FAA356",
"C.	c #F0A34B",
"D.	c #F4AB4D",
"E.	c #F2AD50",
"F.	c #EEA94C",
"G.	c #F1AB4C",
"H.	c #F5AE52",
"I.	c #E7A44D",
"J.	c #A46305",
"K.	c #F8BC4E",
"L.	c #FFD76E",
"M.	c #DCA759",
"N.	c #9F7744",
"O.	c #FFF6DE",
"P.	c #FFFAE6",
"Q.	c #BB9459",
"R.	c #C4903D",
"S.	c #FFCA73",
"T.	c #F6AC4D",
"U.	c #F6AB45",
"V.	c #FAAB46",
"W.	c #FAA749",
"X.	c #F6A147",
"Y.	c #BF6912",
"Z.	c #BD6710",
"`.	c #DD882B",
" +	c #EC9536",
".+	c #EB9234",
"++	c #EC9138",
"@+	c #CA6D1D",
"#+	c #C26718",
"$+	c #DC8631",
"%+	c #FAAA51",
"&+	c #F3A84B",
"*+	c #F8AF51",
"=+	c #F6AD4E",
"-+	c #F3AE53",
";+	c #D89747",
">+	c #7F4300",
",+	c #EFB64D",
"'+	c #FFDB71",
")+	c #CA9539",
"!+	c #936623",
"~+	c #FFFAD8",
"{+	c #FFF5E4",
"]+	c #FFEFE4",
"^+	c #896744",
"/+	c #C8994B",
"(+	c #FEC260",
"_+	c #EEA849",
":+	c #F1A545",
"<+	c #FAAD43",
"[+	c #FBAC43",
"}+	c #EA9538",
"|+	c #C77218",
"1+	c #E18B34",
"2+	c #E38E34",
"3+	c #E29231",
"4+	c #E59532",
"5+	c #E79333",
"6+	c #E99137",
"7+	c #E58932",
"8+	c #EB8F3A",
"9+	c #D27A23",
"0+	c #CF7B23",
"a+	c #FFB35A",
"b+	c #F0A347",
"c+	c #F4A84A",
"d+	c #F7B056",
"e+	c #ECAB59",
"f+	c #F1B35E",
"g+	c #C1811F",
"h+	c #E8AA43",
"i+	c #FFD170",
"j+	c #DAA95C",
"k+	c #AF865A",
"l+	c #FFDFC3",
"m+	c #FFEAD1",
"n+	c #926635",
"o+	c #DDAB4C",
"p+	c #FFCD5D",
"q+	c #EDA445",
"r+	c #F6AA4A",
"s+	c #FFB349",
"t+	c #DF9125",
"u+	c #CC7919",
"v+	c #E08B31",
"w+	c #ED983E",
"x+	c #E9943A",
"y+	c #E59438",
"z+	c #E6973A",
"A+	c #DD9038",
"B+	c #E6963D",
"C+	c #F59E41",
"D+	c #FCA345",
"E+	c #EC973C",
"F+	c #E08F36",
"G+	c #CD7D28",
"H+	c #F5A550",
"I+	c #FFAF59",
"J+	c #F0A349",
"K+	c #F0AF51",
"L+	c #FDBB5B",
"M+	c #BF6F10",
"N+	c #E99A3B",
"O+	c #FCBD60",
"P+	c #E6B25F",
"Q+	c #A27137",
"R+	c #FFD6A8",
"S+	c #FFF0D2",
"T+	c #E7B34E",
"U+	c #F9BD4B",
"V+	c #F0A748",
"W+	c #FBAB52",
"X+	c #E0912C",
"Y+	c #CF801B",
"Z+	c #D8872B",
"`+	c #EF9B43",
" @	c #EB963B",
".@	c #E28F33",
"+@	c #E09337",
"@@	c #ECA24B",
"#@	c #E69F47",
"$@	c #F2A646",
"%@	c #F6A645",
"&@	c #FFB155",
"*@	c #FEAA50",
"=@	c #DE9139",
"-@	c #DB8B34",
";@	c #ED9742",
">@	c #FCAB52",
",@	c #EDA747",
"'@	c #F4AC4A",
")@	c #C97215",
"!@	c #DC872A",
"~@	c #F1AF4E",
"{@	c #DBA44A",
"]@	c #A97232",
"^@	c #FFD6A3",
"/@	c #FFEDD1",
"(@	c #FAC255",
"_@	c #F5AB52",
":@	c #F8A654",
"<@	c #C26C15",
"[@	c #DC872D",
"}@	c #E99741",
"|@	c #E09039",
"1@	c #EA963C",
"2@	c #E59035",
"3@	c #EB9639",
"4@	c #F1A245",
"5@	c #E9A84C",
"6@	c #ECAD4E",
"7@	c #F5B051",
"8@	c #FAA64C",
"9@	c #FBA649",
"0@	c #FFC25C",
"a@	c #C67A18",
"b@	c #E18930",
"c@	c #FFAC55",
"d@	c #F6AA4C",
"e@	c #F8AC4C",
"f@	c #C67315",
"g@	c #E3942F",
"h@	c #FFBF4F",
"i@	c #E7AC48",
"j@	c #A96D2E",
"k@	c #FFCFA0",
"l@	c #FFEAD2",
"m@	c #FFC75E",
"n@	c #F7AC51",
"o@	c #FAA451",
"p@	c #C66D1B",
"q@	c #DE8533",
"r@	c #E3913D",
"s@	c #E7953F",
"t@	c #E8973C",
"u@	c #E39034",
"v@	c #F8A547",
"w@	c #FEAF52",
"x@	c #EDA64A",
"y@	c #F1B054",
"z@	c #EDB254",
"A@	c #EEAD51",
"B@	c #F8A74C",
"C@	c #FBA747",
"D@	c #F4AA3F",
"E@	c #D2881F",
"F@	c #EF9A3F",
"G@	c #FAA44D",
"H@	c #F6A549",
"I@	c #F6A846",
"J@	c #C0700F",
"K@	c #ECA33C",
"L@	c #FFD35B",
"M@	c #EFB851",
"N@	c #B47C3F",
"O@	c #FFDAB4",
"P@	c #725126",
"Q@	c #FFC65F",
"R@	c #ECA03E",
"S@	c #FDA649",
"T@	c #C96F17",
"U@	c #DB832C",
"V@	c #ED9740",
"W@	c #E69238",
"X@	c #E19034",
"Y@	c #FAAB4E",
"Z@	c #F2A549",
"`@	c #F2A54B",
" #	c #F9B054",
".#	c #F3B153",
"+#	c #EAA548",
"@#	c #FFAF56",
"##	c #F7A93D",
"$#	c #D3861C",
"%#	c #E69A3C",
"&#	c #FCAF53",
"*#	c #FDAF4B",
"=#	c #F4A641",
"-#	c #BD710F",
";#	c #E9A63D",
">#	c #FFD760",
",#	c #EEC45E",
"'#	c #CA9C6A",
")#	c #FFDAC0",
"!#	c #694C24",
"~#	c #F8AA48",
"{#	c #FEA74A",
"]#	c #C56D16",
"^#	c #DF852F",
"/#	c #EE943C",
"(#	c #E79237",
"_#	c #F6A347",
":#	c #F9AA4E",
"<#	c #F3A74F",
"[#	c #F2A84F",
"}#	c #FFB258",
"|#	c #F4A94E",
"1#	c #F1A84A",
"2#	c #F5AF50",
"3#	c #FEB04E",
"4#	c #FFBF53",
"5#	c #D6891D",
"6#	c #E29A38",
"7#	c #F4AE4C",
"8#	c #F1AD40",
"9#	c #FFC359",
"0#	c #C57C1E",
"a#	c #E2A042",
"b#	c #FFD96A",
"c#	c #F3CC6D",
"d#	c #C9A478",
"e#	c #FFE3D0",
"f#	c #71532D",
"g#	c #FFC862",
"h#	c #F8A44E",
"i#	c #CC7321",
"j#	c #DA7F2C",
"k#	c #F69C46",
"l#	c #F59D44",
"m#	c #FFAA50",
"n#	c #F7A750",
"o#	c #EFA250",
"p#	c #F7AF5B",
"q#	c #F6AF55",
"r#	c #F3AA4C",
"s#	c #F7AD4E",
"t#	c #ECA344",
"u#	c #F3AD4B",
"v#	c #F3AE47",
"w#	c #FFC85B",
"x#	c #D58C1D",
"y#	c #E59C35",
"z#	c #F3B347",
"A#	c #FBC54B",
"B#	c #FFD161",
"C#	c #AB6819",
"D#	c #D69146",
"E#	c #FABD60",
"F#	c #EABB69",
"G#	c #A88C65",
"H#	c #6E4D2A",
"I#	c #FDC45B",
"J#	c #EA9F44",
"K#	c #F9A350",
"L#	c #C46B1B",
"M#	c #E08532",
"N#	c #F69E45",
"O#	c #FDA84B",
"P#	c #F8A74B",
"Q#	c #F9A950",
"R#	c #FCAF5D",
"S#	c #F5AA57",
"T#	c #ECA549",
"U#	c #F0AA4A",
"V#	c #F1A748",
"W#	c #FBB351",
"X#	c #F0AF4B",
"Y#	c #F7B74D",
"Z#	c #FFC555",
"`#	c #CF8816",
" $	c #E59E32",
".$	c #FFC354",
"+$	c #FFD35A",
"@$	c #F8C258",
"#$	c #96500A",
"$$	c #C5793B",
"%$	c #FAB663",
"&$	c #EAB46A",
"*$	c #997B59",
"=$	c #714E2E",
"-$	c #FFD262",
";$	c #F4AA49",
">$	c #FAA24B",
",$	c #CF7320",
"'$	c #D97F29",
")$	c #EB9B3A",
"!$	c #F6AD46",
"~$	c #F3AA44",
"{$	c #F5AB4A",
"]$	c #FAAA53",
"^$	c #F8B34C",
"/$	c #ECA644",
"($	c #EEAA47",
"_$	c #F0AD44",
":$	c #FFCD58",
"<$	c #B87800",
"[$	c #E4A533",
"}$	c #FFD265",
"|$	c #F9BC51",
"1$	c #EDAA4F",
"2$	c #954405",
"3$	c #C47034",
"4$	c #FCB160",
"5$	c #EFB36B",
"6$	c #B1886C",
"7$	c #FCDBD4",
"8$	c #704F30",
"9$	c #F9C452",
"0$	c #F8AD48",
"a$	c #FAA248",
"b$	c #C76B16",
"c$	c #DA8229",
"d$	c #EFA43F",
"e$	c #F6B149",
"f$	c #F5B048",
"g$	c #F6AE4A",
"h$	c #FAAB4F",
"i$	c #F7AD4A",
"j$	c #EFA743",
"k$	c #F1AB4B",
"l$	c #F6B050",
"m$	c #F1AE46",
"n$	c #F6B444",
"o$	c #FFC34D",
"p$	c #C6850F",
"q$	c #E9AB3A",
"r$	c #FEBF55",
"s$	c #EDAD49",
"t$	c #F0A854",
"u$	c #A85416",
"v$	c #D88247",
"w$	c #FAAD5F",
"x$	c #B28069",
"y$	c #FBD2D0",
"z$	c #6C4D31",
"A$	c #FFC95C",
"B$	c #F2A742",
"C$	c #FFAB4B",
"D$	c #FBA34A",
"E$	c #DE8A30",
"F$	c #E29636",
"G$	c #F0AA48",
"H$	c #F5AF4D",
"I$	c #ECA646",
"J$	c #F3A84D",
"K$	c #F6A94F",
"L$	c #F3A447",
"M$	c #FDAE52",
"N$	c #F7AA52",
"O$	c #FFBD4C",
"P$	c #FDBF46",
"Q$	c #B57201",
"R$	c #FBB74C",
"S$	c #F8B44F",
"T$	c #F3B34F",
"U$	c #EAAF4B",
"V$	c #EAAA52",
"W$	c #A65816",
"X$	c #D28044",
"Y$	c #FFB067",
"Z$	c #D99357",
"`$	c #A36C57",
" %	c #FFDBD9",
".%	c #5E412F",
"+%	c #F5BD5E",
"@%	c #F1A849",
"#%	c #F7A746",
"$%	c #F9A84C",
"%%	c #F6A54A",
"&%	c #E3963A",
"*%	c #D88D30",
"=%	c #F7AE4F",
"-%	c #FFB957",
";%	c #EFA647",
">%	c #FCAC4B",
",%	c #F1A140",
"'%	c #FFBF61",
")%	c #FFCB65",
"!%	c #E8AB36",
"~%	c #C2860E",
"{%	c #FDBB4D",
"]%	c #FBB64F",
"^%	c #F4AE4F",
"/%	c #EAA84A",
"(%	c #EBAE51",
"_%	c #FFCF78",
":%	c #A2580F",
"<%	c #D18240",
"[%	c #F9AC68",
"}%	c #E09D68",
"|%	c #64311E",
"1%	c #EFC6C2",
"2%	c #D2B9B4",
"3%	c #A47A52",
"4%	c #B37C39",
"5%	c #F5B15C",
"6%	c #F3AA4B",
"7%	c #F8AE4F",
"8%	c #F0A049",
"9%	c #E99940",
"0%	c #D38727",
"a%	c #D68D26",
"b%	c #F9B246",
"c%	c #FFBC4E",
"d%	c #FFC454",
"e%	c #E8A12F",
"f%	c #DD9B2A",
"g%	c #DAA032",
"h%	c #E2AA3D",
"i%	c #FCBD53",
"j%	c #EAA540",
"k%	c #F6AD51",
"l%	c #F4AC58",
"m%	c #E7A453",
"n%	c #B3701F",
"o%	c #A9610F",
"p%	c #B96F24",
"q%	c #C17A3C",
"r%	c #A96E42",
"s%	c #C8A390",
"t%	c #86624A",
"u%	c #976834",
"v%	c #FCC372",
"w%	c #E8A847",
"x%	c #F5B150",
"y%	c #F2A94B",
"z%	c #F9AB56",
"A%	c #F4A44D",
"B%	c #DD8E2F",
"C%	c #DC8E29",
"D%	c #EAA236",
"E%	c #F5AF3D",
"F%	c #F9B43B",
"G%	c #EBAA2C",
"H%	c #DFA01F",
"I%	c #DA9E22",
"J%	c #EAB448",
"K%	c #F8C15C",
"L%	c #ECAE47",
"M%	c #F3AF4C",
"N%	c #F0A64F",
"O%	c #FBAD62",
"P%	c #E2954F",
"Q%	c #792F00",
"R%	c #BC6F21",
"S%	c #D48C44",
"T%	c #9B5C27",
"U%	c #6D3F1D",
"V%	c #A38D76",
"W%	c #9D7D4E",
"X%	c #ECBF6E",
"Y%	c #ECB652",
"Z%	c #F2B250",
"`%	c #F3AD4E",
" &	c #F5AB54",
".&	c #F5A752",
"+&	c #FBAA4F",
"@&	c #FEAE4F",
"#&	c #E09132",
"$&	c #CC851B",
"%&	c #D09517",
"&&	c #CA960E",
"*&	c #FFCD41",
"=&	c #FFD450",
"-&	c #F9C154",
";&	c #E6AC49",
">&	c #EEAD4F",
",&	c #FBB05D",
"'&	c #EE9B55",
")&	c #D67B42",
"!&	c #993E07",
"~&	c #D78242",
"{&	c #D28952",
"]&	c #AB7551",
"^&	c #90715C",
"/&	c #C0A98A",
"(&	c #7F5D1E",
"_&	c #F5C779",
":&	c #E8AF60",
"<&	c #E8A755",
"[&	c #EAA651",
"}&	c #F2AB51",
"|&	c #F7AA4E",
"1&	c #F8A94D",
"2&	c #F9AC54",
"3&	c #EDA948",
"4&	c #F0BD47",
"5&	c #FFD44F",
"6&	c #FFD34C",
"7&	c #F4BA3C",
"8&	c #E9AD3F",
"9&	c #EEAE4D",
"0&	c #EEAD53",
"a&	c #E9A552",
"b&	c #F4AA5F",
"c&	c #C77836",
"d&	c #8C3402",
"e&	c #C66F42",
"f&	c #B8693E",
"g&	c #834421",
"h&	c #9D7460",
"i&	c #DABEA6",
"j&	c #66431D",
"k&	c #65360C",
"l&	c #D7A36A",
"m&	c #FFCB78",
"n&	c #E9AA49",
"o&	c #F2AE49",
"p&	c #F0AC5B",
"q&	c #ECB260",
"r&	c #FACF67",
"s&	c #FCD160",
"t&	c #F0B442",
"u&	c #F2AC3C",
"v&	c #F5AD41",
"w&	c #F9AF50",
"x&	c #F5A75C",
"y&	c #9E4F0D",
"z&	c #7E3300",
"A&	c #A65E23",
"B&	c #BF7B4A",
"C&	c #7C3E19",
"D&	c #5D2913",
"E&	c #C79F93",
"F&	c #E3C9BC",
"G&	c #EFCEBB",
"H&	c #906A45",
"I&	c #AD803C",
"J&	c #FFD17C",
"K&	c #EFB65F",
"L&	c #DBA052",
"M&	c #FFC68A",
"N&	c #FFECAF",
"O&	c #FFE292",
"P&	c #DDB45A",
"Q&	c #EAAA50",
"R&	c #F8AD52",
"S&	c #FFB55A",
"T&	c #E39646",
"U&	c #9D4B0F",
"V&	c #B66935",
"W&	c #C27C48",
"X&	c #A86E3E",
"Y&	c #875A31",
"Z&	c #E9C5AB",
"`&	c #E1C6BD",
" *	c #E1CCB7",
".*	c #A8895D",
"+*	c #916935",
"@*	c #906135",
"#*	c #FFD2AC",
"$*	c #FFEED1",
"%*	c #FFF6D6",
"&*	c #FFF9C5",
"**	c #DFB678",
"=*	c #F7BA7B",
"-*	c #CA8345",
";*	c #AA6228",
">*	c #B36C38",
",*	c #9C5225",
"'*	c #965128",
")*	c #905630",
"!*	c #8E6545",
"~*	c #D6C2A9",
"{*	c #DACBAE",
"]*	c #877050",
"^*	c #9F7E6B",
"/*	c #C29E92",
"(*	c #D2ADA4",
"_*	c #C9A897",
":*	c #BC9D80",
"<*	c #9C7651",
"[*	c #AF7B54",
"}*	c #793F19",
"|*	c #602807",
"1*	c #6B3214",
"2*	c #8D5637",
"3*	c #AA785D",
"4*	c #9C765F",
"5*	c #CAB09F",
"6*	c #7F6765",
"7*	c #7E615D",
"8*	c #84665C",
"9*	c #6F5345",
"0*	c #7A5F4E",
"a*	c #785B4B",
"b*	c #826553",
"c*	c #866753",
"d*	c #795D48",
"e*	c #836958",
"                      . + @ # $ % & * = - ;                     ",
"                > , ' ) ! ~ { ] ^ / ( _ : < [ }                 ",
"                | 1 2 3 4 5 6 7 8 9 0 a b c d e f               ",
"              g h i j k l m n o p q r s t u v w x y z           ",
"        A B C D E F G H I J K L M N O P Q R S T U V W X         ",
"      Y Z `  ...+.@.#.$.%.&.*.=.-.;.>.,.'.).!.~.{.].^./.(.      ",
"    _.:.<.[.}.|.1.2.3.4.5.6.7.8.9.0.a.b.c.d.e.f.g.h.i.j.k.l.    ",
"    m.n.o.p.q.r.s.t.u.v.w.x.y.z.A.B.C.D.E.F.G.H.I.J.K.L.M.N.O.  ",
"  P.Q.R.S.T.U.V.W.X.Y.Z.`. +.+++@+#+$+%+&+*+=+-+;+>+,+'+)+!+~+{+",
"]+^+/+(+_+:+<+[+}+|+1+2+3+4+5+6+7+8+9+0+a+b+c+d+e+f+g+h+i+j+k+l+",
"m+n+o+p+q+r+s+t+u+v+w+x+y+z+A+B+C+D+E+F+G+H+I+J+K+L+M+N+O+P+Q+R+",
"S+  T+U+V+W+X+Y+Z+`+2+ @.@+@@@#@$@%@&@*@=@-@;@>@,@'@)@!@~@{@]@^@",
"/@    (@_@:@<@[@}@|@1@2@3@4@d+5@6@7@8@9@0@a@b@c@d@e@f@g@h@i@j@k@",
"l@    m@n@o@p@q@r@s@t@u@v@w@x@y@z@A@B@C@D@E@F@G@H@I@J@K@L@M@N@O@",
"  P@  Q@R@S@T@U@V@W@X@Y@c+Z@`@ #.#+#@#W.##$#%#&#*#=#-#;#>#,#'#)#",
"  !#  Q@~#{#]#^#/#(#_#:#<#[#}#|#1#2#Z@3#4#5#6#7#8#9#0#a#b#c#d#e#",
"  f#  g#|#h#i#j#k#l#m#n#o#p#q#r#s#t#u#v#w#x#y#z#A#B#C#D#E#F#G#  ",
"  H#  I#J#K#L#M#N#O#P#Q#R#S#T#U#V#W#X#Y#Z#`# $.$+$@$#$$$%$&$*$  ",
"  =$  -$;$>$,$'$)$!$~${$]$C.'@^$7#/$($_$:$<$[$}$|$1$2$3$4$5$6$7$",
"  8$  9$0$a$b$c$d$e$f$g$h$h$i$j$k$l$m$n$o$p$q$r$s$t$u$v$w$w x$y$",
"  z$  A$B$C$D$E$F$G$H$I$J$K$L$M$N$q+O$P$Q$R$S$T$U$V$W$X$Y$Z$`$ %",
"  .%  +%@%#%$%%%&%*%=%-%;%{$>%,%'%)%!%~%{%]%^%/%(%_%:%<%[%}%|%1%",
"  2%3%4%5%6%7%'.8%9%0%a%b%.$c%d%e%f%g%h%i%j%k%l%m%n%o%p%q%r%s%  ",
"    t%u%v%w%x%y%z%A%B%C%D%E%F%G%H%I%J%K%L%M%N%O%P%Q%R%S%T%U%    ",
"    V%W%X%Y%Z%`% &.&+&@&#&$&%&&&*&=&-&;&U$>&,&'&)&!&~&{&]&^&    ",
"      /&(&_&:&<&[&}&|&1&2&3&4&5&6&7&8&9&0&a&b&c&d&e&f&g&h&      ",
"        i&j&k&l&m&n&o&1.p&q&r&s&t&u&v&w&x&y&z&A&B&C&D&E&        ",
"          F&G&H&I&J&K&L&M&N&O&P&Q&R&S&T&U&V&W&X&Y&Z&`&          ",
"               *.*+*@*#*$*%*&***=*-*;*>*,*'*)*!*~*              ",
"                {*]*^*/*(*_*:*<*[*}*|*1*2*3*4*5*                ",
"                      6*7*8*9*0*a*b*c*d*e*                      ",
"                                                                "};
