/* XPM */
static char * coins_4_xpm[] = {
"32 32 639 2",
"  	c #C8A2C8",
". 	c #EEE9E6",
"+ 	c #DFCCC5",
"@ 	c #EBCEC0",
"# 	c #F2C4B4",
"$ 	c #FFCDB4",
"% 	c #FFD4B1",
"& 	c #FFD5AD",
"* 	c #FFD3AD",
"= 	c #FFD3B2",
"- 	c #F8CDBC",
"; 	c #EAC9BA",
"> 	c #E0CEBA",
", 	c #D7CBBB",
"' 	c #F0E8E5",
") 	c #F7ECD8",
"! 	c #FCF1DB",
"~ 	c #AEA19B",
"{ 	c #54413A",
"] 	c #61463B",
"^ 	c #704F40",
"/ 	c #704A37",
"( 	c #A17C61",
"_ 	c #9C7858",
": 	c #9A795A",
"< 	c #9B7B62",
"[ 	c #78584B",
"} 	c #664B40",
"| 	c #6E5D4B",
"1 	c #635646",
"2 	c #9A8B86",
"3 	c #FCEAE6",
"4 	c #F3E9E7",
"5 	c #92766A",
"6 	c #694427",
"7 	c #764F2E",
"8 	c #623F2B",
"9 	c #AC9084",
"0 	c #FFF0E7",
"a 	c #FAEBE4",
"b 	c #F6E7E2",
"c 	c #F5E6DF",
"d 	c #FCEEE3",
"e 	c #FBF2E3",
"f 	c #F7F1E3",
"g 	c #FAF6EB",
"h 	c #F7ECEA",
"i 	c #F6E9E3",
"j 	c #FCECDD",
"k 	c #F9E6D7",
"l 	c #BC9F99",
"m 	c #64413F",
"n 	c #704741",
"o 	c #67423A",
"p 	c #7B6059",
"q 	c #F6E7E0",
"r 	c #AB7E69",
"s 	c #975932",
"t 	c #9E5B2E",
"u 	c #8B512C",
"v 	c #CEA180",
"w 	c #FFFAD9",
"x 	c #FFF5D6",
"y 	c #FFFFE3",
"z 	c #FFFFE4",
"A 	c #FFFDDE",
"B 	c #FFFFDE",
"C 	c #FFFDE0",
"D 	c #FFFBE2",
"E 	c #FFFDE3",
"F 	c #FFFCD7",
"G 	c #FFFBD6",
"H 	c #CCA68F",
"I 	c #572818",
"J 	c #723E30",
"K 	c #5F2F21",
"L 	c #69473D",
"M 	c #BF8361",
"N 	c #BA6733",
"O 	c #CE7134",
"P 	c #BA682C",
"Q 	c #E5A462",
"R 	c #FFE495",
"S 	c #FFE791",
"T 	c #F7E58F",
"U 	c #F1DF89",
"V 	c #FFE995",
"W 	c #F9DF8A",
"X 	c #FDE38E",
"Y 	c #FFE792",
"Z 	c #FFDF92",
"` 	c #FFDF90",
" .	c #FCDC87",
"..	c #FFE698",
"+.	c #C79A63",
"@.	c #66350D",
"#.	c #6F3A1B",
"$.	c #65351F",
"%.	c #734F43",
"&.	c #FFF2DA",
"*.	c #C78964",
"=.	c #C46A35",
"-.	c #D06D2C",
";.	c #C46923",
">.	c #D68E3A",
",.	c #FED269",
"'.	c #ECCF59",
").	c #EDD55B",
"!.	c #F4DA5F",
"~.	c #EFCC56",
"{.	c #FDD65F",
"].	c #F9D259",
"^.	c #F4CD54",
"/.	c #F9D05E",
"(.	c #FDD564",
"_.	c #F1CC59",
":.	c #FCD56E",
"<.	c #BE9045",
"[.	c #643000",
"}.	c #79431F",
"|.	c #65351E",
"1.	c #704C40",
"2.	c #B38061",
"3.	c #A7582D",
"4.	c #B75D28",
"5.	c #A14D0F",
"6.	c #D79342",
"7.	c #FFDA6C",
"8.	c #EFD250",
"9.	c #F6DC53",
"0.	c #FADD51",
"a.	c #FBD34D",
"b.	c #FFD54E",
"c.	c #FFD54B",
"d.	c #FFDC53",
"e.	c #FFD956",
"f.	c #F8D152",
"g.	c #FAD455",
"h.	c #FFDF70",
"i.	c #BF9144",
"j.	c #643201",
"k.	c #723B1D",
"l.	c #653423",
"m.	c #714C44",
"n.	c #FFEAE6",
"o.	c #986C53",
"p.	c #803812",
"q.	c #984415",
"r.	c #8A3901",
"s.	c #BF7A2F",
"t.	c #FFD16B",
"u.	c #FCD45A",
"v.	c #F8D24D",
"w.	c #F7CD45",
"x.	c #FFD44F",
"y.	c #FFCE4A",
"z.	c #FFD24D",
"A.	c #FCCB48",
"B.	c #FFD151",
"C.	c #FFD153",
"D.	c #F9CD50",
"E.	c #FDD164",
"F.	c #BF8D44",
"G.	c #683204",
"H.	c #733921",
"I.	c #6A362B",
"J.	c #704A47",
"K.	c #FEE9E8",
"L.	c #AF8471",
"M.	c #A6623F",
"N.	c #BB683C",
"O.	c #BA6431",
"P.	c #D58445",
"Q.	c #FDB964",
"R.	c #E8AA47",
"S.	c #EDB046",
"T.	c #EFB144",
"U.	c #F0AD42",
"V.	c #F1AE43",
"W.	c #EFAC41",
"X.	c #F1AE45",
"Y.	c #EFAF45",
"Z.	c #F1B248",
"`.	c #E8B041",
" +	c #F0B857",
".+	c #B77B3C",
"++	c #6D2F0A",
"@+	c #773827",
"#+	c #693430",
"$+	c #6D494B",
"%+	c #8D6858",
"&+	c #753819",
"*+	c #893E16",
"=+	c #863405",
"-+	c #B9672D",
";+	c #FEB065",
">+	c #F4AA51",
",+	c #F7AE50",
"'+	c #F5AD4B",
")+	c #F3AB49",
"!+	c #F4AC4A",
"~+	c #F5AB4C",
"{+	c #F6AC4D",
"]+	c #F1AC47",
"^+	c #E9AA40",
"/+	c #F1B457",
"(+	c #BA7A3D",
"_+	c #72300D",
":+	c #793826",
"<+	c #6A332E",
"[+	c #6D4949",
"}+	c #7F6156",
"|+	c #643217",
"1+	c #7A3A16",
"2+	c #752C03",
"3+	c #AF622A",
"4+	c #F9AD5F",
"5+	c #EEA346",
"6+	c #F0A741",
"7+	c #F1A841",
"8+	c #EEA942",
"9+	c #EFAA45",
"0+	c #F2A94A",
"a+	c #F3A948",
"b+	c #F1A945",
"c+	c #EEAB42",
"d+	c #E7AB39",
"e+	c #F0B652",
"f+	c #B87B38",
"g+	c #6F3005",
"h+	c #793920",
"i+	c #6C3427",
"j+	c #704A41",
"k+	c #7D6257",
"l+	c #63361F",
"m+	c #743C1B",
"n+	c #6F3007",
"o+	c #B27034",
"p+	c #FFC16A",
"q+	c #FABA50",
"r+	c #FEBC4B",
"s+	c #FEBF4B",
"t+	c #FCBE4D",
"u+	c #F9BD4D",
"v+	c #FABC4F",
"w+	c #FBBD4E",
"x+	c #FBBD4C",
"y+	c #FBC04A",
"z+	c #F3BF45",
"A+	c #FDC95C",
"B+	c #BF873D",
"C+	c #6F3205",
"D+	c #773A1D",
"E+	c #6A3523",
"F+	c #71493D",
"G+	c #603522",
"H+	c #6D3A1B",
"I+	c #652E05",
"J+	c #B17C3A",
"K+	c #FFD972",
"L+	c #FFD455",
"M+	c #FFD74A",
"N+	c #FFD752",
"O+	c #FFD74F",
"P+	c #FFD74D",
"Q+	c #FFD64E",
"R+	c #FCD44E",
"S+	c #FFD966",
"T+	c #C18D42",
"U+	c #6B3304",
"V+	c #763A1E",
"W+	c #693625",
"X+	c #704A3D",
"Y+	c #80625A",
"Z+	c #633525",
"`+	c #754225",
" @	c #673409",
".@	c #AF7E39",
"+@	c #FFDA6B",
"@@	c #F7D34B",
"#@	c #F8D440",
"$@	c #FCD741",
"%@	c #FED849",
"&@	c #FCD748",
"*@	c #FCDA45",
"=@	c #FDDB46",
"-@	c #FBD745",
";@	c #FAD64A",
">@	c #FFDC65",
",@	c #BE8E42",
"'@	c #652F01",
")@	c #743B20",
"!@	c #6F4B3D",
"~@	c #7E5C5B",
"{@	c #622E21",
"]@	c #783F22",
"^@	c #693005",
"/@	c #AC7A33",
"(@	c #FFD66A",
"_@	c #F9D450",
":@	c #FDD849",
"<@	c #FFDA47",
"[@	c #FFD749",
"}@	c #FBD244",
"|@	c #FDD542",
"1@	c #FFD744",
"2@	c #FED444",
"3@	c #FDD448",
"4@	c #FAD34A",
"5@	c #FFDB67",
"6@	c #C18F46",
"7@	c #683206",
"8@	c #733B20",
"9@	c #673625",
"0@	c #6D4C3D",
"a@	c #FFEDDF",
"b@	c #846060",
"c@	c #652F25",
"d@	c #7A3C23",
"e@	c #6A2F05",
"f@	c #B27B38",
"g@	c #FFD774",
"h@	c #FFD25A",
"i@	c #FFD350",
"j@	c #FFD34C",
"k@	c #FFD34F",
"l@	c #FFD14E",
"m@	c #FFD451",
"n@	c #FFD050",
"o@	c #FFCD50",
"p@	c #FFD76B",
"q@	c #C18C46",
"r@	c #673105",
"s@	c #733B22",
"t@	c #673627",
"u@	c #82615A",
"v@	c #663227",
"w@	c #783A25",
"x@	c #6C3109",
"y@	c #AC6E31",
"z@	c #FEBC66",
"A@	c #F1B04A",
"B@	c #F7B74D",
"C@	c #F1B346",
"D@	c #F5BB4D",
"E@	c #F3BB4C",
"F@	c #F2BA4D",
"G@	c #EFB549",
"H@	c #F3B44A",
"I@	c #F6B95C",
"J@	c #BC813F",
"K@	c #6E3309",
"L@	c #733B24",
"M@	c #663429",
"N@	c #6F4D43",
"O@	c #806257",
"P@	c #663129",
"Q@	c #783927",
"R@	c #AA682E",
"S@	c #FBAF61",
"T@	c #F1A246",
"U@	c #F5A94B",
"V@	c #F0A846",
"W@	c #F2AE4B",
"X@	c #ECAB47",
"Y@	c #F0B04E",
"Z@	c #EEAA49",
"`@	c #F3A94A",
" #	c #F2A648",
".#	c #EFA647",
"+#	c #F3AF5A",
"@#	c #BC7A3D",
"##	c #6E3007",
"$#	c #753B27",
"%#	c #67352A",
"&#	c #734E46",
"*#	c #653028",
"=#	c #70300A",
"-#	c #AF6A2F",
";#	c #FEAF60",
">#	c #F7A349",
",#	c #FCA94D",
"'#	c #F8A94A",
")#	c #F8AE4D",
"!#	c #F2AA48",
"~#	c #F6AE4C",
"{#	c #F5AB4A",
"]#	c #FBAB4C",
"^#	c #FBA84A",
"/#	c #FBB15C",
"(#	c #BF7B3C",
"_#	c #753823",
":#	c #653328",
"<#	c #7F6357",
"[#	c #653126",
"}#	c #6B2B05",
"|#	c #AE682D",
"1#	c #FFB061",
"2#	c #FDA54B",
"3#	c #FFA84B",
"4#	c #FBA747",
"5#	c #FCAC4B",
"6#	c #F9AB49",
"7#	c #F6A846",
"8#	c #F7A746",
"9#	c #FEA748",
"0#	c #FCA546",
"a#	c #F8A849",
"b#	c #FBAF5B",
"c#	c #C0793B",
"d#	c #733208",
"e#	c #763924",
"f#	c #663527",
"g#	c #714C43",
"h#	c #7F6355",
"i#	c #653124",
"j#	c #73340B",
"k#	c #B06A2E",
"l#	c #FDAA5A",
"m#	c #F9A046",
"n#	c #FBA244",
"o#	c #F9A241",
"p#	c #F8A643",
"q#	c #F5A542",
"r#	c #F7A542",
"s#	c #FAA644",
"t#	c #FFA746",
"u#	c #FDA544",
"v#	c #F8A545",
"w#	c #F4A852",
"x#	c #BA7333",
"y#	c #733005",
"z#	c #7E4029",
"A#	c #6E3A2D",
"B#	c #735147",
"C#	c #7F6453",
"D#	c #633223",
"E#	c #773922",
"F#	c #6C2D04",
"G#	c #9C561A",
"H#	c #DA8737",
"I#	c #D67D23",
"J#	c #DA7F22",
"K#	c #DA8221",
"L#	c #D68220",
"M#	c #D4801D",
"N#	c #D88422",
"O#	c #D88120",
"P#	c #D97C1D",
"Q#	c #D4791C",
"R#	c #D48020",
"S#	c #DC8E39",
"T#	c #B36C2C",
"U#	c #803D12",
"V#	c #7D3F28",
"W#	c #6D392B",
"X#	c #725044",
"Y#	c #763A22",
"Z#	c #7A3B12",
"`#	c #A05A1F",
" $	c #D68335",
".$	c #D37921",
"+$	c #D77C21",
"@$	c #D67F1E",
"#$	c #D4801E",
"$$	c #D88122",
"%$	c #DC8325",
"&$	c #E48529",
"*$	c #E4862C",
"=$	c #DC872A",
"-$	c #D88A37",
";$	c #A86123",
">$	c #763309",
",$	c #773920",
"'$	c #673325",
")$	c #806353",
"!$	c #633224",
"~$	c #773924",
"{$	c #6F2F0B",
"]$	c #964D18",
"^$	c #CD762F",
"/$	c #CC6D1D",
"($	c #D0701C",
"_$	c #D2721C",
":$	c #CF741B",
"<$	c #D3781F",
"[$	c #D4761F",
"}$	c #D4741E",
"|$	c #D46F1D",
"1$	c #D06D1A",
"2$	c #C76D17",
"3$	c #C77428",
"4$	c #A1561D",
"5$	c #78330C",
"6$	c #783721",
"7$	c #714D3F",
"8$	c #846759",
"9$	c #602C21",
"0$	c #773525",
"a$	c #7B3619",
"b$	c #98491E",
"c$	c #CB6E33",
"d$	c #CF6825",
"e$	c #D36A26",
"f$	c #D56D26",
"g$	c #CC661C",
"h$	c #CB651A",
"i$	c #CB631A",
"j$	c #CE631B",
"k$	c #CD5E19",
"l$	c #CC611B",
"m$	c #C5631A",
"n$	c #C3692A",
"o$	c #A15021",
"p$	c #772E0E",
"q$	c #7A3726",
"r$	c #683226",
"s$	c #6E483D",
"t$	c #836656",
"u$	c #6B372C",
"v$	c #864434",
"w$	c #813C1D",
"x$	c #A5562B",
"y$	c #CC6E31",
"z$	c #CE6521",
"A$	c #CA5D18",
"B$	c #D1651D",
"C$	c #D0661A",
"D$	c #CF6519",
"E$	c #C85C11",
"F$	c #D6671F",
"G$	c #D6641E",
"H$	c #D2631C",
"I$	c #CE6820",
"J$	c #CA6E2D",
"K$	c #A35122",
"L$	c #793010",
"M$	c #7D3A29",
"N$	c #6B3529",
"O$	c #704A3F",
"P$	c #FBE5DA",
"Q$	c #876C59",
"R$	c #6A3928",
"S$	c #783A21",
"T$	c #76350D",
"U$	c #974C15",
"V$	c #CA6D27",
"W$	c #D16C1A",
"X$	c #D06813",
"Y$	c #CF650D",
"Z$	c #CD6609",
"`$	c #D36C0D",
" %	c #D66D11",
".%	c #D3670D",
"+%	c #D1610B",
"@%	c #D56813",
"#%	c #D16F18",
"$%	c #C77023",
"%%	c #A3541B",
"&%	c #78330A",
"*%	c #683524",
"=%	c #856E5C",
"-%	c #673C2C",
";%	c #763F2A",
">%	c #713616",
",%	c #995727",
"'%	c #D48344",
")%	c #CD722B",
"!%	c #D4762C",
"~%	c #DE7E31",
"{%	c #D97D2A",
"]%	c #D47825",
"^%	c #D87929",
"/%	c #DA792A",
"(%	c #DE7A2F",
"_%	c #D8782C",
":%	c #CE772A",
"<%	c #CE7F3C",
"[%	c #AC6633",
"}%	c #713211",
"|%	c #703924",
"1%	c #6A4D3F",
"2%	c #7B6B5E",
"3%	c #583531",
"4%	c #653833",
"5%	c #6A3C2F",
"6%	c #79452F",
"7%	c #8C4A28",
"8%	c #8F4520",
"9%	c #893D19",
"0%	c #863B14",
"a%	c #873E15",
"b%	c #884117",
"c%	c #893E17",
"d%	c #8A3C16",
"e%	c #8E3C17",
"f%	c #8C3E18",
"g%	c #8A4319",
"h%	c #81411B",
"i%	c #633631",
"j%	c #4F2C28",
"k%	c #5D463E",
"l%	c #F4EAE1",
"m%	c #D7CEC5",
"n%	c #D8C0C0",
"o%	c #E1C1C4",
"p%	c #E5C7C7",
"q%	c #A5837A",
"r%	c #512314",
"s%	c #683321",
"t%	c #6A3527",
"u%	c #612D1F",
"v%	c #5E2F1F",
"w%	c #5D2E1E",
"x%	c #5C2B1C",
"y%	c #612C1E",
"z%	c #63291D",
"A%	c #612918",
"B%	c #5C2A13",
"C%	c #522510",
"D%	c #89635A",
"E%	c #E7C5C3",
"F%	c #DFBFC2",
"G%	c #DAC1C4",
"H%	c #D6C7C2",
"I%	c #E9DBD8",
"J%	c #B49E93",
"K%	c #C4A99E",
"L%	c #C2A9A2",
"M%	c #C1AAA2",
"N%	c #C2B1A7",
"O%	c #BCABA1",
"P%	c #B8A59E",
"Q%	c #BEA7A1",
"R%	c #BFA49D",
"S%	c #BDA196",
"T%	c #C1AA9A",
"U%	c #BBA899",
"V%	c #D8C7C0",
"                  . + @ # $ % & * = - ; > , '                   ",
"            ) !   ~ { ] ^ / ( _ : < [ } | 1 2   3   4           ",
"          5 6 7 8 9 0 a b c d e f g h i j k l m n o p q         ",
"          r s t u v w x y z A B y C D E F G H I J K L           ",
"          M N O P Q R S T U V W X Y Z `  ...+.@.#.$.%.          ",
"        &.*.=.-.;.>.,.'.).!.~.{.].^./.(._.:.<.[.}.|.1.          ",
"          2.3.4.5.6.7.8.9.0.a.b.c.d.e.f.g.h.i.j.k.l.m.n.        ",
"          o.p.q.r.s.t.u.v.w.x.y.z.A.B.C.D.E.F.G.H.I.J.K.        ",
"          L.M.N.O.P.Q.R.S.T.U.V.W.X.Y.Z.`. +.+++@+#+$+          ",
"          %+&+*+=+-+;+>+,+'+)+!+~+{+)+]+^+/+(+_+:+<+[+          ",
"          }+|+1+2+3+4+5+6+7+8+9+0+a+b+c+d+e+f+g+h+i+j+          ",
"          k+l+m+n+o+p+q+r+s+t+u+v+w+x+y+z+A+B+C+D+E+F+          ",
"          k+G+H+I+J+K+L+c.M+N+N+O+P+Q+O+R+S+T+U+V+W+X+          ",
"          Y+Z+`+ @.@+@@@#@$@%@&@*@=@-@&@;@>@,@'@)@W+!@          ",
"          ~@{@]@^@/@(@_@:@<@[@}@|@1@2@3@4@5@6@7@8@9@0@a@        ",
"          b@c@d@e@f@g@h@i@j@k@i@l@m@i@n@o@p@q@r@s@t@0@          ",
"          u@v@w@x@y@z@A@B@C@D@E@F@G@B@B@H@I@J@K@L@M@N@          ",
"          O@P@Q@++R@S@T@U@V@W@X@Y@Z@`@ #.#+#@###$#%#&#          ",
"          O@*#Q@=#-#;#>#,#'#)#!#~#{#]#^#'#/#(#g+_#:#m.          ",
"          <#[#Q@}#|#1#2#3#4#5#6#7#8#9#0#a#b#c#d#e#f#g#          ",
"          h#i#w@j#k#l#m#n#o#p#q#r#s#t#u#v#w#x#y#z#A#B#          ",
"          C#D#E#F#G#H#I#J#K#L#M#N#O#P#Q#R#S#T#U#V#W#X#          ",
"          C#D#Y#Z#`# $.$+$J#@$#$$$%$&$*$=$-$;$>$,$'$1.          ",
"          )$!$~${$]$^$/$($_$:$<$[$}$|$1$2$3$4$5$6$'$7$          ",
"          8$9$0$a$b$c$d$e$f$g$h$i$j$k$l$m$n$o$p$q$r$s$          ",
"          t$u$v$w$x$y$z$A$B$C$D$E$F$G$H$I$J$K$L$M$N$O$P$        ",
"          Q$R$S$T$U$V$W$X$Y$Z$`$ %.%+%@%#%$%%%&%,$*%7$          ",
"          =%-%;%>%,%'%)%!%~%{%]%^%/%(%_%:%<%[%}%|%-%1%          ",
"          2%3%4%5%6%7%8%9%0%a%b%c%d%e%f%g%h%s@!$i%j%k%l%        ",
"          m%n%o%p%q%r%s%t%u%v%w%x%y%z%A%B%C%D%E%F%G%H%          ",
"                  I%J%K%L%M%N%O%P%Q%R%S%T%U%V%                  ",
"                                                                "};
