/* XPM */
static char * coins_3_xpm[] = {
"32 32 822 2",
"  	c #C8A2C8",
". 	c #FFEEDC",
"+ 	c #FFE5C8",
"@ 	c #FFE8C2",
"# 	c #FFEAC1",
"$ 	c #FFEBC7",
"% 	c #FFEED8",
"& 	c #FDE6D6",
"* 	c #FFEADF",
"= 	c #FFFCE2",
"- 	c #FFE6D2",
"; 	c #A77F66",
"> 	c #B58463",
", 	c #B17C52",
"' 	c #AF7A50",
") 	c #AA7B4F",
"! 	c #6F4C22",
"~ 	c #6E4E25",
"{ 	c #704D27",
"] 	c #644322",
"^ 	c #806C53",
"/ 	c #FFF8E2",
"( 	c #F0CDA7",
"_ 	c #AA7B45",
": 	c #C38C56",
"< 	c #C48961",
"[ 	c #763813",
"} 	c #72330A",
"| 	c #7D3D0F",
"1 	c #793504",
"2 	c #824407",
"3 	c #DAAA56",
"4 	c #D8AD51",
"5 	c #E1B25A",
"6 	c #E2B467",
"7 	c #C29B60",
"8 	c #835C31",
"9 	c #88593F",
"0 	c #90604C",
"a 	c #7B5138",
"b 	c #A0816C",
"c 	c #FFF4DF",
"d 	c #CA9F75",
"e 	c #D49D64",
"f 	c #F1B26B",
"g 	c #9A580E",
"h 	c #833F00",
"i 	c #D29054",
"j 	c #D28E51",
"k 	c #D58F53",
"l 	c #C87D43",
"m 	c #D18941",
"n 	c #FEC05D",
"o 	c #FDC355",
"p 	c #FDC055",
"q 	c #FBC15E",
"r 	c #E8B461",
"s 	c #947153",
"t 	c #826B5D",
"u 	c #CBBEB8",
"v 	c #FAE2C8",
"w 	c #DAB692",
"x 	c #E8B78E",
"y 	c #DDA670",
"z 	c #CA914C",
"A 	c #C89043",
"B 	c #C28D3D",
"C 	c #B7832F",
"D 	c #BB832C",
"E 	c #FDC46A",
"F 	c #FFC76D",
"G 	c #FFC36D",
"H 	c #F9B167",
"I 	c #F8AC61",
"J 	c #F1A44C",
"K 	c #F2A646",
"L 	c #EFA546",
"M 	c #EFA94A",
"N 	c #EEAB52",
"O 	c #FAB661",
"P 	c #FBAF63",
"Q 	c #F7B676",
"R 	c #F9D0A2",
"S 	c #E6CBAD",
"T 	c #9B8170",
"U 	c #A58D83",
"V 	c #BCA49A",
"W 	c #F4DCC4",
"X 	c #DAB483",
"Y 	c #AD7A39",
"Z 	c #B77B33",
"` 	c #C5873A",
" .	c #F0B768",
"..	c #C89441",
"+.	c #885A04",
"@.	c #E3B458",
"#.	c #FFCB67",
"$.	c #E7AC44",
"%.	c #EBAB3F",
"&.	c #F6B24D",
"*.	c #EFA850",
"=.	c #F5A856",
"-.	c #FAA854",
";.	c #FFAD56",
">.	c #FBA74F",
",.	c #F9AA4D",
"'.	c #F9AF4E",
").	c #E9A13D",
"!.	c #F6AE4C",
"~.	c #E0A654",
"{.	c #FFEDB8",
"].	c #FFFAD9",
"^.	c #FFF5DD",
"/.	c #D1AD97",
"(.	c #6F452C",
"_.	c #C8A591",
":.	c #E2D7D1",
"<.	c #FFE9CC",
"[.	c #987243",
"}.	c #BC8F3C",
"|.	c #FFD26A",
"1.	c #FFD86F",
"2.	c #F9C869",
"3.	c #784702",
"4.	c #BB8E4A",
"5.	c #FFF79D",
"6.	c #EEC15C",
"7.	c #E5A645",
"8.	c #F5AD49",
"9.	c #F5AD3F",
"0.	c #F3AB3D",
"a.	c #F1A943",
"b.	c #F2A94A",
"c.	c #F1A148",
"d.	c #F19D47",
"e.	c #F29C47",
"f.	c #F6A549",
"g.	c #EEA43B",
"h.	c #F7B545",
"i.	c #EDB13F",
"j.	c #DDB254",
"k.	c #FDEEB7",
"l.	c #FFFFDC",
"m.	c #FFEECA",
"n.	c #FCC8A1",
"o.	c #E8AC7A",
"p.	c #754419",
"q.	c #6D5B47",
"r.	c #FFE9C0",
"s.	c #A5773B",
"t.	c #C69431",
"u.	c #FFD75E",
"v.	c #FFD45A",
"w.	c #F0C157",
"x.	c #6B3900",
"y.	c #A77633",
"z.	c #FFDA78",
"A.	c #E4B34A",
"B.	c #EDA849",
"C.	c #FEAF52",
"D.	c #F9AA43",
"E.	c #F5A63D",
"F.	c #FFB14C",
"G.	c #EE9F40",
"H.	c #C17118",
"I.	c #BD6B15",
"J.	c #C46C15",
"K.	c #D07D1D",
"L.	c #D78F21",
"M.	c #FFCC55",
"N.	c #FFCD53",
"O.	c #F4CE63",
"P.	c #FFFAB6",
"Q.	c #FDE7B5",
"R.	c #DEAF79",
"S.	c #EBAA70",
"T.	c #EDA666",
"U.	c #834A15",
"V.	c #7D634A",
"W.	c #FFE9BE",
"X.	c #A7793B",
"Y.	c #C38E2E",
"Z.	c #FFCF5B",
"`.	c #FFD65D",
" +	c #FCC254",
".+	c #A96816",
"++	c #CB8E3B",
"@+	c #FFD469",
"#+	c #EBB646",
"$+	c #F5AC4D",
"%+	c #FAA64E",
"&+	c #FFA74D",
"*+	c #FFAD53",
"=+	c #D97A26",
"-+	c #CA6F1C",
";+	c #DD8B37",
">+	c #DD8D34",
",+	c #E38C2F",
"'+	c #FFB451",
")+	c #FFBA4B",
"!+	c #C1860E",
"~+	c #EBB537",
"{+	c #FFD862",
"]+	c #E9C066",
"^+	c #E4B565",
"/+	c #F0AD5C",
"(+	c #F4A85A",
"_+	c #F2AA60",
":+	c #824612",
"<+	c #805D4A",
"[+	c #FFE1B6",
"}+	c #A7763B",
"|+	c #C98C31",
"1+	c #FFBC51",
"2+	c #F5B343",
"3+	c #F1AD48",
"4+	c #964F01",
"5+	c #BC7928",
"6+	c #FFD868",
"7+	c #EFB643",
"8+	c #F8A94D",
"9+	c #FFA756",
"0+	c #EE923F",
"a+	c #D67A27",
"b+	c #DC7D2B",
"c+	c #E08532",
"d+	c #E4943D",
"e+	c #EA9B3F",
"f+	c #E99233",
"g+	c #F19D3A",
"h+	c #F1AD42",
"i+	c #F7BB49",
"j+	c #E4AC31",
"k+	c #CF9821",
"l+	c #EAAF49",
"m+	c #EBA94B",
"n+	c #FAAB4E",
"o+	c #FAAA53",
"p+	c #F4AA5F",
"q+	c #825C49",
"r+	c #FFEAC7",
"s+	c #B27846",
"t+	c #C27B29",
"u+	c #F7AB49",
"v+	c #F7AD4A",
"w+	c #E79F4A",
"x+	c #782D00",
"y+	c #B57132",
"z+	c #FFD466",
"A+	c #F1B942",
"B+	c #F89F4B",
"C+	c #EA853D",
"D+	c #DE7E31",
"E+	c #CD7420",
"F+	c #E49337",
"G+	c #E49838",
"H+	c #E19235",
"I+	c #E69637",
"J+	c #EA9334",
"K+	c #E69333",
"L+	c #E09A3A",
"M+	c #F9BA53",
"N+	c #E9AD3D",
"O+	c #EAAB3A",
"P+	c #E39A33",
"Q+	c #E79736",
"R+	c #FBA64B",
"S+	c #FBA957",
"T+	c #F4A965",
"U+	c #7F4611",
"V+	c #805E42",
"W+	c #FFE4C4",
"X+	c #AB7143",
"Y+	c #C6803A",
"Z+	c #F7AC5B",
"`+	c #EDA85A",
" @	c #E19E58",
".@	c #742D00",
"+@	c #AC6C2F",
"@@	c #FFD265",
"#@	c #F6BB45",
"$@	c #F69C46",
"%@	c #C66016",
"&@	c #D9792C",
"*@	c #EA943F",
"=@	c #E59B3A",
"-@	c #DF9731",
";@	c #E49634",
">@	c #E79434",
",@	c #EA9739",
"'@	c #E9983C",
")@	c #DE9536",
"!@	c #D5942E",
"~@	c #F0B340",
"{@	c #FFD760",
"]@	c #DB8F21",
"^@	c #DF8D29",
"/@	c #F8A44A",
"(@	c #F9A859",
"_@	c #F4A968",
":@	c #7F4513",
"<@	c #7D6042",
"[@	c #FFE6C3",
"}@	c #CE935B",
"|@	c #EDB276",
"1@	c #EAB981",
"2@	c #E5B37E",
"3@	c #854811",
"4@	c #BD8139",
"5@	c #FFD66C",
"6@	c #F7B948",
"7@	c #F79E40",
"8@	c #C4610E",
"9@	c #D47926",
"0@	c #EE9A44",
"a@	c #DE8F33",
"b@	c #E19535",
"c@	c #E89835",
"d@	c #E99938",
"e@	c #E8973C",
"f@	c #E59639",
"g@	c #E59C35",
"h@	c #D89522",
"i@	c #F1BB35",
"j@	c #FFD049",
"k@	c #D59319",
"l@	c #D78D22",
"m@	c #F3A84D",
"n@	c #F5A75D",
"o@	c #F6A86A",
"p@	c #824518",
"q@	c #7B614A",
"r@	c #FFE9C8",
"s@	c #D7A985",
"t@	c #E7B88A",
"u@	c #FFF8C6",
"v@	c #FFFACC",
"w@	c #FFE5B4",
"x@	c #E5AD70",
"y@	c #F2B364",
"z@	c #FFCA67",
"A@	c #F4B149",
"B@	c #F69D41",
"C@	c #CE6E18",
"D@	c #CE7823",
"E@	c #E3913B",
"F@	c #E49338",
"G@	c #E89837",
"H@	c #E89934",
"I@	c #E39533",
"J@	c #E3933C",
"K@	c #E2953B",
"L@	c #E39530",
"M@	c #E09B24",
"N@	c #EBB52E",
"O@	c #FFD349",
"P@	c #D89419",
"Q@	c #D48C1E",
"R@	c #F3AC50",
"S@	c #F3AA5D",
"T@	c #F7A967",
"U@	c #834516",
"V@	c #7B604B",
"W@	c #FFE5D1",
"X@	c #694225",
"Y@	c #A68457",
"Z@	c #FFFCC8",
"`@	c #FFFCCA",
" #	c #FFE7B1",
".#	c #B57A36",
"+#	c #CC8739",
"@#	c #F9B35B",
"##	c #F6A94F",
"$#	c #F79B46",
"%#	c #C96A18",
"&#	c #CE7926",
"*#	c #E89640",
"=#	c #EF9A3D",
"-#	c #EA9633",
";#	c #E99B36",
">#	c #E29442",
",#	c #E79645",
"'#	c #E18E32",
")#	c #DD9326",
"!#	c #E9AF32",
"~#	c #FFDA5A",
"{#	c #D88B17",
"]#	c #D5841B",
"^#	c #F3AD4E",
"/#	c #F0AC59",
"(#	c #F5AB60",
"_#	c #834610",
":#	c #7F5E4D",
"<#	c #FFE6D6",
"[#	c #8F6D51",
"}#	c #B3925D",
"|#	c #F7DA96",
"1#	c #F8DD98",
"2#	c #F0CB85",
"3#	c #7F4400",
"4#	c #B66E26",
"5#	c #F2AA55",
"6#	c #FCAC55",
"7#	c #FCA04D",
"8#	c #C0610F",
"9#	c #D47F2C",
"0#	c #F09C44",
"a#	c #EA9336",
"b#	c #EA9332",
"c#	c #E1932E",
"d#	c #E29140",
"e#	c #E49143",
"f#	c #EB963C",
"g#	c #F0A33B",
"h#	c #F9BE46",
"i#	c #FFCC50",
"j#	c #D28010",
"k#	c #D27B14",
"l#	c #F4AA4B",
"m#	c #F1AB56",
"n#	c #F4AC60",
"o#	c #824610",
"p#	c #805F4C",
"q#	c #FFEDDB",
"r#	c #785832",
"s#	c #A57F34",
"t#	c #FFDC7C",
"u#	c #F7CE65",
"v#	c #F3C266",
"w#	c #733700",
"x#	c #A66128",
"y#	c #F7B15C",
"z#	c #F2A648",
"A#	c #F79F48",
"B#	c #C36913",
"C#	c #CE761D",
"D#	c #E99138",
"E#	c #E99137",
"F#	c #E6922F",
"G#	c #E89535",
"H#	c #E59341",
"I#	c #E99443",
"J#	c #EB9639",
"K#	c #F5A83E",
"L#	c #F7BD40",
"M#	c #FFD052",
"N#	c #D68212",
"O#	c #DE821D",
"P#	c #F9A648",
"Q#	c #F3A654",
"R#	c #F5AC68",
"S#	c #7B4312",
"T#	c #7E5F4A",
"U#	c #FFE6D5",
"V#	c #684621",
"W#	c #9A6C1F",
"X#	c #FCC761",
"Y#	c #FAC253",
"Z#	c #EFB353",
"`#	c #733400",
" $	c #A76531",
".$	c #F3B258",
"+$	c #FAB54D",
"@$	c #F5A647",
"#$	c #C47115",
"$$	c #D17C1F",
"%$	c #E59035",
"&$	c #F19942",
"*$	c #EB933A",
"=$	c #EA9634",
"-$	c #EA9542",
";$	c #DB8633",
">$	c #EE993C",
",$	c #F1A73C",
"'$	c #FEC64B",
")$	c #FFD055",
"!$	c #E59025",
"~$	c #DC7E1E",
"{$	c #FDA649",
"]$	c #FAAC5A",
"^$	c #EEA966",
"/$	c #845021",
"($	c #9E836E",
"_$	c #FFE8DA",
":$	c #674225",
"<$	c #996323",
"[$	c #F2B15D",
"}$	c #F5AE54",
"|$	c #E69F51",
"1$	c #733101",
"2$	c #A56831",
"3$	c #F2BB56",
"4$	c #FFCD56",
"5$	c #FFC257",
"6$	c #B26903",
"7$	c #CE8220",
"8$	c #EC9C3D",
"9$	c #E28D30",
"0$	c #E69134",
"a$	c #E59534",
"b$	c #E59438",
"c$	c #E5903D",
"d$	c #EF9A3F",
"e$	c #EFA63F",
"f$	c #F0BB49",
"g$	c #FFD261",
"h$	c #DF8827",
"i$	c #D6771D",
"j$	c #FFAD52",
"k$	c #F6AB58",
"l$	c #E5A661",
"m$	c #9C6D3F",
"n$	c #B89E8F",
"o$	c #FFE7DC",
"p$	c #6E462C",
"q$	c #9D622A",
"r$	c #F3AB63",
"s$	c #F2A557",
"t$	c #E79A54",
"u$	c #793609",
"v$	c #AD7236",
"w$	c #FFCF4F",
"x$	c #FFC350",
"y$	c #BB760E",
"z$	c #CB7F1D",
"A$	c #E09031",
"B$	c #EB9737",
"C$	c #E79333",
"D$	c #E59536",
"E$	c #E09134",
"F$	c #E5943B",
"G$	c #F2A148",
"H$	c #FDAD4C",
"I$	c #F3AE46",
"J$	c #F5C153",
"K$	c #FFD165",
"L$	c #C87519",
"M$	c #CA7018",
"N$	c #FFAE52",
"O$	c #E7AB62",
"P$	c #B38554",
"Q$	c #B4988C",
"R$	c #FFE6DD",
"S$	c #70462E",
"T$	c #9D5E29",
"U$	c #FCB16D",
"V$	c #F8A95E",
"W$	c #E99E5A",
"X$	c #773707",
"Y$	c #A97333",
"Z$	c #FFD969",
"`$	c #FFD04D",
" %	c #FDBE4C",
".%	c #B66D06",
"+%	c #CC7C1D",
"@%	c #ED9A3E",
"#%	c #E99638",
"$%	c #E89537",
"%%	c #E79738",
"&%	c #E39437",
"*%	c #F1A543",
"=%	c #F1A640",
"-%	c #E9A93D",
";%	c #ECBC4E",
">%	c #FFCF64",
",%	c #C87E1F",
"'%	c #CD7C20",
")%	c #F2A943",
"!%	c #F0AB4C",
"~%	c #EFB063",
"{%	c #B98555",
"]%	c #B38E86",
"^%	c #FFE7DE",
"/%	c #70432C",
"(%	c #9A5923",
"_%	c #FFB169",
":%	c #FAA85C",
"<%	c #E79A52",
"[%	c #723300",
"}%	c #A46F2D",
"|%	c #FFD666",
"1%	c #F2BF3F",
"2%	c #F3B03F",
"3%	c #F7A744",
"4%	c #DD882E",
"5%	c #BD6710",
"6%	c #DD8A2E",
"7%	c #DE8E2B",
"8%	c #E79C36",
"9%	c #D38C24",
"0%	c #EAA53D",
"a%	c #FDB549",
"b%	c #FFCE63",
"c%	c #E2A940",
"d%	c #B47915",
"e%	c #E4993E",
"f%	c #ED9E41",
"g%	c #F3AD4D",
"h%	c #EFAC5E",
"i%	c #B1794A",
"j%	c #BF9990",
"k%	c #FFE2DB",
"l%	c #6E4229",
"m%	c #975217",
"n%	c #E99849",
"o%	c #E5913B",
"p%	c #D8893A",
"q%	c #773600",
"r%	c #AC7532",
"s%	c #FFD96C",
"t%	c #EFB73E",
"u%	c #FFAB4E",
"v%	c #FA9F4C",
"w%	c #E68D3B",
"x%	c #CB7923",
"y%	c #CF8323",
"z%	c #FFBB4F",
"A%	c #FFBD4A",
"B%	c #FFC753",
"C%	c #FFC756",
"D%	c #FFB54A",
"E%	c #D2831E",
"F%	c #D5882C",
"G%	c #F9A451",
"H%	c #FFAF5A",
"I%	c #FAAB4C",
"J%	c #F4A94E",
"K%	c #F0A860",
"L%	c #995F31",
"M%	c #B59387",
"N%	c #FFE6E0",
"O%	c #754B35",
"P%	c #99541D",
"Q%	c #CD7A2E",
"R%	c #C66D1B",
"S%	c #C26F23",
"T%	c #773200",
"U%	c #AD7431",
"V%	c #FFD46B",
"W%	c #EEB541",
"X%	c #F5AA45",
"Y%	c #FFA94F",
"Z%	c #FCA150",
"`%	c #FFAF5F",
" &	c #D98C34",
".&	c #D28829",
"+&	c #E59C33",
"@&	c #E4A031",
"#&	c #DCA030",
"$&	c #DD9F32",
"%&	c #E39531",
"&&	c #D78021",
"*&	c #F0983F",
"=&	c #FFA854",
"-&	c #FBA250",
";&	c #FCA852",
">&	c #F7A84B",
",&	c #F2A851",
"'&	c #7D4216",
")&	c #947465",
"!&	c #FDEAE4",
"~&	c #704D3A",
"{&	c #874316",
"]&	c #BF662A",
"^&	c #CD6C28",
"/&	c #C46827",
"(&	c #6F2600",
"_&	c #B27637",
":&	c #FFD673",
"<&	c #EFB748",
"[&	c #F3AB47",
"}&	c #F9A54B",
"|&	c #FAA44F",
"1&	c #FAA650",
"2&	c #F9AE51",
"3&	c #F5AB4C",
"4&	c #CB771D",
"5&	c #CD7C21",
"6&	c #BF781C",
"7&	c #C2791D",
"8&	c #D58129",
"9&	c #FFA74F",
"0&	c #FCA74C",
"a&	c #F8AE4F",
"b&	c #F1AB4C",
"c&	c #EFAB56",
"d&	c #F6B275",
"e&	c #7A431C",
"f&	c #755546",
"g&	c #F5E7E4",
"h&	c #7B5F53",
"i&	c #915A3B",
"j&	c #AB6036",
"k&	c #B66331",
"l&	c #AB5728",
"m&	c #863D12",
"n&	c #AB6A32",
"o&	c #F8BD63",
"p&	c #EBB04A",
"q&	c #FAB556",
"r&	c #F0A64D",
"s&	c #FBAD58",
"t&	c #F5A850",
"u&	c #F6A94D",
"v&	c #F1A245",
"w&	c #FFAB53",
"x&	c #FFAC59",
"y&	c #F9AB58",
"z&	c #FBAD5A",
"A&	c #FEA855",
"B&	c #FFA852",
"C&	c #FEA64C",
"D&	c #FBAF4F",
"E&	c #F0AA4B",
"F&	c #ECAC54",
"G&	c #E2A65D",
"H&	c #D59E68",
"I&	c #855837",
"J&	c #90796B",
"K&	c #D1B1A4",
"L&	c #613721",
"M&	c #6D3A1F",
"N&	c #7E4325",
"O&	c #B37053",
"P&	c #A1582D",
"Q&	c #7A3200",
"R&	c #E09D42",
"S&	c #FFC36A",
"T&	c #E5A951",
"U&	c #E7A952",
"V&	c #EFA953",
"W&	c #F9A44A",
"X&	c #F4A94C",
"Y&	c #F6A951",
"Z&	c #FBAB56",
"`&	c #F4A04A",
" *	c #FFA952",
".*	c #F5A246",
"+*	c #F3A64C",
"@*	c #F0AA55",
"#*	c #EBAF66",
"$*	c #AA793F",
"%*	c #5C3911",
"&*	c #E7D1BA",
"**	c #F3DED9",
"=*	c #FFE4D9",
"-*	c #F1CCBC",
";*	c #693623",
">*	c #8C502E",
",*	c #CA884C",
"'*	c #985810",
")*	c #975D14",
"!*	c #FFCA80",
"~*	c #FFC87D",
"{*	c #EFAD61",
"]*	c #F6A458",
"^*	c #FDAB57",
"/*	c #ECA845",
"(*	c #EDAE47",
"_*	c #EDA64A",
":*	c #F1A750",
"<*	c #F3AB57",
"[*	c #F8B15F",
"}*	c #FBB764",
"|*	c #F4B363",
"1*	c #F7B46D",
"2*	c #D99D5E",
"3*	c #683807",
"4*	c #B3916C",
"5*	c #FFEED6",
"6*	c #F8F0E5",
"7*	c #FDECE5",
"8*	c #E4CCC0",
"9*	c #AF8F76",
"0*	c #6A3F14",
"a*	c #653300",
"b*	c #6A3203",
"c*	c #955B2B",
"d*	c #965C2A",
"e*	c #995C25",
"f*	c #9B5A20",
"g*	c #A6681D",
"h*	c #FFD56D",
"i*	c #FFD060",
"j*	c #FFCD6A",
"k*	c #FFD881",
"l*	c #E7B266",
"m*	c #7D4C09",
"n*	c #794D10",
"o*	c #7F5620",
"p*	c #7C5127",
"q*	c #8A6143",
"r*	c #D6B5A2",
"s*	c #ECD8CF",
"t*	c #E6DDCC",
"u*	c #AE9880",
"v*	c #C3A186",
"w*	c #BD9079",
"x*	c #5D2D16",
"y*	c #562709",
"z*	c #592905",
"A*	c #663806",
"B*	c #9A7324",
"C*	c #9E761F",
"D*	c #9E7227",
"E*	c #A37A3A",
"F*	c #AC8953",
"G*	c #C0A377",
"H*	c #C0A681",
"I*	c #BEA68A",
"J*	c #AF9584",
"K*	c #CAB1AA",
"L*	c #A08884",
"M*	c #9E8779",
"N*	c #A58B7A",
"O*	c #A7897E",
"P*	c #A58576",
"Q*	c #997A65",
"R*	c #9D7F67",
"S*	c #9B7F69",
"T*	c #9E8473",
"U*	c #B3A091",
"                      . + @ # $ % & *                           ",
"                  = - ; > , ' ) ! ~ { ] ^                       ",
"            / ( _ : < [ } | 1 2 3 4 5 6 7 8 9 0 a b             ",
"          c d e f g h i j k l m n o p q r         s t u         ",
"    v w x y z A B C D E F G H I J K L M N O P Q R S T U V       ",
"  W X Y Z `  ...+.@.#.$.%.&.*.=.-.;.>.,.'.).!.~.{.].^./.(._.:.  ",
"<.[.}.|.1.2.3.4.5.6.7.8.9.0.a.b.c.d.e.f.g.h.i.j.k.l.m.n.o.p.q.  ",
"r.s.t.u.v.w.x.y.z.A.B.C.D.E.F.G.H.I.J.K.L.M.N.O.P.Q.R.S.T.U.V.  ",
"W.X.Y.Z.`. +.+++@+#+$+%+&+*+=+-+;+>+,+'+)+!+~+{+]+^+/+(+_+:+<+  ",
"[+}+|+1+2+3+4+5+6+7+8+9+0+a+b+c+d+e+f+g+h+i+j+k+l+m+n+o+p+:+q+  ",
"r+s+t+u+v+w+x+y+z+A+B+C+D+E+F+G+H+I+J+K+L+M+N+O+P+Q+R+S+T+U+V+  ",
"W+X+Y+Z+`+ @.@+@@@#@$@%@&@*@=@-@;@>@,@'@)@!@~@{@]@^@/@(@_@:@<@  ",
"[@, }@|@1@2@3@4@5@6@7@8@9@0@a@b@c@d@e@f@g@h@i@j@k@l@m@n@o@p@q@  ",
"r@s@t@u@v@w@x@y@z@A@B@C@D@E@F@G@H@I@J@K@L@M@N@O@P@Q@R@S@T@U@V@  ",
"W@X@Y@Z@`@ #.#+#@###$#%#&#*#=#-#;#b@>#,#'#)#!#~#{#]#^#/#(#_#:#  ",
"<#[#}#|#1#2#3#4#5#6#7#8#9#0#a#b#c#G+d#e#f#g#h#i#j#k#l#m#n#o#p#  ",
"q#r#s#t#u#v#w#x#y#z#A#B#C#f#D#E#F#G#H#I#J#K#L#M#N#O#P#Q#R#S#T#  ",
"U#V#W#X#Y#Z#`# $.$+$@$#$$$%$&$*$=$>@-$;$>$,$'$)$!$~${$]$^$/$($  ",
"_$:$<$[$}$|$1$2$3$4$5$6$7$8$9$0$a$b$c$0@d$e$f$g$h$i$j$k$l$m$n$  ",
"o$p$q$r$s$t$u$v$z+w$x$y$z$A$B$C$D$E$F$G$H$I$J$K$L$M$N$*.O$P$Q$  ",
"R$S$T$U$V$W$X$Y$Z$`$ %.%+%@%#%>@$%%%&%*%=%-%;%>%,%'%)%!%~%{%]%  ",
"^%/%(%_%:%<%[%}%|%1%2%3%4%5%6%Q+7%8%9%0%a%b%c%d%e%f%)%g%h%i%j%  ",
"k%l%m%n%o%p%q%r%s%t%g.u%v%w%x%y%z%A%B%C%D%E%F%d+G%H%I%J%K%L%M%  ",
"N%O%P%Q%R%S%T%U%V%W%X%Y%Z%`% &.&+&@&#&$&%&&&*&=&-&;&>&,&R#'&)&  ",
"!&~&{&]&^&/&(&_&:&<&[&}&|&1&2&3&4&5&6&7&8&9&Y%0&f.a&b&c&d&e&f&  ",
"g&h&i&j&k&l&m&n&o&p&q&r&s&t&u&v&w&x&y&z&A&B&C&P#D&E&F&G&H&I&J&  ",
"    K&L&M&N&O&P&Q&R&S&T&U&V&W&*+>&X&Y&Z&`& *.*n++*@*#*$*%*&*    ",
"      **=*-*;*>*,*'*)*!*~*{*]*^*/*(*_*:*<*[*}*|*1*2*3*4*5*6*    ",
"          7*8*9*0*a*b*c*d*e*f*g*h*i*j*k*l*m*n*o*p*q*r*s*        ",
"              t*u*v*w*x*y*z*z*A*B*C*D*E*F*G*H*I*J*K*            ",
"                      L*M*N*O*P*Q*R*S*T*U*                      ",
"                                                                "};
