/* XPM */
static char * coin_xpm[] = {
"32 32 726 2",
"  	c #C8A2C8",
". 	c #F4CFBF",
"+ 	c #E8BAA3",
"@ 	c #EDBEA0",
"# 	c #F2BE99",
"$ 	c #FEBE98",
"% 	c #FFC59A",
"& 	c #F9BE94",
"* 	c #FACEA9",
"= 	c #FFFAE6",
"- 	c #F8E8DB",
"; 	c #FFECD7",
"> 	c #A97E5E",
", 	c #7F4E25",
"' 	c #8F602C",
") 	c #8F5D22",
"! 	c #AF7438",
"~ 	c #B07436",
"{ 	c #A97134",
"] 	c #B98A56",
"^ 	c #FFE4BD",
"/ 	c #FBEAD0",
"( 	c #E3D4BD",
"_ 	c #61411B",
": 	c #673905",
"< 	c #D79E5B",
"[ 	c #FFD07F",
"} 	c #F8CA6C",
"| 	c #F9CC65",
"1 	c #FCCB62",
"2 	c #FBC660",
"3 	c #FFCF6F",
"4 	c #DFAD56",
"5 	c #8C5E13",
"6 	c #977037",
"7 	c #EBCCAF",
"8 	c #806434",
"9 	c #D2974B",
"0 	c #E9A64F",
"a 	c #F5B352",
"b 	c #EEB54C",
"c 	c #EBB747",
"d 	c #F0BC46",
"e 	c #EEBA44",
"f 	c #F5BD50",
"g 	c #F3BA53",
"h 	c #E8AE4D",
"i 	c #F3BC6C",
"j 	c #BB8C56",
"k 	c #D9B595",
"l 	c #B2987F",
"m 	c #987B53",
"n 	c #A68447",
"o 	c #C79C4E",
"p 	c #FEC56B",
"q 	c #F6B251",
"r 	c #F8AC4C",
"s 	c #F5A64A",
"t 	c #F6AC57",
"u 	c #EEA850",
"v 	c #EDAC48",
"w 	c #E9A93F",
"x 	c #ECA843",
"y 	c #F5B04B",
"z 	c #FFBE59",
"A 	c #FEBF5E",
"B 	c #E1A954",
"C 	c #CC9D57",
"D 	c #B58C5E",
"E 	c #BFA081",
"F 	c #FFF4DF",
"G 	c #EAE0C7",
"H 	c #C9B495",
"I 	c #C6A882",
"J 	c #A88251",
"K 	c #936728",
"L 	c #CB9B49",
"M 	c #FBC467",
"N 	c #E6A53F",
"O 	c #F9AE48",
"P 	c #F7A444",
"Q 	c #FFA74E",
"R 	c #F8A056",
"S 	c #FFAA5F",
"T 	c #FBAB54",
"U 	c #FFB456",
"V 	c #F5AB4A",
"W 	c #F4AA47",
"X 	c #EEA53F",
"Y 	c #ECA740",
"Z 	c #FFC864",
"` 	c #D99D45",
" .	c #AD7836",
"..	c #C69867",
"+.	c #D0AC88",
"@.	c #D4BB9D",
"#.	c #F0E1C4",
"$.	c #EAE0C5",
"%.	c #B2A06E",
"&.	c #7C5D1D",
"*.	c #875D11",
"=.	c #F2BE6A",
"-.	c #FFD379",
";.	c #F9BD5B",
">.	c #F4AC4A",
",.	c #F7A849",
"'.	c #FDA84B",
").	c #F89E46",
"!.	c #FC9D4D",
"~.	c #F49447",
"{.	c #F69649",
"].	c #ED9440",
"^.	c #EDA342",
"/.	c #F2AD46",
"(.	c #F9AF4C",
"_.	c #FFB454",
":.	c #F5A649",
"<.	c #FEB45D",
"[.	c #FFD288",
"}.	c #FFE2A5",
"|.	c #A57340",
"1.	c #976C3F",
"2.	c #C6A578",
"3.	c #FBE8C8",
"4.	c #816D4A",
"5.	c #9B7D3F",
"6.	c #FFD284",
"7.	c #FFC96E",
"8.	c #F0B150",
"9.	c #EBA744",
"0.	c #EFAA45",
"a.	c #F4AA49",
"b.	c #F6A74A",
"c.	c #FAA64C",
"d.	c #FFAB52",
"e.	c #E48831",
"f.	c #C16210",
"g.	c #CA691A",
"h.	c #CA661A",
"i.	c #C56818",
"j.	c #D3862A",
"k.	c #F8AF50",
"l.	c #F6A94D",
"m.	c #F5A449",
"n.	c #FAA74B",
"o.	c #F9A950",
"p.	c #EEA755",
"q.	c #E3A55A",
"r.	c #FFE19E",
"s.	c #FFEDB2",
"t.	c #E0B781",
"u.	c #9C805B",
"v.	c #89683F",
"w.	c #966626",
"x.	c #F5B76C",
"y.	c #EDA654",
"z.	c #F8B05B",
"A.	c #F2A84F",
"B.	c #F2A74C",
"C.	c #F6A64D",
"D.	c #FEAA54",
"E.	c #CE7521",
"F.	c #C66C16",
"G.	c #D77D25",
"H.	c #E68D39",
"I.	c #E48936",
"J.	c #DE8936",
"K.	c #C2701E",
"L.	c #C26D1C",
"M.	c #FBA653",
"N.	c #FAAB4E",
"O.	c #F4AB4F",
"P.	c #EFAD56",
"Q.	c #E8AD5F",
"R.	c #FFDF9B",
"S.	c #DAAF78",
"T.	c #84623D",
"U.	c #FFF4E5",
"V.	c #947B65",
"W.	c #B78E56",
"X.	c #E5AD62",
"Y.	c #EDA958",
"Z.	c #F7AB57",
"`.	c #F3A753",
" +	c #F5A752",
".+	c #FEAE57",
"++	c #F9A54F",
"@+	c #CD7422",
"#+	c #DD822F",
"$+	c #DA8229",
"%+	c #DF8B31",
"&+	c #E7973E",
"*+	c #E5953E",
"=+	c #F5A149",
"-+	c #F8A44E",
";+	c #ED9B47",
">+	c #E39040",
",+	c #E58F42",
"'+	c #CB7626",
")+	c #EF9B45",
"!+	c #FFB155",
"~+	c #F4AB4D",
"{+	c #F0AD52",
"]+	c #E4A850",
"^+	c #EEB96B",
"/+	c #F1C07E",
"(+	c #E0B483",
"_+	c #C29B7C",
":+	c #FFE2CC",
"<+	c #6D4E22",
"[+	c #D3A557",
"}+	c #FFCC6B",
"|+	c #EDA948",
"1+	c #F7AD4E",
"2+	c #F1A44A",
"3+	c #FEAD54",
"4+	c #F09B41",
"5+	c #D87E28",
"6+	c #D17623",
"7+	c #EF9740",
"8+	c #EB983A",
"9+	c #E79B39",
"0+	c #EFA647",
"a+	c #E49B3F",
"b+	c #FAAA53",
"c+	c #FAAA51",
"d+	c #F6AB4E",
"e+	c #FAAF54",
"f+	c #FBA858",
"g+	c #DC8639",
"h+	c #D88132",
"i+	c #E18F3D",
"j+	c #F7AF5A",
"k+	c #EFAF55",
"l+	c #EAAF53",
"m+	c #E0A74D",
"n+	c #F7BF68",
"o+	c #F5C175",
"p+	c #9D6E36",
"q+	c #FFDCAF",
"r+	c #FFEBCF",
"s+	c #876132",
"t+	c #D1A14C",
"u+	c #F9C057",
"v+	c #F2AE49",
"w+	c #F3A946",
"x+	c #F29E44",
"y+	c #DC8329",
"z+	c #D1751E",
"A+	c #EF9441",
"B+	c #E8923B",
"C+	c #E09230",
"D+	c #E79F39",
"E+	c #F7B151",
"F+	c #F3AC50",
"G+	c #F8AB53",
"H+	c #F5A84E",
"I+	c #F3A550",
"J+	c #FFAE5C",
"K+	c #E2903A",
"L+	c #DA8A31",
"M+	c #E9A246",
"N+	c #EFAD4F",
"O+	c #F6B559",
"P+	c #EDAE4F",
"Q+	c #EEB34F",
"R+	c #DEA74C",
"S+	c #AA7735",
"T+	c #FFE1A9",
"U+	c #C08D3E",
"V+	c #F1B753",
"W+	c #EAA847",
"X+	c #F6AC4D",
"Y+	c #FAA950",
"Z+	c #CB731C",
"`+	c #D3751D",
" @	c #F69840",
".@	c #EA913D",
"+@	c #E5943B",
"@@	c #E09836",
"#@	c #EBA641",
"$@	c #F6AD4F",
"%@	c #FAAE56",
"&@	c #F6A94F",
"*@	c #F7AB49",
"=@	c #F2AB4F",
"-@	c #F0AC4B",
";@	c #FFC251",
">@	c #F1AC37",
",@	c #D1871A",
"'@	c #F7A945",
")@	c #F9AD55",
"!@	c #F1AB53",
"~@	c #F2B751",
"{@	c #F4BD62",
"]@	c #AB7336",
"^@	c #FFDAAB",
"/@	c #D4A055",
"(@	c #FFC464",
"_@	c #EDA748",
":@	c #F3A64C",
"<@	c #FCAA54",
"[@	c #D57F28",
"}@	c #D1761D",
"|@	c #F79C43",
"1@	c #E38D38",
"2@	c #F5A54C",
"3@	c #F3AB49",
"4@	c #F3AD4B",
"5@	c #F4A74F",
"6@	c #F4A850",
"7@	c #F5AA4D",
"8@	c #F9AF4E",
"9@	c #F3AE4F",
"0@	c #E5A63D",
"a@	c #FFD153",
"b@	c #F3B232",
"c@	c #D28513",
"d@	c #FBA943",
"e@	c #F7A64D",
"f@	c #F0A74B",
"g@	c #FCC257",
"h@	c #FEC76A",
"i@	c #A86D33",
"j@	c #FFDAB1",
"k@	c #C48E46",
"l@	c #F3B153",
"m@	c #F8A84F",
"n@	c #FEAA52",
"o@	c #F9A753",
"p@	c #CB7923",
"q@	c #D38024",
"r@	c #E69136",
"s@	c #E8943E",
"t@	c #F7A750",
"u@	c #F7AB4D",
"v@	c #F7AB4B",
"w@	c #FBAA51",
"x@	c #FAA852",
"y@	c #F9AE51",
"z@	c #F3A84B",
"A@	c #F2A94B",
"B@	c #EDAD41",
"C@	c #FFC74A",
"D@	c #F0AC31",
"E@	c #D98B1F",
"F@	c #FDA947",
"G@	c #FBA84A",
"H@	c #FABE50",
"I@	c #EAB251",
"J@	c #AE7138",
"K@	c #FFDDB6",
"L@	c #CE954E",
"M@	c #FFBD61",
"N@	c #F6A24A",
"O@	c #FBA550",
"P@	c #FEA956",
"Q@	c #CD7B25",
"R@	c #CA791D",
"S@	c #EB9A3E",
"T@	c #E3933C",
"U@	c #F2A54D",
"V@	c #F9AA4B",
"W@	c #F8A650",
"X@	c #F1A448",
"Y@	c #F7AC4F",
"Z@	c #F5A951",
"`@	c #F5AC50",
" #	c #ECAA3A",
".#	c #FFC749",
"+#	c #F6B237",
"@#	c #D0811A",
"##	c #FBAB4C",
"$#	c #F2B34A",
"%#	c #ECB359",
"&#	c #AC703A",
"*#	c #FFD5B0",
"=#	c #D79853",
"-#	c #FFBC62",
";#	c #FAA64E",
">#	c #F9A34E",
",#	c #FFAA57",
"'#	c #EE9F42",
")#	c #E59941",
"!#	c #FAB051",
"~#	c #F5A647",
"{#	c #FAA854",
"]#	c #F6A951",
"^#	c #F8AC54",
"/#	c #F3A751",
"(#	c #F4A94E",
"_#	c #F8AC4A",
":#	c #F0A839",
"<#	c #FFC847",
"[#	c #F1B032",
"}#	c #CF811C",
"|#	c #FDAC51",
"1#	c #F7AA50",
"2#	c #F4B156",
"3#	c #D7994E",
"4#	c #AF794B",
"5#	c #FFDBBA",
"6#	c #C48540",
"7#	c #F9A84F",
"8#	c #FCA852",
"9#	c #F9A451",
"0#	c #D17D27",
"a#	c #D17E22",
"b#	c #E49538",
"c#	c #FCB259",
"d#	c #EDA64A",
"e#	c #F3A948",
"f#	c #F6A44E",
"g#	c #F5A850",
"h#	c #F1A54D",
"i#	c #F4AA3D",
"j#	c #FFC141",
"k#	c #F4B333",
"l#	c #D4871F",
"m#	c #F9AA4E",
"n#	c #F2A64E",
"o#	c #F3AB57",
"p#	c #F0AD5F",
"q#	c #E3A769",
"r#	c #A97951",
"s#	c #FFD5B8",
"t#	c #C18843",
"u#	c #F9B258",
"v#	c #F1A44C",
"w#	c #FCA756",
"x#	c #D27C29",
"y#	c #D07A23",
"z#	c #ED9C41",
"A#	c #F4AA51",
"B#	c #F1AA4E",
"C#	c #F3AB47",
"D#	c #F9A84C",
"E#	c #F3AA4E",
"F#	c #F8AD52",
"G#	c #F2A54B",
"H#	c #FBAE54",
"I#	c #F1A640",
"J#	c #FFCA4E",
"K#	c #F4AD2D",
"L#	c #CB8211",
"M#	c #FBB04B",
"N#	c #F6AA52",
"O#	c #EAA557",
"P#	c #FCBF7E",
"Q#	c #EEBA88",
"R#	c #8E6545",
"S#	c #FEDCC1",
"T#	c #C08B45",
"U#	c #FBBA60",
"V#	c #F1AA50",
"W#	c #FCA754",
"X#	c #D17824",
"Y#	c #D0781F",
"Z#	c #F09C42",
"`#	c #F0A44C",
" $	c #F6AF53",
".$	c #F2A549",
"+$	c #F9AE53",
"@$	c #F4B04F",
"#$	c #F2AE4D",
"$$	c #F9AC52",
"%$	c #EFA63D",
"&$	c #FFC148",
"*$	c #F7B233",
"=$	c #D08A18",
"-$	c #EEA944",
";$	c #F3AB56",
">$	c #F0AC65",
",$	c #FEC787",
"'$	c #FFD6A5",
")$	c #6F4C2C",
"!$	c #F9DBC3",
"~$	c #BA8944",
"{$	c #EAB255",
"]$	c #ECAD4E",
"^$	c #F0AA4B",
"/$	c #FFAE53",
"($	c #ED943A",
"_$	c #E3852B",
":$	c #E1882C",
"<$	c #FEAE55",
"[$	c #F3AA4B",
"}$	c #F2AC4C",
"|$	c #F1AC51",
"1$	c #F0AB50",
"2$	c #F4B04D",
"3$	c #F0AA48",
"4$	c #E8A439",
"5$	c #FFC650",
"6$	c #EFAA31",
"7$	c #E19F27",
"8$	c #E1A336",
"9$	c #F0AB60",
"0$	c #F0AF6D",
"a$	c #F6C47D",
"b$	c #E9C184",
"c$	c #795734",
"d$	c #F8D8C3",
"e$	c #C69656",
"f$	c #F9C16A",
"g$	c #E6A64C",
"h$	c #F4AE4F",
"i$	c #FEAD51",
"j$	c #FFAC4F",
"k$	c #F79C3F",
"l$	c #E48B2D",
"m$	c #E8943A",
"n$	c #F4A74B",
"o$	c #F2AC4A",
"p$	c #EDAD4C",
"q$	c #EAAC49",
"r$	c #ECAD43",
"s$	c #EBAB3F",
"t$	c #FEB453",
"u$	c #FFBA57",
"v$	c #FBB94B",
"w$	c #F6B541",
"x$	c #E29C2A",
"y$	c #DC982B",
"z$	c #EDAF4A",
"A$	c #F3B75F",
"B$	c #F6B16C",
"C$	c #E5A567",
"D$	c #FFD08A",
"E$	c #EBC78D",
"F$	c #715236",
"G$	c #F7D9CE",
"H$	c #8B6E5C",
"I$	c #BF905C",
"J$	c #EFB168",
"K$	c #EEAA59",
"L$	c #F8AC56",
"M$	c #F2A249",
"N$	c #F9A64A",
"O$	c #F7A343",
"P$	c #D88527",
"Q$	c #EC9939",
"R$	c #EE9F38",
"S$	c #EEA63A",
"T$	c #F4B84A",
"U$	c #F0BB49",
"V$	c #EEBA40",
"W$	c #F0B83F",
"X$	c #F9B746",
"Y$	c #FFB94D",
"Z$	c #FDB850",
"`$	c #D08822",
" %	c #E79D3A",
".%	c #FBB152",
"+%	c #EDAC5A",
"@%	c #F4AF6A",
"#%	c #E9AD71",
"$%	c #E4B780",
"%%	c #E7C59F",
"&%	c #91766B",
"*%	c #F5DFE2",
"=%	c #966B41",
"-%	c #A26829",
";%	c #F8B46B",
">%	c #F3A857",
",%	c #FDAD54",
"'%	c #F7A748",
")%	c #D98926",
"!%	c #D07D13",
"~%	c #EA9E30",
"{%	c #FFCD5B",
"]%	c #FFC952",
"^%	c #FFCA4C",
"/%	c #FFD356",
"(%	c #E9A633",
"_%	c #C78014",
":%	c #D08826",
"<%	c #EEA549",
"[%	c #FFB55E",
"}%	c #F3AD58",
"|%	c #F4B160",
"1%	c #ECAE63",
"2%	c #E8AA71",
"3%	c #EDB788",
"4%	c #A47A50",
"5%	c #6D4F35",
"6%	c #8C6B4C",
"7%	c #A77842",
"8%	c #FFD38D",
"9%	c #EDA85A",
"0%	c #F4A854",
"a%	c #F6A64F",
"b%	c #F4AA4B",
"c%	c #F2A94A",
"d%	c #F2A845",
"e%	c #F9A741",
"f%	c #ED9A30",
"g%	c #D08317",
"h%	c #CF8615",
"i%	c #D28B15",
"j%	c #D18815",
"k%	c #DF952C",
"l%	c #EEA242",
"m%	c #F8AB51",
"n%	c #EDA551",
"o%	c #EDAE61",
"p%	c #EDB369",
"q%	c #E6AE61",
"r%	c #DFAC6A",
"s%	c #FFE2BD",
"t%	c #FFF5DC",
"u%	c #C7A389",
"v%	c #624734",
"w%	c #E6D2BA",
"x%	c #AE8E65",
"y%	c #774C17",
"z%	c #8A5215",
"A%	c #F0AB68",
"B%	c #FCB267",
"C%	c #F4AC58",
"D%	c #F8B04A",
"E%	c #FDAB45",
"F%	c #F6A03B",
"G%	c #F19D3A",
"H%	c #EE9C38",
"I%	c #EC9B32",
"J%	c #ED9E37",
"K%	c #F5A546",
"L%	c #FFB357",
"M%	c #EFA953",
"N%	c #E4AB5C",
"O%	c #FECE84",
"P%	c #FFECA8",
"Q%	c #F9CE9B",
"R%	c #97715A",
"S%	c #6D4D42",
"T%	c #A18675",
"U%	c #E3D0C2",
"V%	c #DCCDB6",
"W%	c #A58F77",
"X%	c #BD9A7C",
"Y%	c #9A6641",
"Z%	c #9C5E2B",
"`%	c #D08D47",
" &	c #FAB760",
".&	c #F2A940",
"+&	c #FEA843",
"@&	c #FCA443",
"#&	c #FFAA53",
"$&	c #F7AA4E",
"%&	c #F6AA4C",
"&&	c #F0AB4C",
"*&	c #F6C465",
"=&	c #DBB15F",
"-&	c #AD824B",
";&	c #9B7453",
">&	c #AB8E80",
",&	c #A5918A",
"'&	c #CDBCB4",
")&	c #9E7D6E",
"!&	c #8E6247",
"~&	c #A16D3E",
"{&	c #C88D4B",
"]&	c #F9B763",
"^&	c #FFA84B",
"/&	c #F0A951",
"(&	c #F0A64F",
"_&	c #F4AE4C",
":&	c #F5B257",
"<&	c #F6BD66",
"[&	c #D6AE59",
"}&	c #A48640",
"|&	c #84643D",
"1&	c #907562",
"2&	c #F9E8E1",
"3&	c #CBAE9E",
"4&	c #794C2F",
"5&	c #DFA074",
"6&	c #E19257",
"7&	c #FCA45A",
"8&	c #F7A84C",
"9&	c #EAB44A",
"0&	c #E6B647",
"a&	c #EFB54A",
"b&	c #EFB046",
"c&	c #F2B648",
"d&	c #E9B24D",
"e&	c #D9A454",
"f&	c #EBBF82",
"g&	c #876A3E",
"h&	c #A28F6F",
"i&	c #E4C7C1",
"j&	c #5F301C",
"k&	c #733411",
"l&	c #CB7F4B",
"m&	c #F8B46D",
"n&	c #E3B65B",
"o&	c #FBD574",
"p&	c #FDCF71",
"q&	c #FECD70",
"r&	c #FFD679",
"s&	c #E1B463",
"t&	c #633C05",
"u&	c #563816",
"v&	c #C8B6A0",
"w&	c #EEDCD2",
"x&	c #F4D5C3",
"y&	c #B3816A",
"z&	c #7B4425",
"A&	c #73441A",
"B&	c #7A5020",
"C&	c #754F1E",
"D&	c #785422",
"E&	c #754F20",
"F&	c #85613F",
"G&	c #EFD3C5",
"H&	c #EBD8D1",
"I&	c #FBF1E7",
"J&	c #E7C1B8",
"K&	c #CF9F93",
"L&	c #D5A493",
"M&	c #C99C85",
"N&	c #C7A58A",
"O&	c #CDAF93",
"P&	c #BB9882",
"Q&	c #D7B9AE",
"                        . + @ # $ % & * =                       ",
"                    - ; > , ' ) ! ~ { ] ^ /                     ",
"                  ( _ : < [ } | 1 2 3 4 5 6 7                   ",
"                  8   9 0 a b c d e f g h i j k                 ",
"            l m n o p q r s t u v w x y z A B C D E F           ",
"      G H I J K L M N O P Q R S T U V W X Y Z `  ...+.@.#.      ",
"    $.%.&.*.=.-.;.v >.,.'.).!.~.{.].^./.(._.:.<.[.}.|.1.2.3.    ",
"    4.5.6.7.8.9.0.a.b.c.d.e.f.g.h.i.j.k.l.m.n.o.p.q.r.s.t.u.    ",
"    v.w.x.y.z.A.B.C.D.E.F.G.H.H.I.H.J.K.L.M.c.N.O.P.Q.R.S.T.U.  ",
"  V.W.X.Y.Z.`. +.+++@+#+$+%+&+*+=+-+;+>+,+'+)+!+~+{+]+^+/+(+_+:+",
"  <+[+}+|+1+2+3+4+5+6+7+8+9+0+a+b+c+d+e+f+g+h+i+j+k+l+m+n+o+p+q+",
"r+s+t+u+v+w+N.x+y+z+A+B+C+D+E+F+G+H+>.>.I+J+K+L+M+N+O+P+Q+R+S+T+",
"    U+V+W+X+Y+Z+`+ @.@+@@@#@$@%@ +&@*@W =@-@;@>@,@'@)@!@~@{@]@^@",
"    /@(@_@:@<@[@}@|@1@2@3@4@&@5@6@7@r 8@9@0@a@b@c@d@e@f@g@h@i@j@",
"    k@l@m@n@o@p@q@r@s@t@u@v@w@x@y@1+z@A@9.B@C@D@E@F@G@w+H@I@J@K@",
"    L@M@N@O@P@Q@R@S@T@U@u@V@-+W@X@Y@Z@`@y  #.#+#@#'.##W $#%#&#*#",
"    =#-#;#>#,#Q@R@'#)#A.!#~#W@{#]#^#/#(#_#:#<#[#}#|#1#f@2#3#4#5#",
"    6#&@7#8#9#0#a#b#c#d#e#v@3+f#g#h#^#H+~#i#j#k#l#m#n#o#p#q#r#s#",
"    t#u#v#<@w#x#y#z#A#B#C#*@D#m@E#=@F#G#H#I#J#K#L#M#N#O#P#Q#R#S#",
"    T#U#V#g#W#X#Y#Z#`# $>.w+.$+$@$#$B.$$d+%$&$*$=$-$;$>$,$'$)$!$",
"    ~${$]$^$/$($_$:$<$F#[$}$|$1$2$3$5@Y@4$5$6$7$8$]$9$0$a$b$c$d$",
"    e$f$g$h$i$j$k$l$m$n$8@o$p$q$r$s$t$u$v$w$x$y$z$A$B$C$D$E$F$G$",
"  H$I$J$K$L$M$N$'.O$P$Q$R$S$T$U$V$W$X$Y$Z$`$ %.%2#+%@%#%$%%%&%*%",
"    =%-%;%>%I+,%D###'%)%!%~%{%]%^%/%(%_%:%<%[%}%|%1%2%3%4%5%    ",
"    6%7%8%9%0%a%l.b%c%d%e%f%g%h%i%j%k%l%m%n%o%p%q%r%s%t%u%v%    ",
"    w%x%y%z%A%B%C%d##$D%E%F%G%H%I%J%K%L%2+M%N%O%P%Q%R%S%T%U%    ",
"      V%W%X%Y%Z%`% &x .&+&@&#&P@.+m%$&%&%&&&*&=&-&;&>&,&'&      ",
"            )&!&~&{&]&d+^&^&&@/&(&f@_&-@:&<&[&}&|&1&2&          ",
"                3&4&5&6&7&8&9&0&a&b&c&d&e&f&g&h&                ",
"                  i&j&k&l&m&n&o&p&q&r&s&t&u&v&                  ",
"                    w&x&y&z&A&B&C&D&E&F&G&H&I&                  ",
"                        J&K&L&M&N&O&P&Q&                        "};
