/* XPM */
static char * coins_1_xpm[] = {
"32 32 785 2",
"  	c #C8A2C8",
". 	c #FFE6D2",
"+ 	c #CBB58E",
"@ 	c #D6BF93",
"# 	c #DCBD8E",
"$ 	c #D4B483",
"% 	c #D3B485",
"& 	c #C1A97D",
"* 	c #BCA480",
"= 	c #BCA88F",
"- 	c #D8C6B8",
"; 	c #F8DFC1",
"> 	c #F5D3AD",
", 	c #E2B78A",
"' 	c #B78D53",
") 	c #A67E39",
"! 	c #996F23",
"~ 	c #A77425",
"{ 	c #BF8A3A",
"] 	c #B98A38",
"^ 	c #A98031",
"/ 	c #A67D3B",
"( 	c #9B763F",
"_ 	c #AA8960",
": 	c #CAAF92",
"< 	c #D3BCAA",
"[ 	c #F4E3D9",
"} 	c #FFFCDF",
"| 	c #FAE1B8",
"1 	c #D4AA78",
"2 	c #A67437",
"3 	c #C18C46",
"4 	c #E9B464",
"5 	c #C8943E",
"6 	c #A66F14",
"7 	c #D19032",
"8 	c #FFBE5E",
"9 	c #FDBE5D",
"0 	c #FDC264",
"a 	c #F8C069",
"b 	c #F9C478",
"c 	c #D4A263",
"d 	c #835825",
"e 	c #7C5933",
"f 	c #C5AA8F",
"g 	c #FEEFD8",
"h 	c #FFEAC1",
"i 	c #BE9A60",
"j 	c #D19D54",
"k 	c #FDC36F",
"l 	c #E9B056",
"m 	c #CF9436",
"n 	c #E5AB4A",
"o 	c #FFC566",
"p 	c #FDB758",
"q 	c #F3AA4B",
"r 	c #F5AD49",
"s 	c #F6AE4A",
"t 	c #F5AC4D",
"u 	c #F7B257",
"v 	c #ECA857",
"w 	c #E6AA61",
"x 	c #D7A367",
"y 	c #926A37",
"z 	c #AB8F6A",
"A 	c #FFF5DB",
"B 	c #F6EDDC",
"C 	c #F7EBDB",
"D 	c #C8B897",
"E 	c #B39360",
"F 	c #DDB16A",
"G 	c #D59D46",
"H 	c #B57615",
"I 	c #B57A16",
"J 	c #E9AE4A",
"K 	c #F7B756",
"L 	c #F5B355",
"M 	c #F7AD54",
"N 	c #F4A94E",
"O 	c #F4A74B",
"P 	c #F7A849",
"Q 	c #F7A748",
"R 	c #F8A94D",
"S 	c #F3A952",
"T 	c #EDAB5D",
"U 	c #D8A15E",
"V 	c #A77C47",
"W 	c #7E5D34",
"X 	c #877051",
"Y 	c #F5E4D2",
"Z 	c #EDDECB",
"` 	c #DCCDB0",
" .	c #F7E2B7",
"..	c #E8C88B",
"+.	c #F0C274",
"@.	c #EEB659",
"#.	c #F2B44F",
"$.	c #EBB04A",
"%.	c #F1B350",
"&.	c #EFAC51",
"*.	c #ECA650",
"=.	c #F3AA5B",
"-.	c #F5A95D",
";.	c #F6A95B",
">.	c #F9AB59",
",.	c #FDAB57",
"'.	c #F7A248",
").	c #FEA74A",
"!.	c #FCA94D",
"~.	c #F9AC52",
"{.	c #EDA956",
"].	c #D79B53",
"^.	c #BB874D",
"/.	c #B1865B",
"(.	c #997658",
"_.	c #EED4C3",
":.	c #D5C4A8",
"<.	c #DDC59F",
"[.	c #F2DBAF",
"}.	c #FFF2BB",
"|.	c #FFDE9A",
"1.	c #F3C472",
"2.	c #F6BB5D",
"3.	c #FFBE5A",
"4.	c #F9B854",
"5.	c #F2AE4D",
"6.	c #F7AC4F",
"7.	c #F4A651",
"8.	c #F9AC5C",
"9.	c #EC9E53",
"0.	c #D78B3F",
"a.	c #CE7F32",
"b.	c #D2802E",
"c.	c #EC963F",
"d.	c #FFAB4F",
"e.	c #F8A142",
"f.	c #FAA749",
"g.	c #F8A84F",
"h.	c #F7AF5D",
"i.	c #F0AD67",
"j.	c #E5A872",
"k.	c #AD7C54",
"l.	c #AC876D",
"m.	c #E4CABB",
"n.	c #FFF6D8",
"o.	c #AB8F60",
"p.	c #C5A167",
"q.	c #FFE1A4",
"r.	c #F8D291",
"s.	c #C0964E",
"t.	c #DFAC5B",
"u.	c #EFB259",
"v.	c #F1AB4C",
"w.	c #F4A84A",
"x.	c #FAA747",
"y.	c #FFA746",
"z.	c #F59A3D",
"A.	c #E18C32",
"B.	c #D98731",
"C.	c #CD7F2A",
"D.	c #C47623",
"E.	c #CA7824",
"F.	c #D9852D",
"G.	c #E08B31",
"H.	c #E89338",
"I.	c #F4A145",
"J.	c #F9A84D",
"K.	c #F6A450",
"L.	c #F7A75E",
"M.	c #EDA366",
"N.	c #E3A375",
"O.	c #8E5C3B",
"P.	c #BD9A84",
"Q.	c #FFF9DF",
"R.	c #F5DFB8",
"S.	c #B58D4F",
"T.	c #D2A256",
"U.	c #F6C67A",
"V.	c #D7A85A",
"W.	c #A27325",
"X.	c #CE9A47",
"Y.	c #F4B45C",
"Z.	c #F7AE52",
"`.	c #FBAA4F",
" +	c #FDA446",
".+	c #F59433",
"++	c #DF7E1D",
"@+	c #CD7416",
"#+	c #D17E22",
"$+	c #E29136",
"%+	c #E7973E",
"&+	c #E8973E",
"*+	c #C57119",
"=+	c #CA791E",
"-+	c #E59639",
";+	c #FAA94D",
">+	c #FAA64C",
",+	c #F7A553",
"'+	c #FFAD67",
")+	c #EEA36A",
"!+	c #A0653B",
"~+	c #B88F71",
"{+	c #F7E2CD",
"]+	c #FDE3CA",
"^+	c #AC8B62",
"/+	c #DBA75E",
"(+	c #FFC76F",
"_+	c #EAAE56",
":+	c #C79036",
"<+	c #EDB963",
"[+	c #EBB55D",
"}+	c #EAAD52",
"|+	c #ECA549",
"1+	c #FAA64E",
"2+	c #F3983D",
"3+	c #DD7F1F",
"4+	c #E38523",
"5+	c #EF9839",
"6+	c #E59234",
"7+	c #EB9737",
"8+	c #E48F32",
"9+	c #E59036",
"0+	c #E9953D",
"a+	c #E4943D",
"b+	c #DD9237",
"c+	c #DD9435",
"d+	c #E09834",
"e+	c #F8AA46",
"f+	c #F5A546",
"g+	c #FAAD67",
"h+	c #E1A46E",
"i+	c #966B41",
"j+	c #957D61",
"k+	c #FFE2C9",
"l+	c #B38A5E",
"m+	c #D49B4C",
"n+	c #F6B453",
"o+	c #D79535",
"p+	c #C28324",
"q+	c #F2BC5C",
"r+	c #EFB959",
"s+	c #E9AD4B",
"t+	c #F9B354",
"u+	c #E99741",
"v+	c #D67C26",
"w+	c #DD8225",
"x+	c #E79031",
"y+	c #E69539",
"z+	c #E7963A",
"A+	c #E28D30",
"B+	c #E99235",
"C+	c #EE963D",
"D+	c #F19B46",
"E+	c #F5A550",
"F+	c #F6AD51",
"G+	c #EAA643",
"H+	c #DA972C",
"I+	c #DD9527",
"J+	c #F9AC42",
"K+	c #F4A445",
"L+	c #F4A958",
"M+	c #EFB273",
"N+	c #946537",
"O+	c #A08866",
"P+	c #FFE3CC",
"Q+	c #C4976D",
"R+	c #D8A04D",
"S+	c #F7B650",
"T+	c #DC9732",
"U+	c #C3821E",
"V+	c #F9BF5B",
"W+	c #EFB851",
"X+	c #EAAC45",
"Y+	c #E19D3C",
"Z+	c #CD7D28",
"`+	c #D5802F",
" @	c #E7953F",
".@	c #E3963E",
"+@	c #DE943F",
"@@	c #E49844",
"#@	c #EB973F",
"$@	c #EA9239",
"%@	c #F19844",
"&@	c #FEA855",
"*@	c #FBAB56",
"=@	c #EDA448",
"-@	c #ECAB43",
";@	c #FCBD4B",
">@	c #EFAD35",
",@	c #E19A26",
"'@	c #F9AC44",
")@	c #E5A963",
"!@	c #986A38",
"~@	c #9E8461",
"{@	c #FEDAC0",
"]@	c #C49B6D",
"^@	c #E4B25B",
"/@	c #FFC75D",
"(@	c #F0AB46",
"_@	c #C07B16",
":@	c #F3B850",
"<@	c #EEB449",
"[@	c #FABA50",
"}@	c #D48C28",
"|@	c #CD7825",
"1@	c #E79242",
"2@	c #E59742",
"3@	c #DE923C",
"4@	c #E79B47",
"5@	c #E09440",
"6@	c #EC9C45",
"7@	c #F2A148",
"8@	c #F9A350",
"9@	c #FBA552",
"0@	c #FAA854",
"a@	c #F7B44B",
"b@	c #FEBF4D",
"c@	c #E7A52B",
"d@	c #D8931C",
"e@	c #F0A63B",
"f@	c #F1A74E",
"g@	c #EDAE69",
"h@	c #9B6B3A",
"i@	c #9A7D5D",
"j@	c #FFE5C3",
"k@	c #B89962",
"l@	c #D3AA4E",
"m@	c #FFD167",
"n@	c #E7A642",
"o@	c #CD8725",
"p@	c #F6B750",
"q@	c #F4B44A",
"r@	c #F4AD41",
"s@	c #E0912C",
"t@	c #CD721F",
"u@	c #DF8435",
"v@	c #EA9940",
"w@	c #E29336",
"x@	c #ED993F",
"y@	c #F4A347",
"z@	c #F7AE4F",
"A@	c #F5AC4E",
"B@	c #F7A750",
"C@	c #FEAA54",
"D@	c #FBA953",
"E@	c #EFA345",
"F@	c #F0AB44",
"G@	c #FFBF50",
"H@	c #F9B43F",
"I@	c #CE8715",
"J@	c #FBAD49",
"K@	c #F3A855",
"L@	c #EBAB6D",
"M@	c #9A693E",
"N@	c #96775B",
"O@	c #FEE8C1",
"P@	c #AB9158",
"Q@	c #DFB65E",
"R@	c #FFCE68",
"S@	c #EBA64B",
"T@	c #C97F26",
"U@	c #F8B655",
"V@	c #F4B34B",
"W@	c #F7AF43",
"X@	c #E3942D",
"Y@	c #D17520",
"Z@	c #E38636",
"`@	c #EC973C",
" #	c #E19132",
".#	c #F09C3C",
"+#	c #F9A948",
"@#	c #F1AB49",
"##	c #F3AF4E",
"$#	c #F5A54C",
"%#	c #FBAA51",
"&#	c #FAAB4E",
"*#	c #F9B04A",
"=#	c #FFB84C",
"-#	c #EFA937",
";#	c #D69020",
">#	c #F8AF49",
",#	c #F1A954",
"'#	c #F2B272",
")#	c #986538",
"!#	c #A38165",
"~#	c #FEECC6",
"{#	c #9F8351",
"]#	c #D4A152",
"^#	c #FFC46D",
"/#	c #EA9D4F",
"(#	c #C77A2C",
"_#	c #F3B059",
":#	c #F9B957",
"<#	c #F5B247",
"[#	c #D99027",
"}#	c #CC771D",
"|#	c #E48C35",
"1#	c #F09B40",
"2#	c #E99636",
"3#	c #F19E3E",
"4#	c #FAAC4A",
"5#	c #F8AE4D",
"6#	c #F2A94A",
"7#	c #F1A84A",
"8#	c #FDAE52",
"9#	c #F8A94A",
"0#	c #F9AB47",
"a#	c #FFB74B",
"b#	c #EEAD39",
"c#	c #CE9019",
"d#	c #F3B443",
"e#	c #F0B24F",
"f#	c #F9C073",
"g#	c #A97840",
"h#	c #9E7E57",
"i#	c #F9E7C3",
"j#	c #886839",
"k#	c #C28741",
"l#	c #F9B061",
"m#	c #D5853E",
"n#	c #B0621A",
"o#	c #F7B662",
"p#	c #F0B454",
"q#	c #F5B54B",
"r#	c #D9922A",
"s#	c #D27D23",
"t#	c #E28A33",
"u#	c #E79237",
"v#	c #F09D3F",
"w#	c #FDAD4E",
"x#	c #F3A749",
"y#	c #F4A94C",
"z#	c #F6AD4F",
"A#	c #F3AD4E",
"B#	c #F0A748",
"C#	c #F0A444",
"D#	c #F4A642",
"E#	c #FCB249",
"F#	c #EBAF37",
"G#	c #CC9419",
"H#	c #EEB541",
"I#	c #FFC962",
"J#	c #F6C171",
"K#	c #A5783D",
"L#	c #957751",
"M#	c #FFE7C8",
"N#	c #957044",
"O#	c #C68646",
"P#	c #F9AD62",
"Q#	c #D0823A",
"R#	c #9F570D",
"S#	c #EBB25B",
"T#	c #EBB354",
"U#	c #F3B24A",
"V#	c #D88D28",
"W#	c #D47A22",
"X#	c #E58936",
"Y#	c #E9933C",
"Z#	c #ED9C43",
"`#	c #FAAA51",
" $	c #F7AA50",
".$	c #F3A950",
"+$	c #F1AA4E",
"@$	c #F6B24D",
"#$	c #F7B048",
"$$	c #F2AA3E",
"%$	c #F5AF3D",
"&$	c #FDBF46",
"*$	c #E8B234",
"=$	c #CE9C1F",
"-$	c #F8C552",
";$	c #FCCA67",
">$	c #EBBB71",
",$	c #966E3B",
"'$	c #997E61",
")$	c #FADFC4",
"!$	c #8A623E",
"~$	c #C58349",
"{$	c #FFB26D",
"]$	c #CC7F37",
"^$	c #A76214",
"/$	c #F5BD66",
"($	c #F1BB5B",
"_$	c #F2AE4B",
":$	c #E0902F",
"<$	c #D27822",
"[$	c #DF8232",
"}$	c #EE9946",
"|$	c #EF9F4A",
"1$	c #F3A14B",
"2$	c #FBAB54",
"3$	c #FAB057",
"4$	c #F3AC52",
"5$	c #EDAB4A",
"6$	c #EFAE48",
"7$	c #F2AF46",
"8$	c #F1AD3E",
"9$	c #F5B440",
"0$	c #FDC147",
"a$	c #E1AA2C",
"b$	c #D6A228",
"c$	c #FDC858",
"d$	c #EDB85C",
"e$	c #DFAE6B",
"f$	c #91683C",
"g$	c #A48A73",
"h$	c #FFE8D7",
"i$	c #8D6649",
"j$	c #C98554",
"k$	c #FEAF6D",
"l$	c #D3873C",
"m$	c #AA6613",
"n$	c #EAB359",
"o$	c #ECB457",
"p$	c #F2AC4C",
"q$	c #F09F43",
"r$	c #E28736",
"s$	c #D77B2E",
"t$	c #E08D3D",
"u$	c #F2A14F",
"v$	c #F7A54F",
"w$	c #F8A74E",
"x$	c #F2A64E",
"y$	c #F6AF53",
"z$	c #F0AE4E",
"A$	c #E8A844",
"B$	c #EDAC46",
"C$	c #F6B64C",
"D$	c #F7B547",
"E$	c #F0B140",
"F$	c #DC9D2B",
"G$	c #E4A635",
"H$	c #F3B24C",
"I$	c #EFAF58",
"J$	c #E4AA6B",
"K$	c #97673F",
"L$	c #9D7E69",
"M$	c #F7E0D8",
"N$	c #8A6552",
"O$	c #C6855D",
"P$	c #F8A96E",
"Q$	c #DB8D43",
"R$	c #B36D18",
"S$	c #EEB25A",
"T$	c #F7BC60",
"U$	c #F2AB4F",
"V$	c #F8A151",
"W$	c #E18A3D",
"X$	c #CF7E2F",
"Y$	c #E08F3D",
"Z$	c #F5A147",
"`$	c #F2A646",
" %	c #F6AE4C",
".%	c #F5B14C",
"+%	c #F4B34D",
"@%	c #FABB52",
"#%	c #FAB951",
"$%	c #EBA83F",
"%%	c #DA962B",
"&%	c #ECA539",
"*%	c #F2AB43",
"=%	c #F1A748",
"-%	c #F3AC5C",
";%	c #E9AC73",
">%	c #92653E",
",%	c #967967",
"'%	c #AC9085",
")%	c #B77F5E",
"!%	c #D58C57",
"~%	c #C97A35",
"{%	c #B26714",
"]%	c #D3913B",
"^%	c #E4A24B",
"/%	c #F5AB54",
"(%	c #F3A550",
"_%	c #FDAA5A",
":%	c #F3A052",
"<%	c #DD8C3D",
"[%	c #D78732",
"}%	c #F9A33E",
"|%	c #FFB549",
"1%	c #FCB446",
"2%	c #F7B344",
"3%	c #F6B446",
"4%	c #F2B246",
"5%	c #E8A83E",
"6%	c #E29F36",
"7%	c #E59E34",
"8%	c #FAAD45",
"9%	c #FCAC49",
"0%	c #F9AA4E",
"a%	c #EFA659",
"b%	c #C68B53",
"c%	c #A07952",
"d%	c #BFAD99",
"e%	c #FFEFE9",
"f%	c #9A6C54",
"g%	c #8E4E22",
"h%	c #C47A3B",
"i%	c #B4681D",
"j%	c #904900",
"k%	c #D38C3A",
"l%	c #F5AD5B",
"m%	c #F2A553",
"n%	c #F7A655",
"o%	c #FBAA59",
"p%	c #FAA958",
"q%	c #D88424",
"r%	c #E5962F",
"s%	c #F9B248",
"t%	c #FEBE52",
"u%	c #FDBD51",
"v%	c #ECAE41",
"w%	c #D99A30",
"x%	c #D2932A",
"y%	c #E1A038",
"z%	c #F8B34E",
"A%	c #F4A644",
"B%	c #FAAB4F",
"C%	c #F6A856",
"D%	c #E7A25D",
"E%	c #BE9D7C",
"F%	c #FDF0DF",
"G%	c #9A7966",
"H%	c #9A6543",
"I%	c #D49260",
"J%	c #CC8147",
"K%	c #984E0D",
"L%	c #CA823A",
"M%	c #EDA358",
"N%	c #F8AD5C",
"O%	c #F6A651",
"P%	c #EFA041",
"Q%	c #EAA645",
"R%	c #CD963B",
"S%	c #C59438",
"T%	c #CA9537",
"U%	c #EBB352",
"V%	c #FFCD69",
"W%	c #EFB450",
"X%	c #EBAD4A",
"Y%	c #EEAC4E",
"Z%	c #F3AC54",
"`%	c #EEA556",
" &	c #F1AC67",
".&	c #D69B63",
"+&	c #C2A88F",
"@&	c #FFE9DC",
"#&	c #BD987E",
"$&	c #88522E",
"%&	c #AC6C40",
"&&	c #AA6433",
"*&	c #944E13",
"=&	c #C37E39",
"-&	c #EDA559",
";&	c #F3A857",
">&	c #F9AB58",
",&	c #F4A852",
"'&	c #F7B459",
")&	c #E0A851",
"!&	c #E1B668",
"~&	c #FDD689",
"{&	c #FFD381",
"]&	c #F0B861",
"^&	c #F5BA5E",
"/&	c #EDB055",
"(&	c #E8AB52",
"_&	c #EDAE5E",
":&	c #EBAB64",
"<&	c #E9AB6E",
"[&	c #D69C6A",
"}&	c #906038",
"|&	c #DABB9E",
"1&	c #FFF0DF",
"2&	c #FCE5D5",
"3&	c #C29C89",
"4&	c #75432A",
"5&	c #7A4221",
"6&	c #A96C40",
"7&	c #A16328",
"8&	c #9C5913",
"9&	c #B46B1E",
"0&	c #E69B4A",
"a&	c #F6AB5A",
"b&	c #E8A554",
"c&	c #E1AA5A",
"d&	c #E8BE74",
"e&	c #FFE5A5",
"f&	c #FFECAC",
"g&	c #FFCD86",
"h&	c #E6AB5D",
"i&	c #EAA756",
"j&	c #E9A655",
"k&	c #E9A961",
"l&	c #E7AB6D",
"m&	c #B8804F",
"n&	c #7B4924",
"o&	c #8B6246",
"p&	c #D9BAA5",
"q&	c #FBE8D9",
"r&	c #F8DFD8",
"s&	c #CEACA2",
"t&	c #CFA491",
"u&	c #986747",
"v&	c #9A6637",
"w&	c #A2672D",
"x&	c #A46021",
"y&	c #AA6520",
"z&	c #DF9C55",
"A&	c #EFB46E",
"B&	c #E9BD7E",
"C&	c #FFE3A6",
"D&	c #FFE5AC",
"E&	c #FAD698",
"F&	c #EAB573",
"G&	c #EAAA62",
"H&	c #F2AD62",
"I&	c #F3AF68",
"J&	c #E5A96D",
"K&	c #B88455",
"L&	c #AA7D5E",
"M&	c #CDA895",
"N&	c #D0B6A9",
"O&	c #FEF0E7",
"P&	c #FFEEE2",
"Q&	c #CDAE99",
"R&	c #9C7554",
"S&	c #92623A",
"T&	c #935A2D",
"U&	c #975B29",
"V&	c #A66F36",
"W&	c #A4753D",
"X&	c #DCBA8D",
"Y&	c #FFE9BB",
"Z&	c #FFE2A8",
"`&	c #E3B673",
" *	c #E3A663",
".*	c #F2AD68",
"+*	c #DE9853",
"@*	c #B9793B",
"#*	c #A67242",
"$*	c #AB8360",
"%*	c #DEBFAB",
"&*	c #FFF0E7",
"**	c #FFF0E1",
"=*	c #C2A794",
"-*	c #8F6B53",
";*	c #986A52",
">*	c #905F3F",
",*	c #6E4319",
"'*	c #573208",
")*	c #937559",
"!*	c #C0A587",
"~*	c #B19063",
"{*	c #A87F4B",
"]*	c #CA935D",
"^*	c #CC8E5B",
"/*	c #B37947",
"(*	c #9E6E40",
"_*	c #987653",
":*	c #DCC3AD",
"<*	c #FFE9E2",
"[*	c #EBC8C4",
"}*	c #967266",
"|*	c #7B5C40",
"1*	c #7F6447",
"2*	c #7A5E50",
"3*	c #7C6458",
"4*	c #77604E",
"5*	c #836853",
"6*	c #906B58",
"7*	c #835D48",
"8*	c #AD8E79",
"9*	c #FBE6D3",
"0*	c #FAF1E2",
"a*	c #FFE7E5",
"b*	c #FFE7D4",
"c*	c #FFE8D2",
"d*	c #FEE6DC",
"e*	c #FDE5E1",
"f*	c #F7E5E1",
"g*	c #FCE9E3",
"h*	c #FFE6E3",
"i*	c #FFE6E2",
"j*	c #FAE9E2",
"                                                                ",
"                    .   + @ # $ % & * = -                       ",
"                ; > , ' ) ! ~ { ] ^ / ( _ : < [                 ",
"            } | 1 2 3 4 5 6 7 8 9 0 a b c d e f                 ",
"          g h i j k l m n o p q r s t u v w x y z A B           ",
"        C D E F G H I J K L M N O P Q Q R S T U V W X Y         ",
"      Z `  ...+.@.#.$.%.&.*.=.-.;.>.,.'.).!.~.{.].^./.(._.      ",
"    :.<.[.}.|.1.2.3.4.5.6.7.8.9.0.a.b.c.d.e.f.g.h.i.j.k.l.m.    ",
"  n.o.p.q.r.s.t.u.v.w.x.y.z.A.B.C.D.E.F.G.H.I.J.K.L.M.N.O.P.    ",
"Q.R.S.T.U.V.W.X.Y.Z.`. +.+++@+#+$+%+&+F.*+=+-+;+>+,+'+)+!+~+{+  ",
"]+^+/+(+_+:+<+[+}+|+1+2+3+4+5+6+7+8+9+0+a+b+c+d+e+f+,.g+h+i+j+  ",
"k+l+m+n+o+p+q+r+s+t+u+v+w+x+y+z+A+B+C+D+E+F+G+H+I+J+K+L+M+N+O+  ",
"P+Q+R+S+T+U+V+W+X+Y+Z+`+ @.@+@@@#@$@%@&@*@=@-@;@>@,@'@M )@!@~@  ",
"{@]@^@/@(@_@:@<@[@}@|@1@2@3@4@5@6@7@8@9@0@6.a@b@c@d@e@f@g@h@i@  ",
"j@k@l@m@n@o@p@q@r@s@t@u@v@w@x@y@z@A@B@C@D@E@F@G@H@I@J@K@L@M@N@  ",
"O@P@Q@R@S@T@U@V@W@X@Y@Z@`@ #.#+#@###N $#%#&#*#=#-#;#>#,#'#)#!#  ",
"~#{#]#^#/#(#_#:#<#[#}#|#1#2#3#4#5#6#7#6.8#9#0#a#b#c#d#e#f#g#h#  ",
"i#j#k#l#m#n#o#p#q#r#s#t#u#v#w#x#y#z#A#B#C#D#E#G@F#G#H#I#J#K#L#  ",
"M#N#O#P#Q#R#S#T#U#V#W#X#Y#Z#`# $.$+$5.@$#$$$%$&$*$=$-$;$>$,$'$  ",
")$!$~${$]$^$/$($_$:$<$[$}$|$1$2$3$4$5$6$7$8$9$0$a$b$c$d$e$f$g$  ",
"h$i$j$k$l$m$n$o$p$q$r$s$t$u$v$w$x$y$z$A$B$C$D$E$F$G$H$I$J$K$L$  ",
"M$N$O$P$Q$R$S$T$U$w$V$W$X$Y$Z$f.`$ %.%+%@%#%$%%%&%*%=%-%;%>%,%  ",
"  '%)%!%~%{%]%^%/%(%_%:%<%[%x+}%|%1%2%3%4%5%6%7%8%9%0%a%b%c%d%  ",
"  e%f%g%h%i%j%k%l%m%n%o%p% @q%r%s%t%u%v%w%x%y%z%A%B%C%D%  E%F%  ",
"    G%H%I%J%K%L%M%N%C%O%*@g.P%Q%R%S%T%U%V%W%X%Y%Z%`% &.&  +&    ",
"    @&#&$&%&&&*&=&-&;&>&7.,&'&)&!&~&{&]&^&/&(&_&:&<&[&}&|&1&    ",
"      2&3&4&5&6&7&8&9&0&a&b&c&d&e&f&g&h&i&j&k&l&m&n&o&p&q&      ",
"        r&s&t&u&v&w&x&y&z&A&B&C&D&E&F&G&H&I&J&K&L&M&N&O&        ",
"            P&Q&R&S&T&U&V&W&X&Y&Z&`& *.*+*@*#*$*%*&*            ",
"              **=*-*;*>*,*'*)*!*~*{*]*^*/*(*_*:*                ",
"                  <*[*}*|*1*2*3*4*5*6*7*8*9*0*                  ",
"                      a*b*c*d*e*f*g*h*i*j*                      "};
