/* XPM */
static char * wall_xpm[] = {
"32 32 508 2",
"  	c #8DB95E",
". 	c #94B960",
"+ 	c #93B95F",
"@ 	c #8CBA5D",
"# 	c #8BB65A",
"$ 	c #8EB85E",
"% 	c #8AB459",
"& 	c #8EB95D",
"* 	c #8EBA5E",
"= 	c #8DBA5E",
"- 	c #8CB75B",
"; 	c #8DB95D",
"> 	c #8EB95E",
", 	c #8AB45A",
"' 	c #8DB75C",
") 	c #90B95E",
"! 	c #8CB75C",
"~ 	c #8CB65C",
"{ 	c #8FB95F",
"] 	c #8CB65B",
"^ 	c #8FBB5E",
"/ 	c #8EBB5E",
"( 	c #8CB85C",
"_ 	c #8DB75D",
": 	c #7FB454",
"< 	c #9DBE66",
"[ 	c #97C065",
"} 	c #8DC262",
"| 	c #7FB152",
"1 	c #8ABD5E",
"2 	c #90C364",
"3 	c #88B85A",
"4 	c #78AD4D",
"5 	c #98BF64",
"6 	c #8FC463",
"7 	c #82B555",
"8 	c #86B95A",
"9 	c #8FC364",
"0 	c #8CBC5E",
"a 	c #79AC4D",
"b 	c #85B758",
"c 	c #9CC067",
"d 	c #90C464",
"e 	c #86BA5A",
"f 	c #82B455",
"g 	c #8EC263",
"h 	c #8FC062",
"i 	c #7FAF51",
"j 	c #7EB253",
"k 	c #81B35B",
"l 	c #8CBE61",
"m 	c #89BD5C",
"n 	c #80B354",
"o 	c #8DC062",
"p 	c #819D48",
"q 	c #B4B268",
"r 	c #B3B469",
"s 	c #89B458",
"t 	c #649538",
"u 	c #81B355",
"v 	c #90C465",
"w 	c #95B25C",
"x 	c #7A9640",
"y 	c #97A555",
"z 	c #95B960",
"A 	c #689B3C",
"B 	c #77A84A",
"C 	c #90C365",
"D 	c #97BB63",
"E 	c #839C49",
"F 	c #8CA250",
"G 	c #B9B76F",
"H 	c #A2BC67",
"I 	c #72A446",
"J 	c #6C9C3F",
"K 	c #95C165",
"L 	c #89A250",
"M 	c #5B8438",
"N 	c #5E8247",
"O 	c #87A95C",
"P 	c #78A94A",
"Q 	c #699A3C",
"R 	c #8DBF61",
"S 	c #8EBF62",
"T 	c #B1A15C",
"U 	c #CAA567",
"V 	c #C1A363",
"W 	c #A6A85C",
"X 	c #809543",
"Y 	c #A1AA5C",
"Z 	c #9EBC66",
"` 	c #B3AC63",
" .	c #B59C59",
"..	c #BDA261",
"+.	c #C8A568",
"@.	c #B1A961",
"#.	c #829744",
"$.	c #97A455",
"%.	c #A2BA67",
"&.	c #ACB669",
"*.	c #C2AA6C",
"=.	c #B9A867",
"-.	c #D2AE75",
";.	c #C1B270",
">.	c #92A051",
",.	c #8C9D4D",
"'.	c #A8B767",
").	c #9FB965",
"!.	c #C5AC6B",
"~.	c #929052",
"{.	c #6B6F47",
"].	c #B6A968",
"^.	c #96A152",
"/.	c #839847",
"(.	c #A5B364",
"_.	c #9AB862",
":.	c #BA9857",
"<.	c #BA9A59",
"[.	c #BD9E5E",
"}.	c #C1A060",
"|.	c #B19E59",
"1.	c #C09E5F",
"2.	c #B3A962",
"3.	c #B9A25F",
"4.	c #BE9B5C",
"5.	c #BD9E5D",
"6.	c #BFA161",
"7.	c #C3A163",
"8.	c #B4A15E",
"9.	c #C3A769",
"0.	c #BEB06D",
"a.	c #BCB06D",
"b.	c #CAAB70",
"c.	c #C7AC70",
"d.	c #C7AE70",
"e.	c #CDB074",
"f.	c #C0AB6B",
"g.	c #B9A564",
"h.	c #C3AB6C",
"i.	c #BBB670",
"j.	c #CEAF72",
"k.	c #C2A76B",
"l.	c #B29F65",
"m.	c #D1B174",
"n.	c #C6AF70",
"o.	c #C0AC6C",
"p.	c #CBB274",
"q.	c #B7B56D",
"r.	c #B69454",
"s.	c #BB9959",
"t.	c #BF9F5F",
"u.	c #C19F5F",
"v.	c #BD9D5D",
"w.	c #BF9E60",
"x.	c #BD9D5E",
"y.	c #BC9B5B",
"z.	c #BF9E5D",
"A.	c #C4A364",
"B.	c #C4A565",
"C.	c #C6A668",
"D.	c #C8AB6D",
"E.	c #CAAC6F",
"F.	c #CBAE72",
"G.	c #CBB073",
"H.	c #CCB074",
"I.	c #CDB175",
"J.	c #CDB275",
"K.	c #CFB276",
"L.	c #CAAC70",
"M.	c #CFB275",
"N.	c #D6B97D",
"O.	c #D3B87B",
"P.	c #D1B477",
"Q.	c #D2B578",
"R.	c #D0B478",
"S.	c #D2B579",
"T.	c #D0B376",
"U.	c #BD9A5C",
"V.	c #BC9859",
"W.	c #BE9A5B",
"X.	c #BF9B5B",
"Y.	c #BE9A5A",
"Z.	c #C09F61",
"`.	c #BF9C5D",
" +	c #BC9757",
".+	c #C09B5C",
"++	c #C5A162",
"@+	c #C6A466",
"#+	c #C7A76A",
"$+	c #CAAB6E",
"%+	c #CAAB6F",
"&+	c #CCAE73",
"*+	c #CDAF73",
"=+	c #CDAF74",
"-+	c #CEAF74",
";+	c #CEB075",
">+	c #D2B479",
",+	c #D7B97E",
"'+	c #D6B87C",
")+	c #D4B67A",
"!+	c #D3B579",
"~+	c #D4B579",
"{+	c #D3B478",
"]+	c #D1B276",
"^+	c #CDAD70",
"/+	c #BB9859",
"(+	c #BA9657",
"_+	c #BA9757",
":+	c #BB9758",
"<+	c #BC995A",
"[+	c #C09F60",
"}+	c #BF9D5E",
"|+	c #BB9858",
"1+	c #BC9858",
"2+	c #C09D5D",
"3+	c #C3A264",
"4+	c #C8A96B",
"5+	c #CCAE72",
"6+	c #CCAD71",
"7+	c #CBAC70",
"8+	c #D6B87D",
"9+	c #D5B77B",
"0+	c #D3B578",
"a+	c #D1B376",
"b+	c #CAAA6C",
"c+	c #B99556",
"d+	c #B99557",
"e+	c #BB9759",
"f+	c #BD9A5B",
"g+	c #BE9C5D",
"h+	c #BF9D5F",
"i+	c #C09E60",
"j+	c #C4A264",
"k+	c #CAAA6D",
"l+	c #C8A86C",
"m+	c #C7A86A",
"n+	c #C5A568",
"o+	c #CFB073",
"p+	c #D6B77B",
"q+	c #D7BA7E",
"r+	c #D8BB80",
"s+	c #D2B477",
"t+	c #D3B477",
"u+	c #D2B376",
"v+	c #D1B275",
"w+	c #BD9B5C",
"x+	c #BD9B5D",
"y+	c #BE9C5E",
"z+	c #C19F61",
"A+	c #C5A466",
"B+	c #C8A96C",
"C+	c #CBAC71",
"D+	c #CBAD72",
"E+	c #CBAD71",
"F+	c #C5A567",
"G+	c #BC9A5C",
"H+	c #CDAE71",
"I+	c #D2B478",
"J+	c #D4B57A",
"K+	c #D0B275",
"L+	c #D0B174",
"M+	c #BF9D60",
"N+	c #C3A061",
"O+	c #C29F60",
"P+	c #C4A162",
"Q+	c #C19E5F",
"R+	c #BF9C5E",
"S+	c #C8A86B",
"T+	c #C9AA6D",
"U+	c #C5A76C",
"V+	c #C6A76A",
"W+	c #BE9D5E",
"X+	c #BC995B",
"Y+	c #BA9759",
"Z+	c #BB985A",
"`+	c #C09F62",
" @	c #C3A365",
".@	c #C4A467",
"+@	c #C3A367",
"@@	c #CBAB6D",
"#@	c #CCAC6E",
"$@	c #C6A567",
"%@	c #C5A364",
"&@	c #C7A566",
"*@	c #C7A565",
"=@	c #C8A565",
"-@	c #C5A161",
";@	c #C5A262",
">@	c #C9A869",
",@	c #D0B276",
"'@	c #D3B67A",
")@	c #CBAC6F",
"!@	c #C4A365",
"~@	c #BF9E5F",
"{@	c #C4A366",
"]@	c #CEAE72",
"^@	c #CAAA6E",
"/@	c #C8A668",
"(@	c #C8A769",
"_@	c #C6A465",
":@	c #C9A86A",
"<@	c #D0B377",
"[@	c #D1B478",
"}@	c #C9AB6F",
"|@	c #C9A96C",
"1@	c #C19F60",
"2@	c #C1A062",
"3@	c #B69152",
"4@	c #B79354",
"5@	c #BA9758",
"6@	c #BC9A5B",
"7@	c #CBAD70",
"8@	c #CCAD70",
"9@	c #CAA96C",
"0@	c #C8A86A",
"a@	c #CAAB6D",
"b@	c #D1B479",
"c@	c #CCAE71",
"d@	c #C4A263",
"e@	c #B99658",
"f@	c #B79355",
"g@	c #B89556",
"h@	c #C9A96D",
"i@	c #CBAB6E",
"j@	c #C9A96B",
"k@	c #C7A668",
"l@	c #D1B378",
"m@	c #CFB176",
"n@	c #CFB074",
"o@	c #C09C5D",
"p@	c #B59052",
"q@	c #B28D4E",
"r@	c #B59152",
"s@	c #C5A365",
"t@	c #C8A96D",
"u@	c #C7A96C",
"v@	c #CEB175",
"w@	c #C3A467",
"x@	c #C3A162",
"y@	c #BD9959",
"z@	c #BB9757",
"A@	c #B99455",
"B@	c #B69151",
"C@	c #B89455",
"D@	c #B38D4E",
"E@	c #B08B4B",
"F@	c #B08A4B",
"G@	c #B28E4F",
"H@	c #C4A568",
"I@	c #C2A163",
"J@	c #B99454",
"K@	c #B58F4F",
"L@	c #B28C4C",
"M@	c #B18C4B",
"N@	c #B89354",
"O@	c #B79252",
"P@	c #BA9454",
"Q@	c #C6A464",
"R@	c #C9A768",
"S@	c #CEAF73",
"T@	c #CCAC6F",
"U@	c #CDAE72",
"V@	c #D5B77C",
"W@	c #BB9657",
"X@	c #B89252",
"Y@	c #B28C4B",
"Z@	c #B08A4A",
"`@	c #BD9858",
" #	c #BD9756",
".#	c #C09B5A",
"+#	c #C6A363",
"@#	c #CBA969",
"##	c #CBA869",
"$#	c #CBA96A",
"%#	c #CFB175",
"&#	c #CCAC70",
"*#	c #D6B97E",
"=#	c #D5B87D",
"-#	c #D4B67B",
";#	c #BA9555",
">#	c #B99354",
",#	c #B48E4F",
"'#	c #BC9758",
")#	c #BF9B5C",
"!#	c #CDAD6F",
"~#	c #CEB074",
"{#	c #D5B87C",
"]#	c #D4B77B",
"^#	c #BC9656",
"/#	c #BB9656",
"(#	c #B58F50",
"_#	c #B18B4B",
":#	c #B89253",
"<#	c #C09D5E",
"[#	c #CCAB6E",
"}#	c #C2A062",
"|#	c #BD9757",
"1#	c #BD9857",
"2#	c #BB9655",
"3#	c #B99353",
"4#	c #B48E4E",
"5#	c #BC9959",
"6#	c #C5A263",
"7#	c #CBAA6C",
"8#	c #CFAF71",
"9#	c #C7A769",
"0#	c #C2A061",
"a#	c #D2B57A",
"b#	c #D3B57A",
"c#	c #C09C5C",
"d#	c #B79152",
"e#	c #BD995A",
"f#	c #C4A161",
"g#	c #C8A566",
"h#	c #C8A768",
"i#	c #D0B277",
"j#	c #C2A264",
"k#	c #C19E5E",
"l#	c #BD9A5A",
"m#	c #C4A262",
"n#	c #CAA96B",
"o#	c #CDAC6F",
"p#	c #CEAD70",
"q#	c #C5A363",
"r#	c #D0B073",
"s#	c #CFAF70",
"t#	c #CCAB6C",
"u#	c #CCAA6B",
"v#	c #CEAE70",
"w#	c #C9A769",
"x#	c #C6A364",
"y#	c #DABC80",
"z#	c #D7B97C",
"A#	c #D4B578",
"B#	c #C7A667",
"C#	c #D0B173",
"D#	c #D0AF72",
"E#	c #D6B87B",
"F#	c #D0B072",
"G#	c #D2B275",
"H#	c #D5B67A",
"I#	c #D9BC80",
"J#	c #D8BB7F",
"K#	c #D8BA7E",
"L#	c #DABC81",
"M#	c #DCBE83",
"N#	c #DBBD82",
"O#	c #C6A262",
"P#	c #D0B175",
"Q#	c #CDAD71",
"R#	c #D5B679",
"S#	c #DCBF83",
"T#	c #DDBF84",
"U#	c #DDBF83",
"V#	c #DBBE82",
"W#	c #DBBD81",
"X#	c #C7A464",
"Y#	c #C8A667",
"Z#	c #D9BB7F",
"`#	c #DEC084",
" $	c #D8BA7F",
".$	c #DABD82",
"+$	c #D9BB80",
"@$	c #C2A162",
"#$	c #C7A86C",
"$$	c #D7B97D",
"%$	c #CFAF72",
"&$	c #C7A86B",
"*$	c #C9AA6E",
"=$	c #C8AA6E",
"-$	c #C6A669",
";$	c #DCBE82",
">$	c #D4B77C",
",$	c #D3B67B",
"'$	c #C5A76B",
")$	c #C8AA6F",
"!$	c #C9AB70",
"~$	c #CAAC71",
"{$	c #C9AC71",
"]$	c #C8AA6D",
"^$	c #C4A66A",
"/$	c #DBBE83",
"($	c #DDC084",
"_$	c #DEC085",
":$	c #DFC185",
"<$	c #A38956",
"[$	c #A38957",
"}$	c #A48A57",
"|$	c #A48A58",
"1$	c #A38958",
"2$	c #A28856",
"3$	c #A28857",
"4$	c #A08655",
"5$	c #B89C67",
"6$	c #9C8250",
"7$	c #9B8150",
"8$	c #997F4F",
"9$	c #987E4E",
"0$	c #9A804F",
"a$	c #987F4E",
"b$	c #9A8050",
"c$	c #9B8250",
"d$	c #9A8150",
"e$	c #9C8251",
"f$	c #977D4D",
"g$	c #B29762",
"h$	c #DEC185",
"i$	c #DABD81",
"  . + @ # $ $ % & * * = - ; > , ' * ) * ! ~ { ] # ^ ; / ( - > _ ",
": < [ } | 1 2 3 4 @ 5 6 7 8 9 0 a b c d e f g h i j k l m n g o ",
"p q r s t u v w x y r z A B C D E F G H I J o K L M N O P Q R S ",
"T U V W X Y Z `  ...+.@.#.$.%.&.*.=.-.;.>.,.'.).!.~.{.].^./.(._.",
":.<.[.}.|.1.2.3.4.5.6.7.8.9.0.a.b.c.d.e.f.g.h.i.j.k.l.m.n.o.p.q.",
"r.s.t.t.u.v.w.x.y.z.A.B.C.D.E.F.G.H.I.J.K.L.M.N.O.P.Q.R.S.P.M.T.",
"U.V.W.X.Y.4.Z.`. +.+++@+#+$+%+&+*+=+-+;+K.&+>+,+'+)+!+~+{+]+j.^+",
"/+(+_+:+/+<+[+}+|+1+2+3+4+L.5+*+*+=+=+5+6+7+)+8+,+,+N.9+0+a+^+b+",
"c+d+e+f+g+h+Z.i+4.X.2+j+k+5+=+*+=+5+E.l+m+n+o+p+q+r+'+{+s+t+u+v+",
"w+x+4.g+i+[+y+g+x+z+7.A+B+C+D+5+&+E+F+h+y+G+7.H+I+J+s+]+o+K+a+L+",
"3+M+U.7.N+O+P+Q+R+j+S+T+E+=+F.U+D+e.V+W+X+Y+Z+`+ @.@.@#++@#+@@#@",
"$@1.U.%@&@*@=@-@;@>@j.,@,@I+'@E+*+-+)@3+h+x+Z.!@~@<+X+[+{@#@]@K+",
"^@C.A+/@(@>@(@&@_@:@j.<@[@S.>+}@6+|@#+A+1@R+2@y+(+3@4@5@6@(@j.T.",
"6+7@)@8@@@@@b+b+9@0@a@,@b@S.S.=+c@@+d@d@1@4.<+e@d+f@g@Y+6@d@:@8@",
"^@h@T+8@i@j@(@k@|@i@H+,@l@[@S.m@n@:@N+u.o@W.:+w+X+p@q@r@4@}+s@:@",
"%+t@u@k+0@j@4+$@0@k+5+v@;+m@5+w@(@x@y@1+z@A@B@(+C@D@E@F@G@1@k@0@",
"*+&+7+|@0@(@0@|@H@^@,@>+<@<@7+I@}+1+J@K@L@M@L@B@N@O@P@ +X.Q@R@>@",
",@K.n@S@T@i@H+L+U@a+9+8+V@V@!+k+`.W@X@L@Y@Z@B@ +Y.`@ #.#+#@###$#",
"%#S@H+&#H+H+H+,@U@I+*#=#V@-#,@j@Q+;#>#,#Y@Z@,#J@1+'# +)#+#R@$#!#",
"~#8@0@k@k@$@:@o+5+'@,+8+{#]#U@d@Y.^#/#P@(#Z@_#:#(+z@:+<#_@[#L+u+",
"H+b+!@}#z+s@(@^+=+'@,+*#=#{#o+O+`@|#1#2#3#K@4#J@J@J@5#6#7#8#s+)+",
"k+9#I@i+R+0#$@8@}@K.!+a#b#-#U@j+c# +/#/#;#B@d#Y.e#Y.f#g#h#7#!#j.",
"0@s@h+d@0#1.@+U@i#[@<@i#[@'@5+j#P+o@X.k#o@z@1+l#m#n#o#!#n+^+v+p#",
"j@A+z+_@0#<#q#r#,+,+*#8+V@]#%#k+s#t#u#v#w#x#_@&@r#u+t+'+'+y#z#A#",
"9#x@Q++#N+P+B#L+-#>+!+'@!+]+j.H+C#D#t+E#u+F#G#H#I#J#K#L#N.M#N#y#",
"%@x@s@R@O#_@:@P#I+Q#T@j.S@T@#@8@m.R#K#L#N#y#L#M#S#T#T#U#-#V#W#y#",
"$@x@@+u#X#Y#!#I+!+S@b+b+b+@@n#k+R#'+Z#M#U#S#T#T#S#U#T#`# $.$L#+$",
"C.@$$@$#N+@+H+I+K.,@S@S@H+i@l+#$-# $J#J#+$Z#$$+$M#M#S#W#<@ $+$,+",
"H#0+{+%$n#T@I+q+&+&$%+5+E+*$=$*$L.E+E.$+$+-$%+Z#M#N#V#L#+$N#;$L#",
"{+-#>$,$,$'@b#=#b@'$)$!$~$~${$!$!$)$=$t@]$^$i#/$N#M#M#U#($T#_$:$",
"<$[$}$|$1$[$[$[$[$2$<$<$[$[$<$<$[$2$2$2$3$[$4$5$`#.$M#S#M#T#T#T#",
"6$6$7$8$9$0$a$8$b$7$7$6$c$0$0$7$0$d$7$7$7$e$f$g$h$L#L#I#y#i$M#T#"};
