/* XPM */
static char * bit_open_xpm[] = {
"32 32 728 2",
"  	c None",
". 	c #E5C7AB",
"+ 	c #E1CBB4",
"@ 	c #DDC9B1",
"# 	c #DFCBB2",
"$ 	c #E1CCAD",
"% 	c #E0CBB0",
"& 	c #9E7F63",
"* 	c #795437",
"= 	c #7C5C43",
"- 	c #7A5F44",
"; 	c #765E3C",
"> 	c #775D3C",
", 	c #7E6143",
"' 	c #76583E",
") 	c #7E5E47",
"! 	c #735741",
"~ 	c #796449",
"{ 	c #8E795C",
"] 	c #7D6342",
"^ 	c #725535",
"/ 	c #795E43",
"( 	c #775B43",
"_ 	c #74563C",
": 	c #7A5B3F",
"< 	c #7B5A3B",
"[ 	c #7E5F40",
"} 	c #7E5F43",
"| 	c #78593D",
"1 	c #7A583D",
"2 	c #7D5B40",
"3 	c #7B5D41",
"4 	c #C2AE93",
"5 	c #DBCBB4",
"6 	c #744F32",
"7 	c #926443",
"8 	c #81583A",
"9 	c #593213",
"0 	c #6F4924",
"a 	c #754F2A",
"b 	c #6C4323",
"c 	c #72492D",
"d 	c #785036",
"e 	c #846046",
"f 	c #6B5033",
"g 	c #83684A",
"h 	c #82613E",
"i 	c #6D4B28",
"j 	c #6F4D31",
"k 	c #6E4A30",
"l 	c #71492F",
"m 	c #7B5236",
"n 	c #744B2D",
"o 	c #734C2D",
"p 	c #7C543A",
"q 	c #5F361A",
"r 	c #92694B",
"s 	c #7E5B3B",
"t 	c #8B7454",
"u 	c #D5C4AA",
"v 	c #764E2B",
"w 	c #CB9974",
"x 	c #BF916F",
"y 	c #613512",
"z 	c #A67A53",
"A 	c #AB8056",
"B 	c #B28460",
"C 	c #A67958",
"D 	c #C5987B",
"E 	c #C0997C",
"F 	c #AE8F70",
"G 	c #AA8D6B",
"H 	c #AB8964",
"I 	c #A17F5A",
"J 	c #A78468",
"K 	c #A37E64",
"L 	c #A67E64",
"M 	c #B0866D",
"N 	c #A67D61",
"O 	c #9F785B",
"P 	c #B68E74",
"Q 	c #A37B61",
"R 	c #603417",
"S 	c #B78C6C",
"T 	c #BD9977",
"U 	c #957B5A",
"V 	c #DBCAAC",
"W 	c #744D26",
"X 	c #A7764D",
"Y 	c #AF815D",
"Z 	c #623611",
"` 	c #966B41",
" .	c #A67B50",
"..	c #9A6D46",
"+.	c #B78B68",
"@.	c #AA7D5C",
"#.	c #B7906F",
"$.	c #9F815D",
"%.	c #987C57",
"&.	c #957753",
"*.	c #957755",
"=.	c #9B7B62",
"-.	c #96765F",
";.	c #98755F",
">.	c #9C7A61",
",.	c #94745B",
"'.	c #927259",
").	c #997960",
"!.	c #866449",
"~.	c #61381A",
"{.	c #956D4A",
"].	c #A7835F",
"^.	c #98805C",
"/.	c #D7C8A7",
"(.	c #7D5730",
"_.	c #A87B52",
":.	c #AA7F5C",
"<.	c #6D4522",
"[.	c #7B542B",
"}.	c #7A532A",
"|.	c #724B24",
"1.	c #896040",
"2.	c #805C3A",
"3.	c #856944",
"4.	c #705834",
"5.	c #604728",
"6.	c #53391E",
"7.	c #462D17",
"8.	c #3C230F",
"9.	c #39200C",
"0.	c #341E09",
"a.	c #2E1904",
"b.	c #331E09",
"c.	c #331D06",
"d.	c #341A01",
"e.	c #5A3518",
"f.	c #9B7551",
"g.	c #A6835D",
"h.	c #967E5A",
"i.	c #D5C8A6",
"j.	c #714F2A",
"k.	c #BC9470",
"l.	c #A78466",
"m.	c #896A4D",
"n.	c #CEB08E",
"o.	c #C0A27E",
"p.	c #997857",
"q.	c #D6B596",
"r.	c #C6A488",
"s.	c #98795C",
"t.	c #B49D7B",
"u.	c #958261",
"v.	c #625137",
"w.	c #5B4935",
"x.	c #493729",
"y.	c #2E1E11",
"z.	c #201205",
"A.	c #1D1103",
"B.	c #171000",
"C.	c #1A1303",
"D.	c #1C1302",
"E.	c #1C0C00",
"F.	c #523316",
"G.	c #A78361",
"H.	c #BE9A76",
"I.	c #947A57",
"J.	c #D8CAAD",
"K.	c #705230",
"L.	c #A68262",
"M.	c #A3856D",
"N.	c #7A624A",
"O.	c #A58D71",
"P.	c #A68F70",
"Q.	c #81674E",
"R.	c #B59981",
"S.	c #A98A75",
"T.	c #896F56",
"U.	c #9A8769",
"V.	c #8D7E61",
"W.	c #5E4F3C",
"X.	c #4A3C31",
"Y.	c #43362E",
"Z.	c #312620",
"`.	c #1B140E",
" +	c #18150E",
".+	c #171810",
"++	c #101207",
"@+	c #151306",
"#+	c #1C1100",
"$+	c #4E3318",
"%+	c #997555",
"&+	c #B08C68",
"*+	c #967959",
"=+	c #D6CAB0",
"-+	c #715337",
";+	c #9A785D",
">+	c #997E6B",
",+	c #EBD6C5",
"'+	c #B09E88",
")+	c #8F7D65",
"!+	c #AF9A87",
"~+	c #A7907E",
"{+	c #A38978",
"]+	c #A7917C",
"^+	c #A3937A",
"/+	c #837761",
"(+	c #6A5E52",
"_+	c #4D423C",
":+	c #382E2C",
"<+	c #2D2523",
"[+	c #221E1D",
"}+	c #151513",
"|+	c #0B110F",
"1+	c #111713",
"2+	c #13140E",
"3+	c #180F00",
"4+	c #4D311B",
"5+	c #9B7659",
"6+	c #B58C6C",
"7+	c #967758",
"8+	c #D5C9B3",
"9+	c #67492F",
"0+	c #B29077",
"a+	c #A48A79",
"b+	c #DDCABB",
"c+	c #B8A793",
"d+	c #B4A48D",
"e+	c #DBC6B3",
"f+	c #D4BDAD",
"g+	c #D3B9AA",
"h+	c #D9C2B2",
"i+	c #BEAE97",
"j+	c #998C79",
"k+	c #71675D",
"l+	c #534A45",
"m+	c #342B2C",
"n+	c #241E20",
"o+	c #222023",
"p+	c #1A1B1D",
"q+	c #091113",
"r+	c #0D1615",
"s+	c #131512",
"t+	c #160C02",
"u+	c #A37C5F",
"v+	c #BE9373",
"w+	c #997859",
"x+	c #D7CBB5",
"y+	c #6D4E32",
"z+	c #BC987E",
"A+	c #9F836E",
"B+	c #AD9782",
"C+	c #A69279",
"D+	c #8B775E",
"E+	c #9A816B",
"F+	c #9A7F6C",
"G+	c #A18474",
"H+	c #A78C7B",
"I+	c #9B8671",
"J+	c #837461",
"K+	c #63594D",
"L+	c #474038",
"M+	c #362E2C",
"N+	c #231D1D",
"O+	c #1A1617",
"P+	c #1F2024",
"Q+	c #182023",
"R+	c #081012",
"S+	c #121210",
"T+	c #1A0D04",
"U+	c #50301B",
"V+	c #A27659",
"W+	c #BA8F6D",
"X+	c #9B7A59",
"Y+	c #DBCCB5",
"Z+	c #826142",
"`+	c #B99273",
" @	c #9F8064",
".@	c #9B8065",
"+@	c #8A7152",
"@@	c #684D30",
"#@	c #674931",
"$@	c #71513C",
"%@	c #795D47",
"&@	c #877159",
"*@	c #71614A",
"=@	c #58513F",
"-@	c #3F3B30",
";@	c #312A24",
">@	c #231E1B",
",@	c #191514",
"'@	c #18181A",
")@	c #171C20",
"!@	c #1A1F22",
"~@	c #151412",
"{@	c #190B02",
"]@	c #502D17",
"^@	c #A57A5A",
"/@	c #BD926F",
"(@	c #977957",
"_@	c #DBCCAF",
":@	c #886440",
"<@	c #C39971",
"[@	c #B6926E",
"}@	c #53320F",
"|@	c #6C4C23",
"1@	c #8B6B42",
"2@	c #74522D",
"3@	c #987555",
"4@	c #957254",
"5@	c #8B6C4F",
"6@	c #977E5F",
"7@	c #7F7051",
"8@	c #59533D",
"9@	c #42412F",
"0@	c #2E2A1E",
"a@	c #221E15",
"b@	c #1D1A15",
"c@	c #11110F",
"d@	c #0C1011",
"e@	c #202425",
"f@	c #1E1A17",
"g@	c #1D0C02",
"h@	c #502E15",
"i@	c #A67B59",
"j@	c #BD966F",
"k@	c #937954",
"l@	c #DACBAC",
"m@	c #85633D",
"n@	c #BC9268",
"o@	c #A6805B",
"p@	c #745129",
"q@	c #9A7445",
"r@	c #98703F",
"s@	c #7D5225",
"t@	c #9D7248",
"u@	c #9A724E",
"v@	c #8F6D4A",
"w@	c #987E5D",
"x@	c #78694A",
"y@	c #56513B",
"z@	c #403E2F",
"A@	c #353125",
"B@	c #252118",
"C@	c #16130E",
"D@	c #121617",
"E@	c #201F1B",
"F@	c #241609",
"G@	c #543016",
"H@	c #9B704D",
"I@	c #B18A61",
"J@	c #957B56",
"K@	c #D7CCAE",
"L@	c #886C47",
"M@	c #B8956F",
"N@	c #A98762",
"O@	c #754F28",
"P@	c #996D3C",
"Q@	c #A06F37",
"R@	c #88511B",
"S@	c #9C6735",
"T@	c #A47348",
"U@	c #936B47",
"V@	c #7D6F55",
"W@	c #726C60",
"X@	c #45423B",
"Y@	c #2E2721",
"Z@	c #221D19",
"`@	c #181816",
" #	c #111518",
".#	c #111516",
"+#	c #141613",
"@#	c #261A0E",
"##	c #563514",
"$#	c #A97E54",
"%#	c #B89166",
"&#	c #947A55",
"*#	c #735732",
"=#	c #9B7850",
"-#	c #A6825E",
";#	c #7A532C",
">#	c #996938",
",#	c #A06931",
"'#	c #8C541B",
")#	c #9D6532",
"!#	c #A37249",
"~#	c #7F5B39",
"{#	c #907B60",
"]#	c #9E9381",
"^#	c #7E776F",
"/#	c #524D49",
"(#	c #362F29",
"_#	c #241F1B",
":#	c #151515",
"<#	c #101417",
"[#	c #0F1316",
"}#	c #101415",
"|#	c #0E100F",
"1#	c #1B1105",
"2#	c #644320",
"3#	c #A57A4F",
"4#	c #AE875C",
"5#	c #A08361",
"6#	c #D9CCAA",
"7#	c #725229",
"8#	c #A37C51",
"9#	c #A9825B",
"0#	c #794E24",
"a#	c #9C6C3B",
"b#	c #A26F38",
"c#	c #834E1A",
"d#	c #956537",
"e#	c #98704C",
"f#	c #6F5439",
"g#	c #9A8F7B",
"h#	c #969384",
"i#	c #6A675E",
"j#	c #4A463D",
"k#	c #342D23",
"l#	c #231F16",
"m#	c #171715",
"n#	c #131718",
"o#	c #121413",
"p#	c #1A1004",
"q#	c #543312",
"r#	c #A4794E",
"s#	c #B18A5F",
"t#	c #9A7D5B",
"u#	c #D5C7A4",
"v#	c #715023",
"w#	c #B08558",
"x#	c #A87C55",
"y#	c #784B22",
"z#	c #976736",
"A#	c #9B6735",
"B#	c #835120",
"C#	c #96673D",
"D#	c #7E5736",
"E#	c #60462D",
"F#	c #8D8270",
"G#	c #817F70",
"H#	c #5B594C",
"I#	c #444035",
"J#	c #342E22",
"K#	c #251E14",
"L#	c #181713",
"M#	c #141615",
"N#	c #101113",
"O#	c #101211",
"P#	c #171717",
"Q#	c #160A00",
"R#	c #553212",
"S#	c #A4794F",
"T#	c #B79067",
"U#	c #9F8260",
"V#	c #D7C9A4",
"W#	c #704E20",
"X#	c #B48859",
"Y#	c #B4875E",
"Z#	c #80532A",
"`#	c #9F6F41",
" $	c #966433",
".$	c #855223",
"+$	c #98693F",
"@$	c #784D2B",
"#$	c #654629",
"$$	c #6F5E44",
"%$	c #736B56",
"&$	c #5B5545",
"*$	c #454233",
"=$	c #352F21",
"-$	c #251F13",
";$	c #171611",
">$	c #141412",
",$	c #111111",
"'$	c #131313",
")$	c #0E0E0E",
"!$	c #23160D",
"~$	c #5D3A1C",
"{$	c #AB7F58",
"]$	c #BF986F",
"^$	c #9E815F",
"/$	c #DACDAA",
"($	c #765528",
"_$	c #BC9164",
":$	c #BA8F6C",
"<$	c #704522",
"[$	c #92663F",
"}$	c #966940",
"|$	c #794921",
"1$	c #966942",
"2$	c #895E3C",
"3$	c #775434",
"4$	c #765D3F",
"5$	c #6A5A40",
"6$	c #544D3A",
"7$	c #433D2D",
"8$	c #352E1E",
"9$	c #191813",
"0$	c #121212",
"a$	c #161415",
"b$	c #151314",
"c$	c #2C1F16",
"d$	c #533115",
"e$	c #AE825D",
"f$	c #C39C75",
"g$	c #957856",
"h$	c #D5CBA8",
"i$	c #795930",
"j$	c #B28B64",
"k$	c #A17E60",
"l$	c #8A6749",
"m$	c #846040",
"n$	c #775031",
"o$	c #926B4A",
"p$	c #936A4C",
"q$	c #856141",
"r$	c #947556",
"s$	c #7A6548",
"t$	c #594E3C",
"u$	c #464032",
"v$	c #362E21",
"w$	c #191814",
"x$	c #100E0F",
"y$	c #171314",
"z$	c #262223",
"A$	c #1B0E06",
"B$	c #533116",
"C$	c #A17751",
"D$	c #B48E67",
"E$	c #9C7F5D",
"F$	c #D4C9A9",
"G$	c #785A34",
"H$	c #A07C58",
"I$	c #E8CDBA",
"J$	c #C3A893",
"K$	c #735942",
"L$	c #85674F",
"M$	c #8E6E55",
"N$	c #98745C",
"O$	c #9B795E",
"P$	c #9D8062",
"Q$	c #836E53",
"R$	c #5F5343",
"S$	c #484236",
"T$	c #342B22",
"U$	c #221B15",
"V$	c #171614",
"W$	c #161417",
"X$	c #252122",
"Y$	c #180B03",
"Z$	c #523219",
"`$	c #9B734F",
" %	c #A4815B",
".%	c #745632",
"+%	c #A68363",
"@%	c #967967",
"#%	c #E0CABD",
"$%	c #B19E90",
"%%	c #AE9B8C",
"&%	c #D6C3B4",
"*%	c #D3BEAD",
"=%	c #D8BEAF",
"-%	c #DBC1B0",
";%	c #C4AF9A",
">%	c #998A75",
",%	c #746A5E",
"'%	c #514A42",
")%	c #352E28",
"!%	c #211C19",
"~%	c #141215",
"{%	c #1B191E",
"]%	c #231D21",
"^%	c #1B1517",
"/%	c #181415",
"(%	c #150800",
"_%	c #51331B",
":%	c #A27E5C",
"<%	c #AB8963",
"[%	c #997F5A",
"}%	c #D6C9A9",
"|%	c #6C4E2A",
"1%	c #B59171",
"2%	c #9B7E6C",
"3%	c #A38B7F",
"4%	c #927F71",
"5%	c #857365",
"6%	c #9D8A7C",
"7%	c #9B8879",
"8%	c #9F897B",
"9%	c #A28D7C",
"0%	c #968774",
"a%	c #857A68",
"b%	c #655D52",
"c%	c #4E473F",
"d%	c #322A27",
"e%	c #1E1C21",
"f%	c #181214",
"g%	c #161010",
"h%	c #1B1716",
"i%	c #130900",
"j%	c #4C321B",
"k%	c #A98867",
"l%	c #B69670",
"m%	c #957D59",
"n%	c #D4C5A4",
"o%	c #76542E",
"p%	c #AB835F",
"q%	c #927057",
"r%	c #9D816C",
"s%	c #907560",
"t%	c #5F4630",
"u%	c #624933",
"v%	c #654C36",
"w%	c #694E3B",
"x%	c #846E59",
"y%	c #83735C",
"z%	c #6E6150",
"A%	c #53493F",
"B%	c #423B33",
"C%	c #2F2724",
"D%	c #26221F",
"E%	c #242223",
"F%	c #1C1A1B",
"G%	c #17120F",
"H%	c #18130F",
"I%	c #0E0A07",
"J%	c #1A1108",
"K%	c #4E361E",
"L%	c #937654",
"M%	c #A58866",
"N%	c #95815E",
"O%	c #C6B997",
"P%	c #6A4822",
"Q%	c #B48D66",
"R%	c #A58367",
"S%	c #53351B",
"T%	c #694B2F",
"U%	c #7B6043",
"V%	c #705236",
"W%	c #836549",
"X%	c #7E6046",
"Y%	c #785E45",
"Z%	c #8E7A61",
"`%	c #756651",
" &	c #584F40",
".&	c #443D33",
"+&	c #38342B",
"@&	c #2D2A25",
"#&	c #181715",
"$&	c #11100C",
"%&	c #18130D",
"&&	c #151108",
"*&	c #1A1914",
"=&	c #140E02",
"-&	c #4B371E",
";&	c #9B8160",
">&	c #AF9775",
",&	c #8A7757",
"'&	c #CFC3A9",
")&	c #A5A38A",
"!&	c #9E9375",
"~&	c #684C25",
"{&	c #86633D",
"]&	c #826547",
"^&	c #64492C",
"/&	c #775A3A",
"(&	c #755934",
"_&	c #745332",
":&	c #826545",
"<&	c #907C5B",
"[&	c #746548",
"}&	c #5A4F3D",
"|&	c #4A4436",
"1&	c #403C30",
"2&	c #303026",
"3&	c #1B1C14",
"4&	c #1A1A12",
"5&	c #221E12",
"6&	c #1E1A0E",
"7&	c #18180E",
"8&	c #1B1809",
"9&	c #4B3B21",
"0&	c #745D3D",
"a&	c #84704F",
"b&	c #7A694B",
"c&	c #A79D84",
"d&	c #ABA690",
"e&	c #A3A389",
"f&	c #A5A082",
"g&	c #A08A65",
"h&	c #A18764",
"i&	c #9B866B",
"j&	c #99886E",
"k&	c #988565",
"l&	c #A68F6D",
"m&	c #9D8561",
"n&	c #A68C67",
"o&	c #A78A68",
"p&	c #A58D6B",
"q&	c #A49473",
"r&	c #9D9274",
"s&	c #978F78",
"t&	c #97927E",
"u&	c #8D8A79",
"v&	c #838474",
"w&	c #848679",
"x&	c #858779",
"y&	c #868370",
"z&	c #878471",
"A&	c #888A7C",
"B&	c #858472",
"C&	c #9B8D72",
"D&	c #9B8868",
"E&	c #9D8A6C",
"F&	c #9B8B71",
"G&	c #ACA48F",
"H&	c #B2AD99",
"I&	c #C9CBB3",
"J&	c #D9CAAD",
"K&	c #D0C9B6",
"L&	c #CBC6A9",
"M&	c #D7C7AD",
"N&	c #CECAB1",
"O&	c #CFCDB8",
"P&	c #CBCDB8",
"Q&	c #CCCFBC",
"R&	c #DBCAAE",
"S&	c #DACCB2",
"                                                                ",
"                                                                ",
"          .             + @             #     $         %       ",
"        & * = - ; > , ' ) ! ~ { ] ^ / ( _ : < [ } | 1 2 3 4     ",
"      5 6 7 8 9 0 a b c d e f g h i j k l m n o l p q r s t     ",
"      u v w x y z A B C D E F G H I J K L M N O P Q R S T U     ",
"      V W X Y Z `  ...+.@.#.$.%.&.*.=.-.;.>.,.'.).!.~.{.].^.    ",
"      /.(._.:.<.[.}.|.{.1.2.3.4.5.6.7.8.9.0.a.b.c.d.e.f.g.h.    ",
"      i.j.k.l.m.n.o.p.q.r.s.t.u.v.w.x.y.z.A.B.C.D.E.F.G.H.I.    ",
"      J.K.L.M.N.O.P.Q.R.S.T.U.V.W.X.Y.Z.`. +.+++@+#+$+%+&+*+    ",
"      =+-+;+>+,+'+)+!+~+{+]+^+/+(+_+:+<+[+}+|+1+2+3+4+5+6+7+    ",
"      8+9+0+a+b+c+d+e+f+g+h+i+j+k+l+m+n+o+p+q+r+s+t+4+u+v+w+    ",
"      x+y+z+A+B+C+D+E+F+G+H+I+J+K+L+M+N+O+P+Q+R+S+T+U+V+W+X+    ",
"      Y+Z+`+ @.@+@5.@@#@$@%@&@*@=@-@;@>@,@'@)@!@~@{@]@^@/@(@    ",
"      _@:@<@[@}@|@1@2@3@4@5@6@7@8@9@0@a@b@c@d@e@f@g@h@i@j@k@    ",
"      l@m@n@o@p@q@r@s@t@u@v@w@x@y@z@A@B@C@}+D@d@E@F@G@H@I@J@    ",
"      K@L@M@N@O@P@Q@R@S@T@U@+@V@W@X@Y@Z@`@D@ #.#+#@###$#%#&#    ",
"        *#=#-#;#>#,#'#)#!#~#{#]#^#/#(#_#:#<#[#}#|#1#2#3#4#5#    ",
"      6#7#8#9#0#a#b#c#d#e#f#g#h#i#j#k#l#m#n#D@D@o#p#q#r#s#t#    ",
"      u#v#w#x#y#z#A#B#C#D#E#F#G#H#I#J#K#L#M#N#O#P#Q#R#S#T#U#    ",
"      V#W#X#Y#Z#`# $.$+$@$#$$$%$&$*$=$-$;$>$,$'$)$!$~${$]$^$    ",
"      /$($_$:$<$[$}$|$1$2$3$4$5$6$7$8$-$9$}+0$a$b$c$d$e$f$g$    ",
"      h$i$j$k$!.l$m$n$o$p$q$r$s$t$u$v$K#w$'$x$y$z$A$B$C$D$E$    ",
"      F$G$H$-.I$J$K$L$M$N$O$P$Q$R$S$T$U$V$W$O+X$O+Y$Z$`$ %%.    ",
"      F$.%+%@%#%$%%%&%*%=%-%;%>%,%'%)%!%~%{%]%^%/%(%_%:%<%[%    ",
"      }%|%1%2%3%4%5%6%7%8%9%0%a%b%c%d%>@o+e%f%g%h%i%j%k%l%m%    ",
"      n%o%p%q%r%s%t%u%v%w%x%y%z%A%B%C%D%E%F%G%H%I%J%K%L%M%N%    ",
"      O%P%Q%R%S%T%U%V%W%X%Y%Z%`% &.&+&@&#&$&%&&&*&=&-&;&>&,&'&  ",
"    )&!&~&{&]&^&/&(&.%h _&:&<&[&}&|&1&2&3&4&5&6&7&8&9&0&a&b&c&d&",
"    e&f&g&h&i&j&k&l&m&n&o&p&q&r&s&t&u&v&w&x&y&z&A&B&C&D&E&F&G&H&",
"    I&    J&K&    L&    M&  N&      O&P&        Q&    V R&S&    ",
"                                                                "};
