/* XPM */
static char * door_xpm[] = {
"32 32 913 2",
"  	c None",
". 	c #D5DBD1",
"+ 	c #BDA589",
"@ 	c #947759",
"# 	c #9B8867",
"$ 	c #A39274",
"% 	c #9E8775",
"& 	c #A08977",
"* 	c #9E8C74",
"= 	c #98876B",
"- 	c #988567",
"; 	c #9E896C",
"> 	c #978267",
", 	c #9C876C",
"' 	c #9A8364",
") 	c #A28B6C",
"! 	c #A58D75",
"~ 	c #9D856D",
"{ 	c #9B8766",
"] 	c #A18D6C",
"^ 	c #9D836A",
"/ 	c #9A8069",
"( 	c #9F856E",
"_ 	c #9A856A",
": 	c #9C886D",
"< 	c #978368",
"[ 	c #A1896F",
"} 	c #9F876D",
"| 	c #9C8468",
"1 	c #B1A187",
"2 	c #CFC6A9",
"3 	c #5D4020",
"4 	c #54300C",
"5 	c #553711",
"6 	c #523410",
"7 	c #572F15",
"8 	c #51270E",
"9 	c #4D2607",
"0 	c #58320E",
"a 	c #5C310E",
"b 	c #572A09",
"c 	c #562A0D",
"d 	c #5B2E0F",
"e 	c #522504",
"f 	c #5B2C0E",
"g 	c #663817",
"h 	c #592D06",
"i 	c #502400",
"j 	c #5A2C0B",
"k 	c #5C2D0F",
"l 	c #5A2D0E",
"m 	c #562B09",
"n 	c #502C08",
"o 	c #583410",
"p 	c #522A07",
"q 	c #623A17",
"r 	c #653F1B",
"s 	c #4D2C0B",
"t 	c #B29E85",
"u 	c #C9BB9E",
"v 	c #6C4B28",
"w 	c #CBA179",
"x 	c #C5A076",
"y 	c #603912",
"z 	c #845333",
"A 	c #9A6847",
"B 	c #92603B",
"C 	c #95643C",
"D 	c #89542C",
"E 	c #A06A44",
"F 	c #986341",
"G 	c #976242",
"H 	c #945F3D",
"I 	c #96613F",
"J 	c #9A6543",
"K 	c #905C35",
"L 	c #976739",
"M 	c #956537",
"N 	c #97633C",
"O 	c #96623D",
"P 	c #93633B",
"Q 	c #8A5F35",
"R 	c #AA7F55",
"S 	c #6A3D14",
"T 	c #92623A",
"U 	c #DBAE85",
"V 	c #98724B",
"W 	c #B99E80",
"X 	c #CDBFA2",
"Y 	c #72502D",
"Z 	c #A97D56",
"` 	c #C49D72",
" .	c #60360C",
"..	c #9D6B48",
"+.	c #C8946F",
"@.	c #D2A178",
"#.	c #C19163",
"$.	c #C39065",
"%.	c #BF8E65",
"&.	c #CDA079",
"*.	c #BD916C",
"=.	c #C59974",
"-.	c #CCA27C",
";.	c #B68F66",
">.	c #C39D70",
",.	c #CDA975",
"'.	c #B38F5B",
").	c #C59B71",
"!.	c #CFA57D",
"~.	c #B88E66",
"{.	c #B58E63",
"].	c #C39E71",
"^.	c #D0AB7E",
"/.	c #70451A",
"(.	c #784D22",
"_.	c #C59A6F",
":.	c #9B7850",
"<.	c #AD9475",
"[.	c #CABCA1",
"}.	c #714F2C",
"|.	c #966A43",
"1.	c #693F17",
"2.	c #6D3B18",
"3.	c #8B5732",
"4.	c #855429",
"5.	c #865729",
"6.	c #88592D",
"7.	c #825329",
"8.	c #81552E",
"9.	c #865C36",
"0.	c #7C552E",
"a.	c #835C35",
"b.	c #855E37",
"c.	c #775226",
"d.	c #815D2B",
"e.	c #7D5927",
"f.	c #835C33",
"g.	c #825B34",
"h.	c #805932",
"i.	c #795229",
"j.	c #7F5D30",
"k.	c #7A5528",
"l.	c #5D3309",
"m.	c #7F542A",
"n.	c #A98054",
"o.	c #97754F",
"p.	c #AB9677",
"q.	c #D0C2A7",
"r.	c #73512E",
"s.	c #A07650",
"t.	c #A8825D",
"u.	c #653F1A",
"v.	c #7A4C2B",
"w.	c #885736",
"x.	c #80532C",
"y.	c #82552C",
"z.	c #663912",
"A.	c #6D4019",
"B.	c #865A35",
"C.	c #7D532D",
"D.	c #825734",
"E.	c #683B1A",
"F.	c #653414",
"G.	c #875534",
"H.	c #81542D",
"I.	c #78492B",
"J.	c #5E2F13",
"K.	c #835436",
"L.	c #815433",
"M.	c #815A33",
"N.	c #7A532C",
"O.	c #5F330E",
"P.	c #855934",
"Q.	c #A47D56",
"R.	c #92714E",
"S.	c #AC987F",
"T.	c #D1C1A7",
"U.	c #694523",
"V.	c #B38963",
"W.	c #C8A480",
"X.	c #563210",
"Y.	c #B4886B",
"Z.	c #CCA181",
"`.	c #DDB591",
" +	c #E5BE97",
".+	c #98714A",
"++	c #C7A278",
"@+	c #DBB68C",
"#+	c #EBC59E",
"$+	c #9A6F4C",
"%+	c #885737",
"&+	c #D19E7F",
"*+	c #DDAD87",
"=+	c #ECBE9A",
"-+	c #B98A6E",
";+	c #75462C",
">+	c #C99A7E",
",+	c #D9AC8B",
"'+	c #E8BD9A",
")+	c #CEA47E",
"!+	c #623410",
"~+	c #855733",
"{+	c #9D7C5B",
"]+	c #AA967E",
"^+	c #D0BB9E",
"/+	c #714B26",
"(+	c #AB815B",
"_+	c #B59370",
":+	c #6B4A2B",
"<+	c #7B583C",
"[+	c #8D6A4C",
"}+	c #C0A27C",
"|+	c #B2966E",
"1+	c #7D6038",
"2+	c #7E6137",
"3+	c #927647",
"4+	c #BDA171",
"5+	c #B19264",
"6+	c #96754A",
"7+	c #754E27",
"8+	c #946D46",
"9+	c #BD986C",
"0+	c #B59066",
"a+	c #AC8564",
"b+	c #6F4628",
"c+	c #946C49",
"d+	c #B58D69",
"e+	c #BB946B",
"f+	c #BC9268",
"g+	c #653811",
"h+	c #81512B",
"i+	c #C0946D",
"j+	c #977552",
"k+	c #A9937C",
"l+	c #D8C1A2",
"m+	c #754F28",
"n+	c #9B714B",
"o+	c #927354",
"p+	c #C6AA92",
"q+	c #FFE3CD",
"r+	c #7C624B",
"s+	c #8E7A5F",
"t+	c #89785A",
"u+	c #746047",
"v+	c #756244",
"w+	c #7B6945",
"x+	c #907C57",
"y+	c #8A7655",
"z+	c #7D6647",
"A+	c #71573C",
"B+	c #81684A",
"C+	c #947D5B",
"D+	c #856E4E",
"E+	c #90765D",
"F+	c #6E523A",
"G+	c #86674B",
"H+	c #967554",
"I+	c #8C6A44",
"J+	c #B48F65",
"K+	c #693D16",
"L+	c #7F5229",
"M+	c #A4794F",
"N+	c #94704C",
"O+	c #B09B80",
"P+	c #D5C1A0",
"Q+	c #6C491F",
"R+	c #B9936C",
"S+	c #9E826A",
"T+	c #B9A493",
"U+	c #FEE8DD",
"V+	c #88756E",
"W+	c #E1D4CC",
"X+	c #DCD3CC",
"Y+	c #DCD2D3",
"Z+	c #DDD3D4",
"`+	c #DBD2CD",
" @	c #DDD4CF",
".@	c #E0D4D4",
"+@	c #DCD0D2",
"@@	c #E1D8D9",
"#@	c #D4CFCC",
"$@	c #D8D5CC",
"%@	c #D4D1C8",
"&@	c #DBD3D0",
"*@	c #DFD2CC",
"=@	c #E4D4C7",
"-@	c #D9C4AF",
";@	c #836A4B",
">@	c #B2946E",
",@	c #5B340D",
"'@	c #7E5329",
")@	c #CEA579",
"!@	c #9B7A51",
"~@	c #AA9576",
"{@	c #D5C5A3",
"]@	c #604017",
"^@	c #A98761",
"/@	c #A38B73",
"(@	c #948172",
"_@	c #B5A198",
":@	c #7F6C66",
"<@	c #A0938D",
"[@	c #9C9290",
"}@	c #A1949B",
"|@	c #A2959C",
"1@	c #9F9393",
"2@	c #9D9191",
"3@	c #A19297",
"4@	c #A0939A",
"5@	c #999095",
"6@	c #9E9898",
"7@	c #999893",
"8@	c #9B9891",
"9@	c #9B9391",
"0@	c #A39896",
"a@	c #9F8E84",
"b@	c #AE9986",
"c@	c #886F51",
"d@	c #AC8B68",
"e@	c #6B441D",
"f@	c #774C22",
"g@	c #C39A6E",
"h@	c #9F7E55",
"i@	c #AA9777",
"j@	c #CABFA1",
"k@	c #6E522A",
"l@	c #997952",
"m@	c #A2886F",
"n@	c #927B69",
"o@	c #987E6D",
"p@	c #7A604F",
"q@	c #745E49",
"r@	c #796451",
"s@	c #775F53",
"t@	c #795F52",
"u@	c #7A614B",
"v@	c #7B614A",
"w@	c #7C5F4F",
"x@	c #7C5F51",
"y@	c #826555",
"z@	c #795E49",
"A@	c #786348",
"B@	c #78644B",
"C@	c #795F4E",
"D@	c #7C6150",
"E@	c #83644F",
"F@	c #7F6043",
"G@	c #77532F",
"H@	c #6C3C14",
"I@	c #7F4F27",
"J@	c #B88B64",
"K@	c #967451",
"L@	c #AD9980",
"M@	c #CBC0A2",
"N@	c #674A22",
"O@	c #AD8A60",
"P@	c #AF9274",
"Q@	c #72563E",
"R@	c #9F7D62",
"S@	c #644125",
"T@	c #735231",
"U@	c #7B5A39",
"V@	c #644026",
"W@	c #5F3A1F",
"X@	c #724F29",
"Y@	c #78552D",
"Z@	c #795233",
"`@	c #754C30",
" #	c #5D3212",
".#	c #7A522F",
"+#	c #836038",
"@#	c #6B4924",
"##	c #7A573B",
"$#	c #532E14",
"%#	c #6D4629",
"&#	c #7C5431",
"*#	c #81572D",
"=#	c #B5885E",
"-#	c #69360B",
";#	c #88542C",
">#	c #D2A57C",
",#	c #9B7956",
"'#	c #A7957F",
")#	c #CABB9A",
"!#	c #6B4B1C",
"~#	c #A57D4C",
"{#	c #C3A07A",
"]#	c #4F2B09",
"^#	c #572C09",
"/#	c #A0734A",
"(#	c #A2774A",
"_#	c #AF8459",
":#	c #895B37",
"<#	c #7A4D26",
"[#	c #A27848",
"}#	c #A37947",
"|#	c #A77C52",
"1#	c #A1744D",
"2#	c #77431C",
"3#	c #9C6B42",
"4#	c #AB8053",
"5#	c #9E7549",
"6#	c #AE8361",
"7#	c #6E4323",
"8#	c #9A6E4B",
"9#	c #A87C55",
"0#	c #9A6F42",
"a#	c #A77948",
"b#	c #885526",
"c#	c #7F4F21",
"d#	c #BA8F64",
"e#	c #9F7F59",
"f#	c #A7997F",
"g#	c #CEBFA0",
"h#	c #6E4C1C",
"i#	c #9F7543",
"j#	c #BB916B",
"k#	c #693E1B",
"l#	c #895A30",
"m#	c #A37041",
"n#	c #93612C",
"o#	c #AD7B48",
"p#	c #8A572C",
"q#	c #734217",
"r#	c #A1743D",
"s#	c #966930",
"t#	c #9D7142",
"u#	c #9E6D42",
"v#	c #703A0C",
"w#	c #A06A3C",
"x#	c #9F6F41",
"y#	c #996E44",
"z#	c #A2795B",
"A#	c #4E290E",
"B#	c #795439",
"C#	c #A07958",
"D#	c #926B40",
"E#	c #BD9363",
"F#	c #7E4E20",
"G#	c #865628",
"H#	c #B58A5D",
"I#	c #92724B",
"J#	c #A8987E",
"K#	c #D0C1AA",
"L#	c #66471B",
"M#	c #B48C5B",
"N#	c #C19673",
"O#	c #6A3E1B",
"P#	c #9B6735",
"Q#	c #966229",
"R#	c #AE7945",
"S#	c #875429",
"T#	c #76451A",
"U#	c #9A6D32",
"V#	c #946A2E",
"W#	c #9D7341",
"X#	c #98693B",
"Y#	c #743C0B",
"Z#	c #A06839",
"`#	c #99653D",
" $	c #865D3F",
".$	c #6C4F3D",
"+$	c #988275",
"@$	c #8A7469",
"#$	c #6B5142",
"$$	c #917253",
"%$	c #B58F68",
"&$	c #683D13",
"*$	c #7E4F25",
"=$	c #CB9F72",
"-$	c #937048",
";$	c #AD977F",
">$	c #E2D3BC",
",$	c #86673B",
"'$	c #9D7544",
")$	c #B58966",
"!$	c #613311",
"~$	c #9B6833",
"{$	c #965F27",
"]$	c #B07845",
"^$	c #8A552D",
"/$	c #79481F",
"($	c #9B6C34",
"_$	c #94672C",
":$	c #9B7141",
"<$	c #95693C",
"[$	c #703A0B",
"}$	c #A36D3F",
"|$	c #8D5F3B",
"1$	c #67452C",
"2$	c #A79587",
"3$	c #FFFAF3",
"4$	c #FDF3F1",
"5$	c #9E9087",
"6$	c #745A41",
"7$	c #9F7D58",
"8$	c #633913",
"9$	c #875A30",
"0$	c #AC8053",
"a$	c #99764C",
"b$	c #AE997E",
"c$	c #D3C4A7",
"d$	c #90703F",
"e$	c #A07542",
"f$	c #BC8F68",
"g$	c #6A3A16",
"h$	c #905D30",
"i$	c #9A6533",
"j$	c #955C27",
"k$	c #AF7545",
"l$	c #8C5431",
"m$	c #7E4824",
"n$	c #9E6A38",
"o$	c #956330",
"p$	c #9E6D44",
"q$	c #95653F",
"r$	c #6B3A0F",
"s$	c #9A6D44",
"t$	c #74502E",
"u$	c #8E765E",
"v$	c #C5C2B3",
"w$	c #DEE1D8",
"x$	c #BEBDB8",
"y$	c #BAB0A6",
"z$	c #786044",
"A$	c #94724C",
"B$	c #7E4F23",
"C$	c #B18556",
"D$	c #8F6E41",
"E$	c #AA9B7C",
"F$	c #DECFB0",
"G$	c #8C6C39",
"H$	c #9D743E",
"I$	c #663612",
"J$	c #835227",
"K$	c #9C6838",
"L$	c #955D2C",
"M$	c #AD7246",
"N$	c #8A5231",
"O$	c #7F4724",
"P$	c #96612F",
"Q$	c #9F6A42",
"R$	c #95613C",
"S$	c #6D3C13",
"T$	c #9E724B",
"U$	c #724F2F",
"V$	c #8D775F",
"W$	c #B7B4A3",
"X$	c #96998E",
"Y$	c #6E6E66",
"Z$	c #B5A99B",
"`$	c #7F6648",
" %	c #956F48",
".%	c #663910",
"+%	c #86552A",
"@%	c #AE8253",
"#%	c #927347",
"$%	c #AA9F7F",
"%%	c #D3C5A8",
"&%	c #7B5D2B",
"*%	c #B58D5A",
"=%	c #C79D77",
"-%	c #653817",
";%	c #98683A",
">%	c #986233",
",%	c #AC7348",
"'%	c #88502D",
")%	c #824823",
"!%	c #A26836",
"~%	c #9D612D",
"{%	c #A56A3E",
"]%	c #995F37",
"^%	c #764117",
"/%	c #97663E",
"(%	c #8F6744",
"_%	c #624428",
":%	c #ABA08C",
"<%	c #9F9989",
"[%	c #9B9187",
"}%	c #958273",
"|%	c #644324",
"1%	c #9F754D",
"2%	c #6E3D15",
"3%	c #7F4E25",
"4%	c #CDA174",
"5%	c #9A7A51",
"6%	c #A3977D",
"7%	c #D0C1A4",
"8%	c #6D4E1F",
"9%	c #AC8753",
"0%	c #C39B77",
"a%	c #5F3714",
"b%	c #976A40",
"c%	c #956235",
"d%	c #A36E44",
"e%	c #804B29",
"f%	c #7B451F",
"g%	c #9E6633",
"h%	c #97602A",
"i%	c #A1693A",
"j%	c #925C2E",
"k%	c #764014",
"l%	c #98643C",
"m%	c #986A48",
"n%	c #835E41",
"o%	c #533D26",
"p%	c #675644",
"q%	c #584536",
"r%	c #432813",
"s%	c #815B37",
"t%	c #A67950",
"u%	c #69350E",
"v%	c #814D25",
"w%	c #C4986B",
"x%	c #9C7A54",
"y%	c #AE9E85",
"z%	c #D1C0A2",
"A%	c #664617",
"B%	c #AE8857",
"C%	c #C9A37E",
"D%	c #593211",
"E%	c #6F4924",
"F%	c #906940",
"G%	c #94693E",
"H%	c #A1744B",
"I%	c #7E522F",
"J%	c #794D26",
"K%	c #9C6E3C",
"L%	c #966731",
"M%	c #A07040",
"N%	c #926234",
"O%	c #724116",
"P%	c #9D6941",
"Q%	c #B2805D",
"R%	c #A37657",
"S%	c #57351C",
"T%	c #3E1F0B",
"U%	c #4E2D1C",
"V%	c #613B24",
"W%	c #93663F",
"X%	c #A37247",
"Y%	c #734015",
"Z%	c #814E23",
"`%	c #D8A87A",
" &	c #9B744D",
".&	c #AE967E",
"+&	c #D1C0A4",
"@&	c #6D4E22",
"#&	c #9A7548",
"$&	c #A07E5B",
"%&	c #9D7B5F",
"&&	c #C2A384",
"*&	c #745634",
"=&	c #775633",
"-&	c #826140",
";&	c #604125",
">&	c #5C3D1E",
",&	c #7E5D34",
"'&	c #765528",
")&	c #805F36",
"!&	c #72502A",
"~&	c #5C3814",
"{&	c #845E3A",
"]&	c #875B3E",
"^&	c #80583F",
"/&	c #74543F",
"(&	c #462715",
"_&	c #523120",
":&	c #7D5740",
"<&	c #8F653F",
"[&	c #9B6C40",
"}&	c #6B3C12",
"|&	c #83542A",
"1&	c #B18254",
"2&	c #9C754E",
"3&	c #B0967D",
"4&	c #CEBEA4",
"5&	c #6A4E27",
"6&	c #9C7C53",
"7&	c #87694D",
"8&	c #D0B7A1",
"9&	c #FFFBE6",
"0&	c #7E6C56",
"a&	c #AF9D87",
"b&	c #AB9A88",
"c&	c #A89A8D",
"d&	c #AB9E8E",
"e&	c #AD9E87",
"f&	c #AC9E84",
"g&	c #AB9F89",
"h&	c #A99C89",
"i&	c #A89C86",
"j&	c #B6A591",
"k&	c #AA9584",
"l&	c #B29C8E",
"m&	c #B0A093",
"n&	c #A9988E",
"o&	c #B7A196",
"p&	c #AB907F",
"q&	c #7F5E3D",
"r&	c #916E46",
"s&	c #5F3811",
"t&	c #896239",
"u&	c #AA8457",
"v&	c #93714B",
"w&	c #CBBDA3",
"x&	c #694F2A",
"y&	c #A58763",
"z&	c #A0866D",
"A&	c #A5907D",
"B&	c #D1C0B0",
"C&	c #827263",
"D&	c #D3C3B6",
"E&	c #CCBEB3",
"F&	c #C6BDB6",
"G&	c #C5BCB5",
"H&	c #C9BFB3",
"I&	c #CDC4B5",
"J&	c #CAC2B5",
"K&	c #CAC2B7",
"L&	c #C9C1B4",
"M&	c #CCC2B6",
"N&	c #CBBDB2",
"O&	c #CDBFB4",
"P&	c #CAC0B6",
"Q&	c #C8BEB4",
"R&	c #D1C0B6",
"S&	c #D3BCAC",
"T&	c #8B6C4F",
"U&	c #87653F",
"V&	c #6A441F",
"W&	c #C39C71",
"X&	c #977750",
"Y&	c #A8977D",
"Z&	c #CDC1A7",
"`&	c #5F4522",
" *	c #AF8E6B",
".*	c #AB8F77",
"+*	c #8C735F",
"@*	c #978271",
"#*	c #826F60",
"$*	c #907A6D",
"%*	c #958176",
"&*	c #96837D",
"**	c #917E78",
"=*	c #937F74",
"-*	c #957F72",
";*	c #927E73",
">*	c #978378",
",*	c #928072",
"'*	c #917F71",
")*	c #998375",
"!*	c #968374",
"~*	c #8F8271",
"{*	c #8E8171",
"]*	c #927F70",
"^*	c #9E816F",
"/*	c #876343",
"(*	c #603210",
"_*	c #7A4C2A",
":*	c #CAA076",
"<*	c #9E7E57",
"[*	c #AC9B7F",
"}*	c #6D512C",
"|*	c #8A6B4E",
"1*	c #947860",
"2*	c #AE927D",
"3*	c #5C3F2D",
"4*	c #5D3E2C",
"5*	c #664637",
"6*	c #593C2E",
"7*	c #5B3E30",
"8*	c #674633",
"9*	c #674431",
"0*	c #664330",
"a*	c #5E3D2A",
"b*	c #5B3C28",
"c*	c #62432E",
"d*	c #63402A",
"e*	c #65472F",
"f*	c #5D482D",
"g*	c #574129",
"h*	c #60442E",
"i*	c #633F25",
"j*	c #794D2A",
"k*	c #986641",
"l*	c #673210",
"m*	c #8A5835",
"n*	c #B08359",
"o*	c #8D6A42",
"p*	c #AC997B",
"q*	c #DAD0B5",
"r*	c #BDAC8E",
"s*	c #704F26",
"t*	c #B48D62",
"u*	c #C6A07B",
"v*	c #553111",
"w*	c #5B3619",
"x*	c #7B5437",
"y*	c #95694E",
"z*	c #926548",
"A*	c #6D4126",
"B*	c #794C2F",
"C*	c #976646",
"D*	c #986645",
"E*	c #7E4C2B",
"F*	c #734221",
"G*	c #966642",
"H*	c #986842",
"I*	c #805834",
"J*	c #6A4622",
"K*	c #8E6343",
"L*	c #906240",
"M*	c #A16C42",
"N*	c #9B6237",
"O*	c #6F350F",
"P*	c #854E27",
"Q*	c #D19E73",
"R*	c #A98259",
"S*	c #A68F70",
"T*	c #E4D4BB",
"U*	c #AAA48C",
"V*	c #9C8E71",
"W*	c #5B3D17",
"X*	c #7C592F",
"Y*	c #977550",
"Z*	c #593616",
"`*	c #664325",
" =	c #7D583B",
".=	c #7E5537",
"+=	c #815636",
"@=	c #613818",
"#=	c #6D4424",
"$=	c #825633",
"%=	c #7F512D",
"&=	c #855831",
"*=	c #6F421B",
"==	c #613510",
"-=	c #82522C",
";=	c #6E4823",
">=	c #5A3612",
",=	c #815A3B",
"'=	c #845937",
")=	c #7C4F26",
"!=	c #7F5026",
"~=	c #5F310D",
"{=	c #643813",
"]=	c #9A7048",
"^=	c #785832",
"/=	c #7D6C52",
"(=	c #AEA38D",
"_=	c #9DA192",
":=	c #989681",
"<=	c #867355",
"[=	c #8B7253",
"}=	c #7D6849",
"|=	c #816D52",
"1=	c #8E7A62",
"2=	c #826E56",
"3=	c #816B53",
"4=	c #8A745C",
"5=	c #847057",
"6=	c #87765C",
"7=	c #887358",
"8=	c #806B4E",
"9=	c #887555",
"0=	c #817052",
"a=	c #827356",
"b=	c #82684D",
"c=	c #886E53",
"d=	c #897459",
"e=	c #87735B",
"f=	c #8F7866",
"g=	c #856F58",
"h=	c #877051",
"i=	c #897554",
"j=	c #847055",
"k=	c #8B7A5E",
"l=	c #7B6B49",
"m=	c #776C4E",
"n=	c #969583",
"o=	c #989C8E",
"p=	c #B0BAAF",
"q=	c #BEC1B0",
"r=	c #CBB79C",
"s=	c #D2C2A8",
"t=	c #CEC2AA",
"u=	c #C6B9A6",
"v=	c #CCC1AD",
"w=	c #CFC0AD",
"x=	c #CABEA8",
"y=	c #C9C1AC",
"z=	c #C9C3AB",
"A=	c #C9BEA8",
"B=	c #C6BFA5",
"C=	c #C8C1A5",
"D=	c #C6C2A7",
"E=	c #C5C3AC",
"F=	c #C2BDA7",
"G=	c #D1C2AD",
"H=	c #CFBFA8",
"I=	c #CBBEAB",
"J=	c #CDC2B0",
"K=	c #C7B9AC",
"L=	c #CDC0B0",
"M=	c #CBC1A6",
"N=	c #C6BFA2",
"O=	c #C8C2AA",
"P=	c #C4C0A7",
"Q=	c #C6C1A3",
"R=	c #C5C5AB",
"S=	c #B6BCAE",
"T=	c #B5C0B8",
"                                                              . ",
"    + @ # $ % & * = - ; > , ' ) ! ~ { ] ^ / ( _ : < [ } | 1     ",
"  2 3 4 5 6 7 8 9 0 a b c c d e f g h i j k l m n o p q r s t   ",
"  u v w x y z A B C D E F G H I J K L M N O B P Q R S T U V W   ",
"  X Y Z `  ...+.@.#.$.%.&.*.=.-.;.>.,.'.).!.~.{.].^./.(._.:.<.  ",
"  [.}.|.;.1.2.3.4.5.6.7.8.9.0.a.b.c.d.e.f.g.h.i.j.k.l.m.n.o.p.  ",
"  q.r.s.t.u.v.w.x.y.z.A.B.C.D.E.F.G.H.x.I.J.K.L.M.N.O.P.Q.R.S.  ",
"  T.U.V.W.X.Y.Z.`. +M..+++@+#+$+%+&+*+=+-+;+>+,+'+)+!+~+-.{+]+  ",
"  ^+/+(+_+:+<+[+}+|+1+2+3+4+5+6+7+8+9+0+a+b+c+d+e+f+g+h+i+j+k+  ",
"  l+m+n+o+p+q+r+s+t+u+v+w+x+y+z+A+B+C+D+E+F+G+H+I+J+K+L+M+N+O+  ",
"  P+Q+R+S+T+U+V+W+X+Y+Z+`+ @.@+@@@#@$@%@&@*@=@-@;@>@,@'@)@!@~@  ",
"  {@]@^@/@(@_@:@<@[@}@|@1@2@3@4@5@6@7@8@9@0@a@b@c@d@e@f@g@h@i@  ",
"  j@k@l@m@n@o@p@q@r@s@t@u@v@w@x@y@z@A@B@C@D@E@F@G@;.H@I@J@K@L@  ",
"  M@N@O@P@Q@R@S@T@U@V@W@X@Y@Z@`@ #.#+#@###$#%#&#*#=#-#;#>#,#'#  ",
"  )#!#~#{#]#^#/#(#_#:#<#[#}#|#1#2#3#4#5#6#7#8#9#0#a#b#c#d#e#f#  ",
"  g#h#i#j#k#l#m#n#o#p#q#r#s#t#u#v#w#x#y#z#A#B#C#D#E#F#G#H#I#J#  ",
"  K#L#M#N#O#4.P#Q#R#S#T#U#V#W#X#Y#Z#`# $.$+$@$#$$$%$&$*$=$-$;$  ",
"  >$,$'$)$!$G#~${$]$^$/$($_$:$<$[$}$|$1$2$3$4$5$6$7$8$9$0$a$b$  ",
"  c$d$e$f$g$h$i$j$k$l$m$n$o$p$q$r$s$t$u$v$w$x$y$z$A$K+B$C$D$E$  ",
"  F$G$H$J@I$J$K$L$M$N$O$Z#P$Q$R$S$T$U$V$W$X$Y$Z$`$ %.%+%@%#%$%  ",
"  %%&%*%=%-%y.;%>%,%'%)%!%~%{%]%^%/%(%_%:%<%[%}%|%1%2%3%4%5%6%  ",
"  7%8%9%0%a%9.b%c%d%e%f%g%h%i%j%k%l%m%n%o%p%q%r%s%t%u%v%w%x%y%  ",
"  z%A%B%C%D%E%F%G%H%I%J%K%L%M%N%O%P%Q%R%S%T%U%V%W%X%Y%Z%`% &.&  ",
"  +&@&#&$&%&&&*&=&-&;&>&,&'&)&!&~&{&]&^&/&(&_&:&<&[&}&|&1&2&3&  ",
"  4&5&6&7&8&9&0&a&b&c&d&e&f&g&h&i&j&k&l&m&n&o&p&q&r&s&t&u&v&;$  ",
"  w&x&y&z&A&B&C&D&E&F&G&H&I&J&K&L&M&N&O&P&Q&R&S&T&U&V&h.W&X&Y&  ",
"  Z&`& *.*+*@*#*$*%*&***=*-*;*>*,*'*)*!*~*{*]*^*/*$+(*_*:*<*[*  ",
"  q.}*7$|*1*2*3*4*5*6*7*8*9*0*a*b*c*d*e*f*g*h*i*j*k*l*m*n*o*p*  ",
"q*r*s*t*u*v*w*x*y*z*A*B*C*A D*E*F*G*R$H*I*J*K*L*M*N*O*P*Q*R*S*T*",
"U*V*W*X*Y*Z*`* =.=+=@=#=$=%=&=*===B.-=&=;=>=,='=)=!=~={=]=^=/=(=",
"_=:=<=[=}=|=1=2=3=4=5=6=7=8=9=0=a=6=b=c=d=e=f=g=h=i=j=k=l=m=n=o=",
"p=q=K#r=s=t=u=v=w=x=y=z=A=B=C=D=E=F=G=H=I=J=K=L=M=N=O=P=Q=R=S=T="};
