/* XPM */
static char * exit_xpm[] = {
"32 32 654 2",
"  	c None",
". 	c #F1EBDF",
"+ 	c #F6F4DD",
"@ 	c #F6F7D8",
"# 	c #D9C8AE",
"$ 	c #DDC9AE",
"% 	c #C2B39C",
"& 	c #B0A68D",
"* 	c #C5BF9F",
"= 	c #D8CEAB",
"- 	c #B7A688",
"; 	c #B9A688",
"> 	c #B4A586",
", 	c #B5A888",
"' 	c #B8AA87",
") 	c #BAAB8A",
"! 	c #BAAB8E",
"~ 	c #B8AA90",
"{ 	c #B5AA94",
"] 	c #B5A991",
"^ 	c #B9A58A",
"/ 	c #BDA98E",
"( 	c #BBAA90",
"_ 	c #B3A58B",
": 	c #B6A790",
"< 	c #B7A98F",
"[ 	c #B6A88D",
"} 	c #FAEFDD",
"| 	c #BAA894",
"1 	c #755A3D",
"2 	c #907154",
"3 	c #9A7E68",
"4 	c #685038",
"5 	c #553C1E",
"6 	c #9C7F5F",
"7 	c #6E492C",
"8 	c #552E11",
"9 	c #5A3719",
"0 	c #573414",
"a 	c #54300E",
"b 	c #5B3511",
"c 	c #57310A",
"d 	c #59360E",
"e 	c #53310C",
"f 	c #52300B",
"g 	c #5C3410",
"h 	c #5A320E",
"i 	c #54320F",
"j 	c #5B3A19",
"k 	c #4E2F10",
"l 	c #593C1C",
"m 	c #4F3212",
"n 	c #877051",
"o 	c #FEF1DE",
"p 	c #87715C",
"q 	c #977559",
"r 	c #C29D80",
"s 	c #8F6C56",
"t 	c #B3937C",
"u 	c #8C6D50",
"v 	c #B99678",
"w 	c #AF8167",
"x 	c #916246",
"y 	c #9C6F52",
"z 	c #976A4B",
"A 	c #9A6949",
"B 	c #956541",
"C 	c #95663C",
"D 	c #996A3E",
"E 	c #92673D",
"F 	c #966A43",
"G 	c #A07048",
"H 	c #95653F",
"I 	c #916643",
"J 	c #A67E5B",
"K 	c #6B4320",
"L 	c #9D7753",
"M 	c #C09C78",
"N 	c #8A6D4D",
"O 	c #927E66",
"P 	c #947556",
"Q 	c #CEAB8B",
"R 	c #6D4D36",
"S 	c #C4A590",
"T 	c #C2A488",
"U 	c #C9A78B",
"V 	c #CFA58C",
"W 	c #B68A6F",
"X 	c #B99074",
"Y 	c #B99072",
"Z 	c #C6997C",
"` 	c #C19372",
" .	c #C1946D",
"..	c #C2966F",
"+.	c #BF956F",
"@.	c #C19673",
"#.	c #C59976",
"$.	c #BC8F6E",
"%.	c #BA9173",
"&.	c #C9A285",
"*.	c #673E1E",
"=.	c #805737",
"-.	c #BF9B79",
";.	c #917456",
">.	c #F6EBD7",
",.	c #8F7D65",
"'.	c #AC8F6D",
").	c #C09F7E",
"!.	c #73553D",
"~.	c #AA8F7A",
"{.	c #665038",
"].	c #897157",
"^.	c #87694F",
"/.	c #64442B",
"(.	c #64462C",
"_.	c #604228",
":.	c #5C3C23",
"<.	c #5E3C21",
"[.	c #573519",
"}.	c #553619",
"|.	c #523317",
"1.	c #4E2E15",
"2.	c #4F2D14",
"3.	c #502E15",
"4.	c #4C2C17",
"5.	c #4A2A13",
"6.	c #4F2A0F",
"7.	c #896243",
"8.	c #A07C5A",
"9.	c #8F7456",
"0.	c #F5EAD6",
"a.	c #B09F85",
"b.	c #A98C6A",
"c.	c #B99B79",
"d.	c #8B725C",
"e.	c #B09F8D",
"f.	c #423721",
"g.	c #888069",
"h.	c #655941",
"i.	c #564A32",
"j.	c #4E482E",
"k.	c #49432B",
"l.	c #3D351E",
"m.	c #362E1B",
"n.	c #2D2415",
"o.	c #261C12",
"p.	c #1F150C",
"q.	c #1C1209",
"r.	c #1C0E05",
"s.	c #1C0B03",
"t.	c #200A00",
"u.	c #361702",
"v.	c #906D51",
"w.	c #B89673",
"x.	c #8D7352",
"y.	c #948067",
"z.	c #836644",
"A.	c #C9AA8B",
"B.	c #AA9381",
"C.	c #7E6E61",
"D.	c #534E3B",
"E.	c #73705D",
"F.	c #514E3B",
"G.	c #504F3B",
"H.	c #4A4F39",
"I.	c #414934",
"J.	c #393D2C",
"K.	c #2F3325",
"L.	c #282A25",
"M.	c #212322",
"N.	c #1B1D1C",
"O.	c #1A1A1A",
"P.	c #1A1917",
"Q.	c #181413",
"R.	c #191011",
"S.	c #1F1009",
"T.	c #381D08",
"U.	c #876647",
"V.	c #C5A37E",
"W.	c #896F4C",
"X.	c #FBEAD8",
"Y.	c #B69E84",
"Z.	c #B2916E",
"`.	c #BA9779",
" +	c #E7CBBD",
".+	c #C7B5AB",
"++	c #494136",
"@+	c #545044",
"#+	c #4D493D",
"$+	c #565447",
"%+	c #484F3F",
"&+	c #3C4435",
"*+	c #383E32",
"=+	c #2D322B",
"-+	c #232824",
";+	c #222627",
">+	c #1C2021",
",+	c #17181A",
"'+	c #161618",
")+	c #171719",
"!+	c #181415",
"~+	c #1A0D05",
"{+	c #361A04",
"]+	c #8C6846",
"^+	c #AA845D",
"/+	c #8D6F49",
"(+	c #F7E8D3",
"_+	c #B79F83",
":+	c #B79570",
"<+	c #BD9A7A",
"[+	c #CDB1A3",
"}+	c #D7C4BD",
"|+	c #362C23",
"1+	c #423E33",
"2+	c #524E43",
"3+	c #565448",
"4+	c #474A3F",
"5+	c #3C4238",
"6+	c #393C35",
"7+	c #2E302B",
"8+	c #262827",
"9+	c #202423",
"0+	c #1C1E1D",
"a+	c #161719",
"b+	c #131418",
"c+	c #121317",
"d+	c #121214",
"e+	c #191009",
"f+	c #432912",
"g+	c #8F6B49",
"h+	c #C39E74",
"i+	c #92744E",
"j+	c #8D7A5A",
"k+	c #7C5F35",
"l+	c #A4845E",
"m+	c #9B806D",
"n+	c #9F8D83",
"o+	c #3C3228",
"p+	c #484137",
"q+	c #565044",
"r+	c #524E42",
"s+	c #4A4C3F",
"t+	c #44463B",
"u+	c #3C3934",
"v+	c #332F2C",
"w+	c #2D2C28",
"x+	c #21201C",
"y+	c #1B1A18",
"z+	c #1C1C1C",
"A+	c #18191B",
"B+	c #0E1215",
"C+	c #231C16",
"D+	c #382008",
"E+	c #856340",
"F+	c #BC9973",
"G+	c #8C724F",
"H+	c #93815D",
"I+	c #88693D",
"J+	c #AC8A64",
"K+	c #907560",
"L+	c #917D72",
"M+	c #40332A",
"N+	c #4B4338",
"O+	c #564E43",
"P+	c #544E40",
"Q+	c #504E41",
"R+	c #454539",
"S+	c #39342E",
"T+	c #38302D",
"U+	c #2B2622",
"V+	c #26231E",
"W+	c #1F1B18",
"X+	c #181715",
"Y+	c #151618",
"Z+	c #161A1D",
"`+	c #171B1E",
" @	c #1F1A14",
".@	c #331B03",
"+@	c #896744",
"@@	c #AE8B63",
"#@	c #937956",
"$@	c #957F58",
"%@	c #886638",
"&@	c #5A3B26",
"*@	c #543C30",
"=@	c #37291E",
"-@	c #493F33",
";@	c #574E3F",
">@	c #575040",
",@	c #4D4C3A",
"'@	c #454334",
")@	c #3B342C",
"!@	c #37302A",
"~@	c #28231F",
"{@	c #282320",
"]@	c #211C19",
"^@	c #161513",
"/@	c #15161A",
"(@	c #191E22",
"_@	c #171C1F",
":@	c #15100A",
"<@	c #391F06",
"[@	c #83603A",
"}@	c #C8A176",
"|@	c #90724C",
"1@	c #F5E7CA",
"2@	c #947C58",
"3@	c #886337",
"4@	c #BB9167",
"5@	c #815C41",
"6@	c #795D48",
"7@	c #392919",
"8@	c #4B4233",
"9@	c #564D3C",
"0@	c #554E3C",
"a@	c #484735",
"b@	c #464739",
"c@	c #413A30",
"d@	c #342D25",
"e@	c #322D2A",
"f@	c #231F1E",
"g@	c #1C1616",
"h@	c #211D1C",
"i@	c #222224",
"j@	c #181C1D",
"k@	c #101415",
"l@	c #151108",
"m@	c #331B01",
"n@	c #86623E",
"o@	c #B48F65",
"p@	c #91734D",
"q@	c #907C5B",
"r@	c #8F6E45",
"s@	c #C1986C",
"t@	c #84592F",
"u@	c #805E3B",
"v@	c #7B6B52",
"w@	c #D8D1BE",
"x@	c #8C8572",
"y@	c #55503D",
"z@	c #494B3E",
"A@	c #414338",
"B@	c #3A362D",
"C@	c #2A2925",
"D@	c #1E1C1D",
"E@	c #201A1C",
"F@	c #2A2426",
"G@	c #201C1D",
"H@	c #11110F",
"I@	c #131510",
"J@	c #141004",
"K@	c #331D06",
"L@	c #8B6C4D",
"M@	c #B69670",
"N@	c #8D7551",
"O@	c #917E5E",
"P@	c #86643E",
"Q@	c #BC9367",
"R@	c #825627",
"S@	c #8A673F",
"T@	c #C2B298",
"U@	c #F3EEDA",
"V@	c #B8B19E",
"W@	c #646150",
"X@	c #4E5045",
"Y@	c #3F4239",
"Z@	c #3B392D",
"`@	c #424034",
" #	c #30312C",
".#	c #232323",
"+#	c #2D282C",
"@#	c #241E20",
"##	c #161211",
"$#	c #151410",
"%#	c #10110B",
"&#	c #191307",
"*#	c #321C07",
"=#	c #86674A",
"-#	c #A88A66",
";#	c #8C7553",
">#	c #8E795A",
",#	c #7F5C34",
"'#	c #B58A5F",
")#	c #83582D",
"!#	c #92724C",
"~#	c #C8B8A1",
"{#	c #AAA391",
"]#	c #9A9381",
"^#	c #797363",
"/#	c #434337",
"(#	c #46483D",
"_#	c #3C3A2E",
":#	c #302D24",
"<#	c #31322C",
"[#	c #383836",
"}#	c #242021",
"|#	c #1A1617",
"1#	c #191816",
"2#	c #12130E",
"3#	c #151610",
"4#	c #161004",
"5#	c #341B07",
"6#	c #856347",
"7#	c #A68461",
"8#	c #8C7452",
"9#	c #967F5F",
"0#	c #8E693F",
"a#	c #C0956A",
"b#	c #815A33",
"c#	c #856848",
"d#	c #A1927D",
"e#	c #979080",
"f#	c #9C9585",
"g#	c #645E4E",
"h#	c #4D4B3E",
"i#	c #424236",
"j#	c #3A3A30",
"k#	c #2E2E24",
"l#	c #34352D",
"m#	c #2D2E28",
"n#	c #242321",
"o#	c #181617",
"p#	c #171717",
"q#	c #191917",
"r#	c #11120D",
"s#	c #191106",
"t#	c #371C09",
"u#	c #886549",
"v#	c #B4906E",
"w#	c #8F7250",
"x#	c #8E7755",
"y#	c #8D6339",
"z#	c #D1A47A",
"A#	c #795533",
"B#	c #7C6249",
"C#	c #4C3F2E",
"D#	c #766E61",
"E#	c #6C6457",
"F#	c #514B3D",
"G#	c #4D4739",
"H#	c #474539",
"I#	c #39392F",
"J#	c #42433B",
"K#	c #2D2E26",
"L#	c #1E1F19",
"M#	c #252523",
"N#	c #242424",
"O#	c #131514",
"P#	c #111312",
"Q#	c #141510",
"R#	c #1B1108",
"S#	c #361A05",
"T#	c #8B6649",
"U#	c #C79F7C",
"V#	c #8E704E",
"W#	c #98805E",
"X#	c #8E6539",
"Y#	c #D3A67C",
"Z#	c #714F33",
"`#	c #6D5742",
" $	c #35291B",
".$	c #443C31",
"+$	c #50483D",
"@$	c #534B3E",
"#$	c #5C5447",
"$$	c #423E32",
"%$	c #45463E",
"&$	c #30332C",
"*$	c #24251D",
"=$	c #25261E",
"-$	c #202123",
";$	c #1E2223",
">$	c #101113",
",$	c #121210",
"'$	c #1A1007",
")$	c #331702",
"!$	c #8D6649",
"~$	c #C79F7B",
"{$	c #8F6E4B",
"]$	c #947D5B",
"^$	c #8A5F34",
"/$	c #B1865C",
"($	c #A08268",
"_$	c #9E8D7D",
":$	c #31271D",
"<$	c #4F483E",
"[$	c #534B40",
"}$	c #574F42",
"|$	c #554C3D",
"1$	c #4E483A",
"2$	c #2D322C",
"3$	c #272820",
"4$	c #21221C",
"5$	c #101417",
"6$	c #1D2124",
"7$	c #202125",
"8$	c #0D0B0C",
"9$	c #1E110B",
"0$	c #341803",
"a$	c #8B6445",
"b$	c #B68C66",
"c$	c #8F653B",
"d$	c #926840",
"e$	c #E5CBB4",
"f$	c #E4D6C9",
"g$	c #342B22",
"h$	c #49423A",
"i$	c #574F44",
"j$	c #584E42",
"k$	c #5D5141",
"l$	c #4E4737",
"m$	c #373830",
"n$	c #2B2C24",
"o$	c #1A1E21",
"p$	c #0E1116",
"q$	c #191A1E",
"r$	c #262427",
"s$	c #170A04",
"t$	c #371B06",
"u$	c #896545",
"v$	c #A17A53",
"w$	c #95754F",
"x$	c #94805F",
"y$	c #926B42",
"z$	c #BD9571",
"A$	c #A08A75",
"B$	c #AA9E92",
"C$	c #383129",
"D$	c #433F36",
"E$	c #5F5647",
"F$	c #5A4F3D",
"G$	c #494232",
"H$	c #383931",
"I$	c #333530",
"J$	c #27271F",
"K$	c #22211C",
"L$	c #191D1C",
"M$	c #14171C",
"N$	c #151419",
"O$	c #191718",
"P$	c #251A14",
"Q$	c #341904",
"R$	c #8E6B4D",
"S$	c #C7A17A",
"T$	c #907D5D",
"U$	c #8B6842",
"V$	c #A27E5A",
"W$	c #96816C",
"X$	c #92887C",
"Y$	c #49463D",
"Z$	c #5B5549",
"`$	c #5D5445",
" %	c #554A38",
".%	c #463F2D",
"+%	c #36362C",
"@%	c #2E312A",
"#%	c #2C2922",
"$%	c #23221D",
"%%	c #1A1C1B",
"&%	c #15191A",
"*%	c #131315",
"=%	c #171312",
"-%	c #1E140B",
";%	c #311B06",
">%	c #876849",
",%	c #AD8B65",
"'%	c #8D714A",
")%	c #8D7E61",
"!%	c #8E704C",
"~%	c #B29472",
"{%	c #66543E",
"]%	c #5B5444",
"^%	c #363428",
"/%	c #4A473E",
"(%	c #5C5648",
"_%	c #5A5341",
":%	c #524A37",
"<%	c #4B4432",
"[%	c #3C3C30",
"}%	c #32332B",
"|%	c #312C26",
"1%	c #282520",
"2%	c #1D1F1C",
"3%	c #1A1615",
"4%	c #171310",
"5%	c #1A1108",
"6%	c #32200A",
"7%	c #8C7354",
"8%	c #AF936E",
"9%	c #8F7753",
"0%	c #AAA48C",
"a%	c #70644A",
"b%	c #6D5435",
"c%	c #9F8765",
"d%	c #54442B",
"e%	c #59503F",
"f%	c #333327",
"g%	c #534D3D",
"h%	c #504936",
"i%	c #49422F",
"j%	c #433D2D",
"k%	c #373528",
"l%	c #2E2C20",
"m%	c #221E15",
"n%	c #1C1711",
"o%	c #12130D",
"p%	c #0F120B",
"q%	c #120F08",
"r%	c #100B05",
"s%	c #0D0802",
"t%	c #0F0700",
"u%	c #251600",
"v%	c #655534",
"w%	c #A28B69",
"x%	c #746140",
"y%	c #A79D84",
"z%	c #B8B69D",
"A%	c #C1BDA4",
"B%	c #9A9581",
"C%	c #8D856E",
"D%	c #77664A",
"E%	c #806B4C",
"F%	c #8E7E64",
"G%	c #978F7A",
"H%	c #6F7062",
"I%	c #757769",
"J%	c #7E7B68",
"K%	c #807B65",
"L%	c #7D7865",
"M%	c #787564",
"N%	c #737061",
"O%	c #6F6C5D",
"P%	c #6F695D",
"Q%	c #6B675C",
"R%	c #65675A",
"S%	c #646659",
"T%	c #676357",
"U%	c #686254",
"V%	c #676056",
"W%	c #676153",
"X%	c #726A53",
"Y%	c #7A6F51",
"Z%	c #746443",
"`%	c #86775A",
" &	c #A59F89",
".&	c #9E9C87",
"+&	c #C4C1AE",
"@&	c #D4C3A7",
"#&	c #CEC4AB",
"$&	c #C6C9B8",
"%&	c #C4C8B9",
"&&	c #D7CCB0",
"*&	c #D1C7AC",
"=&	c #C2BCAC",
"      .                                                         ",
"                                                                ",
"              + @                                               ",
"        # $ % & * = - ; > , ' ) ! ~ { ] ^ / ( _ : < [           ",
"    } | 1 2 3 4 5 6 7 8 9 0 a b c d e f g h i j k l m n         ",
"    o p q r s t u v w x y z A B C D E F G H I J K L M N         ",
"      O P Q R S T U V W X Y Z `  ...+.@.#.$.%.&.*.=.-.;.        ",
"    >.,.'.).!.~.{.].^./.(._.:.<.[.}.|.1.2.3.4.5.6.7.8.9.        ",
"    0.a.b.c.d.e.f.g.h.i.j.k.l.m.n.o.p.q.r.s.s.t.u.v.w.x.        ",
"      y.z.A.B.C.D.E.F.G.H.I.J.K.L.M.N.O.P.Q.R.S.T.U.V.W.        ",
"    X.Y.Z.`. +.+++@+#+$+%+&+*+=+-+;+>+,+'+)+!+~+{+]+^+/+        ",
"    (+_+:+<+[+}+|+1+2+3+4+5+6+7+8+9+0+a+b+c+d+e+f+g+h+i+        ",
"      j+k+l+m+n+o+p+q+r+s+t+u+v+w+x+y+z+A+B+c+C+D+E+F+G+        ",
"      H+I+J+K+L+M+N+O+P+Q+R+S+T+U+V+W+X+Y+Z+`+ @.@+@@@#@        ",
"      $@%@h+&@*@=@-@;@>@,@'@)@!@~@{@]@^@/@(@_@:@<@[@}@|@        ",
"    1@2@3@4@5@6@7@8@9@0@a@b@c@d@e@f@g@h@i@j@k@l@m@n@o@p@        ",
"      q@r@s@t@u@v@w@x@y@z@A@1+B@C@D@E@F@G@H@I@J@K@L@M@N@        ",
"      O@P@Q@R@S@T@U@V@W@X@Y@Z@`@ #.#+#@###$#%#&#*#=#-#;#        ",
"      >#,#'#)#!#~#{#]#^#/#(#_#:#<#[#}#|#1#2#3#4#5#6#7#8#        ",
"      9#0#a#b#c#d#e#f#g#h#i#j#k#l#m#n#o#p#q#r#s#t#u#v#w#        ",
"      x#y#z#A#B#C#D#E#F#G#H#I#J#K#L#M#N#O#P#Q#R#S#T#U#V#        ",
"      W#X#Y#Z#`# $.$+$@$#$$$%$&$*$=$q#-$;$>$,$'$)$!$~${$        ",
"      ]$^$/$($_$:$<$[$}$|$1$J#2$3$4$N.5$6$7$8$9$0$a$b$!#        ",
"      ]$c$d$e$f$g$h$i$j$k$l$m$2$n$L#N.o$p$q$r$s$t$u$v$w$        ",
"      x$y$z$A$B$C$D$q+E$F$G$H$I$J$K$L$Z+M$N$O$P$Q$R$S$/+        ",
"      T$U$V$W$X$B@Y$Z$`$ %.%+%@%#%$%%%&%/@*%=%-%;%>%,%'%        ",
"      )%!%~%{%]%^%/%(%_%:%<%[%}%|%1%2%%%q#3%4%5%6%7%8%9%        ",
"    0%a%b%c%d%e%f%/#g%h%i%j%k%l%m%n%o%p%q%r%s%t%u%v%w%x%y%z%    ",
"  A%B%C%D%E%F%G%H%I%J%K%L%M%N%O%P%Q%R%S%T%U%V%W%X%Y%Z%`% &.&    ",
"    +&    @&  #&$&%&                                &&*&=&      ",
"                                                                ",
"                                                                "};
