/* XPM */
static char * half_open_xpm[] = {
"32 32 756 2",
"  	c None",
". 	c #EFE2C2",
"+ 	c #F0E5D1",
"@ 	c #F1E7CC",
"# 	c #F2E6CC",
"$ 	c #F1E7CE",
"% 	c #EEDFC8",
"& 	c #F1E5CF",
"* 	c #F2E4C9",
"= 	c #EEE5C4",
"- 	c #F2DEC5",
"; 	c #F2E2C9",
"> 	c #EFE9D9",
", 	c #C6B192",
"' 	c #D2BB9C",
") 	c #D1BAA8",
"! 	c #CBB5A7",
"~ 	c #CCBAA4",
"{ 	c #CDBCA2",
"] 	c #D3BFA4",
"^ 	c #CFBA9D",
"/ 	c #CDB89B",
"( 	c #D1BC9F",
"_ 	c #CDBA9C",
": 	c #CFBA9B",
"< 	c #D7BA9C",
"[ 	c #D1B295",
"} 	c #D0B799",
"| 	c #CFBA9F",
"1 	c #C9B39B",
"2 	c #CDB79F",
"3 	c #D5BBA2",
"4 	c #CFB59A",
"5 	c #CAB596",
"6 	c #D0BB9C",
"7 	c #D5B9A3",
"8 	c #C4AE99",
"9 	c #EAE6DB",
"0 	c #735E43",
"a 	c #523611",
"b 	c #543310",
"c 	c #502D17",
"d 	c #583823",
"e 	c #53351B",
"f 	c #543719",
"g 	c #604122",
"h 	c #523412",
"i 	c #513311",
"j 	c #5A3D1B",
"k 	c #4E3612",
"l 	c #563A15",
"m 	c #5E3710",
"n 	c #5F350D",
"o 	c #5A3711",
"p 	c #5A3815",
"q 	c #583718",
"r 	c #593819",
"s 	c #593618",
"t 	c #573617",
"u 	c #563919",
"v 	c #58361B",
"w 	c #4B2F19",
"x 	c #695D45",
"y 	c #F2EEE2",
"z 	c #735938",
"A 	c #AB895C",
"B 	c #B38D60",
"C 	c #603515",
"D 	c #805437",
"E 	c #89613D",
"F 	c #8C653C",
"G 	c #815A2F",
"H 	c #855E33",
"I 	c #866135",
"J 	c #7D5A30",
"K 	c #7C5C33",
"L 	c #7A592E",
"M 	c #85592A",
"N 	c #825423",
"O 	c #855A2D",
"P 	c #885E34",
"Q 	c #815A33",
"R 	c #825A36",
"S 	c #845C38",
"T 	c #7C5632",
"U 	c #8E6C47",
"V 	c #63411C",
"W 	c #89633F",
"X 	c #C09F80",
"Y 	c #716245",
"Z 	c #F1ECD8",
"` 	c #E5E2D1",
" .	c #785B39",
"..	c #A78353",
"+.	c #C59B6B",
"@.	c #623410",
"#.	c #A97B59",
"$.	c #CFA279",
"%.	c #C59A6F",
"&.	c #B58A5F",
"*.	c #BE9368",
"=.	c #C89E74",
"-.	c #BE9871",
";.	c #BB9973",
">.	c #BF9E75",
",.	c #B78E62",
"'.	c #CCA174",
").	c #BC956A",
"!.	c #B58F68",
"~.	c #CAA47F",
"{.	c #C19A79",
"].	c #B18A69",
"^.	c #C29B7A",
"/.	c #CCAA87",
"(.	c #64401C",
"_.	c #7F5431",
":.	c #CBA783",
"<.	c #877454",
"[.	c #F7F1DB",
"}.	c #E3E1CC",
"|.	c #EED9C4",
"1.	c #735638",
"2.	c #936E42",
"3.	c #B0855A",
"4.	c #6B3F1C",
"5.	c #805332",
"6.	c #885E38",
"7.	c #895F37",
"8.	c #825830",
"9.	c #825734",
"0.	c #865F3E",
"a.	c #825D40",
"b.	c #7B5940",
"c.	c #7B5D43",
"d.	c #7A5C40",
"e.	c #7F6145",
"f.	c #765B40",
"g.	c #72563E",
"h.	c #795D47",
"i.	c #755944",
"j.	c #72513E",
"k.	c #785843",
"l.	c #72543C",
"m.	c #563418",
"n.	c #865B39",
"o.	c #A67F5E",
"p.	c #836B4F",
"q.	c #CFC3AB",
"r.	c #F9F1DC",
"s.	c #E2DDC9",
"t.	c #7B6043",
"u.	c #98754B",
"v.	c #B38E61",
"w.	c #875F3C",
"x.	c #966F50",
"y.	c #7B5832",
"z.	c #9F7D57",
"A.	c #916D49",
"B.	c #896646",
"C.	c #7B593D",
"D.	c #63432C",
"E.	c #5E422D",
"F.	c #412A18",
"G.	c #2E1D0B",
"H.	c #271707",
"I.	c #241407",
"J.	c #201003",
"K.	c #1B0A00",
"L.	c #1D0900",
"M.	c #210B00",
"N.	c #210600",
"O.	c #1E0400",
"P.	c #43230E",
"Q.	c #8B6040",
"R.	c #B38B68",
"S.	c #856B50",
"T.	c #D1C2AB",
"U.	c #F2EAD5",
"V.	c #EFE9D3",
"W.	c #6A5230",
"X.	c #A98C60",
"Y.	c #C5A678",
"Z.	c #70522E",
"`.	c #CBAE8E",
" +	c #A28A66",
".+	c #C9B38C",
"++	c #AF9773",
"@+	c #987F60",
"#+	c #977F63",
"$+	c #6E5840",
"%+	c #6B5943",
"&+	c #473A2A",
"*+	c #2D291E",
"=+	c #24231E",
"-+	c #1E1D18",
";+	c #1D1916",
">+	c #1C1714",
",+	c #1B1310",
"'+	c #1E100D",
")+	c #22110A",
"!+	c #200C03",
"~+	c #391E0B",
"{+	c #855C3C",
"]+	c #D4AC88",
"^+	c #886F51",
"/+	c #D5C5AC",
"(+	c #EEE3CD",
"_+	c #F0EAD2",
":+	c #7A6343",
"<+	c #9E865A",
"[+	c #957C53",
"}+	c #907759",
"|+	c #957F67",
"1+	c #736246",
"2+	c #9F9071",
"3+	c #8B7C5F",
"4+	c #837359",
"5+	c #7E6E57",
"6+	c #60513C",
"7+	c #594E3C",
"8+	c #423C2E",
"9+	c #272A23",
"0+	c #1E2420",
"a+	c #191D1C",
"b+	c #181A19",
"c+	c #161817",
"d+	c #151314",
"e+	c #17120F",
"f+	c #1B120D",
"g+	c #1A0B04",
"h+	c #3A200F",
"i+	c #B28B62",
"j+	c #886D4F",
"k+	c #D0C0A6",
"l+	c #745F44",
"m+	c #927A58",
"n+	c #8B7253",
"o+	c #F7E2D1",
"p+	c #CCBAB0",
"q+	c #8D7F72",
"r+	c #BDB1A1",
"s+	c #A89C8C",
"t+	c #978B7B",
"u+	c #837769",
"v+	c #706758",
"w+	c #5A5446",
"x+	c #3D3B2E",
"y+	c #272A21",
"z+	c #1D241C",
"A+	c #181D17",
"B+	c #171914",
"C+	c #151714",
"D+	c #13140F",
"E+	c #13120D",
"F+	c #18130D",
"G+	c #1A1007",
"H+	c #341E09",
"I+	c #825D31",
"J+	c #BD9766",
"K+	c #856B48",
"L+	c #D0C1A4",
"M+	c #695439",
"N+	c #A28A68",
"O+	c #9F8668",
"P+	c #CBB4A6",
"Q+	c #B19D96",
"R+	c #AA998F",
"S+	c #D1C3B6",
"T+	c #B9AD9F",
"U+	c #A19587",
"V+	c #898071",
"W+	c #797164",
"X+	c #595647",
"Y+	c #37382A",
"Z+	c #272A1F",
"`+	c #21241D",
" @	c #1B1C16",
".@	c #181914",
"+@	c #161614",
"@@	c #17140F",
"#@	c #191009",
"$@	c #321D0A",
"%@	c #845F32",
"&@	c #CDA874",
"*@	c #886E4D",
"=@	c #D3C3A9",
"-@	c #6F5839",
";@	c #90744D",
">@	c #9F815D",
",@	c #987C67",
"'@	c #947A6B",
")@	c #846F5C",
"!@	c #9B8973",
"~@	c #8F7F68",
"{@	c #857661",
"]@	c #7A6F5B",
"^@	c #635C49",
"/@	c #4F4C39",
"(@	c #3E3C2D",
"_@	c #2B2821",
":@	c #25211E",
"<@	c #1E1A19",
"[@	c #1B1716",
"}@	c #171516",
"|@	c #131313",
"1@	c #171312",
"2@	c #150C0D",
"3@	c #362315",
"4@	c #815C32",
"5@	c #BD9466",
"6@	c #8E7054",
"7@	c #D4C3AF",
"8@	c #6F5436",
"9@	c #A6855C",
"0@	c #9E7B53",
"a@	c #8F6C50",
"b@	c #8A6A53",
"c@	c #6B5033",
"d@	c #846B4D",
"e@	c #7F674B",
"f@	c #735F44",
"g@	c #6C5C45",
"h@	c #544935",
"i@	c #4B4632",
"j@	c #3D3A2B",
"k@	c #2B2620",
"l@	c #25201D",
"m@	c #1F1919",
"n@	c #1C1819",
"o@	c #131315",
"p@	c #121214",
"q@	c #141213",
"r@	c #140E10",
"s@	c #342015",
"t@	c #7F5A30",
"u@	c #C69B6E",
"v@	c #896B4F",
"w@	c #D4C2AE",
"x@	c #715235",
"y@	c #A37E52",
"z@	c #C0976B",
"A@	c #502502",
"B@	c #754C2C",
"C@	c #906D47",
"D@	c #AD8B65",
"E@	c #A0825E",
"F@	c #8D7254",
"G@	c #7F6951",
"H@	c #655442",
"I@	c #5C5042",
"J@	c #423B31",
"K@	c #2D2620",
"L@	c #25201C",
"M@	c #201B18",
"N@	c #1D1918",
"O@	c #171717",
"P@	c #131514",
"Q@	c #0F1312",
"R@	c #121411",
"S@	c #161010",
"T@	c #301E10",
"U@	c #825C2F",
"V@	c #D3AA76",
"W@	c #876849",
"X@	c #D6C2AA",
"Y@	c #77583B",
"Z@	c #997249",
"`@	c #B88C5F",
" #	c #85582F",
".#	c #A0734C",
"+#	c #976D43",
"@#	c #AB865C",
"##	c #977751",
"$#	c #8D7352",
"%#	c #7E6851",
"&#	c #604F3F",
"*#	c #52463A",
"=#	c #39322A",
"-#	c #2C2721",
";#	c #25221D",
">#	c #211C19",
",#	c #1E1A1B",
"'#	c #1A181B",
")#	c #151517",
"!#	c #121413",
"~#	c #141412",
"{#	c #130E0B",
"]#	c #342313",
"^#	c #B88E5C",
"/#	c #8C6E4C",
"(#	c #D6C2A9",
"_#	c #6A4F31",
":#	c #AB8560",
"<#	c #BD9267",
"[#	c #77481C",
"}#	c #A07145",
"|#	c #94693E",
"1#	c #AB855E",
"2#	c #977955",
"3#	c #7B6445",
"4#	c #695844",
"5#	c #5A4E3E",
"6#	c #635B50",
"7#	c #4C483F",
"8#	c #282820",
"9#	c #272622",
"0#	c #1A1617",
"a#	c #211A21",
"b#	c #2A252C",
"c#	c #19141B",
"d#	c #0E0C0F",
"e#	c #181413",
"f#	c #201C13",
"g#	c #3D2E19",
"h#	c #825F39",
"i#	c #C9A277",
"j#	c #886B4B",
"k#	c #D1C0A6",
"l#	c #EDE1C9",
"m#	c #785E3D",
"n#	c #98754F",
"o#	c #AE8358",
"p#	c #815123",
"q#	c #996939",
"r#	c #986C3F",
"s#	c #9E774E",
"t#	c #7B5D3B",
"u#	c #705B3E",
"v#	c #776B55",
"w#	c #716A5A",
"x#	c #666257",
"y#	c #4F4F47",
"z#	c #32332B",
"A#	c #22231D",
"B#	c #201C1D",
"C#	c #191219",
"D#	c #211924",
"E#	c #262128",
"F#	c #1A151B",
"G#	c #1F1B18",
"H#	c #231C12",
"I#	c #2D1C08",
"J#	c #84623D",
"K#	c #896F4E",
"L#	c #D6C5A9",
"M#	c #735B39",
"N#	c #946F45",
"O#	c #B28659",
"P#	c #815121",
"Q#	c #9D6D3D",
"R#	c #9B6F40",
"S#	c #9C754A",
"T#	c #735531",
"U#	c #6C573A",
"V#	c #796D57",
"W#	c #756F61",
"X#	c #55564E",
"Y#	c #42443F",
"Z#	c #33362D",
"`#	c #26271F",
" $	c #1F1A1E",
".$	c #140F16",
"+$	c #1A181D",
"@$	c #323033",
"#$	c #211D1A",
"$$	c #150E04",
"%$	c #34220E",
"&$	c #7A5632",
"*$	c #B18A63",
"=$	c #886B4D",
"-$	c #D5C1A8",
";$	c #715734",
">$	c #9E784B",
",$	c #B88C5B",
"'$	c #7C4C1E",
")$	c #98693B",
"!$	c #976D3D",
"~$	c #A07B4E",
"{$	c #83623F",
"]$	c #695233",
"^$	c #65573D",
"/$	c #5F5A47",
"($	c #4B4C44",
"_$	c #41433E",
":$	c #313328",
"<$	c #222218",
"[$	c #21201B",
"}$	c #1A1917",
"|$	c #131114",
"1$	c #1E1C1F",
"2$	c #252422",
"3$	c #24211C",
"4$	c #1A1108",
"5$	c #B98F69",
"6$	c #8D6E51",
"7$	c #D7C3AA",
"8$	c #775730",
"9$	c #A8804C",
"0$	c #C29460",
"a$	c #7E4F21",
"b$	c #9C7043",
"c$	c #956D3A",
"d$	c #A48050",
"e$	c #9B7B55",
"f$	c #7E6345",
"g$	c #6E5B3D",
"h$	c #5B5138",
"i$	c #4C4A3E",
"j$	c #3C3D35",
"k$	c #2C2C20",
"l$	c #26261A",
"m$	c #191911",
"n$	c #171612",
"o$	c #242424",
"p$	c #1F1F1F",
"q$	c #0F100B",
"r$	c #1E1B14",
"s$	c #251D12",
"t$	c #3B2613",
"u$	c #875C3C",
"v$	c #C99B79",
"w$	c #8A6B4E",
"x$	c #6F4D27",
"y$	c #AE8653",
"z$	c #C79B6A",
"A$	c #683E18",
"B$	c #8D6743",
"C$	c #8D6C41",
"D$	c #9B7B52",
"E$	c #9A7B5C",
"F$	c #8B7053",
"G$	c #7E694A",
"H$	c #615339",
"I$	c #50483D",
"J$	c #36332C",
"K$	c #2B291D",
"L$	c #27241B",
"M$	c #1A1914",
"N$	c #242520",
"O$	c #222423",
"P$	c #111310",
"Q$	c #131510",
"R$	c #131009",
"S$	c #1E160B",
"T$	c #452E1C",
"U$	c #815435",
"V$	c #D8AA88",
"W$	c #89674B",
"X$	c #D6C2A7",
"Y$	c #EDE3C8",
"Z$	c #F0D6BD",
"`$	c #6F4C2C",
" %	c #A88158",
".%	c #AE8861",
"+%	c #85624E",
"@%	c #8C6F5D",
"#%	c #7C6448",
"$%	c #937B5F",
"%%	c #8A6F5A",
"&%	c #816653",
"*%	c #7A624A",
"=%	c #63513B",
"-%	c #564941",
";%	c #403835",
">%	c #2F2A24",
",%	c #1F1C15",
"'%	c #2C2B27",
")%	c #242422",
"!%	c #101413",
"~%	c #14140C",
"{%	c #1A1006",
"]%	c #331C0A",
"^%	c #96694A",
"/%	c #C39271",
"(%	c #8F6D51",
"_%	c #D5C1A6",
":%	c #78563B",
"<%	c #916E48",
"[%	c #8C6B4A",
"}%	c #F9DDD1",
"|%	c #CDB9B0",
"1%	c #71624D",
"2%	c #A3937C",
"3%	c #998375",
"4%	c #907669",
"5%	c #806A53",
"6%	c #695743",
"7%	c #54473F",
"8%	c #403634",
"9%	c #292420",
"0%	c #34302D",
"a%	c #131718",
"b%	c #181712",
"c%	c #170E05",
"d%	c #37200E",
"e%	c #8A5D40",
"f%	c #B08260",
"g%	c #8B6C4F",
"h%	c #75573B",
"i%	c #9F815B",
"j%	c #8E7453",
"k%	c #D6C2B7",
"l%	c #B4A59E",
"m%	c #ADA592",
"n%	c #D3CBB6",
"o%	c #C2B0A2",
"p%	c #AF9C8D",
"q%	c #97836B",
"r%	c #85755E",
"s%	c #5E544A",
"t%	c #39312E",
"u%	c #393431",
"v%	c #2C2827",
"w%	c #1F1D1E",
"x%	c #18181A",
"y%	c #141517",
"z%	c #121315",
"A%	c #161510",
"B%	c #170E07",
"C%	c #3A2514",
"D%	c #875E42",
"E%	c #BF9271",
"F%	c #95785A",
"G%	c #D6C5A7",
"H%	c #9E825B",
"I%	c #A98F6C",
"J%	c #927D6C",
"K%	c #87796C",
"L%	c #887D67",
"M%	c #A2987F",
"N%	c #968573",
"O%	c #907D6C",
"P%	c #7E6D53",
"Q%	c #685A40",
"R%	c #554B3F",
"S%	c #49423C",
"T%	c #2F2B28",
"U%	c #242223",
"V%	c #19171A",
"W%	c #171719",
"X%	c #141416",
"Y%	c #14130F",
"Z%	c #1A130B",
"`%	c #2E1B0C",
" &	c #845F42",
".&	c #D4AC89",
"+&	c #876C4F",
"@&	c #D3C4A7",
"#&	c #765C39",
"$&	c #9C7C53",
"%&	c #896942",
"&&	c #A0856A",
"*&	c #8B755D",
"=&	c #675434",
"-&	c #81714F",
";&	c #7D694E",
">&	c #755F47",
",&	c #6D5A3C",
"'&	c #5F4F35",
")&	c #584D3B",
"!&	c #494238",
"~&	c #2B2823",
"{&	c #232220",
"]&	c #1F1B1C",
"^&	c #1D191A",
"/&	c #1B1718",
"(&	c #161415",
"_&	c #131311",
":&	c #14130E",
"<&	c #120D07",
"[&	c #302011",
"}&	c #A98563",
"|&	c #866E52",
"1&	c #D4C6AB",
"2&	c #F1EECF",
"3&	c #CFBBA0",
"4&	c #AD8D66",
"5&	c #B6946E",
"6&	c #4F3013",
"7&	c #5C4124",
"8&	c #79613F",
"9&	c #907C59",
"0&	c #8F775B",
"a&	c #7D684D",
"b&	c #786547",
"c&	c #6A5A40",
"d&	c #5A4F3D",
"e&	c #3B3529",
"f&	c #2A2A20",
"g&	c #1A1512",
"h&	c #16120F",
"i&	c #18150C",
"j&	c #291D0D",
"k&	c #816347",
"l&	c #C1A381",
"m&	c #89755A",
"n&	c #B9AF94",
"o&	c #A39886",
"p&	c #A18F7B",
"q&	c #5F452C",
"r&	c #7C5D40",
"s&	c #8B6A4B",
"t&	c #66442B",
"u&	c #74563C",
"v&	c #7F6447",
"w&	c #876F53",
"x&	c #846E56",
"y&	c #7B6651",
"z&	c #7A6852",
"A&	c #655440",
"B&	c #564939",
"C&	c #3F372A",
"D&	c #28291B",
"E&	c #222417",
"F&	c #201C11",
"G&	c #1E170F",
"H&	c #1D140D",
"I&	c #1B140C",
"J&	c #17170D",
"K&	c #0D0F02",
"L&	c #312A18",
"M&	c #5E4728",
"N&	c #8A704F",
"O&	c #5E4E34",
"P&	c #968F75",
"Q&	c #9E9D81",
"R&	c #ACA593",
"S&	c #AC9D8A",
"T&	c #9F8D77",
"U&	c #9D856D",
"V&	c #A0866D",
"W&	c #A68C73",
"X&	c #A28A70",
"Y&	c #A18D74",
"Z&	c #A19076",
"`&	c #A1927B",
" *	c #9E927C",
".*	c #A29582",
"+*	c #978C7A",
"@*	c #988C7C",
"#*	c #918A78",
"$*	c #8D8F7A",
"%*	c #8B8E7B",
"&*	c #8D8A79",
"**	c #8F877A",
"=*	c #90867A",
"-*	c #90867C",
";*	c #8C887C",
">*	c #898A7C",
",*	c #868A7C",
"'*	c #95927F",
")*	c #9C896B",
"!*	c #917D5C",
"~*	c #998D73",
"{*	c #A39D87",
"]*	c #A8A68F",
"                                                                ",
"        . . +         @ #   $   % &           * =   - ;       > ",
"        , ' ) ! ~ { ] ^ / ( _ : < [ } | 1 2 3 4 5 6 7 8       9 ",
"      0 a b c d e f g h i j k l m n o p q r s t u u v w x   y 9 ",
"      z A B C D E F G H I J K L M N O P Q R S T U V W X Y   Z ` ",
"       ...+.@.#.$.%.&.*.=.-.;.>.,.'.).!.~.{.].^./.(._.:.<.  [.}.",
"    |.1.2.3.4.5.6.7.8.9.0.a.b.c.d.e.f.g.h.i.j.k.l.m.n.o.p.q.r.s.",
"      t.u.v.w.x.y.z.A.B.C.D.E.F.G.H.I.J.K.L.M.N.O.P.Q.R.S.T.U.V.",
"      W.X.Y.Z.`. +.+++@+#+$+%+&+*+=+-+;+>+,+'+)+!+~+{+]+^+/+(+_+",
"      :+<+[+}+|+1+2+3+4+5+6+7+8+9+0+a+b+c+d+e+f+g+h+R i+j+k+    ",
"      l+m+n+o+p+q+r+s+t+u+v+w+x+y+z+A+B+C+D+E+F+G+H+I+J+K+L+    ",
"      M+N+O+P+Q+R+S+T+U+V+W+X+Y+Z+`+ @.@+@D+D+@@#@$@%@&@*@=@    ",
"      -@;@>@,@'@)@!@~@{@]@^@/@(@_@:@<@[@}@|@|@1@2@3@4@5@6@7@    ",
"      8@9@0@a@b@c@d@e@f@g@h@i@j@k@l@m@n@}@o@p@q@r@s@t@u@v@w@    ",
"      x@y@z@A@B@C@D@E@F@G@H@I@J@K@L@M@N@O@P@Q@R@S@T@U@V@W@X@    ",
"      Y@Z@`@ #.#+#@###$#%#&#*#=#-#;#>#,#'#)#!#~#{#]#%@^#/#(#    ",
"      _#:#<#[#}#|#1#2#3#4#5#6#7#8#9#0#a#b#c#d#e#f#g#h#i#j#k#l#  ",
"      m#n#o#p#q#r#s#t#u#v#w#x#y#z#A#B#C#D#E#F#G#H#I#J#1#K#L#    ",
"      M#N#O#P#Q#R#S#T#U#V#W#X#Y#Z#`#<@ $.$+$@$#$$$%$&$*$=$-$    ",
"      ;$>$,$'$)$!$~${$]$^$/$($_$:$<$[$}$|$1$2$3$4$$@W 5$6$7$    ",
"      8$9$0$a$b$c$d$e$f$g$h$i$j$k$l$m$n$o$p$q$r$s$t$u$v$w$      ",
"      x$y$z$A$B$C$D$E$F$G$H$I$J$K$L$M$N$O$P$Q$R$S$T$U$V$W$X$Y$  ",
"    Z$`$ %.%+%@%#%$%%%&%*%=%-%;%>%,%'%)%Q@!%P$~%{%]%^%/%(%_%    ",
"      :%<%[%}%|%1%2%3%4%5%6%7%8%9%0%2$O@a%Q@P$b%c%d%e%f%g%X$    ",
"      h%i%j%k%l%m%n%o%p%q%r%s%t%u%v%w%x%y%z%!#A%B%C%D%E%F%G%    ",
"      8@H%I%J%K%L%M%N%O%P%Q%R%S%T%U%,#V%W%X%P$Y%Z%`% &.&+&@&    ",
"      #&$&%&&&*&=&-&;&>&,&'&)&!&~&{&]&^&/&(&_&:&<&[&W$}&|&1&2&  ",
"    3&m#4&5&6&7&8&9&0&a&b&c&d&e&f&=+G#>+g&h&E+~%i&j&k&l&m&n&    ",
"  o&p&q&r&s&t&u&v&w&x&y&z&A&B&C&D&E&F&G&H&I&i&J&K&L&M&N&O&P&Q&  ",
"  R&S&T&U&V&W&X&Y&Z&`& *.*+*@*#*$*%*&***=*-*;*>*,*'*)*!*~*{*]*  ",
"                                                                ",
"                                                                "};
