/* XPM */
static char * bomb_3_xpm[] = {
"32 32 350 2",
"  	c #C8A2C8",
". 	c #F2B92A",
"+ 	c #F0B831",
"@ 	c #F8BF4B",
"# 	c #F8D05F",
"$ 	c #EAB529",
"% 	c #EEB42C",
"& 	c #EEB331",
"* 	c #F0B42F",
"= 	c #F1CF61",
"- 	c #FBE987",
"; 	c #FAEB98",
"> 	c #F6CC56",
", 	c #F4BA3D",
"' 	c #EDA628",
") 	c #F5A920",
"! 	c #EFB02F",
"~ 	c #F1AB2F",
"{ 	c #EEA51B",
"] 	c #F6A935",
"^ 	c #ECB638",
"/ 	c #F8C751",
"( 	c #F1AD28",
"_ 	c #FACE63",
": 	c #FBFF9E",
"< 	c #FFF99B",
"[ 	c #FAEE98",
"} 	c #FCE283",
"| 	c #F6B652",
"1 	c #E7A125",
"2 	c #EE9F29",
"3 	c #F2C357",
"4 	c #F6E184",
"5 	c #F1BF4C",
"6 	c #EEA12B",
"7 	c #EFA42D",
"8 	c #EEA92A",
"9 	c #F2A938",
"0 	c #F2AD45",
"a 	c #F7FDA7",
"b 	c #FFEC8B",
"c 	c #F8E072",
"d 	c #F2D367",
"e 	c #FFE07F",
"f 	c #F2A83F",
"g 	c #ED9529",
"h 	c #F09930",
"i 	c #FFE170",
"j 	c #FBFDAA",
"k 	c #FFFFA3",
"l 	c #F3BF59",
"m 	c #EE9726",
"n 	c #F29725",
"o 	c #ED9936",
"p 	c #F4D26E",
"q 	c #F59338",
"r 	c #F5C362",
"s 	c #FFFC9B",
"t 	c #F6DE64",
"u 	c #EDA537",
"v 	c #F5C557",
"w 	c #F2C65D",
"x 	c #F08422",
"y 	c #F38925",
"z 	c #F1A547",
"A 	c #F7DB6E",
"B 	c #F0C238",
"C 	c #FFF190",
"D 	c #FBF096",
"E 	c #EA942D",
"F 	c #F7922A",
"G 	c #E78520",
"H 	c #FFF28F",
"I 	c #E97C27",
"J 	c #F4B75E",
"K 	c #FFF99E",
"L 	c #EFDA6F",
"M 	c #FFCC73",
"N 	c #FFCE7B",
"O 	c #FCDE7E",
"P 	c #F29339",
"Q 	c #F27B21",
"R 	c #F69649",
"S 	c #F7E485",
"T 	c #F7D25D",
"U 	c #EEE272",
"V 	c #FFFCA1",
"W 	c #F69841",
"X 	c #F37923",
"Y 	c #ED912C",
"Z 	c #F09336",
"` 	c #EEC569",
" .	c #F5FA93",
"..	c #FA943F",
"+.	c #F07C31",
"@.	c #F8E891",
"#.	c #FFE181",
"$.	c #FDE47F",
"%.	c #FADF76",
"&.	c #FCDA6F",
"*.	c #F2833B",
"=.	c #F37125",
"-.	c #EE7E32",
";.	c #F5D078",
">.	c #FFE089",
",.	c #F6F692",
"'.	c #FBDC82",
").	c #EB7E21",
"!.	c #F47227",
"~.	c #F2A94D",
"{.	c #F9D275",
"].	c #F47123",
"^.	c #F3A459",
"/.	c #F7F58E",
"(.	c #F9823E",
"_.	c #F5A44B",
":.	c #FFEB8F",
"<.	c #F4DD77",
"[.	c #FAC76B",
"}.	c #F7CF60",
"|.	c #EFB43E",
"1.	c #EE6926",
"2.	c #EF7023",
"3.	c #F37924",
"4.	c #FFD674",
"5.	c #FFE585",
"6.	c #FADC84",
"7.	c #F37930",
"8.	c #FA6928",
"9.	c #EE6F22",
"0.	c #F58B3F",
"a.	c #F7D97F",
"b.	c #F08C36",
"c.	c #F47331",
"d.	c #EDA34E",
"e.	c #F16530",
"f.	c #FCDF8F",
"g.	c #F9DA80",
"h.	c #FCD671",
"i.	c #F47A39",
"j.	c #F47D29",
"k.	c #FCC340",
"l.	c #F0531E",
"m.	c #F76631",
"n.	c #EF6421",
"o.	c #EEA853",
"p.	c #FFE284",
"q.	c #FBC26B",
"r.	c #ED5D21",
"s.	c #E77C34",
"t.	c #F47F2F",
"u.	c #EE581B",
"v.	c #F48941",
"w.	c #FD7F35",
"x.	c #E95B19",
"y.	c #E46329",
"z.	c #F6CD73",
"A.	c #FBDE7A",
"B.	c #FFBE68",
"C.	c #E55727",
"D.	c #E87F24",
"E.	c #F2E541",
"F.	c #F06520",
"G.	c #E1601E",
"H.	c #E8622D",
"I.	c #EA5E2D",
"J.	c #E7722F",
"K.	c #E55D29",
"L.	c #DF6323",
"M.	c #FCB13C",
"N.	c #EA7031",
"O.	c #E66428",
"P.	c #EC652B",
"Q.	c #ED5C1B",
"R.	c #E56120",
"S.	c #D45E20",
"T.	c #DF6F2D",
"U.	c #EA8B47",
"V.	c #D56223",
"W.	c #E2712B",
"X.	c #FCF23B",
"Y.	c #E37C2F",
"Z.	c #DA5721",
"`.	c #DE611E",
" +	c #E16422",
".+	c #DB5D23",
"++	c #E16726",
"@+	c #F0BB37",
"#+	c #E49933",
"$+	c #D95B29",
"%+	c #DB6024",
"&+	c #DD6125",
"*+	c #E3531F",
"=+	c #CF5B20",
"-+	c #D05F19",
";+	c #CB6523",
">+	c #CF5224",
",+	c #CF5522",
"'+	c #D86E20",
")+	c #FFE43F",
"!+	c #F7F542",
"~+	c #E7B437",
"{+	c #CE5520",
"]+	c #D86526",
"^+	c #DB8520",
"/+	c #C65020",
"(+	c #F2D843",
"_+	c #F6DF43",
":+	c #D86628",
"<+	c #D05B26",
"[+	c #D76026",
"}+	c #DA5B26",
"|+	c #C23718",
"1+	c #BF431D",
"2+	c #CE6D20",
"3+	c #DE842C",
"4+	c #C2551A",
"5+	c #C15C26",
"6+	c #F1CC36",
"7+	c #FFED39",
"8+	c #FFEC3A",
"9+	c #D48B25",
"0+	c #C55918",
"a+	c #DC8734",
"b+	c #CF8031",
"c+	c #FEF34C",
"d+	c #F5DB3C",
"e+	c #E09530",
"f+	c #CA561B",
"g+	c #C54D19",
"h+	c #BF3F12",
"i+	c #D28044",
"j+	c #C25627",
"k+	c #E2B131",
"l+	c #CA6724",
"m+	c #A52D14",
"n+	c #E4AD38",
"o+	c #FFEB39",
"p+	c #FFE33A",
"q+	c #F1C934",
"r+	c #E4B438",
"s+	c #FBDE42",
"t+	c #EBDD36",
"u+	c #FFE444",
"v+	c #FBD83E",
"w+	c #B14517",
"x+	c #B2471B",
"y+	c #B53B12",
"z+	c #B45329",
"A+	c #BE6E19",
"B+	c #EACD33",
"C+	c #9C400F",
"D+	c #E1B427",
"E+	c #FCE537",
"F+	c #F3D13A",
"G+	c #FAE53C",
"H+	c #F5E537",
"I+	c #F0E940",
"J+	c #F5DF3E",
"K+	c #FDEC3A",
"L+	c #B46C1A",
"M+	c #BA5F18",
"N+	c #C26B1C",
"O+	c #583D42",
"P+	c #D6CB3B",
"Q+	c #FFDF32",
"R+	c #F8D933",
"S+	c #FDDA3E",
"T+	c #F7C83E",
"U+	c #F2E131",
"V+	c #FCD73E",
"W+	c #EEE63B",
"X+	c #FFCE41",
"Y+	c #F1D62D",
"Z+	c #CA9521",
"`+	c #E0C132",
" @	c #8A834C",
".@	c #FFE52C",
"+@	c #F7D63D",
"@@	c #FAC833",
"#@	c #F8B239",
"$@	c #F9D13E",
"%@	c #FFC931",
"&@	c #F3C43A",
"*@	c #F4C738",
"=@	c #F6DB32",
"-@	c #FFF130",
";@	c #535D5C",
">@	c #FBDE2A",
",@	c #F5D832",
"'@	c #EEAF3D",
")@	c #FBA943",
"!@	c #F7B93E",
"~@	c #F6A93D",
"{@	c #FAA53A",
"]@	c #FCC938",
"^@	c #FFE131",
"/@	c #EDCF2F",
"(@	c #F7DC2D",
"_@	c #F6BC41",
":@	c #FE973B",
"<@	c #F39B37",
"[@	c #F59E35",
"}@	c #FD9D2C",
"|@	c #F6D629",
"1@	c #FBDC2C",
"2@	c #FCD329",
"3@	c #F9CA34",
"4@	c #F4B438",
"5@	c #F68937",
"6@	c #F39732",
"7@	c #F89132",
"8@	c #F79437",
"9@	c #FEC031",
"0@	c #FAD62A",
"a@	c #F4BC2B",
"b@	c #F48F33",
"c@	c #FE862F",
"d@	c #F58232",
"e@	c #FD8A2D",
"f@	c #F17C2D",
"g@	c #FFB625",
"h@	c #F6C137",
"i@	c #F0D224",
"j@	c #F48F27",
"k@	c #EA712C",
"l@	c #DF711C",
"m@	c #F46F2A",
"n@	c #EF832B",
"o@	c #FCD029",
"p@	c #F3CB1C",
"q@	c #FFA526",
"r@	c #EE6129",
"s@	c #DC5E23",
"t@	c #F05D2A",
"u@	c #F79C29",
"v@	c #F8D424",
"w@	c #F2C917",
"x@	c #FFB716",
"y@	c #F47F22",
"z@	c #EE5624",
"A@	c #D45520",
"B@	c #E45920",
"C@	c #F17B24",
"D@	c #FFB11B",
"E@	c #F75C1C",
"F@	c #F33A1C",
"G@	c #E42129",
"H@	c #F34415",
"I@	c #F5301D",
"                                                                ",
"                                                                ",
"                                                                ",
"                                                                ",
"                            . + @ #                             ",
"                          $ % & * = - ;                         ",
"                      > , ' ) ! ~ { ] ^ / (                     ",
"                  _ : < [ } | 1 2 3 4 5 6 7 8                   ",
"              9 0 a b c d e f g h i j k l m n o                 ",
"            p q r s t u v w x y z A B C D E F G                 ",
"            H I J K L M N O P Q R S T U V W X Y Z               ",
"          `  ...+.@.#.$.%.&.*.=.-.;.>.,.'.).!.~.{.].            ",
"          ^./.(._.:.<.[.}.|.1.2.3.4.5.6.7.8.9.0.a.b.            ",
"          c.d.e.f.g.h.i.j.k.l.m.n.o.p.q.r.s.t.u.v.w.            ",
"            x.y.z.A.B.C.D.E.F.G.H.I.J.K.L.M.N.O.P.Q.            ",
"            R.S.T.U.V.W.B X.Y.Z.`. +.+++@+#+$+%+&+*+            ",
"            =+-+;+>+,+'+)+!+~+{+]+^+/+(+_+:+<+[+}+|+            ",
"              1+2+3+4+5+6+7+8+9+0+a+b+c+d+e+f+g+h+              ",
"              i+j+k+l+m+n+o+p+q+r+s+t+u+v+w+x+y+                ",
"                z+A+B+C+D+E+F+G+H+I+J+K+L+M+N+                  ",
"                  O+P+Q+R+S+T+U+V+W+X+Y+Z+`+                    ",
"                     @.@+@@@#@$@%@&@*@=@-@                      ",
"                    ;@>@,@'@)@!@~@{@]@^@                        ",
"                      /@(@_@:@<@[@}@|@1@                        ",
"                      2@3@4@5@6@7@8@9@                          ",
"                      0@a@b@c@d@e@f@g@                          ",
"                      h@i@j@k@l@m@n@o@                          ",
"                        p@q@r@s@t@u@v@w@                        ",
"                        x@y@z@A@B@C@D@                          ",
"                          E@F@G@H@I@                            ",
"                                                                ",
"                                                                "};
