/* XPM */
static char * bomb_4_xpm[] = {
"32 32 306 2",
"  	c #C8A2C8",
". 	c #E8CE23",
"+ 	c #FAD336",
"@ 	c #E9D534",
"# 	c #F5CF2C",
"$ 	c #EBD230",
"% 	c #E4C956",
"& 	c #F4DE66",
"* 	c #FBD453",
"= 	c #F2C73C",
"- 	c #E6C82C",
"; 	c #EDC728",
"> 	c #ECC32D",
", 	c #F2CA2C",
"' 	c #ECC61D",
") 	c #EDBE32",
"! 	c #E8C43A",
"~ 	c #FFE97C",
"{ 	c #FDF18F",
"] 	c #F4EE90",
"^ 	c #F9F391",
"/ 	c #FFE986",
"( 	c #EFCA46",
"_ 	c #F7D363",
": 	c #FBD266",
"< 	c #F3C33B",
"[ 	c #EDC228",
"} 	c #F7C645",
"| 	c #EBB634",
"1 	c #EEB327",
"2 	c #F7D56A",
"3 	c #F7F294",
"4 	c #FBEE92",
"5 	c #F7F296",
"6 	c #F1F093",
"7 	c #F6E794",
"8 	c #F6DE7A",
"9 	c #F7E38A",
"0 	c #F7C564",
"a 	c #F8B529",
"b 	c #EAB42E",
"c 	c #F1B728",
"d 	c #F1B12D",
"e 	c #EFA82C",
"f 	c #EFAB30",
"g 	c #FAE27E",
"h 	c #FBFB9B",
"i 	c #F3EE90",
"j 	c #F7F493",
"k 	c #FAF09B",
"l 	c #FFEB8A",
"m 	c #F7E787",
"n 	c #FFE187",
"o 	c #FFDC7E",
"p 	c #F9C557",
"q 	c #EBA728",
"r 	c #EFB12C",
"s 	c #EFAE30",
"t 	c #E7A535",
"u 	c #F1A128",
"v 	c #ECA032",
"w 	c #F19D2D",
"x 	c #F4E17B",
"y 	c #FAF69B",
"z 	c #F7EE93",
"A 	c #F8F499",
"B 	c #FBED94",
"C 	c #F9F28A",
"D 	c #F7CA65",
"E 	c #FABF5B",
"F 	c #F6C75F",
"G 	c #F0A436",
"H 	c #F0A226",
"I 	c #EEA12B",
"J 	c #F19729",
"K 	c #EE9B25",
"L 	c #EFA52A",
"M 	c #EFAA43",
"N 	c #EF8927",
"O 	c #F0982C",
"P 	c #EB9119",
"Q 	c #F9BC52",
"R 	c #FAFC9B",
"S 	c #F6F49D",
"T 	c #F7ED94",
"U 	c #F6FD9D",
"V 	c #FFE784",
"W 	c #EE982B",
"X 	c #EB8E24",
"Y 	c #EB992B",
"Z 	c #EB982E",
"` 	c #EE952D",
" .	c #F09F33",
"..	c #F4C959",
"+.	c #F7B954",
"@.	c #F1912B",
"#.	c #F89530",
"$.	c #EC8529",
"%.	c #F98D2B",
"&.	c #EC8C28",
"*.	c #F08833",
"=.	c #ED8126",
"-.	c #F3C160",
";.	c #FCEE96",
">.	c #F8E78D",
",.	c #FBD071",
"'.	c #F4963E",
").	c #EE8B2E",
"!.	c #FA8E2B",
"~.	c #EB8520",
"{.	c #F5862A",
"].	c #F18B29",
"^.	c #F88D2B",
"/.	c #F1A649",
"(.	c #FFFA94",
"_.	c #F6CF70",
":.	c #EC8622",
"<.	c #EF742E",
"[.	c #F5812A",
"}.	c #EA792B",
"|.	c #EE7F26",
"1.	c #EF8031",
"2.	c #F48939",
"3.	c #ED7720",
"4.	c #E28424",
"5.	c #F9A148",
"6.	c #F29039",
"7.	c #EE8529",
"8.	c #EE7C23",
"9.	c #F17825",
"0.	c #F79647",
"a.	c #ED983E",
"b.	c #F27B21",
"c.	c #F08127",
"d.	c #ED7A29",
"e.	c #EFA84E",
"f.	c #F9DA7D",
"g.	c #F2A24B",
"h.	c #F07D2C",
"i.	c #EE6D29",
"j.	c #F56C1E",
"k.	c #F66E24",
"l.	c #EC7B2B",
"m.	c #F87733",
"n.	c #EF682E",
"o.	c #E78D3F",
"p.	c #F9E07B",
"q.	c #F9F793",
"r.	c #F9FB9A",
"s.	c #FEEC88",
"t.	c #F8A853",
"u.	c #EBAE51",
"v.	c #FFE288",
"w.	c #FBF18F",
"x.	c #FDB058",
"y.	c #E97427",
"z.	c #EA7A28",
"A.	c #EF6A1D",
"B.	c #F68131",
"C.	c #F2984C",
"D.	c #EC7A24",
"E.	c #F17630",
"F.	c #EED77A",
"G.	c #FFC069",
"H.	c #EF6536",
"I.	c #E96A25",
"J.	c #F36D24",
"K.	c #FEE483",
"L.	c #FBFC9F",
"M.	c #FCF197",
"N.	c #F9EE94",
"O.	c #FFF599",
"P.	c #FAF692",
"Q.	c #F8EA87",
"R.	c #FFE285",
"S.	c #FCD37B",
"T.	c #F3CF6F",
"U.	c #F97028",
"V.	c #FC6425",
"W.	c #EE6E2D",
"X.	c #EC6C21",
"Y.	c #EE6B27",
"Z.	c #F06D29",
"`.	c #F9FFA2",
" +	c #F3AF68",
".+	c #E2652B",
"++	c #EA5B23",
"@+	c #F4924B",
"#+	c #F7FF9C",
"$+	c #FFF199",
"%+	c #FBF794",
"&+	c #F7FC96",
"*+	c #FFF498",
"=+	c #FBED8A",
"-+	c #FFEA8F",
";+	c #F8E684",
">+	c #FCE07F",
",+	c #FFBF65",
"'+	c #EC5F1A",
")+	c #EE632A",
"!+	c #E66732",
"~+	c #EE672D",
"{+	c #EC5F27",
"]+	c #F34B1C",
"^+	c #EDB264",
"/+	c #E15A20",
"(+	c #E76026",
"_+	c #E05720",
":+	c #E79144",
"<+	c #FFF38D",
"[+	c #FAE28A",
"}+	c #F5F08C",
"|+	c #F5C352",
"1+	c #EAC344",
"2+	c #FADC6E",
"3+	c #F4BB64",
"4+	c #F1AC5F",
"5+	c #F0C368",
"6+	c #E77830",
"7+	c #DE5D26",
"8+	c #E36533",
"9+	c #E4672D",
"0+	c #E46226",
"a+	c #E06218",
"b+	c #E4552B",
"c+	c #D2541A",
"d+	c #D25E25",
"e+	c #DF5B1D",
"f+	c #D95C2E",
"g+	c #D95F20",
"h+	c #E9BA62",
"i+	c #EC9C57",
"j+	c #DB7B41",
"k+	c #EA9846",
"l+	c #F5B867",
"m+	c #E07F3A",
"n+	c #D56523",
"o+	c #D45715",
"p+	c #DA5711",
"q+	c #D45623",
"r+	c #DC6231",
"s+	c #DD6533",
"t+	c #DA5D23",
"u+	c #D56223",
"v+	c #DD602A",
"w+	c #D45824",
"x+	c #D05D24",
"y+	c #C0581B",
"z+	c #BC340E",
"A+	c #C8431A",
"B+	c #F2C03D",
"C+	c #F6D74B",
"D+	c #E59B3C",
"E+	c #C94723",
"F+	c #C54A11",
"G+	c #CE5528",
"H+	c #CA5417",
"I+	c #C63D19",
"J+	c #C94922",
"K+	c #C45124",
"L+	c #C75016",
"M+	c #C6400D",
"N+	c #CF3D18",
"O+	c #E8AC1A",
"P+	c #FFC31A",
"Q+	c #FBCD17",
"R+	c #E0841F",
"S+	c #B93C0E",
"T+	c #B83F22",
"U+	c #AE2C1E",
"V+	c #B53319",
"W+	c #B84224",
"X+	c #B64317",
"Y+	c #B33C1E",
"Z+	c #B02D11",
"`+	c #D7BC39",
" @	c #E2BA24",
".@	c #F1D52B",
"+@	c #F2C629",
"@@	c #ECB31E",
"#@	c #C97211",
"$@	c #D6941C",
"%@	c #F3BF2D",
"&@	c #E9BD1C",
"*@	c #E5AB26",
"=@	c #8C8F48",
"-@	c #C0B130",
";@	c #CFBF36",
">@	c #DEBE2F",
",@	c #F0CF32",
"'@	c #F7E32C",
")@	c #B0A83B",
"!@	c #E4C930",
"~@	c #A89F38",
"{@	c #A89E49",
"]@	c #6F784D",
"^@	c #DEC334",
"/@	c #F7D62F",
"(@	c #5C6353",
"_@	c #606255",
":@	c #626258",
"<@	c #CDBA41",
"[@	c #B5AA40",
"}@	c #353A64",
"|@	c #506554",
"1@	c #A3A343",
"                                                                ",
"                                                                ",
"                                                                ",
"                            . + @ # $                           ",
"                      % & * = - ; > , '                         ",
"                ) ! ~ { ] ^ / ( _ : < [ }                       ",
"              | 1 2 ^ 3 4 5 6 7 8 9 0 a b c                     ",
"            d e f g h i j k l m n o p q r s t                   ",
"            u v w x y z A B C D E F G H I J K L                 ",
"          M N O P Q R S T U V W X Y Z `  ...+.@.#.              ",
"          $.%.&.*.=.-.;.>.,.'.).!.~.{.].^./.(._.:.              ",
"        <.[.}.|.1.2.3.4.5.6.7.8.9.0.a.b.c.d.e.f.g.h.            ",
"        i.j.k.l.m.n.o.p.q.r.s.t.u.v.w.x.y.z.A.B.C.D.            ",
"        E.F.G.H.I.J.K.L.M.N.O.P.Q.R.S.T.U.V.W.X.Y.Z.            ",
"          `. +.+++@+#+$+%+&+*+=+-+;+>+,+'+)+!+~+{+]+            ",
"          ^+/+(+_+:+<+[+}+|+1+2+3+4+5+6+7+8+9+0+a+b+            ",
"          c+d+e+f+g+h+i+j+k+l+m+n+o+p+q+r+s+t+u+v+w+            ",
"              x+y+z+A+B+C+D+E+F+G+H+I+J+K+L+M+N+                ",
"                    O+P+Q+R+S+T+U+V+W+X+Y+Z+                    ",
"                      `+ @.@+@@@#@$@%@&@*@                      ",
"                        =@-@;@>@,@'@)@!@                        ",
"                          ~@{@]@^@/@(@                          ",
"                            _@:@<@[@}@                          ",
"                              |@1@                              ",
"                                                                ",
"                                                                ",
"                                                                ",
"                                                                ",
"                                                                ",
"                                                                ",
"                                                                ",
"                                                                "};
