/* XPM */
static char * bomb_xpm[] = {
"32 32 390 2",
"  	c #C8A2C8",
". 	c #FFB3AC",
"+ 	c #FFDBD4",
"@ 	c #FBDCDA",
"# 	c #DABBB9",
"$ 	c #C06962",
"% 	c #D8817A",
"& 	c #E0D8D5",
"* 	c #FFE8EB",
"= 	c #D1AAAD",
"- 	c #B8755B",
"; 	c #D49177",
"> 	c #FFD899",
", 	c #D4A263",
"' 	c #DD8F82",
") 	c #FFB4A7",
"! 	c #F1CACD",
"~ 	c #D9967C",
"{ 	c #D08D73",
"] 	c #FCCA8B",
"^ 	c #D8A667",
"/ 	c #C7796C",
"( 	c #F3A598",
"_ 	c #B39F9E",
": 	c #893841",
"< 	c #CB7A83",
"[ 	c #E8DED5",
"} 	c #EBEAF2",
"| 	c #E5EEF3",
"1 	c #DBC7C6",
"2 	c #8F7B7A",
"3 	c #73222B",
"4 	c #DE8D96",
"5 	c #FDF3EA",
"6 	c #D5D4D0",
"7 	c #887B75",
"8 	c #6A5D57",
"9 	c #57493E",
"0 	c #6E6055",
"a 	c #C0BDAE",
"b 	c #FDFAEB",
"c 	c #B1B0AC",
"d 	c #54534F",
"e 	c #847771",
"f 	c #BBAEA8",
"g 	c #EFE1D6",
"h 	c #FBEDE2",
"i 	c #FBF8E9",
"j 	c #A4A5A9",
"k 	c #474546",
"l 	c #8F8D8E",
"m 	c #D7D8DC",
"n 	c #47484C",
"o 	c #525051",
"p 	c #DFDDDE",
"q 	c #F8F1EB",
"r 	c #9795A0",
"s 	c #4A4856",
"t 	c #444250",
"u 	c #4D4A5D",
"v 	c #383548",
"w 	c #333043",
"x 	c #555265",
"y 	c #615B69",
"z 	c #554F5D",
"A 	c #918A92",
"B 	c #2F2D38",
"C 	c #484654",
"D 	c #464452",
"E 	c #514E61",
"F 	c #6C697C",
"G 	c #7B788B",
"H 	c #767386",
"I 	c #6C6674",
"J 	c #544E5C",
"K 	c #2E272F",
"L 	c #B9B6CB",
"M 	c #333045",
"N 	c #373250",
"O 	c #3B3654",
"P 	c #433D5F",
"Q 	c #4F496B",
"R 	c #585373",
"S 	c #5B526D",
"T 	c #423A51",
"U 	c #D4CCE3",
"V 	c #DBDBDD",
"W 	c #9C9BA3",
"X 	c #57565E",
"Y 	c #363348",
"Z 	c #3B384D",
"` 	c #474260",
" .	c #544F6D",
"..	c #5F597B",
"+.	c #676183",
"@.	c #696484",
"#.	c #686383",
"$.	c #6B627D",
"%.	c #595168",
"&.	c #50485F",
"*.	c #5B5768",
"=.	c #A5A1B2",
"-.	c #DAD9E1",
";.	c #AFAFB1",
">.	c #515153",
",.	c #413E51",
"'.	c #454255",
").	c #4E4969",
"!.	c #565171",
"~.	c #5F597F",
"{.	c #696389",
"].	c #6E6791",
"^.	c #6F6892",
"/.	c #70698B",
"(.	c #7E7594",
"_.	c #8A81A0",
":.	c #77718D",
"<.	c #56506C",
"[.	c #504A70",
"}.	c #AFA9CF",
"|.	c #E4E4E4",
"1.	c #787878",
"2.	c #3C3C3E",
"3.	c #525254",
"4.	c #565366",
"5.	c #575272",
"6.	c #676282",
"7.	c #6B658B",
"8.	c #6C668C",
"9.	c #756E98",
"0.	c #817A9C",
"a.	c #8982A4",
"b.	c #9A91B0",
"c.	c #AAA1C0",
"d.	c #B6B0CC",
"e.	c #B3ADC9",
"f.	c #8A84AA",
"g.	c #4B456B",
"h.	c #6B6974",
"i.	c #DEDCE7",
"j.	c #B5B3C0",
"k.	c #504972",
"l.	c #4F4871",
"m.	c #4D466F",
"n.	c #514A73",
"o.	c #534D6F",
"p.	c #544E70",
"q.	c #5E587E",
"r.	c #6D6690",
"s.	c #706897",
"t.	c #6E6695",
"u.	c #706698",
"v.	c #7B71A3",
"w.	c #8A81AC",
"x.	c #948BB6",
"y.	c #A199BE",
"z.	c #ADA5CA",
"A.	c #B6AFD1",
"B.	c #B8B1D2",
"C.	c #867FA0",
"D.	c #514D66",
"E.	c #4D4962",
"F.	c #A7A5B2",
"G.	c #BFBDCA",
"H.	c #3D3B48",
"I.	c #4B446D",
"J.	c #534C75",
"K.	c #575173",
"L.	c #595375",
"M.	c #666086",
"N.	c #6E688E",
"O.	c #706993",
"P.	c #726A99",
"Q.	c #6F6796",
"R.	c #7D73A5",
"S.	c #8980AB",
"T.	c #9F97BC",
"U.	c #A9A1C6",
"V.	c #B0A9CB",
"W.	c #B1AACC",
"X.	c #9B94B5",
"Y.	c #7D7697",
"Z.	c #625E77",
"`.	c #646079",
" +	c #383643",
".+	c #C4C2CF",
"++	c #E0E0E0",
"@+	c #443E64",
"#+	c #4A446A",
"$+	c #48416A",
"%+	c #49426B",
"&+	c #534D71",
"*+	c #585276",
"=+	c #5A537C",
"-+	c #5D567F",
";+	c #6C658F",
">+	c #716A94",
",+	c #726B95",
"'+	c #726B97",
")+	c #6E6793",
"!+	c #786EA0",
"~+	c #8077A6",
"{+	c #877EAD",
"]+	c #8E85B2",
"^+	c #958CB9",
"/+	c #9A91BC",
"(+	c #9990BB",
"_+	c #867EA7",
":+	c #776F98",
"<+	c #675E8B",
"[+	c #575270",
"}+	c #383351",
"|+	c #E5E5E3",
"1+	c #9A9A9A",
"2+	c #302A50",
"3+	c #5B557B",
"4+	c #413A63",
"5+	c #554F73",
"6+	c #5C567A",
"7+	c #5E5780",
"8+	c #625B84",
"9+	c #716A96",
"0+	c #6F6597",
"a+	c #72689A",
"b+	c #756C9B",
"c+	c #786F9E",
"d+	c #7B729F",
"e+	c #7F76A3",
"f+	c #8077A2",
"g+	c #7E75A0",
"h+	c #79719A",
"i+	c #726A93",
"j+	c #6A618E",
"k+	c #615C7A",
"l+	c #322D4B",
"m+	c #A0A09E",
"n+	c #454351",
"o+	c #524C70",
"p+	c #4A4468",
"q+	c #433D63",
"r+	c #4C466C",
"s+	c #565074",
"t+	c #5D577B",
"u+	c #5B547D",
"v+	c #676089",
"w+	c #706995",
"x+	c #6E6594",
"y+	c #6F6695",
"z+	c #71679B",
"A+	c #72689C",
"B+	c #73699B",
"C+	c #716799",
"D+	c #6E639B",
"E+	c #645C85",
"F+	c #4E466F",
"G+	c #4A4B46",
"H+	c #4B4569",
"I+	c #494369",
"J+	c #4F496F",
"K+	c #595377",
"L+	c #5C557E",
"M+	c #6A638C",
"N+	c #6F6894",
"O+	c #6A638F",
"P+	c #706796",
"Q+	c #70669A",
"R+	c #6F649C",
"S+	c #635B84",
"T+	c #454350",
"U+	c #4C466A",
"V+	c #544E74",
"W+	c #575177",
"X+	c #6C658E",
"Y+	c #6D6594",
"Z+	c #68608F",
"`+	c #6F649E",
" @	c #4B4A46",
".@	c #4E486E",
"+@	c #534D73",
"@@	c #5A547A",
"#@	c #615A83",
"$@	c #6C6591",
"%@	c #6C6493",
"&@	c #6A6291",
"*@	c #6F6599",
"=@	c #6E6496",
"-@	c #C3C3C5",
";@	c #322B54",
">@	c #4A436C",
",@	c #5D577D",
"'@	c #635C85",
")@	c #68618A",
"!@	c #69628C",
"~@	c #6D6692",
"{@	c #6F6798",
"]@	c #6E6697",
"^@	c #6E6699",
"/@	c #6E659A",
"(@	c #6D6499",
"_@	c #6C6398",
":@	c #6F6693",
"<@	c #645D7C",
"[@	c #332C4B",
"}@	c #AEADA9",
"|@	c #474069",
"1@	c #4D476D",
"2@	c #69628B",
"3@	c #4D4665",
"4@	c #6A6382",
"5@	c #E1DFEC",
"6@	c #3C3A47",
"7@	c #635D83",
"8@	c #686288",
"9@	c #6D678D",
"0@	c #6E6790",
"a@	c #6E659E",
"b@	c #6E64A3",
"c@	c #6D63A0",
"d@	c #655D8C",
"e@	c #736B9A",
"f@	c #696281",
"g@	c #4B4463",
"h@	c #393544",
"i@	c #DCD8E7",
"j@	c #CFCDDA",
"k@	c #605A80",
"l@	c #484268",
"m@	c #5C567C",
"n@	c #615B81",
"o@	c #6D668F",
"p@	c #6F669F",
"q@	c #7066A5",
"r@	c #7066A3",
"s@	c #6B6392",
"t@	c #443D5C",
"u@	c #67607F",
"v@	c #D8D4E3",
"w@	c #99999B",
"x@	c #4F4A6A",
"y@	c #4D4868",
"z@	c #49455E",
"A@	c #48445D",
"B@	c #514C6C",
"C@	c #625D7D",
"D@	c #6D678B",
"E@	c #6B6589",
"F@	c #6F6891",
"G@	c #5C5775",
"H@	c #484361",
"I@	c #908E9C",
"J@	c #C4BFDF",
"K@	c #635E7E",
"L@	c #38344D",
"M@	c #2F2B44",
"N@	c #3B3656",
"O@	c #4C4767",
"P@	c #5E587C",
"Q@	c #655F83",
"R@	c #6B648D",
"S@	c #675F8E",
"T@	c #5E5685",
"U@	c #524B75",
"V@	c #4A436D",
"W@	c #605B79",
"X@	c #D0CBE9",
"Y@	c #CCCBD0",
"Z@	c #88878C",
"`@	c #4B485D",
" #	c #2A2545",
".#	c #2E2949",
"+#	c #3C3658",
"@#	c #474163",
"##	c #4F4B64",
"$#	c #514F5C",
"%#	c #4F4D5A",
"&#	c #515055",
"*#	c #5A595E",
"=#	c #8A8A8A",
"-#	c #C1C1C1",
";#	c #E9E6FB",
">#	c #DED9F9",
",#	c #908BAB",
"'#	c #8F89AB",
")#	c #918BAD",
"!#	c #9490A9",
"~#	c #918DA6",
"{#	c #8C8A97",
"]#	c #DDDBE8",
"^#	c #E5E4E9",
"/#	c #EDECF1",
"                                            . +                 ",
"                                        @ # $ % &               ",
"                                    * = - ; > , ' )             ",
"                                      ! ~ { ] ^ / (             ",
"                                          _ : < [               ",
"                                }     | 1 2 3 4   5             ",
"                                  6 7 8 9 0 a b                 ",
"                                c d e f g h i                   ",
"                              j k l                             ",
"                            m n o p q                           ",
"                      r s t u v w x y z A                       ",
"                      B C D E F G H I J K                       ",
"                    L M N O P Q R R S S T U                     ",
"              V W X Y Z `  ...+.@.#.$.$.%.&.*.=.-.              ",
"            ;.>.,.'.).!.~.{.].^.^.^././.(._.:.<.[.}.            ",
"        |.1.2.3.4.E 5.6.7.8.].].].9.0.a.b.c.d.e.f.g.h.i.        ",
"      j.k.l.m.n.o.p.q.7.r.].s.t.u.v.w.x.y.z.A.A.B.C.D.E.F.      ",
"    G.H.I.m.l.J.K.L.M.N.O.O.P.Q.u.R.S.x.T.U.V.W.X.Y.Z.`. +.+    ",
"  ++@+#+$+%+&+*+=+-+;+>+>+,+'+)+u.!+~+{+]+^+/+(+_+:+<+<+[+}+|+  ",
"  1+2+3+4+%+5+6+7+8+^.>+>+>+9+)+0+a+b+c+d+e+f+g+h+i+j+j+k+l+m+  ",
"  n+o+p+q+r+s+t+u+v+>+>+w+9+)+)+x+y+u.u.z+A+B+C+0+0+D+D+E+F+G+  ",
"  n+o+H+I+J+5+K+L+M+O.^.N+N+O+)+P+y+u.0+Q+Q+u.u.0+0+R+R+S+F+G+  ",
"  T+o+U+g.[.V+W+7+X+N+)+t.Y+Z+t.u.0+u.0+Q+Q+u.0+0+0+`+`+S+F+ @  ",
"  T+o+U+g..@+@@@#@M+$@)+t.%@&@Q.C+u.u.0+*@*@=@=@=@0+`+`+S+F+ @  ",
"  -@;@u+m.>@[.,@'@)@!@].N+~@Y+Q.{@]@^@^@/@/@(@_@x+x+:@:@<@[@}@  ",
"    =+|@J.>@1@@@8+2@^.^.N+N+Q.Q.]@]@^@^@/@/@(@(@x+y+:@:@3@4@    ",
"    5@6@@@1@#++@3+7@8@9@0@0@^.^.]@]@a@a@b@b@c@c@d@e@f@g@h@i@    ",
"      j@k@J+l@1@V+m@n@M.)@o@].].{@{@p@p@q@b@c@r@P.s@t@u@v@      ",
"          w@x@y@z@A@B@C@D@E@o@F@^.^.N+N+t.s.O.O.G@H@I@          ",
"            J@K@L@M@N@O@P@Q@R@0@].].)+~@S@T@U@V@W@X@            ",
"                Y@Z@`@Y  #.#+#@###D.$#%#&#*#=#-#                ",
"                      ;#>#,#'#)#!#~#{#]#^#/#                    "};
