/* XPM */
static char * bomb_1_xpm[] = {
"32 32 210 2",
"  	c #C8A2C8",
". 	c #F9F645",
"+ 	c #F9F4B0",
"@ 	c #FBFB4B",
"# 	c #D5D60E",
"$ 	c #FBF81D",
"% 	c #FAEFAD",
"& 	c #FBF269",
"* 	c #FFF40C",
"= 	c #FDF317",
"- 	c #EAE60B",
"; 	c #FFFC2C",
"> 	c #F8F2A6",
", 	c #FAF494",
"' 	c #FFEC69",
") 	c #F8F222",
"! 	c #A1AF34",
"~ 	c #FFFA01",
"{ 	c #F5F11E",
"] 	c #F7F45B",
"^ 	c #F3F19A",
"/ 	c #FCF195",
"( 	c #FDF73F",
"_ 	c #949D32",
": 	c #FEFF07",
"< 	c #FAF311",
"[ 	c #FDF21A",
"} 	c #F6F60A",
"| 	c #FFF02E",
"1 	c #FFF9A9",
"2 	c #FAF1A4",
"3 	c #F7FF4F",
"4 	c #CFC214",
"5 	c #FFFF49",
"6 	c #C4C529",
"7 	c #323663",
"8 	c #888D33",
"9 	c #FFFE00",
"0 	c #F1F435",
"a 	c #F6F253",
"b 	c #FDEE21",
"c 	c #F6F22F",
"d 	c #F2F69F",
"e 	c #FEF492",
"f 	c #FBF719",
"g 	c #C5C724",
"h 	c #FFE603",
"i 	c #F8EC64",
"j 	c #FAFF48",
"k 	c #D1D121",
"l 	c #D8DA31",
"m 	c #F3F309",
"n 	c #FCFB49",
"o 	c #F5F3A0",
"p 	c #FDE61E",
"q 	c #F9E922",
"r 	c #FBEF99",
"s 	c #FFF66D",
"t 	c #FDF204",
"u 	c #F8E00C",
"v 	c #FFF531",
"w 	c #F8F888",
"x 	c #F7F193",
"y 	c #F5F20D",
"z 	c #FFF513",
"A 	c #F9EE6E",
"B 	c #FFF78E",
"C 	c #F8E121",
"D 	c #F9E620",
"E 	c #FFFD4F",
"F 	c #FDEE15",
"G 	c #F9E800",
"H 	c #FDEB0B",
"I 	c #FFF634",
"J 	c #F6F3A2",
"K 	c #FFF1AA",
"L 	c #F9F025",
"M 	c #FAEC0F",
"N 	c #FBED04",
"O 	c #FFF657",
"P 	c #F8F067",
"Q 	c #F8DF20",
"R 	c #F7E614",
"S 	c #FFEC05",
"T 	c #FFEC0F",
"U 	c #F9F00B",
"V 	c #FAE808",
"W 	c #FAE600",
"X 	c #FCF03A",
"Y 	c #F8F15A",
"Z 	c #FAE91D",
"` 	c #FAE929",
" .	c #F2EA0D",
"..	c #F7EF06",
"+.	c #F6F60C",
"@.	c #F8DA2C",
"#.	c #FFDF1E",
"$.	c #FEF30B",
"%.	c #FFE90D",
"&.	c #FEE519",
"*.	c #F9E900",
"=.	c #757A40",
"-.	c #F8E713",
";.	c #F7E80F",
">.	c #F7E505",
",.	c #F3E90D",
"'.	c #F8D933",
").	c #FBEB12",
"!.	c #F4F106",
"~.	c #FFEA05",
"{.	c #F6D42A",
"].	c #F3E01A",
"^.	c #F5E10E",
"/.	c #FBDD2D",
"(.	c #F9EA2F",
"_.	c #FFEC0A",
":.	c #FFE512",
"<.	c #FEE413",
"[.	c #F7E94B",
"}.	c #FDE008",
"|.	c #FFED07",
"1.	c #F3D529",
"2.	c #FCD120",
"3.	c #FFE711",
"4.	c #FAE512",
"5.	c #FFCB31",
"6.	c #FEC93B",
"7.	c #FFC529",
"8.	c #FEE54D",
"9.	c #F9EA49",
"0.	c #FFE501",
"a.	c #CCBF1B",
"b.	c #F8DC21",
"c.	c #FCEC73",
"d.	c #F8E024",
"e.	c #FADC0A",
"f.	c #F9DB19",
"g.	c #FBBA3A",
"h.	c #FFE70E",
"i.	c #F7CD23",
"j.	c #FDBD42",
"k.	c #FAB742",
"l.	c #FBC332",
"m.	c #FFE556",
"n.	c #FDEE6F",
"o.	c #FDE53D",
"p.	c #FFE60F",
"q.	c #FFE72B",
"r.	c #F9EE7A",
"s.	c #FAE944",
"t.	c #FBCA18",
"u.	c #F3D31C",
"v.	c #FFAD37",
"w.	c #FBCE1D",
"x.	c #F3C12C",
"y.	c #FDAB3D",
"z.	c #FDAC39",
"A.	c #FAC527",
"B.	c #F7E61A",
"C.	c #F4DF24",
"D.	c #FED809",
"E.	c #F6DA0D",
"F.	c #F8DF3C",
"G.	c #FFE651",
"H.	c #FCD812",
"I.	c #F5AA35",
"J.	c #FBA63B",
"K.	c #FFA847",
"L.	c #FCA438",
"M.	c #FEAC40",
"N.	c #F7A537",
"O.	c #F9BB2C",
"P.	c #F6CE0D",
"Q.	c #FAD703",
"R.	c #FFD800",
"S.	c #FACB03",
"T.	c #F7D501",
"U.	c #FFD30E",
"V.	c #FEA235",
"W.	c #F49C32",
"X.	c #FA9829",
"Y.	c #FA9D35",
"Z.	c #F59838",
"`.	c #FA9731",
" +	c #FE9E38",
".+	c #F6A329",
"++	c #FCCD01",
"@+	c #FCD403",
"#+	c #F9CF00",
"$+	c #FBCA0C",
"%+	c #F7982A",
"&+	c #FE8C34",
"*+	c #F28C2A",
"=+	c #F38C30",
"-+	c #F5913B",
";+	c #F6892E",
">+	c #FF8839",
",+	c #F4842E",
"'+	c #F8B317",
")+	c #F9D306",
"!+	c #FFD306",
"~+	c #FAA40F",
"{+	c #FF752D",
"]+	c #FC8123",
"^+	c #FF7930",
"/+	c #FF761E",
"(+	c #FF7A27",
"_+	c #FC7A2C",
":+	c #FA8825",
"<+	c #FFD607",
"                                                                ",
"                                                                ",
"                                                                ",
"                                                                ",
"                                                                ",
"                                                                ",
"                                                                ",
"                                                                ",
"                                                                ",
"                                                                ",
"                                                                ",
"                                  .                             ",
"                                + @ #                           ",
"                              $ % & * =                         ",
"                            - ; > , ' )                         ",
"                          ! ~ { ] ^ / (                         ",
"                      _ : < [ } | 1 2 3 4                       ",
"                5 6 7 8 9 0 a b c d e f g                       ",
"              h i j k l m n o p q r s t u                       ",
"              v w x y z [ A B C D E F G H                       ",
"              I J K L M N O P Q R S T U V                       ",
"              W X Y Z `  ...+.@.#.$.%.&.*.                      ",
"            =.-.;.>.,.'.).!.~.{.].^./.(._.                      ",
"            :.<.[.}.|.1.2.3.4.5.6.7.8.9.0.a.                    ",
"              b.c.d.e.f.g.h.i.j.k.l.m.n.o.p.                    ",
"              q.r.s.t.u.v.w.x.y.z.A.B.C.D.                      ",
"              E.F.G.H.I.J.K.L.M.N.O.P.Q.R.                      ",
"              S.T.U.Q.V.W.X.Y.Z.`. +.+++@+                      ",
"                #+$+%+&+*+=+-+;+>+,+'+)+!+                      ",
"                    ~+{+]+^+/+(+_+:+<+                          ",
"                                                                ",
"                                                                "};
