/* XPM */
static char * bomb_2_xpm[] = {
"32 32 397 2",
"  	c #C8A2C8",
". 	c #F3BB32",
"+ 	c #EEAA2B",
"@ 	c #F5B645",
"# 	c #F8E682",
"$ 	c #FDEC90",
"% 	c #F2EF86",
"& 	c #F6CB5B",
"* 	c #F6B125",
"= 	c #F7B23B",
"- 	c #EBA523",
"; 	c #F4C748",
"> 	c #F5C545",
", 	c #EEA330",
"' 	c #E7A219",
") 	c #F5A52A",
"! 	c #E69220",
"~ 	c #EEA534",
"{ 	c #F8B54D",
"] 	c #F7D375",
"^ 	c #FCC75D",
"/ 	c #EEB13E",
"( 	c #F39B37",
"_ 	c #ED9821",
": 	c #F69827",
"< 	c #EE9A26",
"[ 	c #F19C28",
"} 	c #EC972C",
"| 	c #F2A231",
"1 	c #EB9F31",
"2 	c #F8A338",
"3 	c #F39426",
"4 	c #F0A138",
"5 	c #F9D16F",
"6 	c #EFC559",
"7 	c #ED9028",
"8 	c #EC9A2E",
"9 	c #EE8B26",
"0 	c #ED9D3A",
"a 	c #FCD16B",
"b 	c #F3EB89",
"c 	c #F9C95D",
"d 	c #EE9628",
"e 	c #E59E36",
"f 	c #F49334",
"g 	c #EB962B",
"h 	c #F0923B",
"i 	c #F49424",
"j 	c #EC8A1F",
"k 	c #EA8A26",
"l 	c #FB9332",
"m 	c #F1D46E",
"n 	c #FDFC9F",
"o 	c #FCFFAA",
"p 	c #F6BF4B",
"q 	c #F08422",
"r 	c #FB9A3B",
"s 	c #F8EF88",
"t 	c #EFFA9E",
"u 	c #F6FE97",
"v 	c #FCF99C",
"w 	c #F6DE7E",
"x 	c #FBF49C",
"y 	c #EED477",
"z 	c #EF9235",
"A 	c #F2892E",
"B 	c #F08D2F",
"C 	c #EE7725",
"D 	c #F4913E",
"E 	c #FCDD80",
"F 	c #F0F291",
"G 	c #FFF39A",
"H 	c #FCF08E",
"I 	c #F9FC93",
"J 	c #F7D37D",
"K 	c #EB6F17",
"L 	c #F3CF71",
"M 	c #FAFF9A",
"N 	c #FFF08C",
"O 	c #FFEF9F",
"P 	c #F1F18F",
"Q 	c #FCF694",
"R 	c #F9F091",
"S 	c #F5EE93",
"T 	c #EF8C31",
"U 	c #EA7F21",
"V 	c #F28533",
"W 	c #E76C1F",
"X 	c #F57E2A",
"Y 	c #F3D573",
"Z 	c #F8FD99",
"` 	c #FBF192",
" .	c #FEF191",
"..	c #F9F793",
"+.	c #FDF894",
"@.	c #F5DE80",
"#.	c #EAD071",
"$.	c #FFEF8D",
"%.	c #FAF597",
"&.	c #F8F491",
"*.	c #F9F490",
"=.	c #F3F391",
"-.	c #F2F698",
";.	c #F6F394",
">.	c #F2DC76",
",.	c #F77527",
"'.	c #F1752F",
").	c #F16E20",
"!.	c #E86515",
"~.	c #F36D26",
"{.	c #F17630",
"].	c #FEE68C",
"^.	c #F5F18E",
"/.	c #FEF596",
"(.	c #FFF798",
"_.	c #F6F291",
":.	c #F8F395",
"<.	c #FFF69A",
"[.	c #FDF296",
"}.	c #FFF699",
"|.	c #F7F390",
"1.	c #F9F395",
"2.	c #FAEF96",
"3.	c #FEF29C",
"4.	c #F8EE97",
"5.	c #F7F095",
"6.	c #F5904C",
"7.	c #F07C2F",
"8.	c #F9C267",
"9.	c #F58748",
"0.	c #F8631F",
"a.	c #EE612B",
"b.	c #F7DF7F",
"c.	c #FFF395",
"d.	c #FAF192",
"e.	c #FAF494",
"f.	c #FAF091",
"g.	c #FDF18F",
"h.	c #F7EF8D",
"i.	c #F4F192",
"j.	c #F9F095",
"k.	c #FBEC8F",
"l.	c #F8EC8A",
"m.	c #FCFD95",
"n.	c #F6B863",
"o.	c #EF561C",
"p.	c #F6D578",
"q.	c #F5FFA0",
"r.	c #FF8A41",
"s.	c #EA732F",
"t.	c #F7D47A",
"u.	c #F7EC83",
"v.	c #FDED8E",
"w.	c #FAEB8C",
"x.	c #F8E98A",
"y.	c #FDED8D",
"z.	c #FDEB89",
"A.	c #FCEA88",
"B.	c #FEEA87",
"C.	c #F9E17F",
"D.	c #F9E08C",
"E.	c #FBE38B",
"F.	c #F6E788",
"G.	c #F1E486",
"H.	c #F7E990",
"I.	c #FCED92",
"J.	c #FDEE8F",
"K.	c #E6A24F",
"L.	c #E25520",
"M.	c #EB7535",
"N.	c #EF9652",
"O.	c #FBB560",
"P.	c #ECC76E",
"Q.	c #FFF694",
"R.	c #FFE187",
"S.	c #F9E284",
"T.	c #FFE78A",
"U.	c #FDE487",
"V.	c #FBE788",
"W.	c #FDE686",
"X.	c #FDE384",
"Y.	c #FFE385",
"Z.	c #F7DD7E",
"`.	c #F5DB84",
" +	c #FDD57E",
".+	c #F6D274",
"++	c #FFDE7D",
"@+	c #FBE985",
"#+	c #FBE582",
"$+	c #FFE07F",
"%+	c #DE8332",
"&+	c #D85B21",
"*+	c #D95B21",
"=+	c #E15520",
"-+	c #E7712B",
";+	c #FFD37C",
">+	c #F6DD83",
",+	c #FFE58A",
"'+	c #FCDE7E",
")+	c #FFE081",
"!+	c #FCE386",
"~+	c #FDE488",
"{+	c #F8DD84",
"]+	c #F8DD86",
"^+	c #F8E088",
"/+	c #FBE285",
"(+	c #FCD77E",
"_+	c #F6D576",
":+	c #FFDE73",
"<+	c #FCDE62",
"[+	c #FAD553",
"}+	c #FFDA5B",
"|+	c #EEAA3B",
"1+	c #D7561C",
"2+	c #CD5F24",
"3+	c #D55623",
"4+	c #BA4416",
"5+	c #F0BC66",
"6+	c #FFEC8F",
"7+	c #FADD79",
"8+	c #FED579",
"9+	c #FEDB7D",
"0+	c #FDDC7D",
"a+	c #FEDA7C",
"b+	c #FDDA7C",
"c+	c #FBDD7D",
"d+	c #FADC7C",
"e+	c #FBD779",
"f+	c #F9D67A",
"g+	c #FFD97D",
"h+	c #F9DC76",
"i+	c #F6D15F",
"j+	c #F6CB4B",
"k+	c #FFCD49",
"l+	c #FFD451",
"m+	c #F3CA4C",
"n+	c #C45D22",
"o+	c #CB5923",
"p+	c #BE4C18",
"q+	c #CC682C",
"r+	c #F1C266",
"s+	c #FBDB76",
"t+	c #FFD27C",
"u+	c #F7D679",
"v+	c #F8D776",
"w+	c #FFD172",
"x+	c #FFCF69",
"y+	c #F8D265",
"z+	c #F7CF5E",
"A+	c #FDC558",
"B+	c #F7CA55",
"C+	c #FFC653",
"D+	c #F9C649",
"E+	c #FFCC4B",
"F+	c #FAC946",
"G+	c #FFC84A",
"H+	c #FFCB51",
"I+	c #EBB43F",
"J+	c #BF5521",
"K+	c #C8572B",
"L+	c #B6471A",
"M+	c #AF5226",
"N+	c #F1B85F",
"O+	c #FDD46A",
"P+	c #F5C771",
"Q+	c #FFC75E",
"R+	c #FDC439",
"S+	c #FFC44C",
"T+	c #FCC046",
"U+	c #F9C444",
"V+	c #F8CA41",
"W+	c #FCC54E",
"X+	c #FEC34B",
"Y+	c #FAC13E",
"Z+	c #FDC450",
"`+	c #FCBA4A",
" @	c #FFC043",
".@	c #FFC540",
"+@	c #C1702E",
"@@	c #B6461E",
"#@	c #BC691B",
"$@	c #FDBB40",
"%@	c #FDBD3F",
"&@	c #FDC53A",
"*@	c #F3E23A",
"=@	c #FBE947",
"-@	c #FDD13C",
";@	c #FFC343",
">@	c #F4C43E",
",@	c #F7C13A",
"'@	c #FEC739",
")@	c #FFC83F",
"!@	c #FFBE43",
"~@	c #FFCF48",
"{@	c #EBBE41",
"]@	c #B2511C",
"^@	c #EC5937",
"/@	c #E2843A",
"(@	c #FFF548",
"_@	c #FAEE36",
":@	c #FBD73B",
"<@	c #F9B93E",
"[@	c #FFC040",
"}@	c #FEBE42",
"|@	c #FFBF39",
"1@	c #FBB93E",
"2@	c #ECD539",
"3@	c #FFF93B",
"4@	c #C9C641",
"5@	c #ECCC39",
"6@	c #FCE63A",
"7@	c #F6D741",
"8@	c #F7B336",
"9@	c #FFB23C",
"0@	c #FFB341",
"a@	c #F9B840",
"b@	c #FEB044",
"c@	c #F6DE40",
"d@	c #FFEF37",
"e@	c #F8E133",
"f@	c #F5B73C",
"g@	c #FFB145",
"h@	c #FAAF3C",
"i@	c #F3B23C",
"j@	c #FBAB3C",
"k@	c #F9B73C",
"l@	c #FCE533",
"m@	c #FAE735",
"n@	c #FDF139",
"o@	c #F3C333",
"p@	c #FB9D39",
"q@	c #FBA632",
"r@	c #FAA634",
"s@	c #FFA13B",
"t@	c #FABE39",
"u@	c #FDEA36",
"v@	c #F8CE2E",
"w@	c #F69C3B",
"x@	c #F99E33",
"y@	c #F79F35",
"z@	c #F69A37",
"A@	c #F99F2F",
"B@	c #FCD933",
"C@	c #FFE12F",
"D@	c #FB9830",
"E@	c #F88F34",
"F@	c #F5922C",
"G@	c #FF8D36",
"H@	c #FB9334",
"I@	c #F6D32F",
"J@	c #FCE32F",
"K@	c #F5AD37",
"L@	c #F67D2A",
"M@	c #F9882C",
"N@	c #F2822E",
"O@	c #FB9A33",
"P@	c #FCD633",
"Q@	c #F6C522",
"R@	c #FAA531",
"S@	c #F97825",
"T@	c #FD7927",
"U@	c #F77128",
"V@	c #FFAA29",
"W@	c #F6DE26",
"X@	c #F9C825",
"Y@	c #FB722A",
"Z@	c #F86925",
"`@	c #FA6B29",
" #	c #F46A2B",
".#	c #F4B52A",
"+#	c #FDE428",
"@#	c #94833E",
"##	c #877E47",
"$#	c #FFD622",
"%#	c #FB7325",
"&#	c #F05A27",
"*#	c #F45F27",
"=#	c #F7641F",
"-#	c #F9BF20",
";#	c #FAD223",
">#	c #566852",
",#	c #4B4F5B",
"'#	c #E4D22A",
")#	c #F99B27",
"!#	c #F1451D",
"~#	c #F45416",
"{#	c #F84D21",
"]#	c #FF932A",
"^#	c #DAB92C",
"/#	c #67414E",
"(#	c #B9582D",
"_#	c #FF9C13",
":#	c #FF4319",
"<#	c #EB3726",
"[#	c #E82C2D",
"}#	c #FCB00D",
"|#	c #BDAF34",
"                                                                ",
"                                                                ",
"                            .                                   ",
"                      + @ # $ % & * = - ; > , '                 ",
"                    ) ! ~ { ] ^ / ( _ : < [ } | 1               ",
"                2 3 4 5 6 7 8 9 0 a b c d e f g h i             ",
"              j k l m n o p q r s t u v w x y z A B             ",
"            C D E F G H I J K L M N O P Q R S T U V W           ",
"            X Y Z `  ...+.@.#.$.%.&.*.=.-.;.>.,.'.).!.          ",
"          ~.{.].^./.(._.:.<.[.}.|.1.2.3.4.5.(.6.7.8.9.          ",
"          0.a.b.c.R R ` d.e.e.f.g.h.i.j.k.l.m.n.o.p.q.r.        ",
"          s.t.u.v.w.x.y.z.A.B.C.D.E.F.G.H.I.J.K.L.M.N.O.        ",
"          P.Q.R.S.T.U.V.W.X.Y.Z.`. +.+++@+#+$+%+&+*+=+-+        ",
"          ;+>+,+'+)+E !+~+{+]+^+/+(+_+:+<+[+}+|+1+2+3+4+        ",
"          5+6+7+8+9+0+a+b+c+d+e+f+g+h+i+j+k+l+m+n+o+p+          ",
"          q+r+s+t+u+v+w+x+y+z+A+B+C+D+E+F+G+H+I+J+K+L+          ",
"            M+N+O+P+Q+R+S+T+U+V+W+X+Y+Z+`+ @.@+@@@              ",
"              #@$@%@&@*@=@-@;@>@,@'@)@!@~@{@]@                  ",
"                  ^@/@(@_@:@<@[@}@|@1@2@3@4@                    ",
"                      5@6@7@8@9@0@a@b@c@d@                      ",
"                        e@f@g@h@i@j@k@l@m@                      ",
"                        n@o@p@q@r@s@t@u@                        ",
"                          v@w@x@y@z@A@B@                        ",
"                          C@D@E@F@G@H@I@                        ",
"                          J@K@L@M@N@O@P@                        ",
"                          Q@R@S@T@U@V@W@                        ",
"                          X@Y@Z@`@ #.#+#@#                      ",
"                        ##$#%#&#*#=#-#;#>#                      ",
"                        ,#'#)#!#~#{#]#^#/#                      ",
"                          (#_#:#<#[#}#|#                        ",
"                                                                ",
"                                                                "};
