/* XPM */
static char * bomb_xpm[] = {
"32 32 285 2",
"  	c #C8A2C8",
". 	c #000000",
"+ 	c #020201",
"@ 	c #020101",
"# 	c #0D0B08",
"$ 	c #3A3024",
"% 	c #564835",
"& 	c #685740",
"* 	c #31291E",
"= 	c #241E16",
"- 	c #030202",
"; 	c #403527",
"> 	c #7B674C",
", 	c #B49770",
"' 	c #B2956E",
") 	c #91795A",
"! 	c #433729",
"~ 	c #322A1F",
"{ 	c #040302",
"] 	c #0C0004",
"^ 	c #160109",
"/ 	c #0A0004",
"( 	c #0A0906",
"_ 	c #4D4030",
": 	c #B1946E",
"< 	c #AA8F6A",
"[ 	c #AF926C",
"} 	c #816C50",
"| 	c #554735",
"1 	c #231D16",
"2 	c #221C15",
"3 	c #030302",
"4 	c #24020E",
"5 	c #8F0B39",
"6 	c #A80D43",
"7 	c #4E061F",
"8 	c #564936",
"9 	c #AC906B",
"0 	c #B69871",
"a 	c #7D694E",
"b 	c #32291F",
"c 	c #090705",
"d 	c #0C0105",
"e 	c #2C0311",
"f 	c #69082A",
"g 	c #780930",
"h 	c #7C0932",
"i 	c #6F082C",
"j 	c #630728",
"k 	c #CD1052",
"l 	c #A40B41",
"m 	c #573530",
"n 	c #99815F",
"o 	c #C0A177",
"p 	c #6A5942",
"q 	c #12100B",
"r 	c #130107",
"s 	c #4F061F",
"t 	c #910B3A",
"u 	c #B90E4A",
"v 	c #C80F50",
"w 	c #CC1052",
"x 	c #BE0F4C",
"y 	c #770930",
"z 	c #340415",
"A 	c #6A082B",
"B 	c #B10E47",
"C 	c #8C0A38",
"D 	c #695540",
"E 	c #A98F69",
"F 	c #867254",
"G 	c #521525",
"H 	c #380316",
"I 	c #030001",
"J 	c #380416",
"K 	c #960C3C",
"L 	c #C60F50",
"M 	c #CB1052",
"N 	c #C91051",
"O 	c #C81051",
"P 	c #CA1051",
"Q 	c #9B0C3E",
"R 	c #42051B",
"S 	c #3F0419",
"T 	c #68082A",
"U 	c #75092F",
"V 	c #A80C44",
"W 	c #721130",
"X 	c #5A3431",
"Y 	c #4A1B24",
"Z 	c #AB0C44",
"` 	c #990C3D",
" .	c #0F0106",
"..	c #080003",
"+.	c #49051D",
"@.	c #A10C40",
"#.	c #C81050",
"$.	c #AA0D45",
"%.	c #590624",
"&.	c #2F0313",
"*.	c #620728",
"=.	c #A70D43",
"-.	c #C40F4E",
";.	c #A10A40",
">.	c #B50D48",
",.	c #A00C40",
"'.	c #120107",
").	c #060002",
"!.	c #4D061F",
"~.	c #7D0932",
"{.	c #C60F4F",
"].	c #930B3B",
"^.	c #41051A",
"/.	c #330314",
"(.	c #7A0931",
"_.	c #A40D42",
":.	c #7D0933",
"<.	c #C00F4D",
"[.	c #3D0418",
"}.	c #760930",
"|.	c #C30F4E",
"1.	c #C50F4F",
"2.	c #42051A",
"3.	c #920B3A",
"4.	c #790931",
"5.	c #970B3D",
"6.	c #890A37",
"7.	c #44051B",
"8.	c #1B020B",
"9.	c #1F020C",
"0.	c #73092E",
"a.	c #66072A",
"b.	c #B80E4A",
"c.	c #810A34",
"d.	c #4C031D",
"e.	c #3C071A",
"f.	c #650B2A",
"g.	c #6B0529",
"h.	c #590623",
"i.	c #B20E47",
"j.	c #050002",
"k.	c #580723",
"l.	c #6F082D",
"m.	c #660729",
"n.	c #A10C41",
"o.	c #CA0F51",
"p.	c #CA1152",
"q.	c #D1537F",
"r.	c #D1A2B3",
"s.	c #C3A2AE",
"t.	c #B76481",
"u.	c #C01A55",
"v.	c #CB0E50",
"w.	c #22020D",
"x.	c #AB0D45",
"y.	c #C80D4F",
"z.	c #D2386E",
"A.	c #F6D4E0",
"B.	c #FDEFF5",
"C.	c #FEEFF4",
"D.	c #FCE9F0",
"E.	c #E898B5",
"F.	c #CB1D5A",
"G.	c #CB0F51",
"H.	c #72092E",
"I.	c #72082E",
"J.	c #AF0D46",
"K.	c #C80C4E",
"L.	c #DA5C88",
"M.	c #FAEAF0",
"N.	c #FBEBF1",
"O.	c #DF7097",
"P.	c #CA0E50",
"Q.	c #19020A",
"R.	c #070002",
"S.	c #650829",
"T.	c #6B082B",
"U.	c #AD0D46",
"V.	c #D54779",
"W.	c #F8E2EA",
"X.	c #FBEEF3",
"Y.	c #EEB6CA",
"Z.	c #CB1958",
"`.	c #C10E4D",
" +	c #140108",
".+	c #67082A",
"++	c #A60D43",
"@+	c #CB1A58",
"#+	c #EBA9C0",
"$+	c #FBEFF3",
"%+	c #FBEDF3",
"&+	c #F1C1D2",
"*+	c #CC1E5B",
"=+	c #C90F50",
"-+	c #530621",
";+	c #1E020C",
">+	c #66082A",
",+	c #650729",
"'+	c #990C3E",
")+	c #C80E4F",
"!+	c #D1346B",
"~+	c #EEB4C9",
"{+	c #E385A6",
"]+	c #C91151",
"^+	c #CB1051",
"/+	c #620727",
"(+	c #21020D",
"_+	c #860A36",
":+	c #C70F50",
"<+	c #CE2963",
"[+	c #DF749A",
"}+	c #E58BAB",
"|+	c #DD6992",
"1+	c #640828",
"2+	c #1C020B",
"3+	c #BB0E4B",
"4+	c #CB1B59",
"5+	c #E68FAE",
"6+	c #F0BCCF",
"7+	c #DF7198",
"8+	c #C91353",
"9+	c #590723",
"0+	c #100106",
"a+	c #71082D",
"b+	c #660829",
"c+	c #D1336A",
"d+	c #F7DBE5",
"e+	c #FCEFF4",
"f+	c #F9E5ED",
"g+	c #DA5B87",
"h+	c #C80D4E",
"i+	c #600726",
"j+	c #C10F4E",
"k+	c #CB1C5A",
"l+	c #EDAFC5",
"m+	c #FCF0F4",
"n+	c #FCF1F5",
"o+	c #E384A6",
"p+	c #B30E48",
"q+	c #3E0419",
"r+	c #9D0C3F",
"s+	c #D1356C",
"t+	c #E89BB6",
"u+	c #ECACC3",
"v+	c #D34074",
"w+	c #870A36",
"x+	c #070003",
"y+	c #170109",
"z+	c #69082B",
"A+	c #B40E48",
"B+	c #C91253",
"C+	c #CA1655",
"D+	c #47051C",
"E+	c #BC0F4C",
"F+	c #8B0B38",
"G+	c #70082D",
"H+	c #820A34",
"I+	c #BC0E4B",
"J+	c #2E0312",
"K+	c #23020E",
"L+	c #6D082C",
"M+	c #B20E48",
"N+	c #010000",
"O+	c #2B0311",
"P+	c #71082E",
"Q+	c #BD0F4C",
"R+	c #560622",
"S+	c #6C082B",
"T+	c #7B0932",
"U+	c #9E0C40",
"V+	c #BA0E4B",
"W+	c #48051D",
"X+	c #76092F",
"Y+	c #7B0931",
"Z+	c #3F0519",
"`+	c #610727",
" @	c #4F0620",
".@	c #25020F",
"+@	c #020000",
"@@	c #020001",
"#@	c #20020D",
"$@	c #290310",
"%@	c #2A0311",
"&@	c #25020E",
"*@	c #180109",
"                                                    . + + @ .   ",
"                                                # $ % & * = + . ",
"                                            - ; > , ' ) ! ~ {   ",
"                                    ] ^ / ( _ : < [ } | 1 2 3   ",
"                          . .   . 4 5 6 7 8 9 0 a b c . . . .   ",
"                  d e 7 f g h i 4 j k l m n o p q               ",
"              r s t u v w k x y z A B C D E F G H               ",
"          I J K L M N N O P Q R S T U V W X Y Z `  .            ",
"        ..+.@.M N #.N N N P $.%.&.*.f =.-.;.>.w ,.'.            ",
"      ).!.~.B P N N N N N N {.].^./.(.L _.:.<.{.7 .             ",
"    . [.}.h |.N N N N N N #.N 1.Q +.2.3.4.5.M 6.7.8.            ",
"    9.0.a.t N N N N N N N N #.N N b.c.d.e.f.g.h.i.i j.          ",
"  j.k.l.m.n.P N N N N N N N N O N o.p.q.r.s.t.u.v.b.&.          ",
"  w.U m.T x.P N N N N N N N N N N y.z.A.B.C.D.E.F.G.H.I         ",
". +.I.m.A J.P N N N N N N N N N N K.L.M.N.M.N.M.O.P.6 Q.        ",
"R.S.T.m.f U.P N N N N N N N N N N K.V.W.N.N.M.X.Y.Z.`.J         ",
" +H..+m..+++P N N N N N N N N N N v @+#+$+N.M.%+&+*+=+-+        ",
";+}.m.>+,+'+P O N N N N N N N N N N )+!+~+M.X.N.{+]+^+/+        ",
"(+y m..+,+_+:+N N N N N N N N N N N N y.<+[+}+|+*+v M 1+        ",
"2+}..+.+m.I.3+N N N N N N N N N N N v 4+5+6+7+8+)+N P 9+        ",
"0+a+f b+m..+,.P #.N N N N N N N N N y.c+d+e+f+g+h+N 1.^.        ",
"I i+l.m..+,+h j+N O N N N N N N N N v k+l+m+n+o+y.P p+w.        ",
"  q+4.,+.+m..+r+N N N N N N N N N N N )+s+t+u+v+)+w w+x+        ",
"  y+U z+m..+m.I.A+P #.N N N N N N N N N )+B+C+v N |.2.          ",
"    D+4.m..+.+,+:.E+P #.N N N N N N N N N v v v w F+d           ",
"    0+T.G+m..+m.m.H+I+P N O N N N N N N N N v P A+J+            ",
"      K+g L+m..+m.m.h M+N N O N N N N N N v P <.!.N+            ",
"        O+g P+m.m.m.,+G+Q <.P N N O N O N ^+Q+R+j.              ",
"          K+S+T+A ,+m.m..+(.U+V+:+P N P ^+=.7.I                 ",
"            0+W+X+Y+G+f m.,+m.P+w+,.u B i (+                    ",
"                ^ Z+`+0.4.(.(.(.X+f  @.@+@                      ",
"                    @@'.#@$@%@&@*@..                            "};
